<?xml version="1.0" encoding="UTF-8" standalone="no"?>
<!-- Created with Inkscape (http://www.inkscape.org/) -->

<svg
   width="185.60516mm"
   height="213.34174mm"
   viewBox="0 0 185.60516 213.34174"
   version="1.1"
   id="svg1"
   xml:space="preserve"
   inkscape:version="1.4.2 (f4327f4, 2025-05-13)"
   sodipodi:docname="404.svg"
   xmlns:inkscape="http://www.inkscape.org/namespaces/inkscape"
   xmlns:sodipodi="http://sodipodi.sourceforge.net/DTD/sodipodi-0.dtd"
   xmlns="http://www.w3.org/2000/svg"
   xmlns:svg="http://www.w3.org/2000/svg"><sodipodi:namedview
     id="namedview1"
     pagecolor="#ffffff"
     bordercolor="#000000"
     borderopacity="0.25"
     inkscape:showpageshadow="2"
     inkscape:pageopacity="0.0"
     inkscape:pagecheckerboard="0"
     inkscape:deskcolor="#d1d1d1"
     inkscape:document-units="mm"
     inkscape:zoom="0.68862935"
     inkscape:cx="350.69664"
     inkscape:cy="427.66112"
     inkscape:window-width="1920"
     inkscape:window-height="991"
     inkscape:window-x="-9"
     inkscape:window-y="-9"
     inkscape:window-maximized="1"
     inkscape:current-layer="layer1" /><defs
     id="defs1" /><g
     inkscape:label="Capa 1"
     inkscape:groupmode="layer"
     id="layer1"
     transform="translate(-12.277817,-35.423508)"><path
       style="fill:#000000"
       d="m 101.06498,248.30701 c -8.855413,-1.84552 -14.938053,-7.08362 -18.759393,-16.15476 -1.65066,-3.91835 -2.27428,-6.40076 -3.21098,-12.78165 -0.3373,-2.29774 -0.4782,-12.46566 -0.21007,-15.15971 0.15328,-1.54005 0.12873,-1.65419 -0.32484,-1.51023 -0.60137,0.19087 -1.1389,0.30809 -3.84022,0.83746 -1.68891,0.33098 -3.42668,0.39162 -8.59896,0.30008 -6.2171,-0.11002 -6.54994,-0.14247 -8.13593,-0.79321 l -1.65365,-0.6785 v 6.44223 c 0,6.09845 0.0273,6.45684 0.51177,6.71612 0.28148,0.15064 1.81441,0.27389 3.40651,0.27389 5.41621,0 5.34277,-0.0862 5.34066,6.27071 -0.002,4.72092 -0.24308,6.25835 -1.05104,6.69076 -0.27511,0.14723 -1.92902,0.26769 -3.67536,0.26769 -1.74635,0 -3.48058,0.11612 -3.85386,0.25804 l -0.67868,0.25803 v 7.82379 7.82378 l -0.64943,0.64943 -0.64943,0.64943 h -6.06176 c -5.73189,0 -6.0997,-0.0298 -6.75891,-0.54837 l -0.69714,-0.54837 v -7.7536 c 0,-6.88722 -0.0488,-7.79419 -0.43722,-8.11674 -0.35346,-0.29356 -3.06333,-0.38847 -14.14604,-0.49542 -12.70466,-0.1226 -13.74342,-0.1669 -14.18101,-0.60476 -0.42726,-0.42752 -0.47218,-1.08388 -0.47218,-6.89907 v -6.42661 l 1.02753,-1.69988 c 0.56514,-0.93494 2.00602,-3.2477 3.20196,-5.13947 1.19594,-1.89177 2.75761,-4.37192 3.47039,-5.51144 0.71277,-1.13952 1.47454,-2.3574 1.69283,-2.7064 3.59235,-5.74364 7.74142,-12.31968 10.17312,-16.12382 1.67437,-2.61938 3.22782,-5.08843 3.45212,-5.48678 1.59049,-2.82467 4.48825,-6.8984 5.22778,-7.3493 0.79577,-0.48519 1.32197,-0.52155 7.20843,-0.49802 3.4925,0.014 6.63693,0.10565 6.98761,0.20375 0.35068,0.0981 0.85548,0.47318 1.12177,0.83352 0.4481,0.60636 0.48527,1.38929 0.49908,10.51089 0.009,5.66857 0.11631,9.85573 0.25356,9.85573 0.2576,0 3.11323,-2.31827 3.61296,-2.9331 0.21544,-0.26505 0.23327,-0.79863 0.0611,-1.8294 -0.20655,-1.23672 -0.62272,-4.37063 -1.17706,-8.86354 -1.05915,-8.58458 -1.14197,-12.07091 -0.35991,-15.15049 1.42583,-5.61455 5.31088,-9.78519 10.30891,-11.06674 1.35593,-0.34767 2.56125,-0.41421 5.81177,-0.32081 l 4.10104,0.11784 0.009,-0.68053 c 0.005,-0.37428 0.10217,-4.79672 0.21621,-9.82764 0.18068,-7.97041 0.15642,-9.18939 -0.1886,-9.47573 -0.21777,-0.18074 -2.51773,-1.04387 -5.111,-1.91808 -5.66734,-1.91048 -10.83309,-4.36224 -13.71638,-6.51007 -2.18842,-1.63019 -5.3359,-5.10944 -6.52478,-7.21254 -0.87603,-1.54967 -1.71398,-4.16298 -2.07852,-6.48228 -0.25964,-1.65196 -0.14747,-7.07206 0.15655,-7.56397 0.061,-0.0987 0.1784,-0.63987 0.26086,-1.20256 0.35058,-2.392345 1.94563,-6.396018 3.86152,-9.69263 1.83491,-3.157285 3.86533,-5.733644 6.73689,-8.548327 4.3729,-4.286293 8.53697,-6.761529 11.50721,-6.840205 l 1.56409,-0.04143 1.31291,-2.133409 c 3.76428,-6.116814 13.37398,-12.106616 22.49934,-14.024042 2.759453,-0.579815 9.294723,-0.64738 12.038553,-0.124461 5.94597,1.133183 10.26981,2.95892 14.55208,6.144593 5.42814,4.038115 9.55234,9.347635 11.17991,14.393105 0.37553,1.164167 0.81165,2.248193 0.96915,2.408947 0.1575,0.160754 1.15227,0.56351 2.21061,0.895013 1.31967,0.413356 2.12305,0.838982 2.55695,1.354644 1.22678,1.457937 1.34109,2.281157 1.31865,9.496604 -0.0189,6.084178 -0.0709,6.850828 -0.52917,7.805208 -0.62145,1.29421 -1.72079,1.88125 -4.35192,2.32387 l -1.91389,0.32196 -0.58142,1.71979 c -0.66995,1.98164 -1.07824,2.805 -2.52591,5.09384 l -1.04553,1.65303 2.21607,2.24896 c 4.30713,4.37105 7.00978,10.90035 7.72079,18.65258 0.0935,1.01895 0.21926,1.93737 0.27957,2.04095 0.0603,0.10357 0.21867,1.41326 0.3519,2.91041 0.67009,7.52961 0.82042,9.19716 0.96094,10.6596 0.0839,0.87312 0.23255,3.45279 0.33036,5.7326 0.15154,3.53251 0.25155,4.22657 0.6767,4.69635 0.27438,0.30319 0.65122,0.55126 0.83741,0.55126 0.59271,0 5.01866,3.1136 6.05231,4.25773 1.49513,1.65492 2.09122,3.1948 1.87313,4.83881 -0.25633,1.93232 -0.8052,2.9024 -2.03239,3.59213 -1.48952,0.83715 -3.43833,1.08039 -9.97715,1.24525 -7.50035,0.18911 -10.97405,-0.32036 -12.68636,-1.86064 -0.4973,-0.44734 -0.68885,-0.48832 -1.05833,-0.22639 -0.24812,0.1759 -1.16551,0.69205 -2.03863,1.14699 -0.87313,0.45494 -1.63784,0.87332 -1.69937,0.92973 -0.0615,0.0564 0.3963,0.53753 1.0174,1.06917 1.83922,1.57431 4.62926,5.25193 6.05913,7.98671 2.36987,4.53261 3.53966,8.4083 4.44403,14.72363 0.5795,4.04671 0.66883,17.64656 0.137,20.85565 -0.1887,1.13862 -0.39437,2.38878 -0.45704,2.77812 -0.0627,0.38934 -0.18378,1.00555 -0.26912,1.36935 -0.0854,0.36381 -0.203,0.91558 -0.26146,1.22616 -0.34997,1.85955 -2.23468,6.99708 -3.47688,9.47762 -3.01582,6.02231 -7.18595,10.22704 -12.25524,12.35692 -3.9876,1.67542 -6.31001,2.1167 -11.62699,2.20925 -4.07614,0.0709 -5.31193,-0.002 -7.38888,-0.43458 z m 10.82846,-14.69545 c 2.06653,-0.85974 2.7496,-1.31962 4.11752,-2.77218 2.76692,-2.93812 4.23329,-6.53651 4.75032,-11.65706 0.0986,-0.97668 0.21972,-2.1673 0.26912,-2.64583 0.0494,-0.47853 0.0963,-3.59855 0.10423,-6.93337 0.0126,-5.3069 -0.19681,-9.01413 -0.6365,-11.26689 -0.071,-0.3638 -0.19896,-1.01865 -0.28435,-1.45521 -0.57761,-2.95296 -2.48186,-7.20211 -3.77914,-8.43275 l -0.80097,-0.75983 0.0481,5.91921 c 0.0541,6.65511 -0.14597,7.91835 -1.35066,8.52781 -2.06145,1.04291 -10.72123,2.6459 -16.309933,3.0191 -2.82177,0.18843 -2.8965,0.20981 -3.07503,0.87981 -0.36845,1.38266 -0.55395,10.40447 -0.26493,12.88423 0.95269,8.17381 4.29773,13.34946 9.803883,15.16915 1.1715,0.38716 6.09358,0.0708 7.40833,-0.47619 z M 41.980137,204.18392 c 0.0674,-11.21281 0.0575,-11.46762 -0.41992,-10.84792 -0.2689,0.34903 -1.48165,2.18242 -2.695,4.07419 -3.52204,5.4913 -10.41057,16.31257 -11.07674,17.40058 l -0.61009,0.99641 7.36638,-0.0704 7.36638,-0.0704 z m 60.388303,-3.23417 c 2.81908,-0.37872 7.59878,-1.50082 8.97086,-2.10603 l 1.16564,-0.51415 -0.18562,-3.89928 c -0.10209,-2.1446 -0.23628,-4.37552 -0.2982,-4.9576 -0.0619,-0.58209 -0.18374,-1.71318 -0.2707,-2.51354 -0.087,-0.80037 -0.21652,-2.05052 -0.2879,-2.77813 -0.0714,-0.7276 -0.21197,-1.40064 -0.31244,-1.49564 -0.20319,-0.19212 -11.711873,0.2268 -14.205603,0.51709 l -1.5875,0.1848 -0.08,1.39029 c -0.044,0.76466 0.10482,2.46136 0.33073,3.77043 0.67569,3.91541 0.76458,3.72979 -2.84907,5.94946 -3.28418,2.01729 -4.48971,3.49754 -3.84075,4.716 0.56654,1.06372 1.53042,1.50699 4.45473,2.04863 1.3469,0.24947 6.02225,0.0872 8.995833,-0.31233 z m -30.956253,-1.04201 c 1.23693,-0.15468 3.2008,-0.45787 4.36416,-0.67374 4.08138,-0.75735 4.24629,-1.1093 4.20195,-8.96756 -0.0181,-3.20146 -0.13846,-6.53521 -0.26754,-7.40834 l -0.23469,-1.5875 -1.18767,0.0216 c -0.65322,0.0119 -2.67595,0.10201 -4.49496,0.20033 -1.81901,0.0983 -4.79304,0.24472 -6.60896,0.32533 -2.11557,0.0939 -3.37352,0.25958 -3.50168,0.46114 -0.3913,0.61541 -0.19868,3.07121 0.43226,5.51112 0.93164,3.60275 0.90123,3.66911 -2.41406,5.26822 -4.37543,2.11047 -6.09643,4.2937 -4.51016,5.72155 0.93027,0.83737 1.43017,0.95241 4.96093,1.14162 5.33826,0.28608 6.88135,0.28379 9.26042,-0.0137 z m 15.06274,-20.74791 c 0.75458,-1.27753 1.3093,-2.4861 1.23271,-2.6857 -0.15595,-0.40639 -0.67106,-0.43921 -3.02747,-0.19292 l -1.62631,0.16999 v 3.10038 c 0,1.70521 0.0791,3.67724 0.1757,4.3823 l 0.17571,1.28193 0.84884,-1.86659 c 0.46686,-1.02662 1.46623,-2.91185 2.22082,-4.18939 z m 23.507253,-0.55678 c 0.59629,-0.17418 0.60201,-0.21876 0.57474,-4.48222 -0.031,-4.8395 0.24259,-5.9471 1.46881,-5.9471 0.72221,0 1.09821,0.58227 1.83834,2.84679 0.51633,1.57976 0.96427,1.91571 2.55437,1.91571 3.30156,0 7.86735,-1.64261 9.90347,-3.56292 0.93424,-0.8811 0.97074,-0.97971 0.79544,-2.14873 -0.26693,-1.77999 -0.9279,-8.08547 -1.11635,-10.64954 -0.10481,-1.42619 -0.28233,-2.25211 -0.50219,-2.33648 -0.18703,-0.0718 -2.04484,0.35123 -4.12845,0.94001 -2.0836,0.58878 -4.47091,1.20172 -5.30512,1.36209 -1.70787,0.32833 -1.94329,0.53455 -1.51783,1.32953 0.16346,0.30542 0.23125,0.72717 0.15064,0.93722 -0.11751,0.30624 -0.43021,0.22182 -1.57812,-0.42602 -1.75501,-0.99046 -4.52815,-1.51007 -8.35099,-1.56473 -3.07565,-0.044 -4.76196,0.35622 -6.981143,1.65674 -2.4179,1.41699 -3.20831,3.44247 -3.47564,8.90658 -0.16406,3.35333 0.15325,10.706 0.47595,11.0287 0.11245,0.11245 0.82224,0.28821 1.57729,0.39058 1.61877,0.21945 12.742553,0.0592 13.616783,-0.19621 z M 74.134597,177.9529 c 1.34033,-0.15125 2.61556,-0.31072 2.83384,-0.35439 2.63213,-0.52652 2.45205,-0.4091 2.27977,-1.48651 -0.0869,-0.54343 -0.23697,-2.72598 -0.33348,-4.85011 -0.18908,-4.16122 -0.0684,-4.67566 1.09642,-4.67566 0.88488,0 1.14248,0.47352 1.71496,3.15242 0.28572,1.33698 0.58931,2.54386 0.67465,2.68194 0.28642,0.46345 2.89409,0.21368 7.17336,-0.68708 l 0.83173,-0.17507 0.11442,-3.87517 c 0.0939,-3.17917 0.25038,-4.38504 0.87138,-6.71407 0.41633,-1.5614 0.70494,-2.88901 0.64135,-2.95024 -0.0636,-0.0612 -1.48482,-0.25129 -3.15831,-0.42233 -1.67349,-0.17105 -4.3524,-0.60316 -5.95313,-0.96025 -10.54557,-2.3525 -17.10395,-0.76919 -19.84319,4.79048 -0.35849,0.7276 -0.85198,2.51354 -1.09664,3.96875 -0.38595,2.29549 -0.40395,3.11879 -0.13594,6.2177 0.51642,5.97125 0.52193,5.98432 2.62014,6.21308 0.83727,0.0913 1.76043,0.20276 2.05147,0.24771 1.27333,0.19667 5.3792,0.13134 7.6172,-0.1212 z m 72.314693,-7.13787 c 1.87652,-0.14801 3.72863,-0.39617 4.1158,-0.55147 0.70172,-0.28145 0.70272,-0.28595 0.31642,-1.41969 -0.21314,-0.62554 -0.74219,-1.45334 -1.17566,-1.83957 -1.07289,-0.95595 -3.62052,-2.30124 -6.32699,-3.34101 -2.90501,-1.11604 -3.20773,-1.3815 -2.35955,-2.06911 0.35187,-0.28526 0.5592,-0.59953 0.46074,-0.69839 -0.0985,-0.0989 -1.50523,-0.0333 -3.12615,0.14571 -1.62323,0.17925 -3.98941,0.25387 -5.26732,0.1661 -1.60684,-0.11035 -2.41497,-0.0645 -2.62853,0.14902 -0.437,0.43701 -0.37868,3.70745 0.10253,5.74911 0.43198,1.83277 0.86404,2.48027 2.07173,3.1048 1.56818,0.81093 7.76349,1.08198 13.81698,0.6045 z m -7.96913,-13.52241 c 1.64932,-0.2453 2.09887,-0.42012 2.55139,-0.99218 0.49276,-0.62293 0.53274,-0.92593 0.38844,-2.94338 -0.0885,-1.23692 -0.17207,-3.20145 -0.18577,-4.36562 -0.0323,-2.74583 -0.67675,-8.08659 -1.01682,-8.42666 -0.17629,-0.1763 -1.52423,-0.15374 -4.04163,0.0676 -2.07742,0.18268 -4.3129,0.37689 -4.96775,0.43156 -0.84122,0.0703 -1.33596,0.27747 -1.68589,0.70615 -0.45121,0.55277 -0.47846,0.91266 -0.30633,4.04632 0.10392,1.89177 0.27908,5.09678 0.38924,7.12225 0.25522,4.6923 0.21913,4.65171 4.13503,4.65171 1.5059,0 3.63894,-0.134 4.74009,-0.29778 z m -39.551303,-3.31205 c 1.660763,-0.70429 1.937743,-0.73572 8.069793,-0.91558 7.8105,-0.22909 11.12279,-0.69659 16.86183,-2.37989 l 1.78059,-0.52225 -0.15599,-2.3055 c -0.0858,-1.26802 -0.15543,-2.54362 -0.15475,-2.83466 6.9e-4,-0.29104 -0.11364,-2.07698 -0.25407,-3.96875 -0.38235,-5.15073 -0.29722,-9.02619 0.21544,-9.80861 0.87134,-1.32983 1.94757,-0.54017 1.94757,1.42897 0,1.37932 0.98395,4.53124 1.47313,4.71896 0.84039,0.32249 10.65887,-0.84249 11.13791,-1.32153 0.36861,-0.36862 -1.48402,-8.56782 -2.54296,-11.25437 -0.88819,-2.25336 -1.87394,-4.05888 -2.98056,-5.45925 -1.01764,-1.28778 -2.90329,-2.78529 -3.48931,-2.77107 -0.16,0.004 -1.15158,0.68849 -2.20351,1.52136 -5.52972,4.37814 -9.64856,6.53744 -15.19244,7.96464 -3.19849,0.82341 -9.49624,1.2383 -13.593403,0.89552 -8.51444,-0.71235 -16.13335,-5.24875 -19.32642,-11.50721 -0.49951,-0.97904 -1.21421,-1.98059 -1.58822,-2.22565 -0.71614,-0.46923 -3.88397,-1.10786 -4.68298,-0.94409 -0.25794,0.0529 -0.7533,0.65244 -1.10079,1.33236 -0.98933,1.93575 -3.07711,4.74154 -5.29682,7.11848 -1.11872,1.19794 -1.96374,2.29181 -1.87784,2.43081 0.43236,0.69957 9.41882,3.73361 12.34238,4.16707 2.14432,0.31793 2.133,0.32264 2.60891,-1.08477 0.5818,-1.72054 1.17879,-2.09743 1.91493,-1.20891 0.6038,0.72879 0.60554,-1.14938 -0.0202,21.7503 -0.16007,5.85836 -0.15101,6.01067 0.36502,6.13155 0.29104,0.0682 1.48166,0.2589 2.64583,0.42382 1.16417,0.16492 2.47385,0.40304 2.91042,0.52916 1.21529,0.3511 7.64972,1.05974 8.20208,0.90333 0.14552,-0.0412 1.03849,-0.40312 1.98438,-0.80424 z m -4.18298,-4.19974 c -4.06806,-0.42128 -5.49915,-1.04444 -6.04956,-2.63427 -0.38706,-1.118 -0.52988,-7.38793 -0.22316,-9.79679 0.46537,-3.65475 1.29216,-5.71599 2.55463,-6.36884 0.80253,-0.415 1.72622,-0.43711 10.937253,-0.2618 10.47982,0.19947 12.07642,0.33102 12.80039,1.05467 0.55629,0.55606 0.77409,3.46609 0.80732,10.78674 0.0243,5.35943 0.0119,5.49042 -0.58757,6.18734 -0.5185,0.60279 -0.97501,0.76649 -2.97656,1.06737 -2.97929,0.44786 -12.794613,0.42828 -17.262743,-0.0344 z m 17.184133,-3.84531 c 0.30693,-0.44348 0.0973,-9.18479 -0.25031,-10.43783 l -0.22019,-0.79375 -6.19918,-0.17844 c -3.40955,-0.0982 -7.415873,-0.21721 -8.902933,-0.26459 -2.4572,-0.0783 -2.75448,-0.0355 -3.26,0.46924 -0.79181,0.79055 -1.04516,2.10857 -1.21557,6.32379 -0.11687,2.89072 -0.0713,3.80207 0.20749,4.14998 0.62013,0.77388 6.04874,1.25701 13.273503,1.1813 5.15267,-0.054 6.35008,-0.13599 6.56719,-0.4497 z m -16.567393,-3.52897 c -0.50655,-0.50655 -0.6157,-0.85724 -0.55072,-1.76953 0.10933,-1.53483 0.81942,-2.09662 2.65005,-2.09662 1.78323,0 2.26378,0.48429 2.25224,2.26979 -0.012,1.85137 -0.3866,2.22813 -2.21559,2.22813 -1.23286,0 -1.61818,-0.11397 -2.13598,-0.63177 z m 8.389323,0.45468 c -0.50614,-0.20364 -1.11891,-1.54473 -1.11891,-2.44881 0,-1.18798 1.08205,-1.65635 3.6572,-1.58303 2.60767,0.0742 2.95738,0.29243 2.95738,1.8452 0,1.86585 -0.68613,2.36944 -3.19205,2.34284 -1.08203,-0.0115 -2.11866,-0.0818 -2.30362,-0.1562 z m 6.83238,-19.93254 c 3.28914,-0.66848 6.05681,-1.58409 8.58516,-2.84019 6.42012,-3.18955 12.10712,-8.84428 14.02848,-13.94886 0.75441,-2.00428 0.81947,-3.12646 0.25902,-4.4678 -0.31897,-0.76342 -0.39687,-2.329281 -0.39687,-7.977781 0,-6.938936 0.009,-7.04824 0.67513,-8.631964 0.62186,-1.477481 0.65125,-1.719035 0.37253,-3.061634 -0.34995,-1.685689 -1.99758,-5.027735 -3.23565,-6.563177 -5.8838,-7.297028 -12.34233,-11.073507 -21.07488,-12.323063 -2.0767,-0.297159 -7.07902,-0.203726 -9.12937,0.170517 -4.443143,0.810993 -11.045173,3.562459 -14.600923,6.085089 -2.16423,1.535417 -5.00772,4.650153 -5.95089,6.518565 -0.4215,0.834998 -0.76637,1.577158 -0.76637,1.649246 0,0.07209 1.10133,-0.753901 2.4474,-1.835531 4.49091,-3.608662 9.46987,-6.235643 13.82447,-7.294018 6.060193,-1.472911 14.517583,-0.49929 20.060243,2.309348 5.25188,2.66129 10.237,7.558614 12.7496,12.525055 0.84478,1.669803 1.9344,4.742687 2.14627,6.052799 0.0795,0.491383 0.20811,1.146227 0.28586,1.455208 0.3563,1.415763 0.3144,6.35051 -0.0712,8.383061 -3.20435,16.89197 -20.78388,26.25718 -38.478093,20.49859 -1.52797,-0.49728 -3.25437,-1.02422 -3.83646,-1.17098 l -1.05833,-0.26683 1.05833,0.93484 c 2.17237,1.91888 7.09741,3.78176 11.46897,4.3381 2.657883,0.33825 7.539223,0.0911 10.637543,-0.53859 z m -45.611853,-4.82735 c 2.95429,-2.99595 5.64806,-6.80638 5.64116,-7.97959 -0.003,-0.46109 -0.34294,-1.31671 -0.78001,-1.96163 -0.88197,-1.30139 -1.66077,-4.36646 -1.54239,-6.07032 l 0.0782,-1.12635 -2.24896,-0.968315 c -3.05841,-1.316835 -4.97855,-2.663801 -6.30861,-4.42545 -0.61428,-0.813602 -1.16752,-1.479277 -1.22943,-1.479277 -0.29766,0 -1.48802,2.473214 -2.10119,4.365625 -1.66158,5.128107 -1.9246,10.492027 -0.67432,13.751397 1.08077,2.81748 3.48638,6.21316 5.3664,7.57504 0.58179,0.42145 1.13158,0.76626 1.22176,0.76626 0.0902,0 1.24998,-1.10132 2.57733,-2.44739 z m 11.41389,-9.77635 c 0.61108,-0.61108 0.36277,-1.9595 -0.56545,-3.0705 -0.96778,-1.15836 -1.37211,-2.04481 -1.62257,-3.55731 -0.34778,-2.100267 -2.00617,-0.76493 -2.14022,1.7233 -0.11279,2.09371 0.6882,3.67436 2.39678,4.72974 0.92154,0.56923 1.48593,0.6203 1.93146,0.17477 z m 63.227643,-7.3739 c 0.44661,-0.15569 0.89441,-0.48312 0.99512,-0.72761 0.10071,-0.244491 0.23689,-2.96588 0.30262,-6.047531 0.13845,-6.490474 0.0225,-6.989216 -1.74789,-7.519644 -1.93791,-0.580611 -1.87041,-0.838357 -1.87041,7.141816 0,6.570519 0.0365,7.142189 0.46302,7.253649 0.78384,0.20484 1.01742,0.19218 1.85754,-0.10068 z M 72.383367,95.209793 c 1.83296,-2.74051 2.20382,-3.54712 2.20382,-4.793188 0,-1.358274 -0.31518,-2.166096 -1.64286,-4.210774 -1.15867,-1.784386 -1.13124,-2.087362 0.21056,-2.326101 1.32148,-0.235124 1.52462,-0.648032 1.46277,-2.973364 l -0.0305,-1.145502 -0.8599,0.185914 c -1.70414,0.368443 -5.29107,2.614081 -8.64514,5.412381 -1.42908,1.192283 -3.15032,3.419705 -3.44998,4.464561 -0.66972,2.335183 1.73482,4.936197 6.29876,6.813432 2.53772,1.04381 2.87112,0.936929 4.45244,-1.427359 z m 10.81525,-5.743368 c 0.83302,-1.451784 1.97057,-3.256868 2.5279,-4.011297 2.5735,-3.48361 7.45346,-6.609925 11.9324,-7.6444 4.182633,-0.966037 6.076253,-1.530347 6.624193,-1.974046 l 0.57231,-0.463426 -0.91276,-0.497153 c -1.30981,-0.713412 -5.430733,-0.649371 -8.408293,0.130668 -5.67206,1.485924 -12.07753,6.217878 -14.15064,10.453591 -1.38442,2.828613 -1.65912,5.767992 -0.6524,6.981009 0.40589,0.489067 0.64535,0.200337 2.46729,-2.974946 z m 91.785923,156.374535 -0.64943,-0.64943 v -7.8048 -7.8048 l -0.99219,-0.27554 c -0.62634,-0.17394 -5.85324,-0.27609 -14.17556,-0.27702 l -13.18337,-0.001 -0.78728,-0.78727 -0.78727,-0.78727 0.08,-6.04613 0.08,-6.04614 2.75274,-4.34524 c 1.514,-2.38988 4.00224,-6.30977 5.52942,-8.71086 1.52719,-2.40109 3.18229,-5.02047 3.67801,-5.82083 0.49573,-0.80037 2.49204,-3.95552 4.43624,-7.01146 1.9442,-3.05594 5.24162,-8.27489 7.32759,-11.59768 2.19858,-3.50217 4.12629,-6.28233 4.58642,-6.61458 0.76614,-0.55322 1.03613,-0.57316 7.76217,-0.57316 h 6.96842 l 0.63835,0.74236 0.63835,0.74236 v 21.49587 c 0,16.36623 0.0758,21.57163 0.3175,21.81337 0.21137,0.21137 1.38319,0.31871 3.50573,0.32111 1.75352,0.002 3.46089,0.0767 3.79413,0.16592 1.17507,0.31477 1.37847,1.26577 1.37847,6.44505 0,4.9781 -0.20293,6.06667 -1.20248,6.45023 -0.23556,0.0904 -1.83956,0.16435 -3.56443,0.16435 -1.72488,0 -3.43652,0.11421 -3.80364,0.25379 l -0.66751,0.25378 -0.0773,7.97199 -0.0773,7.97198 -0.62462,0.50548 c -0.57243,0.46324 -1.10962,0.50548 -6.42817,0.50548 h -5.80355 z m -0.3243,-41.29765 c 0.0395,-6.19048 0.0122,-11.41885 -0.0606,-11.61859 -0.0735,-0.20169 -2.07353,2.68845 -4.49792,6.49959 -2.40109,3.77452 -4.92248,7.72296 -5.60309,8.77432 -2.29172,3.54011 -4.58272,7.15972 -4.67156,7.38071 -0.0485,0.12066 3.25296,0.21939 7.3366,0.21939 h 7.42479 z M 72.357067,64.888856 c -0.8369,-0.789302 -0.94381,-1.038743 -0.9355,-2.182812 0.011,-1.520796 0.39974,-2.324317 1.46367,-3.025664 1.47055,-0.969391 3.98853,-0.389665 4.75631,1.095068 0.88509,1.711567 0.10149,4.153586 -1.51346,4.716559 -1.58646,0.553045 -2.74087,0.368404 -3.77102,-0.603151 z m 0.98694,-8.03711 c -0.8034,-0.641448 -1.18193,-1.796987 -0.99631,-3.041479 0.252,-1.689592 0.5297,-2.168234 1.97298,-3.400564 3.20153,-2.733601 3.70713,-3.250205 4.2221,-4.313974 0.89035,-1.839221 0.6941,-3.440317 -0.59519,-4.855839 -0.45424,-0.498709 -0.81664,-0.595312 -2.23329,-0.595312 -0.93009,0 -1.92329,0.124284 -2.20712,0.276186 -0.28384,0.151902 -0.87058,0.90436 -1.30388,1.672127 -1.17414,2.080454 -1.86261,2.619592 -3.50105,2.741669 -1.16847,0.08706 -1.51475,0.002 -2.16372,-0.531448 -0.65894,-0.541651 -0.76619,-0.806716 -0.7289,-1.801503 0.0621,-1.656798 1.40568,-4.254229 2.77146,-5.357844 2.26453,-1.829841 3.87965,-2.299998 7.59108,-2.20974 3.10252,0.07545 4.84849,0.666609 6.65599,2.253621 1.37268,1.205227 2.41445,3.69627 2.40093,5.741006 -0.0152,2.290336 -0.8263,3.746415 -3.61196,6.48379 -2.60562,2.560459 -4.93349,5.314102 -5.47368,6.474843 -0.29437,0.632551 -0.55708,0.807476 -1.29356,0.861336 -0.57023,0.0417 -1.14694,-0.110288 -1.50588,-0.396875 z"
       id="path1" /></g></svg>
