<?xml version="1.0" encoding="UTF-8" standalone="no"?>
<!-- Created with Inkscape (http://www.inkscape.org/) -->

<svg
   width="160.51389mm"
   height="152.7187mm"
   viewBox="0 0 160.51389 152.7187"
   version="1.1"
   id="svg1"
   xml:space="preserve"
   inkscape:version="1.3 (0e150ed6c4, 2023-07-21)"
   sodipodi:docname="astronaut_developer.svg"
   xmlns:inkscape="http://www.inkscape.org/namespaces/inkscape"
   xmlns:sodipodi="http://sodipodi.sourceforge.net/DTD/sodipodi-0.dtd"
   xmlns="http://www.w3.org/2000/svg"
   xmlns:svg="http://www.w3.org/2000/svg"><sodipodi:namedview
     id="namedview1"
     pagecolor="#ffffff"
     bordercolor="#000000"
     borderopacity="0.25"
     inkscape:showpageshadow="2"
     inkscape:pageopacity="0.0"
     inkscape:pagecheckerboard="0"
     inkscape:deskcolor="#d1d1d1"
     inkscape:document-units="mm"
     inkscape:zoom="0.44631734"
     inkscape:cx="95.223726"
     inkscape:cy="310.31732"
     inkscape:window-width="1366"
     inkscape:window-height="697"
     inkscape:window-x="1912"
     inkscape:window-y="171"
     inkscape:window-maximized="1"
     inkscape:current-layer="layer1" /><defs
     id="defs1" /><g
     inkscape:label="Capa 1"
     inkscape:groupmode="layer"
     id="layer1"
     transform="translate(-26.409308,-67.719578)"><path
       style="fill:#ffffff"
       d="m 109.89066,220.07383 c -2.80593,-0.75543 -3.34338,-1.26078 -5.47284,-5.14604 -2.37124,-4.3264 -4.11649,-8.08071 -4.36634,-9.39271 -0.138572,-0.7276 -0.852642,-2.48754 -1.586822,-3.91098 -1.5527,-3.01036 -1.6564,-3.92233 -0.63147,-5.55313 1.14643,-1.82412 3.525392,-5.01277 4.555272,-6.10567 2.32429,-2.46652 6.85042,-5.22003 10.29083,-6.26052 2.02064,-0.6111 3.06568,-0.55845 3.34464,0.16851 0.1769,0.46101 -1.53636,2.4689 -4.26039,4.99304 -1.0751,0.99622 -1.46483,1.56046 -1.57813,2.28479 -0.14304,0.9145 -0.1042,0.97713 0.78881,1.27185 0.51659,0.17049 1.35064,0.23281 1.85345,0.13848 0.77705,-0.14577 1.11462,-0.47548 2.25038,-2.19789 2.99528,-4.54246 5.72255,-6.30445 10.92578,-7.05875 1.60321,-0.23242 4.74903,0.26737 6.13899,0.97532 1.52829,0.77841 4.79853,4.01439 5.44348,5.38647 0.6051,1.2873 1.08374,4.81887 0.61374,4.52839 -0.19665,-0.12153 -0.27146,0.42442 -0.23915,1.74535 0.0457,1.87025 0.0131,1.97582 -1.20644,3.90639 -1.86435,2.95122 -10.07734,11.11231 -11.18299,11.11231 -0.24569,0 -1.08615,-0.18589 -1.86768,-0.41309 -0.78154,-0.2272 -2.91076,-0.68814 -4.7316,-1.02431 -1.82085,-0.33618 -3.61443,-0.81029 -3.98575,-1.05359 -0.67045,-0.4393 -0.67186,-0.44793 -0.20391,-1.2503 0.75039,-1.28665 9.73149,-9.64594 11.89849,-11.0747 3.16277,-2.08529 4.42492,-2.45463 7.94609,-2.32525 l 2.9692,0.10911 -0.15965,-0.67821 c -0.42604,-1.80974 -2.04199,-2.51544 -5.34708,-2.33512 -4.19829,0.22904 -7.06093,1.84611 -12.86709,7.26844 -3.36444,3.14203 -9.59796,9.85767 -11.93856,12.86194 -0.90483,1.16138 -0.91899,1.21543 -0.52035,1.98632 0.22539,0.43585 0.72799,1.04275 1.1169,1.34866 l 0.7071,0.55621 1.8812,-1.9943 1.88121,-1.9943 1.31958,0.39955 c 0.72577,0.21976 2.98646,0.64363 5.02375,0.94194 5.52963,0.80968 5.07456,0.58266 4.04576,2.01833 -2.01166,2.80724 -5.2433,5.0177 -8.43601,5.77027 -2.04853,0.48287 -2.60972,0.48252 -4.4124,-0.003 z m 17.39395,-13.60237 c 0.58521,-0.3701 0.3263,-0.48398 -2.39098,-1.05164 -1.37288,-0.2868 -2.75385,-0.59777 -3.06881,-0.69105 -0.41728,-0.12358 -0.65185,-0.0216 -0.86453,0.37577 -0.26916,0.50294 -0.18346,0.57562 1.10183,0.93432 0.76653,0.21393 1.63182,0.44218 1.92286,0.50721 0.97468,0.21781 2.90631,0.17413 3.29963,-0.0746 z m 3.48778,-3.2142 c 0.43102,-0.30692 0.73047,-0.61124 0.66544,-0.67627 -0.17408,-0.17408 -5.70539,-1.14695 -6.52107,-1.14695 -0.9479,0 -1.82776,0.65433 -1.42701,1.06124 0.33078,0.33585 4.22552,1.22635 5.61376,1.28354 0.52575,0.0217 1.20342,-0.19012 1.66888,-0.52156 z m 3.66083,-4.59797 c 0.55233,-0.66551 0.0997,-1.13703 -1.36942,-1.42658 -3.28128,-0.64673 -3.30454,-0.64691 -3.92111,-0.0303 -0.31923,0.31923 -0.47922,0.67885 -0.35552,0.79915 0.22391,0.21778 3.68453,0.95968 4.75656,1.01974 0.3096,0.0173 0.70987,-0.14555 0.88949,-0.36197 z m 24.60905,1.08708 c -0.80037,-0.17178 -1.93081,-0.63724 -2.51209,-1.03435 -1.41112,-0.96401 -9.0675,-9.05255 -11.01755,-11.63941 -1.82944,-2.42687 -1.8792,-2.8011 -0.78888,-5.93334 1.38042,-3.96565 3.29021,-7.01864 6.24873,-9.98923 2.95472,-2.96677 5.07484,-4.37224 6.90694,-4.57875 1.95233,-0.22005 2.13635,0.85406 0.40449,2.36102 -1.27686,1.11106 -1.88361,2.05141 -1.88573,2.92256 -0.001,0.61021 0.13602,0.74146 0.93365,0.89109 1.24954,0.23442 2.4231,-0.0275 3.59351,-0.80206 0.81799,-0.54132 1.05494,-0.935 1.5492,-2.57394 1.69619,-5.62442 6.22185,-9.79382 11.04594,-10.17641 3.74915,-0.29734 7.68736,1.064 10.49116,3.62652 2.16182,1.97578 2.86705,3.59315 2.90697,6.66679 0.0279,2.14843 -0.0561,2.63446 -0.69039,3.9935 -1.06733,2.28697 -3.82207,6.37444 -6.00935,8.91665 -2.67057,3.10391 -6.58136,7.12341 -6.67721,6.86282 -0.0438,-0.11903 -1.86061,-0.65114 -4.03739,-1.18249 -6.58918,-1.60839 -6.72485,-1.90686 -2.76823,-6.09017 0.68818,-0.72761 2.00681,-2.34081 2.93029,-3.58491 6.0978,-8.21481 7.92891,-9.57738 12.84291,-9.55667 1.33793,0.006 2.67739,0.14125 2.97656,0.30137 0.6936,0.3712 0.68413,0.26692 -0.11983,-1.31961 -0.94139,-1.85775 -2.22135,-2.48181 -4.75652,-2.31911 -3.51962,0.22587 -7.57187,2.98061 -11.08554,7.53601 -7.55385,9.79338 -13.81448,19.04043 -13.61001,20.10218 0.0496,0.25772 0.48079,0.55079 1.01211,0.68798 0.5091,0.13145 1.07446,0.36191 1.25636,0.51213 0.46906,0.38737 0.89329,-0.0339 2.13621,-2.12131 0.58012,-0.97427 1.35845,-2.0551 1.72963,-2.40186 0.73887,-0.69025 0.40415,-0.72054 4.2701,0.38637 0.98989,0.28343 2.55731,0.45932 4.1637,0.46723 l 2.5762,0.0127 -0.43118,0.67584 c -0.93591,1.46694 -4.15821,5.29659 -5.07969,6.03711 -2.5676,2.06338 -5.73923,2.9374 -8.50507,2.34376 z m 15.08125,-14.28722 c 0,-0.58445 -0.5467,-0.88812 -2.64638,-1.46997 -2.42158,-0.67106 -2.64529,-0.67529 -2.64529,-0.05 0,0.68965 0.43638,0.98681 2.11851,1.44259 1.9146,0.51878 3.17316,0.54948 3.17316,0.0774 z m 2.92562,-3.10351 c 0.41949,-0.78384 0.13423,-0.97027 -2.41705,-1.57962 -2.46016,-0.5876 -3.55128,-0.58238 -3.55128,0.017 0,0.46999 0.94648,0.95233 3.14111,1.60074 2.13197,0.6299 2.47218,0.62532 2.82722,-0.0381 z m 2.89521,-3.77566 c 0,-0.97958 -0.21433,-1.07965 -4.28435,-2.00045 -1.75028,-0.39598 -1.84673,-0.37167 -1.75249,0.44162 0.0774,0.66829 0.24736,0.76407 2.26357,1.27586 1.19892,0.30434 2.26056,0.63405 2.3592,0.73269 0.0986,0.0986 0.45716,0.17934 0.79671,0.17934 0.47365,0 0.61736,-0.14643 0.61736,-0.62906 z m 2.3466,-3.50159 c 0.44845,-0.98424 0.0941,-1.28019 -2.30922,-1.92868 -2.74698,-0.74121 -2.9478,-0.72665 -2.9478,0.21373 0,0.73106 0.1142,0.80737 2.31511,1.54707 1.2733,0.42794 2.38529,0.79627 2.47107,0.81851 0.0858,0.0222 0.29766,-0.27054 0.47084,-0.65063 z m -88.761372,21.86348 c -0.84051,-0.33967 -1.99859,-1.87912 -3.36936,-4.47893 -1.36169,-2.5826 -1.43873,-3.01395 -0.78363,-4.38772 l 0.44891,-0.94135 -0.78784,-0.72127 c -0.43331,-0.3967 -1.66774,-1.97142 -2.74317,-3.49939 -2.45043,-3.48154 -5.36981,-7.46071 -6.54906,-8.92649 l -0.9021,-1.12129 -1.25829,0.63763 c -0.69206,0.35069 -1.41373,0.82491 -1.6037,1.05381 -0.40902,0.49284 -0.11124,1.03354 1.83352,3.32926 0.67801,0.80036 1.88824,2.52677 2.6894,3.83645 0.80116,1.30969 1.85805,3.01711 2.34864,3.79426 l 0.892,1.41301 -0.64975,0.50872 c -1.05528,0.82621 -3.75891,2.04893 -5.57431,2.52098 -2.31733,0.60257 -6.6635,0.6049 -9.36294,0.005 -1.21213,-0.26937 -3.27552,-1.03818 -4.82846,-1.79907 -2.27876,-1.11651 -3.08592,-1.69477 -5.05464,-3.62122 -3.68889,-3.60968 -6.03098,-7.61116 -7.24565,-12.37924 -0.57587,-2.26054 -0.59833,-2.77743 -0.59833,-13.76963 0,-6.28151 0.0824,-11.50342 0.18306,-11.60424 0.10068,-0.10082 0.75552,0.29327 1.45521,0.87577 2.78638,2.31969 6.30011,3.5993 12.13098,4.41781 1.54303,0.2166 2.91628,0.46228 3.05166,0.54595 0.36145,0.22339 -0.0545,0.87098 -1.79367,2.79245 -1.69799,1.876 -6.11357,7.82934 -6.78988,9.15453 -0.6063,1.18798 -0.54827,1.52203 0.40349,2.32289 1.46148,1.22976 2.23917,0.75645 4.40678,-2.68201 2.01013,-3.18865 5.42214,-6.47922 9.63142,-9.28864 2.70483,-1.80529 3.33151,-2.11269 5.83375,-2.86165 5.52741,-1.65442 10.54276,-1.3145 15.09863,1.02335 4.0284,2.06717 6.329252,4.12645 10.261492,9.18409 1.89267,2.43435 4.50354,6.53167 5.15386,8.08811 0.43804,1.04837 0.34315,1.70147 -0.24721,1.70147 -0.99617,0 -4.84416,1.52669 -7.41983,2.94381 -3.571502,1.96503 -6.535322,4.2001 -8.545172,6.44407 -2.57257,2.87224 -3.03197,4.31653 -1.83737,5.77643 l 0.60922,0.74451 1.90872,-2.26664 c 2.49385,-2.9615 3.48095,-3.91072 5.71735,-5.49799 3.420382,-2.42758 10.146512,-5.4104 13.362232,-5.92572 1.20808,-0.1936 1.97416,0.40646 3.55527,2.7848 1.45123,2.18295 1.50372,2.60258 0.34656,2.77031 -0.47294,0.0685 -1.84077,0.25848 -3.03963,0.42206 -5.73852,0.783 -11.87989,4.37433 -15.699202,9.18054 -1.95226,2.4567 -3.1785,4.92898 -3.24041,6.53308 -0.0498,1.29144 -0.25145,1.43089 -1.39855,0.96732 z m 11.254032,-26.23249 c 1.39188,-0.48521 1.08692,-1.1555 -3.175,-6.97846 -3.630552,-4.96034 -7.187712,-8.12574 -10.104962,-8.99207 -1.93725,-0.5753 -5.51019,-1.0476 -6.34329,-0.8385 -0.67409,0.16918 -1.46071,1.11885 -1.16867,1.41089 0.0737,0.0737 1.18465,0.36713 2.46884,0.65211 6.15433,1.36577 9.8153,4.44035 15.471122,12.99309 0.74579,1.12779 1.50051,2.05052 1.67716,2.05052 0.17664,0 0.7053,-0.13391 1.1748,-0.29758 z m 33.26374,10.87204 c -1.68246,-1.27365 -1.75911,-1.38048 -1.75611,-2.44739 0.007,-2.46261 1.19547,-5.31901 3.91232,-9.40243 3.26233,-4.90329 8.70669,-9.31999 13.62954,-11.05687 0.9369,-0.33056 1.15075,-0.31516 2.22555,0.16028 0.65399,0.28929 1.6226,0.9046 2.15249,1.36736 0.96434,0.84219 2.15404,2.28678 2.15404,2.61554 0,0.0961 -0.8632,0.24704 -1.91822,0.33534 -1.50503,0.12595 -2.38404,0.39128 -4.08069,1.23173 -5.82201,2.88398 -10.40544,8.45609 -12.81842,15.58342 -0.72584,2.14396 -1.14697,2.94481 -1.54852,2.94481 -0.106,0 -0.98439,-0.5993 -1.95198,-1.33179 z m -9.56446,-9.12899 c -2.47385,-1.82453 -4.97416,-3.78222 -5.55625,-4.35041 -0.58208,-0.56819 -1.40044,-1.16169 -1.81858,-1.31889 -0.89845,-0.33777 -2.53205,-0.0918 -2.7247,0.41019 -0.0745,0.19408 0.17315,1.02688 0.55029,1.85065 0.37714,0.82377 0.6857,1.65274 0.6857,1.84215 0,0.18941 -0.42145,0.48348 -0.93657,0.65348 -0.90005,0.29705 -0.98081,0.26831 -2.07136,-0.73692 -0.62413,-0.57531 -1.72072,-1.24156 -2.43687,-1.48056 -1.20887,-0.40345 -1.37646,-0.57176 -2.34136,-2.35142 -1.75347,-3.23412 -5.28694,-8.48744 -7.131,-10.60186 -1.87334,-2.14801 -2.09375,-2.82521 -1.33655,-4.10647 0.22827,-0.38626 0.90493,-0.94041 1.50369,-1.23145 1.05724,-0.5139 1.62791,-0.52917 19.78065,-0.52917 h 18.69201 l 2.95535,2.74822 c 1.62544,1.51152 2.95535,2.90935 2.95535,3.10629 0,0.19693 -0.51893,0.74617 -1.15316,1.22053 -4.25251,3.18053 -9.06277,7.87372 -10.78215,10.51975 -0.52007,0.80037 -1.44194,2.64584 -2.0486,4.10105 -1.34034,3.21511 -1.45365,3.42208 -1.91945,3.50588 -0.20269,0.0365 -2.39258,-1.4265 -4.86644,-3.25104 z m 16.18695,-14.19862 c 0.48327,-0.17475 0.87868,-0.38575 0.87868,-0.46888 0,-0.95265 -4.88565,-4.69408 -6.46413,-4.95023 -0.8593,-0.13945 -2.26712,0.47945 -2.26712,0.99664 0,0.12432 0.62508,0.62739 1.38906,1.11794 0.76399,0.49055 2.10344,1.50518 2.97656,2.25474 1.67679,1.43948 2.0765,1.55981 3.48695,1.04979 z m -102.411392,8.51982 -0.68998,-0.13229 0.79381,-1.19063 c 1.51069,-2.26587 1.54325,-2.51327 1.70597,-12.96458 0.0827,-5.31151 0.23841,-10.24862 0.34604,-10.97135 l 0.1957,-1.31406 1.33802,1.84322 c 2.31121,3.18387 2.24172,3.00247 1.61258,4.20949 -0.52038,0.99838 -0.54862,1.48003 -0.55872,9.52909 -0.006,4.66266 0.0846,9.0342 0.20104,9.71452 l 0.21168,1.23696 -2.23307,0.086 c -1.2282,0.0473 -2.54357,0.0264 -2.92307,-0.0463 z m -10.74705,-0.5118 c -2.01496,-0.61292 -3.99158,-2.4677 -4.51149,-4.23341 -0.15278,-0.51883 -0.34816,-3.3987 -0.43418,-6.39971 l -0.15642,-5.45638 4.86701,-0.11499 c 2.67685,-0.0632 5.85898,-0.063 7.07141,5.8e-4 l 2.20441,0.11558 -0.0897,5.85267 c -0.0838,5.4678 -0.12879,5.92615 -0.68485,6.97012 -0.90035,1.69036 -2.2108,2.86212 -3.589,3.20916 -1.34131,0.33775 -3.66037,0.3657 -4.67724,0.0564 z m 38.93473,-17.96976 c -0.86151,-0.86152 -1.0976,-2.91123 -1.0976,-9.52928 0,-6.69822 0.21129,-8.21899 1.34156,-9.6559 0.50442,-0.64127 0.70698,-0.69784 2.49848,-0.69784 1.07226,0 2.01058,0.0987 2.08517,0.21941 0.0746,0.12068 -0.0588,0.80529 -0.29636,1.52136 -0.35368,1.06598 -0.43537,2.57262 -0.45072,8.31339 -0.0103,3.8563 0.0408,7.72584 0.11353,8.59896 l 0.1323,1.5875 -1.90687,0.0775 c -1.59861,0.065 -1.98974,-0.005 -2.41949,-0.43511 z m -7.4476,-0.32777 c -3.70857,-0.47741 -8.60828,-2.60992 -11.19587,-4.8728 -3.22363,-2.8191 -6.37924,-8.30325 -7.47968,-12.99896 -0.52678,-2.24785 -0.3853,-7.38977 0.26838,-9.75329 0.79939,-2.89039 2.41343,-5.81734 4.32586,-7.84461 2.13681,-2.26513 3.73684,-3.38159 7.68015,-5.35904 l 2.99154,-1.50017 -0.55772,-0.71788 c -1.32406,-1.70427 -2.35706,-3.47667 -2.64111,-4.53156 -0.16803,-0.623989 -0.26498,-1.175039 -0.21546,-1.224559 0.0495,-0.04952 0.85729,0.28992 1.79504,0.754311 1.57833,0.781608 1.90413,0.844348 4.38493,0.844348 1.99232,0 2.80314,-0.10183 3.16016,-0.39688 0.28285,-0.23374 0.51762,-0.28608 0.57116,-0.12734 0.3234,0.95878 3.55663,5.37115 4.68267,6.3904 3.05973,2.76958 7.24267,4.92207 11.00254,5.66178 2.71103,0.53336 6.86602,0.19286 9.46264,-0.77547 2.69713,-1.00581 3.84944,-1.59018 6.38413,-3.23759 2.14528,-1.39431 2.383362,-1.49046 2.32675,-0.93964 -0.0202,0.19665 1.034822,1.34932 2.344512,2.56149 1.30968,1.21217 2.6789,2.56021 3.0427,2.99563 0.36381,0.43543 2.17629,2.60858 4.02775,4.82921 1.85146,2.22064 3.90528,4.40836 4.56406,4.86161 1.29448,0.89063 1.45703,1.19832 0.73308,1.38764 -0.97425,0.25478 -5.27452,3.12842 -6.38239,4.26502 -0.92926,0.95336 -1.1649,1.38688 -1.19063,2.19052 -0.0295,0.92096 0.0615,1.0541 1.12643,1.64751 1.08965,0.60721 1.1742,0.61755 1.42249,0.17388 0.96833,-1.73031 3.69121,-3.85764 6.01796,-4.70174 1.24482,-0.45158 4.48104,-1.09423 4.65157,-0.92371 0.0543,0.0543 -0.48636,1.70305 -1.20143,3.66391 -0.71508,1.96087 -1.56415,4.61788 -1.88684,5.90447 l -0.5867,2.33926 -1.58544,-0.16571 c -0.872,-0.0911 -3.29439,-0.16571 -5.38309,-0.16571 -2.59107,0 -3.79765,-0.0927 -3.79765,-0.29174 0,-0.16046 -0.47645,-1.30846 -1.05877,-2.55111 -0.85089,-1.81574 -1.44831,-2.64263 -3.04271,-4.21137 l -1.983942,-1.95202 v -4.6424 c 0,-4.6811 -0.12666,-5.42921 -1.0354,-6.11509 -0.31596,-0.23847 -3.23407,-0.2913 -11.79688,-0.21354 -6.2574,0.0568 -11.46179,0.1101 -11.56532,0.11841 -0.45451,0.0365 -0.77749,2.22368 -0.49438,3.34798 0.15716,0.62413 0.28574,1.54099 0.28574,2.03747 v 0.90267 l -3.37344,0.20627 c -1.85539,0.11345 -4.26221,0.22007 -5.34849,0.23694 l -1.97505,0.0306 -0.22086,-1.11198 c -0.285,-1.43493 -1.49566,-2.52301 -2.679,-2.40775 l -0.82295,0.0802 0.004,1.71979 c 0.007,3.12208 1.28598,4.66543 4.36906,5.27199 1.48245,0.29165 1.61543,0.37259 1.4825,0.90224 -0.67232,2.6787 -0.73929,3.79837 -0.60907,10.18201 0.0762,3.73714 0.22044,7.18176 0.32045,7.6547 0.17761,0.83995 0.16118,0.85912 -0.7081,0.82634 -0.48946,-0.0185 -1.66383,-0.13317 -2.60971,-0.25494 z m 46.412732,-23.94919 c 0.99267,-0.38092 0.33392,-1.7835 -2.01933,-4.29944 -1.01084,-1.08073 -2.16339,-2.5291 -5.71481,-7.18162 -1.63761,-2.14534 -3.224432,-2.78812 -3.224432,-1.30613 0,0.86035 2.431852,4.5131 4.938852,7.41835 0.70337,0.81511 1.86203,2.16703 2.5748,3.00427 0.71277,0.83724 1.66527,1.74747 2.11666,2.02273 0.95416,0.58183 0.80375,0.54312 1.32826,0.34184 z m -31.117932,22.33031 c -0.2544,-0.44589 -0.36834,-2.469 -0.43091,-7.65137 -0.10784,-8.93057 0.14125,-10.06362 2.2221,-10.10798 0.72016,-0.0153 1.37338,0.20208 2.13344,0.71014 1.0396,0.69492 1.31627,0.74357 5.42396,0.95375 4.63464,0.23715 6.22017,0.60926 8.641,2.02796 2.23796,1.31154 4.271672,3.7173 4.921332,5.82165 0.16528,0.53538 0.0811,0.56449 -1.751992,0.60586 -6.01476,0.13576 -14.42849,0.76956 -15.33763,1.15539 -1.2349,0.52407 -1.61169,1.73473 -1.49017,4.78803 l 0.0855,2.14874 -2.0354,0.077 c -1.88486,0.0713 -2.06098,0.0322 -2.38125,-0.52917 z m 16.98436,-11.44293 c 0,-0.0666 -0.55092,-0.444 -1.22427,-0.83861 -1.93356,-1.13314 -4.36035,-1.68979 -7.23667,-1.65993 l -2.51927,0.0262 1.19063,0.3761 c 0.65484,0.20685 2.73844,0.67423 4.63021,1.03862 1.89177,0.36439 3.73724,0.76603 4.10104,0.89252 0.81545,0.28353 1.05833,0.32143 1.05833,0.16514 z m -7.78362,11.73695 c -0.3847,-1.14163 -0.68027,-2.59336 -0.68157,-3.34758 l -0.002,-0.8599 1.91823,-0.009 c 7.59165,-0.0355 30.046942,-0.51733 30.398102,-0.65232 0.4977,-0.19131 1.89906,-4.29069 5.87911,-17.19809 0.94232,-3.05594 2.08549,-6.68735 2.5404,-8.06979 0.45491,-1.38245 1.46605,-4.62805 2.24698,-7.21245 1.54445,-5.11112 2.26516,-6.61186 3.70135,-7.70729 1.72851,-1.3184 3.01249,-1.736913 5.34806,-1.743201 2.9933,-0.0081 17.3337,0.708951 24.03548,1.201761 3.05593,0.22472 7.90489,0.50583 10.77545,0.6247 4.8608,0.20128 5.31504,0.26351 6.61459,0.90616 2.17433,1.07525 3.31716,3.3065 3.01414,5.88475 -0.091,0.77459 -1.88526,6.62242 -3.98715,12.99518 -2.1019,6.37277 -4.37926,13.43231 -5.06079,15.68789 -0.68154,2.25557 -1.57103,4.76302 -1.97665,5.57212 -0.89759,1.79041 -2.504,3.29741 -3.92196,3.67922 -0.72739,0.19587 -11.71376,0.27802 -35.40551,0.26475 -18.89297,-0.0106 -36.817072,0.0648 -39.831312,0.16742 -4.58591,0.15618 -5.50086,0.12609 -5.60548,-0.18437 z M 167.949,141.84081 c 0.6216,-0.62175 0.21296,-1.81648 -0.70465,-2.06019 -0.3638,-0.0966 -8.9363,-0.25963 -19.05,-0.36222 -15.10838,-0.15327 -18.45433,-0.25178 -18.75735,-0.55226 -0.54262,-0.53805 -0.0838,-2.52632 2.21949,-9.61844 1.07138,-3.29892 2.07512,-6.47428 2.23051,-7.05636 0.5299,-1.98487 3.9449,-12.26336 4.37704,-13.17403 0.23695,-0.49932 0.70392,-1.0323 1.03772,-1.18438 0.71275,-0.32476 9.61373,10e-4 16.83009,0.61617 2.54662,0.21704 7.8449,0.58241 11.77396,0.81192 6.08757,0.3556 7.31546,0.49763 8.30517,0.96061 1.27808,0.59788 1.62634,0.50563 2.49779,-0.66157 0.61985,-0.83023 0.44754,-1.80686 -0.48294,-2.73734 -0.57975,-0.57975 -0.85651,-0.63867 -2.99972,-0.63867 -2.73001,0 -11.52062,-0.62412 -16.71301,-1.1866 -1.96453,-0.21281 -7.22191,-0.52659 -11.68306,-0.69728 -7.87169,-0.30119 -8.1408,-0.29499 -9.11403,0.21007 -1.91897,0.99586 -2.17589,1.58011 -6.66977,15.16756 -4.63338,14.00924 -5.87293,18.07079 -5.86628,19.22177 0.007,1.22428 1.07122,2.82582 2.1197,3.19013 0.6909,0.24006 5.78677,0.30565 20.55462,0.26458 18.23731,-0.0507 19.66865,-0.0873 20.09472,-0.51347 z m -11.58625,-12.39884 c 1.20867,-1.12604 1.35739,-2.84735 0.29514,-3.41585 -1.13105,-0.60532 -0.41399,-2.03739 1.50573,-3.00718 0.89464,-0.45195 1.26142,-1.13779 0.98863,-1.84866 -0.11931,-0.31092 -0.49511,-0.43415 -1.324,-0.43415 -0.63658,0 -1.97549,-0.14029 -2.97536,-0.31174 -1.66145,-0.28491 -1.89504,-0.26672 -2.71352,0.2113 -2.07359,1.21104 -3.17113,4.6719 -2.24809,7.08885 0.58839,1.54067 0.85915,1.72986 2.84442,1.98742 2.65194,0.34405 2.9954,0.31849 3.62705,-0.26999 z m 1.81507,-10.09022 c 0.76619,-0.71514 0.96338,-1.37597 0.60846,-2.03915 -0.72856,-1.36131 -2.21587,-1.29082 -2.81087,0.13324 -1.00038,2.39424 0.39007,3.5975 2.20241,1.90591 z M 29.186238,143.93189 c -2.11711,-0.20459 -2.69295,-0.34347 -2.58546,-0.62358 0.0761,-0.19821 0.14651,-6.9814 0.15655,-15.07377 l 0.0183,-14.71339 1.57512,0.14283 c 0.91132,0.0826 1.51275,0.0419 1.42711,-0.0967 -0.0862,-0.13946 1.77895,-0.23951 4.46473,-0.23951 2.53701,0 4.98482,-0.0744 5.43957,-0.16536 l 0.82682,-0.16537 v 1.66589 c 0,1.09192 0.13357,1.81348 0.38768,2.09426 0.33924,0.37486 0.33996,0.58691 0.006,1.69729 -0.21004,0.6979 -0.57197,2.56506 -0.80429,4.14924 -0.34834,2.3753 -0.372,3.38455 -0.13491,5.75602 0.23915,2.39222 1.35033,7.62677 1.75955,8.28889 0.0618,0.10003 0.0224,0.2218 -0.0877,0.27061 -0.65004,0.28831 -1.12635,1.98012 -1.12974,4.01279 -0.006,3.6293 0.35791,3.35931 -4.45902,3.30752 -2.27498,-0.0245 -5.36202,-0.16291 -6.86008,-0.30768 z m 64.56434,-16.99998 c -2.37722,-0.77991 -5.02319,-1.21726 -6.93955,-1.14704 -0.87994,0.0323 -2.16009,-0.16693 -3.23828,-0.50384 -0.98069,-0.30644 -2.36754,-0.6347 -3.08189,-0.72946 -1.17957,-0.15647 -1.31343,-0.2454 -1.45807,-0.96861 -0.38937,-1.94683 -1.11847,-1.78896 8.24126,-1.78445 4.62028,0.002 8.53969,0.0926 8.70979,0.2008 0.21951,0.13964 0.26594,0.98314 0.15996,2.90636 -0.0821,1.49029 -0.22129,2.69789 -0.30927,2.68354 -0.088,-0.0143 -1.02576,-0.31014 -2.08395,-0.6573 z m -49.66636,-15.97466 c -0.097,-0.30574 -0.1375,-3.74284 -0.0899,-7.63799 l 0.0865,-7.082093 -1.01092,-2.04667 c -0.76289,-1.54453 -1.33672,-2.304202 -2.33886,-3.09635 l -1.32795,-1.049681 4.05866,0.03286 c 2.23226,0.01807 4.89081,0.107372 5.9079,0.198437 l 1.84925,0.165574 -0.0829,1.984375 c -0.10282,2.462169 0.74314,6.807939 1.82829,9.392088 0.42762,1.01831 0.6652,1.8889 0.52796,1.93465 -0.96764,0.32254 -4.03715,2.73052 -6.41113,5.02941 -2.50529,2.42605 -2.84022,2.66916 -2.99693,2.17539 z m 37.22969,-2.90918 c -2.57116,-0.69548 -4.86273,-1.81887 -6.98035,-3.42195 -2.09558,-1.58639 -3.1232,-2.78797 -4.26163,-4.983043 l -0.85376,-1.646179 0.92508,-1.661112 c 0.88463,-1.588489 0.92507,-1.776786 0.92507,-4.306945 0,-2.237383 -0.0919,-2.817798 -0.59531,-3.759772 -0.32743,-0.612666 -0.59532,-1.286966 -0.59532,-1.498443 0,-0.720238 3.11968,-4.594841 4.80364,-5.966067 3.29063,-2.679511 6.92191,-4.009348 10.93907,-4.006076 2.72715,0.0022 4.26061,0.364607 6.87917,1.625679 5.16801,2.488863 8.651052,8.734938 8.257592,14.808173 -0.4625,7.138785 -3.403742,11.298145 -10.026102,14.178395 -1.94208,0.84466 -2.51069,0.96875 -4.84608,1.05752 -2.04548,0.0778 -3.08267,-0.0176 -4.57107,-0.42018 z m 14.13913,-7.94944 c 1.02787,-2.182336 0.58151,-3.439581 -1.22117,-3.439581 -0.98294,0 -1.01569,0.03127 -1.31598,1.25677 -0.16938,0.691224 -0.36795,1.458266 -0.44127,1.704537 -0.0886,0.297693 0.1149,0.584414 0.60727,0.855494 1.04152,0.5734 1.99484,0.42174 2.37115,-0.37722 z m 1.57567,-5.718765 c 0.27569,-1.098409 -0.10574,-4.442242 -0.67873,-5.950223 -1.16271,-3.060004 -3.88727,-6.188944 -6.44164,-7.397719 -2.40152,-1.13644 -3.33855,-1.260491 -3.93716,-0.521238 -0.26569,0.328114 -0.48307,0.934865 -0.48307,1.348335 0,0.642341 0.24053,0.892735 1.65252,1.720276 3.87092,2.268686 5.37935,4.383766 6.27244,8.795031 0.50336,2.486272 0.62346,2.610264 2.58719,2.670848 0.71119,0.02194 0.88403,-0.08987 1.02845,-0.66531 z m -70.23145,6.446375 c 0.0835,-5.223727 0.10343,-5.391521 0.79626,-6.704551 0.96801,-1.834555 2.28176,-2.939242 3.75892,-3.160756 1.46569,-0.219794 4.8637,0.831302 6.48553,2.00615 1.83073,1.326178 2.20328,2.41624 2.43731,7.131547 0.26562,5.35176 0.20174,5.71298 -1.04678,5.91944 -0.53268,0.0881 -3.5669,0.16146 -6.7427,0.16306 l -5.77419,0.003 z m 32.10023,-3.692675 c -5.14926,-1.799933 -4.52445,-9.11047 0.90894,-10.635 1.88445,-0.52875 2.68454,-0.531471 3.92459,-0.01335 1.85125,0.773504 3.10047,2.494681 3.40077,4.685617 0.4683,3.416652 -2.2638,6.310854 -5.9104,6.261074 -0.84159,-0.01149 -1.88734,-0.145743 -2.3239,-0.298345 z m -2.51355,-12.528136 c 0,-0.565343 2.08347,-4.466231 3.45476,-6.468376 2.72285,-3.975462 6.2583,-6.717251 11.36191,-8.81132 3.27108,-1.34216 4.91147,-1.630518 9.12812,-1.6046 2.7922,0.01716 4.2595,0.158346 5.95975,0.573449 2.81069,0.686206 6.04079,2.034525 8.08648,3.375482 2.06307,1.352341 4.91093,4.195257 5.645732,5.635916 0.65578,1.285727 0.55886,1.261543 -1.568002,-0.39126 -1.79639,-1.395993 -5.34163,-3.064841 -7.80521,-3.674141 -2.19442,-0.542731 -7.33264,-0.62686 -9.12812,-0.149455 -2.12394,0.564738 -5.11859,1.905162 -6.92554,3.099906 -2.29327,1.516303 -5.47218,4.635635 -6.43338,6.312811 -0.41699,0.727604 -0.78545,1.361462 -0.81879,1.408572 -0.0333,0.04711 -0.3991,-0.08813 -0.81281,-0.300532 -2.43124,-1.248238 -6.15874,-1.092622 -8.75583,0.36554 -0.76399,0.428946 -1.38907,0.71155 -1.38907,0.628008 z"
       id="path1"
       sodipodi:nodetypes="cssssssssssssssssccssssssscsssssscccssssccsssssssssssscssssscssssssssscsssssscssssccssssssssssscsssssssssssssssssscsssssssscsssscssscssssscsssssssssssssssscssssssscsssscsscssssssscsssscsssssssssssssssssssssssscsscsscssssssssccssscsscccscccscccccsssccssssccscccsscssssscsscsscccssssssssssscsssssccsssscssccsscsccscccsccscccsssssssscscssssssscsccssccsssssccccssssscssscssssscccssssscsccssssssssscsssssssssssssssssccccccsccsscscccccccscssscsccsccccscssccscscccsscssssscsssccsssccscssssssscscssscccssscssssscssssssssssccss" /></g></svg>
