<?xml version="1.0" encoding="utf-8"?>
<!-- Generator: Adobe Illustrator 26.5.0, SVG Export Plug-In . SVG Version: 6.00 Build 0)  -->
<svg version="1.1" id="Layer_1" xmlns="http://www.w3.org/2000/svg" xmlns:xlink="http://www.w3.org/1999/xlink" x="0px" y="0px"
	 viewBox="0 0 281.4 278.8" style="enable-background:new 0 0 281.4 278.8;" xml:space="preserve">
<style type="text/css">
	.st0{fill-rule:evenodd;clip-rule:evenodd;fill:#E6E6E6;}
	.st1{filter:url(#Adobe_OpacityMaskFilter);}
	.st2{fill-rule:evenodd;clip-rule:evenodd;fill:#FFFFFF;}
	.st3{mask:url(#react-mask-4_00000109733597206398818980000004890152363560559528_);}
	.st4{fill-rule:evenodd;clip-rule:evenodd;fill:#65C9FF;}
	.st5{filter:url(#Adobe_OpacityMaskFilter_00000120531150534496249270000012715978407681871004_);}
	.st6{mask:url(#react-mask-5_00000101807765058524854180000011009020632564309163_);}
	.st7{fill-rule:evenodd;clip-rule:evenodd;fill:#D0C6AC;}
	.st8{filter:url(#Adobe_OpacityMaskFilter_00000053518613195500972370000003942173550402043040_);}
	.st9{mask:url(#react-mask-6_00000046297797287804770810000004268680625282134936_);}
	.st10{fill-rule:evenodd;clip-rule:evenodd;fill:#EDB98A;}
	.st11{filter:url(#Adobe_OpacityMaskFilter_00000086649275016432774550000014354268528821990295_);}
	
		.st12{mask:url(#react-mask-6_00000019659625966369583560000003876811276868863127_);fill-rule:evenodd;clip-rule:evenodd;fill-opacity:0.1;}
	.st13{fill-rule:evenodd;clip-rule:evenodd;fill:#B7C1DB;}
	.st14{filter:url(#Adobe_OpacityMaskFilter_00000155846760505916973830000010656755414089088950_);}
	.st15{mask:url(#react-mask-660_00000076569151355479975890000003604546275903300494_);}
	.st16{fill-rule:evenodd;clip-rule:evenodd;fill:#262E33;}
	.st17{filter:url(#Adobe_OpacityMaskFilter_00000046342021419812351670000003751987731799526565_);}
	
		.st18{mask:url(#react-mask-660_00000036225414511895183570000001769891924043004805_);fill-rule:evenodd;clip-rule:evenodd;fill:#F4F4F4;}
	.st19{filter:url(#Adobe_OpacityMaskFilter_00000116922936539380010240000017176930368785290624_);}
	
		.st20{mask:url(#react-mask-660_00000176002232137431231050000013238825429398764972_);fill-rule:evenodd;clip-rule:evenodd;fill-opacity:0.16;}
	.st21{fill-rule:evenodd;clip-rule:evenodd;fill-opacity:0.7;}
	.st22{filter:url(#Adobe_OpacityMaskFilter_00000057139658655620834810000001652403453138042524_);}
	
		.st23{mask:url(#react-mask-592_00000102525826170279143830000018195311230549087112_);fill-rule:evenodd;clip-rule:evenodd;fill:#FFFFFF;}
	.st24{filter:url(#Adobe_OpacityMaskFilter_00000142893454387282841290000010127227126326954160_);}
	.st25{mask:url(#react-mask-592_00000040533188080207873780000009305833518481606564_);}
	.st26{fill-rule:evenodd;clip-rule:evenodd;fill:#FF4F6D;}
	.st27{fill-rule:evenodd;clip-rule:evenodd;fill-opacity:0.16;}
	.st28{fill-rule:evenodd;clip-rule:evenodd;fill-opacity:0.6;}
	.st29{fill-opacity:0.6;}
	.st30{filter:url(#Adobe_OpacityMaskFilter_00000070099177527817945550000015808804112364553390_);}
	.st31{mask:url(#react-mask-509_00000141435640475480708750000006466325252617690752_);}
	.st32{fill-rule:evenodd;clip-rule:evenodd;fill:#331B0C;}
	.st33{filter:url(#Adobe_OpacityMaskFilter_00000109023333944485003030000011361938440653753276_);}
	.st34{mask:url(#react-mask-567_00000061437525197472118030000008644920740438561213_);}
	.st35{fill-rule:evenodd;clip-rule:evenodd;fill:#2C1B18;}
	.st36{fill-rule:evenodd;clip-rule:evenodd;fill:#28354B;}
	.st37{filter:url(#Adobe_OpacityMaskFilter_00000008116953424544855000000007272772575800535731_);}
	.st38{mask:url(#react-mask-508_00000122712359279208737310000000765272302685981858_);}
</style>
<g id="Circle" transform="translate(12.000000, 40.000000)">
	<g id="Circle-Background">
		<circle id="react-path-1_00000154407274566744391290000000063293995017271198_" class="st0" cx="129" cy="99.6" r="138.1"/>
	</g>
	<defs>
		<filter id="Adobe_OpacityMaskFilter" filterUnits="userSpaceOnUse" x="-9.1" y="-38.5" width="303.6" height="324.9">
			<feColorMatrix  type="matrix" values="1 0 0 0 0  0 1 0 0 0  0 0 1 0 0  0 0 0 1 0"/>
		</filter>
	</defs>
	
		<mask maskUnits="userSpaceOnUse" x="-9.1" y="-38.5" width="303.6" height="324.9" id="react-mask-4_00000109733597206398818980000004890152363560559528_">
		<g class="st1">
			<circle id="react-path-1_00000136386930735607270710000011056312867938462645_" class="st2" cx="129" cy="99.6" r="138.1"/>
		</g>
	</mask>
	<g id="Color_x2F_Palette_x2F_Blue-01" class="st3">
		<rect id="_xD83D__xDD8D_Color" x="-9.1" y="-38.5" class="st4" width="276.2" height="276.2"/>
		<defs>
			
				<filter id="Adobe_OpacityMaskFilter_00000031925437466938959470000014511270277330469553_" filterUnits="userSpaceOnUse" x="-2.5" y="-29.5" width="297" height="316">
				<feColorMatrix  type="matrix" values="1 0 0 0 0  0 1 0 0 0  0 0 1 0 0  0 0 0 1 0"/>
			</filter>
		</defs>
		
			<mask maskUnits="userSpaceOnUse" x="-2.5" y="-29.5" width="297" height="316" id="react-mask-5_00000101807765058524854180000011009020632564309163_">
			<g style="filter:url(#Adobe_OpacityMaskFilter_00000031925437466938959470000014511270277330469553_);">
				<path id="react-path-2_00000155134773746154560760000005783276911653119637_" class="st2" d="M10.5,130.5
					c0,66.3,53.7,120,120,120s120-53.7,120-120h12v-160h-264v160H10.5z"/>
			</g>
		</mask>
		<g id="Avataaar" class="st6">
			<g id="Body" transform="translate(32.000000, 36.000000)">
				<g>
					<path id="react-path-3_00000029765840836777482530000007768373079490747281_" class="st7" d="M122.5,115.1v18.4h4l0,0
						c39.8,0,72,32.2,72,72v9h-200v-9c0-39.8,32.2-72,72-72l0,0h4v-18.4c-17.2-8.2-29.6-24.9-31.7-44.7c-5.8-0.8-10.3-5.8-10.3-11.9
						v-14c0-5.9,4.3-10.9,10-11.8v-6.2l0,0c0-30.9,25.1-56,56-56l0,0l0,0c30.9,0,56,25.1,56,56v6.2c5.7,1,10,5.9,10,11.8v14
						c0,6.1-4.5,11.1-10.3,11.9C152.1,90.1,139.8,106.9,122.5,115.1z"/>
				</g>
				<defs>
					
						<filter id="Adobe_OpacityMaskFilter_00000072270505086283583500000001036986907164666042_" filterUnits="userSpaceOnUse" x="-1.5" y="-29.5" width="264" height="280">
						<feColorMatrix  type="matrix" values="1 0 0 0 0  0 1 0 0 0  0 0 1 0 0  0 0 0 1 0"/>
					</filter>
				</defs>
				
					<mask maskUnits="userSpaceOnUse" x="-1.5" y="-29.5" width="264" height="280" id="react-mask-6_00000046297797287804770810000004268680625282134936_">
					<g style="filter:url(#Adobe_OpacityMaskFilter_00000072270505086283583500000001036986907164666042_);">
						<path id="react-path-3_00000018948248642099150710000002098097980412411799_" class="st2" d="M122.5,115.1v18.4h4l0,0
							c39.8,0,72,32.2,72,72v9h-200v-9c0-39.8,32.2-72,72-72l0,0h4v-18.4c-17.2-8.2-29.6-24.9-31.7-44.7
							c-5.8-0.8-10.3-5.8-10.3-11.9v-14c0-5.9,4.3-10.9,10-11.8v-6.2l0,0c0-30.9,25.1-56,56-56l0,0l0,0c30.9,0,56,25.1,56,56v6.2
							c5.7,1,10,5.9,10,11.8v14c0,6.1-4.5,11.1-10.3,11.9C152.1,90.1,139.8,106.9,122.5,115.1z"/>
					</g>
				</mask>
				<g id="Skin_x2F__xD83D__xDC76__xD83C__xDFFD_-03-Brown" class="st9">
					<g id="Color" transform="translate(0.000000, 0.000000)">
						<rect x="-1.5" y="-29.5" class="st10" width="264" height="280"/>
					</g>
				</g>
				<defs>
					
						<filter id="Adobe_OpacityMaskFilter_00000057844146292014544460000001903834444813517241_" filterUnits="userSpaceOnUse" x="42.5" y="49.5" width="112" height="79">
						<feColorMatrix  type="matrix" values="1 0 0 0 0  0 1 0 0 0  0 0 1 0 0  0 0 0 1 0"/>
					</filter>
				</defs>
				
					<mask maskUnits="userSpaceOnUse" x="42.5" y="49.5" width="112" height="79" id="react-mask-6_00000019659625966369583560000003876811276868863127_">
					<g style="filter:url(#Adobe_OpacityMaskFilter_00000057844146292014544460000001903834444813517241_);">
						<path id="react-path-3_00000014605159493297998680000008465133756156367283_" class="st2" d="M122.5,115.1v18.4h4l0,0
							c39.8,0,72,32.2,72,72v9h-200v-9c0-39.8,32.2-72,72-72l0,0h4v-18.4c-17.2-8.2-29.6-24.9-31.7-44.7
							c-5.8-0.8-10.3-5.8-10.3-11.9v-14c0-5.9,4.3-10.9,10-11.8v-6.2l0,0c0-30.9,25.1-56,56-56l0,0l0,0c30.9,0,56,25.1,56,56v6.2
							c5.7,1,10,5.9,10,11.8v14c0,6.1-4.5,11.1-10.3,11.9C152.1,90.1,139.8,106.9,122.5,115.1z"/>
					</g>
				</mask>
				<path id="Neck-Shadow" class="st12" d="M154.5,49.5v23c0,30.9-25.1,56-56,56s-56-25.1-56-56v-23v15c0,30.9,25.1,56,56,56
					s56-25.1,56-56V49.5z"/>
			</g>
			<g id="Clothing_x2F_Hoodie" transform="translate(0.000000, 170.000000)">
				<g id="Hoodie">
					<path id="react-path-659_00000101076992252626197490000008502366978549679796_" class="st13" d="M106.5-16.5
						c-17.9,2-31.7,7.5-32,21.6c-25.9,10.9-44,36.5-44,66.4l0,0v9h200v-9c0-29.8-18.1-55.4-44-66.4c-0.3-14.1-14.1-19.6-32-21.6V2.5
						l0,0c0,13.3-10.7,24-24,24l0,0c-13.3,0-24-10.7-24-24V-16.5z"/>
				</g>
				<defs>
					
						<filter id="Adobe_OpacityMaskFilter_00000036212310265321083140000009483910077705005197_" filterUnits="userSpaceOnUse" x="-1.5" y="-29.5" width="264" height="110">
						<feColorMatrix  type="matrix" values="1 0 0 0 0  0 1 0 0 0  0 0 1 0 0  0 0 0 1 0"/>
					</filter>
				</defs>
				
					<mask maskUnits="userSpaceOnUse" x="-1.5" y="-29.5" width="264" height="110" id="react-mask-660_00000076569151355479975890000003604546275903300494_">
					<g style="filter:url(#Adobe_OpacityMaskFilter_00000036212310265321083140000009483910077705005197_);">
						<path id="react-path-659_00000026156719454171707410000011699459598729402754_" class="st2" d="M106.5-16.5
							c-17.9,2-31.7,7.5-32,21.6c-25.9,10.9-44,36.5-44,66.4l0,0v9h200v-9c0-29.8-18.1-55.4-44-66.4c-0.3-14.1-14.1-19.6-32-21.6
							V2.5l0,0c0,13.3-10.7,24-24,24l0,0c-13.3,0-24-10.7-24-24V-16.5z"/>
					</g>
				</mask>
				<g id="Color_x2F_Palette_x2F_Gray-01" class="st15">
					
						<rect id="_xD83D__xDD8D_Color_00000075157881580198077300000003415458130222263987_" x="-1.5" y="-29.5" class="st16" width="264" height="110"/>
				</g>
				<defs>
					
						<filter id="Adobe_OpacityMaskFilter_00000059285379998863531370000006761820271972705961_" filterUnits="userSpaceOnUse" x="93.5" y="28.6" width="74" height="51.8">
						<feColorMatrix  type="matrix" values="1 0 0 0 0  0 1 0 0 0  0 0 1 0 0  0 0 0 1 0"/>
					</filter>
				</defs>
				
					<mask maskUnits="userSpaceOnUse" x="93.5" y="28.6" width="74" height="51.8" id="react-mask-660_00000036225414511895183570000001769891924043004805_">
					<g style="filter:url(#Adobe_OpacityMaskFilter_00000059285379998863531370000006761820271972705961_);">
						<path id="react-path-659_00000044173302113888553900000005304588302810630290_" class="st2" d="M106.5-16.5
							c-17.9,2-31.7,7.5-32,21.6c-25.9,10.9-44,36.5-44,66.4l0,0v9h200v-9c0-29.8-18.1-55.4-44-66.4c-0.3-14.1-14.1-19.6-32-21.6
							V2.5l0,0c0,13.3-10.7,24-24,24l0,0c-13.3,0-24-10.7-24-24V-16.5z"/>
					</g>
				</mask>
				<path id="Straps" class="st18" d="M100.5,32.2v48.3h-7V28.6C95.7,29.9,98.1,31.1,100.5,32.2z M167.5,28.6V69
					c0,1.9-1.6,3.5-3.5,3.5s-3.5-1.6-3.5-3.5V32.2C163,31.1,165.3,29.9,167.5,28.6z"/>
				<defs>
					
						<filter id="Adobe_OpacityMaskFilter_00000121246405205954648140000013887041551474206853_" filterUnits="userSpaceOnUse" x="64" y="-16.8" width="133" height="55.3">
						<feColorMatrix  type="matrix" values="1 0 0 0 0  0 1 0 0 0  0 0 1 0 0  0 0 0 1 0"/>
					</filter>
				</defs>
				
					<mask maskUnits="userSpaceOnUse" x="64" y="-16.8" width="133" height="55.3" id="react-mask-660_00000176002232137431231050000013238825429398764972_">
					<g style="filter:url(#Adobe_OpacityMaskFilter_00000121246405205954648140000013887041551474206853_);">
						<path id="react-path-659_00000077299756867908519710000012156462758819053956_" class="st2" d="M106.5-16.5
							c-17.9,2-31.7,7.5-32,21.6c-25.9,10.9-44,36.5-44,66.4l0,0v9h200v-9c0-29.8-18.1-55.4-44-66.4c-0.3-14.1-14.1-19.6-32-21.6
							V2.5l0,0c0,13.3-10.7,24-24,24l0,0c-13.3,0-24-10.7-24-24V-16.5z"/>
					</g>
				</mask>
				<path id="Shadow" class="st20" d="M89.5-16.8C74.4-14,64-8.3,64,2.8c0,19.7,33,35.7,66.5,35.7S197,22.5,197,2.8
					c0-11.1-10.4-16.7-25.5-19.6c9.1,3.4,15,9,15,18.4c0,20.4-27.8,36.9-56,36.9s-56-16.5-56-36.9C74.5-7.8,80.4-13.5,89.5-16.8z"/>
			</g>
			<g id="Face" transform="translate(76.000000, 82.000000)">
				<g id="Mouth_x2F_Smile" transform="translate(2.000000, 52.000000)">
					<g id="Mouth">
						<path id="react-path-591_00000129176642851829942880000016486866459192824250_" class="st21" d="M33.6-14.4
							c1.1,9.5,9.1,16.9,18.9,16.9c9.8,0,17.9-7.4,18.9-17c0.1-0.8-0.8-2-1.8-2c-14.9,0-26.3,0-34,0C34.5-16.5,33.5-15.4,33.6-14.4z
							"/>
					</g>
					<defs>
						
							<filter id="Adobe_OpacityMaskFilter_00000044898563983532777040000013347961566206289083_" filterUnits="userSpaceOnUse" x="37.5" y="-27.5" width="31" height="16">
							<feColorMatrix  type="matrix" values="1 0 0 0 0  0 1 0 0 0  0 0 1 0 0  0 0 0 1 0"/>
						</filter>
					</defs>
					
						<mask maskUnits="userSpaceOnUse" x="37.5" y="-27.5" width="31" height="16" id="react-mask-592_00000102525826170279143830000018195311230549087112_">
						<g style="filter:url(#Adobe_OpacityMaskFilter_00000044898563983532777040000013347961566206289083_);">
							<path id="react-path-591_00000145020358114103664930000007198126004631051938_" class="st2" d="M33.6-14.4
								c1.1,9.5,9.1,16.9,18.9,16.9c9.8,0,17.9-7.4,18.9-17c0.1-0.8-0.8-2-1.8-2c-14.9,0-26.3,0-34,0C34.5-16.5,33.5-15.4,33.6-14.4
								z"/>
						</g>
					</mask>
					<path id="Teeth" class="st23" d="M42.5-27.5h21c2.8,0,5,2.2,5,5v6c0,2.8-2.2,5-5,5h-21c-2.8,0-5-2.2-5-5v-6
						C37.5-25.3,39.8-27.5,42.5-27.5z"/>
					<defs>
						
							<filter id="Adobe_OpacityMaskFilter_00000142146254576355002090000001583392471084949164_" filterUnits="userSpaceOnUse" x="36.5" y="-5.5" width="32" height="22">
							<feColorMatrix  type="matrix" values="1 0 0 0 0  0 1 0 0 0  0 0 1 0 0  0 0 0 1 0"/>
						</filter>
					</defs>
					
						<mask maskUnits="userSpaceOnUse" x="36.5" y="-5.5" width="32" height="22" id="react-mask-592_00000040533188080207873780000009305833518481606564_">
						<g style="filter:url(#Adobe_OpacityMaskFilter_00000142146254576355002090000001583392471084949164_);">
							<path id="react-path-591_00000051367632218022503840000016445435655542937763_" class="st2" d="M33.6-14.4
								c1.1,9.5,9.1,16.9,18.9,16.9c9.8,0,17.9-7.4,18.9-17c0.1-0.8-0.8-2-1.8-2c-14.9,0-26.3,0-34,0C34.5-16.5,33.5-15.4,33.6-14.4
								z"/>
						</g>
					</mask>
					<g id="Tongue" class="st25">
						<g transform="translate(38.000000, 24.000000)">
							<circle class="st26" cx="9.5" cy="-18.5" r="11"/>
							<circle class="st26" cx="19.5" cy="-18.5" r="11"/>
						</g>
					</g>
				</g>
				<g id="Nose_x2F_Default" transform="translate(28.000000, 40.000000)">
					<path id="Nose" class="st27" d="M14.5-21.5c0,4.4,5.4,8,12,8l0,0c6.6,0,12-3.6,12-8"/>
				</g>
				<g id="Eyes_x2F_Happy-_xD83D__xDE01_" transform="translate(0.000000, 8.000000)">
					<path id="Squint" class="st28" d="M14.7-7.1c1.8-3.8,6-6.4,10.8-6.4c4.8,0,9,2.6,10.8,6.4c0.6,1.1-0.2,2-1,1.4
						c-2.5-2.1-5.9-3.4-9.8-3.4C21.8-9.2,18.4-8,16-6C15.1-5.2,14.1-6,14.7-7.1z"/>
					<path id="Squint_00000059312292936175698130000001646836756030949538_" class="st28" d="M72.7-7.1c1.8-3.8,6-6.4,10.8-6.4
						c4.8,0,9,2.6,10.8,6.4c0.6,1.1-0.2,2-1,1.4c-2.5-2.1-5.9-3.4-9.8-3.4C79.8-9.2,76.4-8,74-6C73.1-5.2,72.1-6,72.7-7.1z"/>
				</g>
				<g id="Eyebrow_x2F_Outline_x2F_Default">
					<g id="I-Browse" transform="translate(12.000000, 6.000000)">
						<path id="Eyebrow" class="st29" d="M2.2-18.4C6.1-23.9,16.8-27,26-24.7c1.1,0.3,2.2-0.4,2.4-1.5c0.3-1.1-0.4-2.2-1.5-2.4
							c-10.7-2.6-23.2,0.9-28.1,7.9c-0.6,0.9-0.4,2.1,0.5,2.8S1.5-17.5,2.2-18.4z"/>
						<path id="Eyebrow_00000045586438690711373420000013807385261607966126_" class="st29" d="M82.9-18.4C79-23.9,68.2-27,59-24.7
							c-1.1,0.3-2.2-0.4-2.4-1.5c-0.3-1.1,0.4-2.2,1.5-2.4c10.7-2.6,23.2,0.9,28.1,7.9c0.6,0.9,0.4,2.1-0.5,2.8S83.5-17.5,82.9-18.4
							z"/>
					</g>
				</g>
			</g>
			<g id="Top">
				<g id="Mask_00000024679728181616039630000011122985164993334151_">
				</g>
				<defs>
					
						<filter id="Adobe_OpacityMaskFilter_00000109027856924442518090000000706326642988400000_" filterUnits="userSpaceOnUse" x="-2.5" y="-29.5" width="281" height="316">
						<feColorMatrix  type="matrix" values="1 0 0 0 0  0 1 0 0 0  0 0 1 0 0  0 0 0 1 0"/>
					</filter>
				</defs>
				
					<mask maskUnits="userSpaceOnUse" x="-2.5" y="-29.5" width="281" height="316" id="react-mask-509_00000141435640475480708750000006466325252617690752_">
					<g style="filter:url(#Adobe_OpacityMaskFilter_00000109027856924442518090000000706326642988400000_);">
						
							<rect id="react-path-511_00000096756136841433741060000018335470997038841487_" x="-1.5" y="-29.5" class="st2" width="264" height="280"/>
					</g>
				</mask>
				<g id="Top_x2F_Short-Hair_x2F_Short-Curly" class="st31">
					<g transform="translate(-1.000000, 0.000000)">
						<g id="Facial-Hair_x2F_Beard-Light" transform="translate(49.000000, 72.000000)">
							<g id="Lite-Beard">
								<path id="react-path-568_00000029742563630448087180000012265606029026553227_" class="st32" d="M99.9,68.6
									c-2.5,2.3-5.2,3.3-8.6,2.6c-0.6-0.1-3-4.5-8.9-4.5c-5.9,0-8.3,4.4-8.9,4.5c-3.4,0.7-6.1-0.3-8.6-2.6
									c-4.7-4.3-8.7-10.3-6.3-16.7c1.2-3.4,3.2-7.1,6.9-8.2c3.9-1.2,9.3,0,13.3-0.8c1.3-0.3,2.7-0.7,3.6-1.5
									c0.9,0.8,2.3,1.2,3.6,1.5c3.9,0.8,9.4-0.4,13.3,0.8c3.6,1.1,5.6,4.8,6.9,8.2C108.6,58.4,104.7,64.3,99.9,68.6 M138.6-3.5
									c-3.4,8.4-2.1,18.9-2.7,27.7c-0.5,7.2-2,17.9-8.4,22.5c-3.3,2.4-9.2,6.3-13.4,5.2c-2.9-0.8-3.2-9.2-7.1-12.3
									c-4.4-3.6-9.8-5.1-15.3-4.9c-2.4,0.1-7.2,0.1-9.1,1.9c-2-1.8-6.8-1.8-9.1-1.9c-5.5-0.2-10.9,1.3-15.3,4.9
									c-3.8,3.1-4.2,11.5-7.1,12.3C46.7,53,40.8,49,37.5,46.7c-6.4-4.6-7.9-15.4-8.4-22.5c-0.6-8.8,0.7-19.3-2.7-27.7
									c-1.7,0-0.6,16.1-0.6,16.1v20.4c0,15.3,9.6,38.2,30.8,46.9c5.2,2.1,16.9,5.6,25.9,5.6s20.7-3.1,25.9-5.3
									c21.2-8.7,30.7-32,30.8-47.2V12.6C139.2,12.6,140.3-3.5,138.6-3.5"/>
							</g>
							<defs>
								
									<filter id="Adobe_OpacityMaskFilter_00000002377282598621543060000016148519254586873220_" filterUnits="userSpaceOnUse" x="-33.5" y="-29.5" width="264" height="244">
									<feColorMatrix  type="matrix" values="1 0 0 0 0  0 1 0 0 0  0 0 1 0 0  0 0 0 1 0"/>
								</filter>
							</defs>
							
								<mask maskUnits="userSpaceOnUse" x="-33.5" y="-29.5" width="264" height="244" id="react-mask-567_00000061437525197472118030000008644920740438561213_">
								<g style="filter:url(#Adobe_OpacityMaskFilter_00000002377282598621543060000016148519254586873220_);">
									<path id="react-path-568_00000081623143255755694570000002238431467540476314_" class="st2" d="M99.9,68.6
										c-2.5,2.3-5.2,3.3-8.6,2.6c-0.6-0.1-3-4.5-8.9-4.5c-5.9,0-8.3,4.4-8.9,4.5c-3.4,0.7-6.1-0.3-8.6-2.6
										c-4.7-4.3-8.7-10.3-6.3-16.7c1.2-3.4,3.2-7.1,6.9-8.2c3.9-1.2,9.3,0,13.3-0.8c1.3-0.3,2.7-0.7,3.6-1.5
										c0.9,0.8,2.3,1.2,3.6,1.5c3.9,0.8,9.4-0.4,13.3,0.8c3.6,1.1,5.6,4.8,6.9,8.2C108.6,58.4,104.7,64.3,99.9,68.6 M138.6-3.5
										c-3.4,8.4-2.1,18.9-2.7,27.7c-0.5,7.2-2,17.9-8.4,22.5c-3.3,2.4-9.2,6.3-13.4,5.2c-2.9-0.8-3.2-9.2-7.1-12.3
										c-4.4-3.6-9.8-5.1-15.3-4.9c-2.4,0.1-7.2,0.1-9.1,1.9c-2-1.8-6.8-1.8-9.1-1.9c-5.5-0.2-10.9,1.3-15.3,4.9
										c-3.8,3.1-4.2,11.5-7.1,12.3C46.7,53,40.8,49,37.5,46.7c-6.4-4.6-7.9-15.4-8.4-22.5c-0.6-8.8,0.7-19.3-2.7-27.7
										c-1.7,0-0.6,16.1-0.6,16.1v20.4c0,15.3,9.6,38.2,30.8,46.9c5.2,2.1,16.9,5.6,25.9,5.6s20.7-3.1,25.9-5.3
										c21.2-8.7,30.7-32,30.8-47.2V12.6C139.2,12.6,140.3-3.5,138.6-3.5"/>
								</g>
							</mask>
							<g id="Color_x2F_Hair_x2F_Brown" class="st34">
								<g id="Color_00000014619537672021719470000012638686568338208904_" transform="translate(-32.000000, 0.000000)">
									<rect x="-1.5" y="-29.5" class="st35" width="264" height="244"/>
								</g>
							</g>
						</g>
						<g id="Short-Hair">
							<path id="react-path-510_00000183930430269096939130000004108209498507966618_" class="st36" d="M92.8,22.5
								c0.1-0.1-0.2-0.1-0.9-0.1C92.7,22.4,93.1,22.4,92.8,22.5 M84.6,6.8C84.6,6.7,84.7,6.9,84.6,6.8 M192.3,41.2
								c-0.3-3.3-0.7-6.6-1.5-9.9c-0.6-2.6-1.5-5-2.5-7.5c-0.6-1.5-2-3.5-2.2-5.1c-0.2-1.6,1.1-3.3,1.3-5.2c0.3-1.8,0.2-3.7-0.2-5.4
								c-0.8-4-3.6-7.8-7.9-8.8c-1-0.2-3,0.1-3.6-0.5c-0.8-0.6-1.3-2.8-2-3.7c-2-2.5-5.1-4.1-8.4-3.5c-2.4,0.4-1,0.9-2.8-0.5
								c-1-0.8-1.8-2-2.7-2.8c-1.5-1.3-3.2-2.4-4.9-3.3c-4.6-2.4-9.8-4.1-14.8-4.9c-9.3-1.5-19.2-0.2-28.2,2.2
								c-4.5,1.2-9,2.7-13.1,4.7c-1.8,0.9-2.8,1.6-4.7,1.8c-2.9,0.4-5.4,0.3-8.2,1.6c-8.5,3.8-12.4,12.7-9.1,21.2
								c0.7,1.7,1.6,3.2,2.8,4.6c1.5,1.7,2.1,1.3,0.8,3.3c-2,2.9-3.6,6-5,9.2c-3.5,8.4-4.1,17.9-3.9,26.8c0.1,3.1,0.2,6.3,0.7,9.4
								c0.2,1.3,0.3,3.9,1.3,4.9c0.5,0.5,1.2,0.8,2,0.6c1.7-0.5,1.1-1.7,1.2-2.9c0.2-5.9-0.1-11.1,1.3-16.9c1-4.3,2.8-8.2,5-12
								c2.8-4.9,5.9-9.2,9.8-13.4c0.9-1,1.1-1.4,2.3-1.5c0.9-0.1,2.3,0.6,3.2,0.8c2,0.5,4,1,6,1.3c3.7,0.6,7.4,0.6,11.2,0.5
								c7.4-0.2,14.9-0.8,22.1-2.6c4.8-1.2,9-3.5,13.6-5.1c0.1,0,1.2-0.8,1.4-0.8c0.3,0,2,1.8,2.3,2c2.2,1.7,4.7,2.5,7.1,3.8
								c3,1.7,0.1-0.7,1.7,1.4c0.5,0.6,0.7,1.7,1.1,2.4c1.2,2.2,2.9,4.1,4.9,5.6c2,1.5,4.9,2.2,5.9,4.1c0.8,1.5,1,3.5,1.6,5.1
								c1.6,4.1,3.8,8,5.9,11.9c1.7,3.1,3.6,5.9,3.8,9.5c0.1,1.2-1.1,8.7,1.8,6.5c0.4-0.3,1.4-4.2,1.5-4.8c0.8-2.6,1-5.4,1.4-8.1
								C192.5,51.8,192.7,46.6,192.3,41.2"/>
						</g>
						<defs>
							
								<filter id="Adobe_OpacityMaskFilter_00000047027515079002016920000014804840453149398958_" filterUnits="userSpaceOnUse" x="-1.5" y="-29.5" width="264" height="280">
								<feColorMatrix  type="matrix" values="1 0 0 0 0  0 1 0 0 0  0 0 1 0 0  0 0 0 1 0"/>
							</filter>
						</defs>
						
							<mask maskUnits="userSpaceOnUse" x="-1.5" y="-29.5" width="264" height="280" id="react-mask-508_00000122712359279208737310000000765272302685981858_">
							<g style="filter:url(#Adobe_OpacityMaskFilter_00000047027515079002016920000014804840453149398958_);">
								<path id="react-path-510_00000011026827079821421460000002013896764490679974_" class="st2" d="M92.8,22.5
									c0.1-0.1-0.2-0.1-0.9-0.1C92.7,22.4,93.1,22.4,92.8,22.5 M84.6,6.8C84.6,6.7,84.7,6.9,84.6,6.8 M192.3,41.2
									c-0.3-3.3-0.7-6.6-1.5-9.9c-0.6-2.6-1.5-5-2.5-7.5c-0.6-1.5-2-3.5-2.2-5.1c-0.2-1.6,1.1-3.3,1.3-5.2
									c0.3-1.8,0.2-3.7-0.2-5.4c-0.8-4-3.6-7.8-7.9-8.8c-1-0.2-3,0.1-3.6-0.5c-0.8-0.6-1.3-2.8-2-3.7c-2-2.5-5.1-4.1-8.4-3.5
									c-2.4,0.4-1,0.9-2.8-0.5c-1-0.8-1.8-2-2.7-2.8c-1.5-1.3-3.2-2.4-4.9-3.3c-4.6-2.4-9.8-4.1-14.8-4.9
									c-9.3-1.5-19.2-0.2-28.2,2.2c-4.5,1.2-9,2.7-13.1,4.7c-1.8,0.9-2.8,1.6-4.7,1.8c-2.9,0.4-5.4,0.3-8.2,1.6
									c-8.5,3.8-12.4,12.7-9.1,21.2c0.7,1.7,1.6,3.2,2.8,4.6c1.5,1.7,2.1,1.3,0.8,3.3c-2,2.9-3.6,6-5,9.2
									c-3.5,8.4-4.1,17.9-3.9,26.8c0.1,3.1,0.2,6.3,0.7,9.4c0.2,1.3,0.3,3.9,1.3,4.9c0.5,0.5,1.2,0.8,2,0.6
									c1.7-0.5,1.1-1.7,1.2-2.9c0.2-5.9-0.1-11.1,1.3-16.9c1-4.3,2.8-8.2,5-12c2.8-4.9,5.9-9.2,9.8-13.4c0.9-1,1.1-1.4,2.3-1.5
									c0.9-0.1,2.3,0.6,3.2,0.8c2,0.5,4,1,6,1.3c3.7,0.6,7.4,0.6,11.2,0.5c7.4-0.2,14.9-0.8,22.1-2.6c4.8-1.2,9-3.5,13.6-5.1
									c0.1,0,1.2-0.8,1.4-0.8c0.3,0,2,1.8,2.3,2c2.2,1.7,4.7,2.5,7.1,3.8c3,1.7,0.1-0.7,1.7,1.4c0.5,0.6,0.7,1.7,1.1,2.4
									c1.2,2.2,2.9,4.1,4.9,5.6c2,1.5,4.9,2.2,5.9,4.1c0.8,1.5,1,3.5,1.6,5.1c1.6,4.1,3.8,8,5.9,11.9c1.7,3.1,3.6,5.9,3.8,9.5
									c0.1,1.2-1.1,8.7,1.8,6.5c0.4-0.3,1.4-4.2,1.5-4.8c0.8-2.6,1-5.4,1.4-8.1C192.5,51.8,192.7,46.6,192.3,41.2"/>
							</g>
						</mask>
						<g id="Skin_x2F__xD83D__xDC76__xD83C__xDFFD_-03-Brown_00000166656662122140470710000009335293660066024638_" class="st38">
							<g id="Color_00000075149062160391946890000008246146862326954148_" transform="translate(0.000000, 0.000000) ">
								<rect x="-1.5" y="-29.5" class="st35" width="264" height="280"/>
							</g>
						</g>
					</g>
				</g>
			</g>
		</g>
	</g>
</g>
<g id="Mask">
</g>
</svg>
