<?xml version="1.0" standalone="no"?>
<!DOCTYPE svg PUBLIC "-//W3C//DTD SVG 20010904//EN"
 "http://www.w3.org/TR/2001/REC-SVG-20010904/DTD/svg10.dtd">
<svg version="1.0" xmlns="http://www.w3.org/2000/svg"
 width="128.000000pt" height="128.000000pt" viewBox="0 0 128.000000 128.000000"
 preserveAspectRatio="xMidYMid meet">

<g transform="translate(0.000000,128.000000) scale(0.100000,-0.100000)"
fill="#000000" stroke="none">
<path d="M351 1093 c-34 -4 -34 -5 -10 -17 l24 -12 0 -414 0 -415 -22 -10
c-13 -5 -23 -13 -23 -18 0 -4 143 -6 317 -5 l317 3 13 50 c13 51 17 105 8 105
-3 0 -19 -16 -36 -35 -44 -49 -80 -57 -269 -53 l-165 3 -3 178 -2 177 165 0
c152 0 167 -2 185 -20 11 -11 20 -24 20 -30 0 -5 5 -10 10 -10 6 0 10 38 10
95 0 96 -8 115 -28 71 -15 -33 -46 -38 -217 -34 l-140 3 -3 154 c-2 117 1 156
10 163 16 9 323 9 358 -1 14 -4 31 -19 38 -34 21 -44 32 -31 32 37 0 58 -2 64
-22 70 -25 6 -512 5 -567 -1z"/>
</g>
</svg>
