<svg xmlns="http://www.w3.org/2000/svg" xmlns:xlink="http://www.w3.org/1999/xlink" version="1.1" id="Capa_1" x="0px" y="0px" style="enable-background:new 0 0 566.93 566.93;" xml:space="preserve" viewBox="55.8 88.35 455.3 390.22">
<style type="text/css">
	.st0{fill:#f1ebeb;}
	.st1{fill:#00FFFF;}
</style>
<g>
	<path class="st0" d="M56.06,476.78l0.28-0.77c-0.06,0.22-0.11,0.44-0.17,0.61c0,0.06,0,0.06,0,0.06L56.06,476.78z"/>
	<path class="st0" d="M74.08,422.23c0.61-1.22,1.16-2.49,1.82-3.76c-0.72,1.49-1.38,2.99-2.05,4.48L74.08,422.23z"/>
	<path class="st0" d="M86.08,398.51c3.04-5.42,6.41-11,10.12-16.53C92.54,387.57,89.17,393.1,86.08,398.51z"/>
	<path class="st0" d="M101.94,373.7c2.93-4.15,6.13-8.24,9.51-12.33C108.13,365.46,104.93,369.61,101.94,373.7z"/>
	<path class="st0" d="M129.91,341.58c-4.03,3.81-7.85,7.74-11.44,11.72C122,349.32,125.87,345.34,129.91,341.58z"/>
	<path class="st0" d="M147.15,326.82c7.63-5.91,15.92-11.39,24.87-16.25C163.07,315.49,154.84,320.96,147.15,326.82z"/>
	<path class="st0" d="M331.44,339.15c1.05,1.6,2.1,3.21,3.09,4.81v0.06h-0.05C333.49,342.35,332.44,340.75,331.44,339.15z"/>
	<path class="st0" d="M334.48,344.01C171.97,347.22,60.71,472.8,55.9,478.28c0.06-0.28,0.11-0.83,0.28-1.6c0,0,0,0,0-0.06   c0.06-0.16,0.11-0.39,0.17-0.61c0-0.11,0.06-0.22,0.06-0.33l17.47-52.73c0.66-1.49,1.33-2.99,2.05-4.48   c0.61-1.27,1.22-2.6,1.82-3.87c0.66-1.33,1.33-2.65,1.94-3.98c0.66-1.33,1.33-2.65,2.05-3.98c1.33-2.6,2.76-5.14,4.15-7.79   c0.11-0.11,0.17-0.22,0.22-0.33c3.1-5.42,6.47-10.94,10.12-16.53c1.88-2.71,3.76-5.47,5.75-8.29c2.99-4.09,6.19-8.24,9.51-12.33   c1.16-1.33,2.27-2.71,3.43-4.04c1.16-1.33,2.38-2.71,3.59-4.03c3.59-3.98,7.41-7.9,11.44-11.72c1.38-1.27,2.71-2.54,4.09-3.81   c4.2-3.76,8.57-7.41,13.15-10.94c7.68-5.86,15.92-11.33,24.87-16.25c1.77-0.99,3.59-1.99,5.42-2.93c1.88-0.94,3.7-1.88,5.64-2.76   c3.76-1.82,7.68-3.54,11.66-5.14c5.53-2.27,11.27-4.26,17.3-6.08c2.65-0.83,5.36-1.6,8.07-2.32c4.48-1.16,9.07-2.21,13.76-3.15   c1.55-0.33,3.15-0.61,4.75-0.89c2.76-0.5,5.58-0.94,8.46-1.33c1.49-0.22,2.99-0.39,4.48-0.55c4.26-0.55,8.62-0.94,13.04-1.27   c1.88-0.11,3.81-0.22,5.69-0.28c1.88-0.11,3.76-0.17,5.69-0.22c2.43-0.06,4.86-0.11,7.35-0.11c0.05,0,0.05,0,0.11,0   c0.05,0.06,0.05,0.06,0.11,0.11c3.82,3.37,7.74,7.08,11.55,10.94c3.98,3.98,7.74,7.96,11.39,12.05c2.76,3.1,5.42,6.19,7.96,9.4   c1.16,1.38,2.27,2.71,3.32,4.09c2.49,3.1,4.86,6.25,7.07,9.45c1.16,1.55,2.27,3.15,3.37,4.75c1.11,1.6,2.16,3.21,3.21,4.81   C332.44,340.75,333.49,342.35,334.48,344.01z"/>
	<path class="st0" d="M74.08,422.23c0.61-1.22,1.16-2.49,1.82-3.76c-0.72,1.49-1.38,2.99-2.05,4.48l-17.47,52.73   c0,0.11-0.06,0.22-0.06,0.33c-0.06,0.22-0.11,0.44-0.17,0.61c0,0.06,0,0.06,0,0.06c-0.17,0.77-0.22,1.33-0.28,1.6   c0,0.06,0,0.06-0.06,0.11c0.06-0.55,0.11-1.05,0.22-1.6c0.06-0.33,0.11-0.66,0.22-1.05c0.06-0.39,0.17-0.83,0.28-1.27   c0-0.11,0.05-0.28,0.05-0.39c0.22-0.83,0.44-1.77,0.66-2.82c0.22-0.99,0.5-2.1,0.83-3.26c0.17-0.77,0.39-1.6,0.66-2.49   c0.44-1.77,0.94-3.7,1.6-5.75c0.17-0.44,0.28-0.83,0.39-1.27c0.11-0.5,0.28-1.05,0.44-1.6c0.11-0.39,0.22-0.72,0.39-1.11   c0.28-0.94,0.61-1.88,0.88-2.87c0.17-0.61,0.33-1.16,0.55-1.77c0.17-0.5,0.33-1,0.5-1.55c0.44-1.33,0.88-2.76,1.44-4.2   c0.17-0.55,0.39-1.16,0.66-1.77c0.39-0.99,0.72-2.04,1.11-3.09c0.44-1.22,0.89-2.43,1.38-3.65   C69.83,432.23,71.87,427.31,74.08,422.23z"/>
	<path class="st0" d="M86.08,398.51c3.04-5.42,6.41-11,10.12-16.53C92.54,387.57,89.17,393.1,86.08,398.51z"/>
	<path class="st0" d="M101.94,373.7c2.93-4.15,6.13-8.24,9.51-12.33C108.13,365.46,104.93,369.61,101.94,373.7z"/>
	<path class="st0" d="M129.91,341.58c-4.03,3.81-7.85,7.74-11.44,11.72C122,349.32,125.87,345.34,129.91,341.58z"/>
	<path class="st0" d="M147.15,326.82c7.63-5.91,15.92-11.39,24.87-16.25C163.07,315.49,154.84,320.96,147.15,326.82z"/>
	<path class="st0" d="M511.03,88.7c0,0.22-0.11,0.77-0.28,1.6c-3.87,19.18-43.89,192.96-226.9,193.24h-0.39   c-0.06-0.06-0.06-0.06-0.11-0.11c-3.76-3.32-7.57-6.91-11.33-10.72l-0.22-0.22c-3.98-3.98-7.74-7.96-11.39-12.05   c-10.67-11.94-20.06-24.43-28.08-37.48v-0.06h0.11c-0.06-0.06-0.06-0.11-0.11-0.17c163.5-3.21,275.16-130.39,278.64-134.37   c0,0.17-0.06,0.28-0.06,0.44L511.03,88.7z"/>
	<g>
		<path class="st1" d="M58.77,465.51c0.44-1.77,0.94-3.7,1.6-5.75c-2.05,7.3-3.32,12.82-3.98,15.92c0,0.11-0.06,0.22-0.06,0.33    c-0.06,0.22-0.11,0.44-0.17,0.61c0,0.06,0,0.06,0,0.06c-0.17,0.77-0.22,1.33-0.28,1.6c0,0.06,0,0.06-0.06,0.11    c0.06-0.55,0.11-1.05,0.22-1.6c0.06-0.33,0.11-0.66,0.22-1.05c0.06-0.39,0.17-0.83,0.28-1.27c0-0.11,0.05-0.28,0.05-0.39    c0.22-0.83,0.44-1.77,0.66-2.82c0.22-0.99,0.5-2.1,0.83-3.26C58.27,467.22,58.49,466.39,58.77,465.51z"/>
		<path class="st1" d="M66.73,440.52c-0.39,1.05-0.72,2.1-1.11,3.09c-1.16,3.26-2.21,6.41-3.15,9.29c-0.28,1-0.61,1.94-0.88,2.87    c-0.28,0.89-0.55,1.82-0.83,2.71c0.11-0.5,0.28-1.05,0.44-1.6c0.5-1.82,1.11-3.7,1.82-5.75c0.17-0.5,0.33-1,0.5-1.55    c0.44-1.33,0.88-2.76,1.44-4.2C65.51,443.84,66.07,442.18,66.73,440.52z"/>
		<path class="st1" d="M75.91,418.47c-0.72,1.49-1.38,2.99-2.05,4.48c-2.1,4.81-4.03,9.51-5.75,13.93    c1.71-4.64,3.76-9.56,5.97-14.65C74.69,421.01,75.24,419.74,75.91,418.47z"/>
		<path class="st1" d="M96.19,381.99c-3.65,5.58-7.02,11.11-10.12,16.53C89.12,393.1,92.49,387.52,96.19,381.99z"/>
		<path class="st1" d="M111.45,361.37c-3.32,4.09-6.52,8.24-9.51,12.33C104.87,369.55,108.08,365.46,111.45,361.37z"/>
		<path class="st1" d="M129.91,341.58c-4.03,3.81-7.85,7.74-11.44,11.72C122,349.32,125.87,345.34,129.91,341.58z"/>
		<path class="st1" d="M172.03,310.57c-8.96,4.92-17.19,10.39-24.87,16.25C154.78,320.91,163.07,315.44,172.03,310.57z"/>
	</g>
	<path class="st1" d="M283.47,283.49c-17.85,0-34.33,1.66-49.58,4.64C83.54,317.7,55.84,478.44,55.84,478.44   c0-71.69,25.48-132.88,76.39-183.57c3.87-3.92,7.79-7.68,11.66-11.39c-3.87-3.43-7.79-7.13-11.66-11.05   c-25.92-25.92-45.27-54.56-57.98-85.9c-12.27-30.12-18.41-62.85-18.41-98v-0.11h139.57v0.11c0,22.72,2.54,44.39,7.68,65h-0.06   c0,0.06,0.06,0.06,0.06,0.11c6.08,24.6,15.86,47.65,29.24,69.26c8.01,13.04,17.41,25.54,28.08,37.48   c3.65,4.09,7.41,8.07,11.39,12.05l0.22,0.22C275.84,276.52,279.65,280.12,283.47,283.49z"/>
	<path class="st1" d="M434.7,294.55c50.91,50.91,76.39,112.21,76.39,183.9v0.11H371.52v-0.11c0-22.72-2.54-44.39-7.68-65h0.06   c0-0.06-0.06-0.06-0.06-0.11c-9.78-39.41-28.91-74.95-57.32-106.74c-3.65-4.09-7.41-8.07-11.39-12.05   c-3.81-3.87-7.74-7.57-11.55-10.94c-0.06-0.06-0.06-0.06-0.11-0.11h0.39c183.02-0.28,223.03-174.06,226.9-193.24   c0.22-1.11,0.33-1.71,0.33-1.71c0,71.69-25.48,132.88-76.39,183.57c-3.87,3.92-7.79,7.68-11.66,11.39   C426.9,286.92,430.83,290.63,434.7,294.55z"/>
</g>
</svg>