<?xml version="1.0" encoding="UTF-8" standalone="no"?>
<!-- Created with Inkscape (http://www.inkscape.org/) -->

<svg
   width="145.19418mm"
   height="155.0361mm"
   viewBox="0 0 145.19418 155.0361"
   version="1.1"
   id="svg1"
   xml:space="preserve"
   inkscape:version="1.3 (0e150ed6c4, 2023-07-21)"
   sodipodi:docname="astronaut_developer.svg"
   xmlns:inkscape="http://www.inkscape.org/namespaces/inkscape"
   xmlns:sodipodi="http://sodipodi.sourceforge.net/DTD/sodipodi-0.dtd"
   xmlns="http://www.w3.org/2000/svg"
   xmlns:svg="http://www.w3.org/2000/svg"><sodipodi:namedview
     id="namedview1"
     pagecolor="#ffffff"
     bordercolor="#000000"
     borderopacity="0.25"
     inkscape:showpageshadow="2"
     inkscape:pageopacity="0.0"
     inkscape:pagecheckerboard="0"
     inkscape:deskcolor="#d1d1d1"
     inkscape:document-units="mm"
     inkscape:zoom="0.44631734"
     inkscape:cx="292.39285"
     inkscape:cy="193.80829"
     inkscape:window-width="1366"
     inkscape:window-height="697"
     inkscape:window-x="1912"
     inkscape:window-y="171"
     inkscape:window-maximized="1"
     inkscape:current-layer="layer1" /><defs
     id="defs1" /><g
     inkscape:label="Capa 1"
     inkscape:groupmode="layer"
     id="layer1"
     transform="translate(-42.814454,-83.262424)"><path
       style="fill:#ffffff"
       d="m 119.31363,237.80509 c -3.52756,-1.04605 -5.9011,-2.13312 -8.18127,-3.74701 -1.28664,-0.91068 -2.53468,-1.85111 -2.7734,-2.08983 -0.23873,-0.23873 -0.53359,-0.43405 -0.65525,-0.43405 -0.12166,0 -1.27402,-1.02093 -2.5608,-2.26874 l -2.33958,-2.26873 -0.65006,0.87967 c -1.19582,1.61821 -3.106466,3.26821 -4.672306,4.03493 -1.26361,0.61873 -1.92114,0.76462 -3.54509,0.78656 -1.8336,0.0248 -2.11696,-0.0474 -3.52763,-0.89911 -2.14199,-1.29317 -4.70491,-3.86827 -5.725,-5.75221 -0.56242,-1.03869 -0.90131,-1.60324 -1.63067,-2.71646 -0.59953,-0.91506 -2.20478,-5.07765 -2.70861,-7.02372 -0.55159,-2.13055 -1.78812,-5.8716 -2.75005,-8.32011 -2.06918,-5.26691 -2.01687,-5.07504 -1.98335,-7.27604 0.0311,-2.03997 0.0629,-2.14227 0.87752,-2.82341 0.4649,-0.38871 1.15868,-0.78494 1.54172,-0.88052 2.15812,-0.5385 3.28111,-2.31122 1.68863,-2.66562 -1.34619,-0.29959 -1.78034,-0.44768 -3.175,-1.08299 -0.76398,-0.34802 -1.38918,-0.71857 -1.38933,-0.82345 -1.5e-4,-0.10487 -0.62031,-0.53894 -1.37815,-0.96459 -1.85613,-1.04254 -6.09753,-5.32974 -7.21842,-7.29639 -1.48178,-2.59983 -3.04483,-6.32814 -3.04483,-7.26277 0,-0.65824 -0.15439,-0.92421 -0.6739,-1.16092 -0.37065,-0.16888 -0.80764,-0.30705 -0.97109,-0.30705 -0.16345,0 -1.14011,-0.36799 -2.17036,-0.81777 -3.34601,-1.46074 -4.35554,-1.85132 -6.19841,-2.39812 -0.4871,-0.14453 -1.26101,-0.49167 -1.71979,-0.77142 -0.45879,-0.27974 -0.98635,-0.50907 -1.17237,-0.50962 -0.18603,-5.4e-4 -1.59607,-0.62006 -3.13343,-1.3767 -1.95045,-0.95994 -3.07683,-1.69959 -3.72705,-2.44739 l -0.93185,-1.07169 0.16823,-14.68437 c 0.0925,-8.07641 0.18137,-21.69258 0.19744,-30.25815 0.0234,-12.45886 0.10269,-15.81791 0.39657,-16.7944 0.35685,-1.18572 1.37466,-2.92609 2.19987,-3.76157 0.6344,-0.64231 2.86159,-1.719237 5.03614,-2.435164 1.09141,-0.359322 2.81782,-0.975282 3.83646,-1.368799 2.23613,-0.863847 5.78841,-1.99538 6.87917,-2.191269 0.43656,-0.0784 0.9255,-0.247059 1.08653,-0.374793 0.16103,-0.127734 0.81587,-0.339741 1.45521,-0.471126 0.63933,-0.131385 2.41258,-0.663834 3.94055,-1.183218 8.19164,-2.78449 9.19626,-2.946921 12.41101,-2.006645 l 1.16623,0.341106 0.88553,-0.966279 c 1.59712,-1.742765 5.932,-4.059447 10.59151,-5.660407 2.7152,-0.932913 3.0259,-0.981847 6.16655,-0.971219 2.196046,0.0074 3.974036,0.167907 5.291666,0.477611 1.09141,0.256531 2.49396,0.572142 3.11678,0.701358 1.1857,0.245997 2.6126,0.990228 5.13694,2.679299 0.82876,0.554535 1.58671,1.008245 1.68434,1.008245 0.32085,0 2.83199,1.94281 3.74746,2.899319 1.40476,1.467746 3.60008,4.325089 4.08925,5.322429 1.81783,3.706212 2.18563,4.711992 2.89548,7.917832 0.46336,2.09262 -0.20666,9.16777 -1.27177,13.42948 -0.22756,0.91054 -0.97743,2.63858 -1.66636,3.84009 -0.68893,1.20151 -1.33125,2.43236 -1.42738,2.73522 -0.12092,0.38099 0.30839,1.56194 1.39337,3.83283 1.17896,2.46763 1.77768,4.1649 2.41251,6.83908 0.46441,1.9563 0.84438,3.95808 0.84438,4.4484 0,0.75152 0.186,1.02647 1.18457,1.75114 1.80792,1.312 7.2134,4.19685 7.59178,4.05165 0.18423,-0.0707 0.48833,-0.82519 0.67578,-1.67665 0.61421,-2.79009 1.84006,-6.28887 2.65189,-7.569 0.81294,-1.28188 2.14904,-2.31072 3.0031,-2.3125 0.26161,-5.4e-4 0.73786,-0.27638 1.05833,-0.61297 1.05372,-1.10672 7.91478,-3.24597 23.60143,-7.35885 8.44021,-2.21293 15.80157,-4.07661 16.35858,-4.14151 2.44696,-0.28509 5.75115,1.77502 6.18209,3.85444 0.47515,2.29275 0.19725,4.77495 -0.8949,7.99332 -0.4946,1.45748 -1.44328,5.00569 -2.0515,7.67292 -0.58076,2.54678 -1.44833,5.55138 -2.94132,10.18645 -0.65623,2.0373 -1.25693,4.47179 -1.33489,5.40999 -0.078,0.93819 -0.25243,1.91263 -0.38771,2.16541 -0.13529,0.25279 -0.24598,0.68131 -0.24598,0.95228 0,0.76036 -1.6184,3.1497 -2.64834,3.90989 -0.50794,0.37491 -2.11416,1.05039 -3.56936,1.50107 -1.45521,0.45069 -3.68062,1.16003 -4.94535,1.57633 -1.26473,0.4163 -2.51488,0.7607 -2.77812,0.76532 -0.26324,0.005 -0.70973,0.18323 -0.99221,0.39688 -0.28247,0.21365 -0.90052,0.38846 -1.37345,0.38846 -0.47292,0 -0.93086,0.1149 -1.01766,0.25533 -0.17897,0.28959 -4.92735,1.86047 -5.63127,1.86297 -0.25293,8.9e-4 -0.7812,0.16927 -1.17395,0.37417 -0.90474,0.47201 -2.98213,1.09008 -6.75883,2.01092 -2.97856,0.72624 -4.45423,1.38469 -4.1622,1.85721 0.0856,0.13856 0.44412,1.23466 0.79663,2.43577 0.67043,2.28436 0.9008,6.0999 0.38745,6.41717 -0.14552,0.0899 -0.26459,0.50666 -0.26459,0.92604 0,0.41939 -0.11906,0.83611 -0.26458,0.92605 -0.14552,0.0899 -0.26458,0.44897 -0.26458,0.79787 0,0.99322 -2.55593,5.64878 -4.06495,7.40421 -1.49248,1.73618 -4.47205,4.63021 -4.76708,4.63021 -0.36893,0 -2.49611,1.62147 -5.19089,3.95682 -3.39054,2.93831 -3.96877,3.55375 -3.97062,4.22612 -0.002,0.79931 -0.68298,5.18418 -0.93447,6.01884 -0.14055,0.46646 0.0198,0.7001 0.84445,1.23085 1.49913,0.96479 6.89776,6.38313 7.3578,7.38466 0.218,0.47461 0.49751,1.04151 0.62113,1.25979 0.807,1.42499 1.37338,2.67755 1.37338,3.03729 0,0.2304 0.17859,0.48744 0.39687,0.5712 0.29921,0.11481 0.39688,0.59728 0.39688,1.96045 0,0.99449 -0.11907,1.88175 -0.26459,1.97169 -0.14552,0.0899 -0.26458,0.36875 -0.26458,0.61958 0,0.78608 -1.84037,3.96281 -2.6627,4.59618 -0.43208,0.33279 -1.13065,0.87499 -1.55239,1.20489 -0.42174,0.3299 -1.6997,0.90435 -2.83992,1.27656 -2.80336,0.91512 -7.85784,1.05729 -10.43365,0.29347 z m 7.22303,-3.38924 c 3.96951,-0.8305 7.19451,-4.14818 6.65492,-6.84615 -0.19671,-0.98354 -0.56424,-1.26608 -0.80172,-0.61633 -0.49284,1.34842 -2.05128,3.34168 -3.16489,4.04791 -1.64381,1.04248 -4.68873,1.70438 -6.9633,1.51369 -2.41317,-0.20231 -5.61159,-1.3091 -8.39711,-2.90576 -2.62472,-1.50449 -4.40553,-2.42049 -5.53316,-2.84613 -0.74405,-0.28085 -0.73615,-0.25874 0.28097,0.78653 1.28465,1.32021 5.19046,3.95921 7.68471,5.19225 1.99968,0.98855 5.59393,1.90917 7.59375,1.94503 0.68406,0.0123 1.87469,-0.1097 2.64583,-0.27104 z m -0.20613,-5.1049 c 2.05004,-0.85656 4.12176,-3.46405 4.12176,-5.18768 0,-1.40354 -0.73075,-2.40561 -4.29061,-5.88367 l -3.45205,-3.37272 -0.96693,0.87356 c -1.41072,1.2745 -3.58263,2.43111 -5.84249,3.1113 -2.18637,0.65808 -6.24447,0.83522 -9.62925,0.42034 l -1.82404,-0.22358 0.17424,0.87121 c 0.35888,1.79439 1.25984,2.47973 5.56128,4.23032 1.00257,0.40803 2.94592,1.42135 4.31856,2.25182 4.54558,2.75018 9.37024,3.93665 11.82953,2.9091 z m -31.475416,-0.62102 c 0.12499,-0.32478 -0.0377,-0.62101 -0.54474,-0.99219 -3.50163,-2.56312 -5.7627,-6.52504 -8.15388,-14.2875 -1.7978,-5.83617 -4.38328,-12.83229 -4.74229,-12.83229 -0.6227,0 -1.23275,0.91389 -1.23275,1.84675 0,0.96533 0.28028,1.87458 2.36138,7.66059 0.59843,1.66377 1.39742,4.16062 1.77553,5.54855 1.28293,4.7092 3.50734,8.97761 5.82534,11.17822 2.26429,2.14962 4.2953,2.95913 4.71141,1.87787 z m 4.15897,-3.73542 c 0.75946,-0.67858 0.86095,-0.94171 0.95937,-2.48737 0.134026,-2.10485 -0.16613,-3.07989 -1.85142,-6.01419 -0.71041,-1.23693 -1.6575,-3.42228 -2.10464,-4.85634 -0.44714,-1.43405 -1.14017,-3.33905 -1.54006,-4.23333 -0.39989,-0.89428 -0.8032,-2.02632 -0.89624,-2.51566 -0.093,-0.48934 -0.57184,-1.44184 -1.06399,-2.11667 -0.49215,-0.67483 -1.32027,-2.07605 -1.84026,-3.11382 -1.38814,-2.77037 -1.49324,-2.84412 -3.1538,-2.21316 -0.75011,0.28502 -1.60557,0.75996 -1.90104,1.05542 -0.8838,0.8838 -0.6743,3.05673 0.65394,6.78263 0.61588,1.72762 1.87534,5.37954 2.7988,8.11537 2.33806,6.92671 4.01549,9.72069 6.96737,11.60507 1.47408,0.94101 1.91121,0.93984 2.97197,-0.008 z m 13.985086,-8.61117 c 3.99746,-0.71324 8.26878,-3.66526 9.5235,-6.58193 0.61216,-1.423 0.78854,-3.75027 0.41027,-5.41315 -0.20299,-0.89233 -0.68273,-1.18908 -0.68273,-0.4223 0,0.82747 -1.94931,3.92976 -3.29941,5.25095 -1.50068,1.46854 -3.62562,2.69404 -6.22559,3.59041 -2.30608,0.79505 -6.11927,0.79794 -9.10431,0.007 -1.15106,-0.30503 -2.13333,-0.55461 -2.18281,-0.55461 -0.0495,0 -0.0873,0.32743 -0.0841,0.72761 0.0147,1.82178 2.01529,2.86929 6.87328,3.5989 1.36428,0.2049 2.83793,0.14228 4.77188,-0.20278 z m -0.80313,-6.41585 c 3.13325,-0.86035 5.64637,-2.83576 6.84545,-5.38079 0.58587,-1.2435 0.68631,-1.82089 0.69039,-3.96875 0.004,-1.93382 -0.1058,-2.71618 -0.47469,-3.39212 -0.26371,-0.48322 -0.63514,-1.91197 -0.8254,-3.175 -0.19026,-1.26303 -0.5458,-2.77122 -0.79008,-3.35153 l -0.44416,-1.0551 -0.79273,1.45198 c -1.16559,2.13489 -2.73089,3.59224 -5.13482,4.7807 -2.95926,1.46299 -6.82251,2.19309 -8.8003,1.66313 -0.57971,-0.15534 -0.66677,-0.34759 -0.95954,-2.11908 l -0.13741,-0.83138 2.30279,0.0296 c 6.41572,0.0825 12.02719,-4.38962 11.63277,-9.27082 -0.23769,-2.9416 -3.03458,-7.03249 -5.64783,-8.26087 -1.60162,-0.75285 -5.78424,-1.74068 -10.164436,-2.4006 -1.96453,-0.29597 -4.19186,-0.72897 -4.94961,-0.96222 -0.75775,-0.23325 -1.55321,-0.35675 -1.76769,-0.27445 -0.59035,0.22654 -2.4944,2.74409 -3.32765,4.39986 -1.04978,2.08603 -1.42003,4.04684 -1.28227,6.79089 0.13438,2.67673 0.78537,4.46481 2.13226,5.85669 0.94003,0.97144 1.84367,1.09635 3.55734,0.49173 2.02983,-0.71616 2.42247,0.32887 1.27199,3.38542 -0.87473,2.32395 -0.86012,3.52183 0.0573,4.69888 1.00833,1.29366 1.71283,1.77111 4.01388,2.72031 2.344836,0.96725 2.739456,1.60308 1.170806,1.88643 -1.404856,0.25376 -1.934726,0.57552 -1.934726,1.17484 0,4.04008 7.505886,6.82909 13.758336,5.11225 z m 15.74271,-10.54019 c 1.58649,-0.90922 4.36562,-3.00638 4.36562,-3.29434 0,-0.13901 -0.54548,-0.49404 -1.21218,-0.78896 -3.54281,-1.56715 -6.70517,-5.3986 -6.71951,-8.14121 -0.007,-1.25507 0.4705,-2.51897 0.89968,-2.38362 0.15683,0.0495 0.71404,0.90976 1.23824,1.91178 1.6657,3.18397 5.22308,5.87065 8.14494,6.1514 l 1.25321,0.12042 1.6077,-1.75452 c 1.77859,-1.94102 3.22714,-4.48046 3.93713,-6.90218 0.80108,-2.73239 0.44183,-7.11188 -0.69583,-8.48267 -0.21005,-0.2531 -0.84721,-0.11373 -2.84073,0.62138 -7.70868,2.84258 -9.14368,3.14203 -12.97474,2.7075 -2.90047,-0.32898 -4.24436,-0.0733 -5.05914,0.96252 -0.97936,1.24506 -0.65216,4.19278 0.92047,8.29231 0.4745,1.23693 1.00205,2.96334 1.17234,3.83646 0.29368,1.50575 2.18198,5.76033 3.26306,7.35207 0.56521,0.8322 0.93373,0.80376 2.69974,-0.20834 z m -40.613546,-7.4004 c 0,-0.0684 -0.35378,-0.82057 -0.78618,-1.67148 -1.12465,-2.21316 -1.41195,-3.89843 -1.26855,-7.44114 0.13189,-3.25855 0.29971,-3.85869 2.13012,-7.61737 l 0.92791,-1.90541 -1.45424,-0.32545 c -1.71427,-0.38364 -2.06945,-0.2314 -2.91925,1.25122 -2.07169,3.61444 -2.94388,7.32239 -2.46791,10.49182 0.58528,3.89732 1.89398,6.25622 3.85373,6.9463 1.067,0.37572 1.98437,0.50124 1.98437,0.27151 z m -7.67291,-2.26522 c 0,-0.15011 -0.25964,-1.01331 -0.57697,-1.91823 -0.45401,-1.29469 -0.57938,-2.26549 -0.58831,-4.55571 -0.0133,-3.41482 0.42327,-5.32512 1.94813,-8.52391 l 1.0363,-2.17392 -0.97572,-0.1616 c -0.53665,-0.0889 -1.32538,-0.27303 -1.75274,-0.40923 -0.71981,-0.22941 -0.87078,-0.14777 -2.05046,1.10874 -0.70039,0.74601 -1.53041,1.81362 -1.8445,2.37246 -1.64785,2.93195 -2.59576,0.28387 -0.98932,-2.76377 0.92888,-1.76222 0.87628,-1.86804 -1.06321,-2.13896 -1.83597,-0.25647 -4.00608,-0.89109 -5.13299,-1.5011 -0.55527,-0.30057 -1.07841,-0.47767 -1.16253,-0.39355 -0.27562,0.27562 0.42614,5.31591 1.00148,7.19302 0.75912,2.47667 2.61172,6.01379 4.14966,7.92281 1.46875,1.82314 4.38662,4.35354 6.28138,5.44728 1.43878,0.83052 1.7198,0.91151 1.7198,0.49567 z m 47.757286,-16.3395 c 0,-2.22168 -0.1665,-2.42607 -1.98437,-2.43591 -0.65485,-0.004 -2.50032,-0.30403 -4.10104,-0.66774 -1.60073,-0.3637 -3.98198,-0.84722 -5.29167,-1.07447 -2.66041,-0.46162 -5.60589,-1.23 -6.45305,-1.68338 -0.73033,-0.39086 -0.71227,-1.22747 0.0369,-1.70903 0.32743,-0.21047 2.50032,-0.92122 4.82865,-1.57946 5.05512,-1.42912 6.79728,-2.02121 9.18383,-3.12124 1.91801,-0.88407 2.45326,-1.48688 0.80419,-0.90568 -1.2125,0.42733 -1.86269,0.21597 -2.8142,-0.91484 l -0.72053,-0.8563 -2.69748,0.82017 c -1.48361,0.4511 -3.64998,1.06816 -4.81414,1.37125 -1.16417,0.30309 -2.92034,0.80092 -3.90261,1.10629 l -1.78594,0.5552 v 1.64383 c 0,1.27167 -0.1362,1.84593 -0.6016,2.53655 -1.33985,1.9882 -4.17717,3.09146 -7.05035,2.74145 -0.957416,-0.11663 -2.276536,-0.22029 -2.931376,-0.23034 -1.02034,-0.0157 -1.19063,0.0574 -1.19063,0.51087 0,0.46528 0.36737,0.59835 3.04271,1.10211 1.673486,0.31512 4.590516,0.81485 6.482296,1.11051 6.72804,1.0515 17.74969,2.9617 19.18229,3.32455 0.80036,0.20272 1.75286,0.34947 2.11666,0.32612 0.64116,-0.0412 0.66146,-0.10162 0.66146,-1.97051 z m 16.40417,-3.05587 c 2.61937,-0.80103 7.73906,-2.36507 11.37708,-3.47567 13.9994,-4.27365 19.0287,-5.96688 19.59992,-6.59875 0.56621,-0.62635 1.29855,-2.98507 3.41623,-11.00311 2.42484,-9.18104 2.8501,-10.7582 3.63837,-13.49375 1.43614,-4.98387 2.06184,-7.78849 1.90291,-8.52959 -0.2495,-1.16341 -1.33852,-1.85 -2.61583,-1.64918 -1.75486,0.27589 -9.87865,2.43246 -14.35727,3.81133 -2.2968,0.70713 -5.60474,1.66493 -7.35099,2.12845 -1.74625,0.46352 -5.2586,1.50054 -7.80521,2.30448 -2.54662,0.80394 -5.46365,1.70157 -6.48229,1.99473 -3.02464,0.87046 -3.97404,1.42028 -4.60615,2.66755 -0.30903,0.60978 -1.10655,3.07322 -1.77226,5.47431 -1.81478,6.54557 -4.51009,15.6037 -5.70782,19.18229 -1.07013,3.19734 -2.58571,9.47051 -2.59379,10.73603 l -0.004,0.68186 4.29948,-1.38729 c 2.36471,-0.76301 6.4426,-2.04267 9.06198,-2.84369 z m 14.05593,-14.31942 c -0.56393,-0.2027 -1.40304,-0.73463 -1.86468,-1.18207 -0.95338,-0.92405 -1.66268,-1.00785 -3.36059,-0.39706 -2.50809,0.90224 -6.19226,0.45085 -6.6793,-0.81836 -0.26603,-0.69326 0.48933,-2.09064 1.60981,-2.97808 1.01389,-0.80302 4.5211,-2.62341 6.1449,-3.18947 0.53594,-0.18683 0.91993,-0.5909 1.20115,-1.26397 1.05993,-2.53676 3.82039,-4.60202 6.15114,-4.60202 1.59008,0 2.72191,0.53776 3.81185,1.81111 0.70848,0.8277 1.00324,1.01274 1.23849,0.77748 0.16981,-0.16981 1.35897,-0.35895 2.64259,-0.42032 2.16041,-0.10329 2.38821,-0.0648 3.06554,0.5178 0.61088,0.52545 0.69974,0.75671 0.53816,1.4005 -0.30528,1.21634 -2.15063,2.82794 -4.80996,4.20069 -2.02304,1.04429 -2.53829,1.43958 -2.96392,2.27389 -0.75276,1.47553 -1.77204,2.59382 -3.01577,3.30873 -1.47733,0.84918 -2.48428,1.00151 -3.70941,0.56115 z m 3.8797,-4.34891 c 0.95661,-0.37232 5.29952,-2.9328 6.69923,-3.94971 1.08094,-0.78532 1.52307,-1.57946 1.18441,-2.12743 -0.0975,-0.15781 -1.03965,-0.36707 -2.09358,-0.46502 l -1.91625,-0.1781 0.16369,1.16334 c 0.09,0.63984 0.20922,1.31129 0.26487,1.4921 0.13731,0.4462 -0.18237,0.67812 -2.79113,2.02484 -2.67733,1.38212 -5.2043,2.19871 -7.54663,2.43869 l -1.71378,0.17558 v -2.02091 c 0,-1.1115 -0.068,-2.02091 -0.15103,-2.02091 -0.20127,0 -3.52684,2.33274 -4.28074,3.00275 -0.32743,0.29099 -0.59532,0.72733 -0.59532,0.96965 0,0.8306 1.17782,1.07288 4.29518,0.88355 1.94325,-0.11802 2.87663,-0.0883 2.7676,0.0881 -0.15469,0.2503 4.10532,-0.8506 5.71348,-1.47651 z m -99.867546,16.53973 -0.0889,-3.01148 -1.202,-1.288 c -1.678,-1.79806 -2.73748,-3.78385 -3.57249,-6.69596 -0.96545,-3.36703 -0.81573,-4.823 1.0703,-10.40873 0.79771,-2.36255 1.68925,-5.59562 1.98119,-7.1846 0.29193,-1.58898 0.99566,-4.26701 1.56383,-5.95117 0.56817,-1.68416 1.11418,-3.4193 1.21335,-3.85587 0.27881,-1.22731 0.16742,-16.03631 -0.13251,-17.61784 -0.43818,-2.31051 0.0264,-2.00609 -10.21001,-6.69079 -1.47057,-0.67301 -2.9345,-1.22366 -3.25317,-1.22366 -0.31868,0 -0.85783,0.27841 -1.19811,0.61869 -0.5971,0.5971 -0.62558,0.82097 -0.81633,6.41614 -0.1087,3.18861 -0.13553,7.46434 -0.0596,9.50163 0.0759,2.03729 0.033,11.08604 -0.0954,20.10833 -0.33916,23.83803 -0.34684,22.43772 0.12809,23.35614 0.55935,1.08166 1.42831,1.5715 6.38077,3.59685 2.32833,0.9522 5.06677,2.09042 6.08541,2.52938 1.01865,0.43896 1.95163,0.80133 2.07329,0.80527 0.12166,0.004 0.1812,-1.34801 0.13229,-3.00433 z m -9.08475,-4.52971 c -1.19732,-0.42336 -2.67734,-1.88699 -2.9313,-2.89885 -0.2509,-0.99968 0.49247,-1.99537 1.48973,-1.99537 0.93163,0 3.60335,1.28663 4.32035,2.08056 0.89011,0.98562 0.004,3.22609 -1.26614,3.19949 -0.30487,-0.006 -1.03056,-0.18001 -1.61264,-0.38583 z m 3.96875,-38.53656 c -1.01865,-0.42903 -2.89388,-1.20711 -4.16719,-1.72907 -1.88487,-0.77266 -2.31443,-1.05292 -2.31149,-1.50808 0.007,-1.12246 0.31653,-1.74968 0.86277,-1.74968 0.60059,0 6.86365,2.46328 7.79872,3.06726 0.59424,0.38383 0.78672,1.41774 0.43471,2.33506 -0.20911,0.54494 -0.41458,0.51232 -2.61752,-0.41549 z m -2.72437,-7.78772 c -1.80109,-0.89752 -2.51132,-1.91915 -2.64803,-3.80904 -0.0948,-1.31086 -0.0238,-1.5846 0.60549,-2.33241 0.58017,-0.6895 0.90715,-0.84724 1.75622,-0.84724 1.46967,0 2.5908,0.54074 3.72334,1.79585 1.64396,1.82186 1.60423,3.78206 -0.10581,5.22096 -0.98687,0.8304 -1.61909,0.82506 -3.33121,-0.0281 z m 35.07722,51.79063 c 0.25509,-0.16187 0.14288,-0.46053 -0.45626,-1.21445 -0.75261,-0.94704 -0.89723,-1.39434 -1.16067,-3.58987 -0.18625,-1.5522 0.32376,-4.28671 1.07943,-5.7876 0.80934,-1.60748 2.62798,-3.52848 3.80011,-4.014 1.00447,-0.41606 0.86102,-0.82296 -0.44613,-1.26539 -2.20408,-0.74603 -4.07835,0.13796 -5.95899,2.81051 -1.4186,2.01595 -1.96061,3.94736 -1.94577,6.93356 0.0103,2.06406 0.12079,2.73588 0.61812,3.75685 0.70955,1.45664 1.00751,1.73827 2.34345,2.21498 1.16219,0.41472 1.66068,0.45114 2.12671,0.15541 z m -7.45865,-1.69547 c -0.95295,-3.32447 -0.99967,-3.71398 -0.72455,-6.04077 0.32533,-2.7515 1.48438,-5.75726 2.82316,-7.32132 1.01808,-1.18941 0.9774,-1.29357 -0.79906,-2.04605 -1.23323,-0.52238 -5.89784,-1.05562 -9.12813,-1.0435 -1.87167,0.007 -2.50954,0.12823 -3.80228,0.72249 -0.85433,0.39273 -1.59847,0.71405 -1.65365,0.71405 -0.0552,0 -0.10032,-0.37562 -0.10032,-0.83472 0,-0.62735 0.25864,-1.08075 1.04111,-1.8251 1.52007,-1.446 3.2847,-1.96825 6.49458,-1.92209 l 2.64089,0.038 -0.9211,-0.76972 c -0.50661,-0.42335 -1.48177,-1.03807 -2.16703,-1.36606 -0.68526,-0.32798 -1.2508,-0.70078 -1.25677,-0.82843 -0.006,-0.12766 0.55904,-0.17734 1.25557,-0.11042 1.11081,0.10674 2.34094,0.66947 4.07871,1.86585 0.24768,0.17052 0.51477,0.24559 0.59353,0.16683 0.0788,-0.0788 -0.0218,-1.32471 -0.22344,-2.76877 -0.20166,-1.44406 -0.31868,-2.67641 -0.26004,-2.73856 0.0586,-0.0622 0.43929,0.20574 0.84592,0.59531 0.40663,0.38957 0.80766,0.70832 0.89118,0.70832 0.41793,0 0.77143,-1.63704 0.60812,-2.81611 -0.72098,-5.20524 -2.87262,-8.83393 -6.20782,-10.46935 -1.79392,-0.87964 -4.70669,-0.83276 -6.48737,0.10443 -2.49549,1.31341 -3.32599,2.65378 -4.6424,7.49248 -1.10289,4.05389 -1.22813,5.35733 -0.63489,6.60751 l 0.45906,0.96738 -1.08396,1.10735 c -4.7931,4.89657 -2.52207,15.59939 4.03098,18.99698 0.93833,0.4865 1.77545,0.81516 1.86027,0.73034 0.0848,-0.0848 0.0195,-0.78239 -0.14517,-1.55017 -0.38392,-1.79017 -0.20818,-4.09248 0.41082,-5.3818 0.49429,-1.02957 1.60065,-1.98334 1.92473,-1.65926 0.0982,0.0982 0.18378,1.75144 0.19018,3.67386 0.01,2.88187 0.0995,3.67228 0.51247,4.50366 0.56461,1.13675 2.0895,2.29895 3.01638,2.29895 0.58803,0 0.60671,-0.0575 0.40788,-1.25677 -0.43752,-2.63882 0.14098,-4.97609 1.18201,-4.77561 0.30939,0.0596 0.49911,0.47427 0.62744,1.37141 0.38556,2.69542 2.40531,5.45472 3.99273,5.45472 0.41437,0 0.486,-0.12176 0.35026,-0.59532 z m 12.48103,-2.05065 c 1.6604,-0.63108 3.20137,-0.66976 5.26536,-0.13216 3.314256,0.86326 4.857816,0.21399 4.846306,-2.03849 -0.0111,-2.17408 -1.34168,-4.1666 -3.52928,-5.28511 -1.439116,-0.73582 -4.557026,-1.34045 -5.815716,-1.12779 -1.47757,0.24963 -3.19364,1.89339 -3.76147,3.60297 -0.82063,2.47068 -0.16919,5.51017 1.18089,5.50975 0.23211,-8e-5 1.04837,-0.2382 1.81391,-0.52917 z m 36.835176,-6.6806 c 0.13642,-0.32742 0.43667,-1.5644 0.66724,-2.74884 0.23057,-1.18444 0.70543,-3.08121 1.05526,-4.21505 0.34982,-1.13383 0.57577,-2.15903 0.5021,-2.27823 -0.0737,-0.1192 -0.89636,-0.21673 -1.8282,-0.21673 -3.19852,0 -5.86039,1.50424 -7.11418,4.02028 -1.21392,2.43602 -0.66523,5.24014 1.02535,5.24014 0.66566,0 0.93311,-0.43961 0.93876,-1.543 0.005,-0.94459 0.27314,-1.89659 0.53453,-1.89659 0.11651,0 0.41279,0.52617 0.65838,1.16926 0.55643,1.45698 1.99745,3.06408 2.74744,3.06408 0.33636,0 0.66575,-0.2411 0.81332,-0.59532 z m -24.00647,-4.9337 c 1.92856,-0.71262 4.60602,-1.63535 5.94989,-2.05052 l 2.44342,-0.75484 0.004,-5.77674 c 0.003,-4.52009 -0.068,-5.74659 -0.32675,-5.63818 -0.1819,0.0762 -0.98557,0.33544 -1.78594,0.5761 -0.80036,0.24065 -4.7585,1.49791 -8.79586,2.79391 -4.03736,1.296 -7.400866,2.35637 -7.474476,2.35637 -0.0736,0 -0.13383,1.67722 -0.13383,3.72715 v 3.72715 l 0.83939,0.30774 c 0.46167,0.16927 1.68206,0.68207 2.711976,1.13958 1.02993,0.45751 2.14014,0.84446 2.46715,0.8599 0.32701,0.0154 2.17248,-0.55499 4.10105,-1.26762 z m -6.43575,-2.9173 c -0.620796,-0.6208 -0.771736,-0.99928 -0.764986,-1.91823 0.009,-1.24738 0.381696,-1.89999 1.508806,-2.64321 1.08171,-0.71328 2.09767,-0.61598 3.00105,0.2874 0.89655,0.89655 1.02726,2.18353 0.36377,3.58173 -0.7714,1.62561 -2.82869,1.97227 -4.10864,0.69231 z m 8.15614,-2.39696 c -1.41334,-1.11173 -1.05946,-3.72076 0.64569,-4.76036 1.20455,-0.73439 1.97196,-0.67113 2.88054,0.23745 0.57047,0.57046 0.7734,1.02517 0.7734,1.73293 0,2.61046 -2.48111,4.22043 -4.29963,2.78998 z m 13.07979,1.84834 c 1.18441,-1.56104 3.37813,-3.06968 5.36501,-3.68957 l 1.59754,-0.49842 -1.32292,-0.60272 c -1.97697,-0.90071 -4.19782,-0.96788 -5.68854,-0.17203 -1.74535,0.93178 -2.46855,2.11656 -2.28204,3.73854 0.14917,1.29717 0.80526,2.65022 1.21056,2.4965 0.11973,-0.0454 0.62391,-0.61795 1.12039,-1.2723 z m -31.029806,-0.77382 c 0.30744,-0.19463 0.34525,-1.09184 0.21721,-5.15519 -0.13797,-4.37842 -0.10629,-4.96828 0.28802,-5.36259 0.6958,-0.6958 3.49811,-1.87038 5.91264,-2.47826 4.552126,-1.14605 4.823396,-1.39209 1.87868,-1.70399 -4.34814,-0.46054 -9.80742,-2.35317 -12.97128,-4.49689 -2.67268,-1.81091 -6.77391,-6.4627 -8.24042,-9.34664 -0.65787,-1.29372 -0.95002,-1.30559 -2.80291,-0.11389 -1.22123,0.78544 -4.63021,4.27487 -4.63021,4.73947 0,0.21255 0.61551,0.31153 1.91823,0.30845 1.12556,-0.003 2.4649,0.18187 3.24114,0.44656 4.62729,1.57782 8.47663,6.56864 9.15205,11.86599 0.3396,2.66357 0.19504,4.33098 -0.58111,6.70278 -0.82987,2.53598 -0.68616,2.95889 1.35094,3.97556 1.36844,0.68295 2.04412,0.85789 3.30729,0.8563 0.87313,-0.001 1.755,-0.10805 1.95973,-0.23766 z m 30.120996,-7.42626 c 1.1279,-0.68769 1.11472,-1.08304 -0.20419,-6.12308 -1.14247,-4.36582 -2.27903,-7.63815 -2.6529,-7.63815 -0.12713,0 -0.47391,0.26057 -0.77062,0.57905 -0.47266,0.50735 -0.53947,0.92689 -0.53947,3.38779 0,2.67577 0.0382,2.86888 0.806,4.07966 0.84451,1.33165 1.31066,3.14073 1.31066,5.08648 0,1.02118 0.0688,1.1544 0.59532,1.15353 0.32742,-5.5e-4 0.98226,-0.23692 1.4552,-0.52528 z M 99.036144,141.8413 c 0.77663,-0.29057 2.314726,-0.76475 3.418006,-1.05373 1.10328,-0.28897 2.88335,-0.87488 3.9557,-1.30201 1.07235,-0.42714 3.05106,-0.97736 4.39713,-1.22273 1.34607,-0.24536 2.44739,-0.54714 2.44739,-0.67063 0,-0.31953 -4.24297,-2.29453 -5.39288,-2.51026 -1.02496,-0.19228 -2.77078,0.3672 -5.27373,1.69005 -0.70065,0.37031 -3.120466,1.27812 -5.377386,2.01735 -2.25692,0.73923 -4.10605,1.45186 -4.10918,1.58361 -0.008,0.35731 3.20154,1.99666 3.90969,1.99666 0.33727,0 1.24864,-0.23774 2.02526,-0.52831 z m 15.172576,-8.35687 c -0.0883,-0.23018 -0.1606,-0.6469 -0.1606,-0.92604 0,-0.3887 -0.18778,-0.50753 -0.80205,-0.50753 -1.0653,0 -1.34396,0.70962 -0.53567,1.36413 0.76282,0.6177 1.72584,0.66233 1.49832,0.0694 z m -7.50449,-2.74408 c 3.55616,-1.25145 5.47538,-2.3976 7.95648,-4.75154 2.71261,-2.5736 4.82722,-5.98551 5.99982,-9.68066 0.81373,-2.5643 1.03177,-7.53768 0.43284,-9.87294 -0.4827,-1.88204 -1.52783,-3.8285 -2.37662,-4.42621 -0.84285,-0.59353 -0.84491,-0.0318 -0.008,2.13953 1.02207,2.65129 1.19219,7.03423 0.39536,10.1853 -1.91426,7.56985 -7.49265,13.34383 -14.23015,14.72906 -2.8037,0.57644 -6.259316,0.17706 -8.748996,-1.01116 -2.42742,-1.1585 -5.1211,-3.81317 -7.06562,-6.96328 -1.18565,-1.92076 -1.67431,-2.50486 -1.98437,-2.37189 -1.74756,0.74945 -2.69353,0.9376 -4.27477,0.85023 l -1.74675,-0.0965 0.80583,1.32936 c 2.61067,4.30674 6.49707,7.18946 12.32489,9.14196 4.75969,1.59464 9.414456,1.89161 12.519926,0.79875 z M 83.694414,116.68912 c 1.25129,-0.34749 2.71087,-1.60994 3.3818,-2.92506 1.08487,-2.12653 0.3446,-5.78857 -1.52587,-7.5483 -0.90273,-0.84929 -2.62331,-1.66842 -3.5168,-1.67428 -2.72524,-0.0179 -5.55939,2.4342 -5.96876,5.16409 -0.36194,2.41359 1.21601,5.31337 3.55157,6.52672 1.51986,0.78957 2.48894,0.89813 4.07806,0.45683 z m -2.59183,-2.20489 c -0.97192,-0.42349 -2.44046,-2.04567 -2.66622,-2.94517 -0.40943,-1.63133 0.91735,-4.09392 2.40718,-4.46784 1.67699,-0.4209 3.7727,1.61782 4.03251,3.92287 0.16483,1.46241 -0.57821,2.8092 -1.89448,3.43381 -1.04919,0.49788 -0.87746,0.49273 -1.87899,0.0563 z m 14.25526,1.49319 c 0.0719,-0.25466 0.21115,-0.9988 0.30938,-1.65364 0.62783,-4.18577 4.912746,-8.47773 11.270386,-11.28893 1.21865,-0.53885 2.36455,-1.09137 2.54645,-1.2278 0.5341,-0.4006 0.38099,-1.19647 -0.31832,-1.65468 -0.5573,-0.365158 -0.91519,-0.383986 -2.5316,-0.13319 -5.67623,0.88069 -11.417166,5.26324 -13.162276,10.04786 -0.76437,2.09571 -1.09138,5.3729 -0.59572,5.97013 0.48405,0.58324 2.3125,0.53922 2.4817,-0.0598 z m -25.06039,-10.11568 c 2.20912,-0.69714 4.13007,-1.33766 4.26877,-1.42338 0.1387,-0.0857 0.3986,-0.9001 0.57756,-1.80973 0.42972,-2.18422 1.42489,-4.623592 2.67587,-6.559089 1.11307,-1.722141 1.05129,-1.923948 -0.58206,-1.901406 -0.88303,0.01219 -6.16106,1.528673 -9.88843,2.841147 -0.96107,0.33841 -2.8461,0.919821 -11.58283,3.572548 -1.6088,0.48848 -2.81129,0.99068 -2.75914,1.15232 0.0508,0.15758 2.52028,1.51661 5.48764,3.02007 6.30921,3.19665 5.44072,3.11515 11.80262,1.10752 z m 19.67359,0.28783 c 0,-0.44027 5.07705,-5.33385 6.57877,-6.341021 1.99037,-1.334909 6.214696,-3.147197 8.430246,-3.616679 2.09485,-0.443905 5.74605,-0.501639 7.77518,-0.122942 1.62316,0.302931 4.34804,1.561372 5.52478,2.551536 0.9295,0.782121 0.97368,0.684398 0.2917,-0.645245 -0.82796,-1.614259 -3.86102,-4.961234 -5.63891,-6.22251 -6.4525,-4.577572 -13.438766,-5.581017 -20.725126,-2.976772 -2.44976,0.875577 -5.25313,2.502914 -7.08994,4.115654 -1.95031,1.712393 -4.64426,6.142478 -5.08863,8.368019 l -0.16501,0.82646 1.84308,-0.13187 c 3.12551,-0.22363 5.24091,0.77055 6.96189,3.27191 0.74355,1.08071 1.30197,1.47678 1.30197,0.92346 z"
       id="path1"
       sodipodi:nodetypes="ssssscssscsssscsssssssssscssssscccscscssscscsscssssscssssssssscssssssssscssssscsssssscscscsssscscssssssssssssssssssssssssscssscssssscssssssscsssscssssssscccssssscscsccsscssscsssscssssssssssssssssssscccsscsssssssssssssscsssssssssccsssssssssssscsssssssscssscscscsssscscsssssssssssssccsccsssssscssssssssssssssccssscssssssssccssssscsssssccsssccsssscssscsssscccscsccssssssscssssssscssssccssccssccsscsssscssscssccscsssssssssssssssscssscsssscsccssssscsscccscssssssssssscssssssssssssssccssscsssssscssssssssssscsscssscccssssccssssccssccscscscscssssccccssssssccscscsssccssssssscssscssscc" /></g></svg>
