<?xml version="1.0" encoding="UTF-8"?>
<svg id="Capa_2" data-name="Capa 2" xmlns="http://www.w3.org/2000/svg" viewBox="0 0 305.12 411.36">
  <defs>
    <style>
      .cls-1 {
        fill: #fff;
      }
    </style>
  </defs>
  <g id="Capa_1-2" data-name="Capa 1">
    <path d="M152.67,411.36h-.4c-.85-1.09-1.58-2.29-2.56-3.25-9.18-9.11-18.4-18.18-27.61-27.26-8.63-8.52-17.25-17.04-25.88-25.55-9.06-8.94-18.13-17.88-27.19-26.82-8.73-8.61-17.45-17.22-26.18-25.82-9.26-9.13-18.51-18.26-27.78-27.38-3.85-3.78-7.75-7.51-11.57-11.32-.51-.51-.91-1.34-.96-2.05C2.38,259.42,.43,173.37,0,160.56c-.02-.71,.29-1.61,.77-2.12,4.77-5.12,9.59-10.19,14.43-15.25,8.29-8.66,16.61-17.29,24.91-25.94,8.68-9.03,17.36-18.06,26.04-27.1,8.12-8.45,16.23-16.91,24.35-25.35,8.54-8.88,17.09-17.76,25.64-26.64,10.89-11.31,21.78-22.6,32.67-33.91,1.34-1.39,2.65-2.8,4.02-4.25,.6,.56,.95,.86,1.28,1.19,4.56,4.57,9.1,9.17,13.68,13.72,8.65,8.59,17.31,17.16,25.98,25.74,8.95,8.86,17.91,17.71,26.86,26.56,8.81,8.71,17.62,17.42,26.43,26.13,9.24,9.14,18.47,18.3,27.73,27.41,6.73,6.62,13.52,13.18,20.27,19.78,.65,.63,8.53,7.71,9.26,8.96,1.05,1.78,.76,3.89,.76,3.92-.12,.85-.5,81.5-.32,97.42,0,.6-.25,1.32-.63,1.78-1.1,1.36-2.28,2.65-3.49,3.91-6.98,7.29-13.99,14.56-20.98,21.86-8.48,8.85-16.94,17.72-25.41,26.58-8.37,8.77-16.74,17.54-25.11,26.31-8.42,8.82-16.84,17.64-25.26,26.46-8.33,8.72-16.65,17.44-24.98,26.16-8.75,9.15-17.49,18.31-26.24,27.46Zm2.37-282.59c-5.61,5.98-10.96,11.74-16.38,17.45-8.58,9.04-17.2,18.04-25.8,27.05-8.18,8.58-16.36,17.16-24.55,25.73-8.65,9.06-17.3,18.12-25.96,27.18-9.26,9.69-18.53,19.38-27.78,29.08-.21,.22-.35,.52-.38,.57,7.64,7.73,15.12,15.39,22.69,22.95,8.72,8.71,17.52,17.33,26.29,25.99,8.96,8.86,17.91,17.72,26.88,26.57,9.92,9.8,19.84,19.6,29.77,29.39,4.32,4.25,8.67,8.46,13.08,12.77,.6-.57,1.1-1.01,1.56-1.49,5.4-5.64,10.78-11.3,16.19-16.92,8.6-8.93,17.22-17.83,25.82-26.75,8.27-8.59,16.52-17.19,24.79-25.79,8.5-8.84,16.98-17.68,25.49-26.5,5.72-5.92,11.5-11.77,17.2-17.71,3.62-3.77,7.14-7.63,10.71-11.46-.32-.39-.47-.61-.66-.8-8.19-8.1-16.37-16.2-24.56-24.29-8.38-8.28-16.76-16.57-25.16-24.84-10.95-10.78-21.9-21.54-32.87-32.29-6.26-6.14-12.61-12.19-18.85-18.34-5.79-5.71-11.5-11.51-17.52-17.54ZM27.48,225.71c.16,.07,.31,.14,.47,.2,.84-1.01,1.64-2.06,2.54-3.01,8.26-8.68,16.54-17.35,24.82-26.02,8.79-9.21,17.58-18.41,26.38-27.62,8.09-8.47,16.19-16.95,24.28-25.42,8.51-8.91,17.02-17.83,25.54-26.73,3.22-3.36,6.51-6.65,9.68-10.06,.57-.61,1.02-1.62,1.01-2.44-.11-13.9-.31-27.79-.47-41.69-.05-4.14,0-8.28,0-12.42-.3-.11-.59-.22-.89-.34-.48,.63-.9,1.32-1.44,1.89-4.69,5.01-9.38,10.02-14.11,14.99-8.45,8.88-16.94,17.72-25.4,26.59-8.51,8.91-17.01,17.84-25.52,26.75-8.32,8.72-16.63,17.46-24.98,26.15-7.29,7.58-14.62,15.13-21.98,22.64-.98,1-1.39,1.97-1.36,3.37,.32,13.62,.57,27.25,.89,40.87,.1,4.1,.37,8.19,.56,12.29Z"/>
    <path class="cls-1" d="M155.03,128.77c6.02,6.03,11.72,11.83,17.52,17.54,6.24,6.16,12.59,12.21,18.85,18.34,10.97,10.75,21.92,21.52,32.87,32.29,8.4,8.27,16.77,16.55,25.16,24.84,8.19,8.09,16.38,16.19,24.56,24.29,.19,.19,.34,.41,.66,.8-3.57,3.83-7.09,7.69-10.71,11.46-5.7,5.94-11.48,11.79-17.2,17.71-8.51,8.82-17,17.66-25.49,26.5-8.26,8.6-16.52,17.2-24.79,25.79-8.6,8.93-17.23,17.82-25.82,26.75-5.41,5.62-10.79,11.28-16.19,16.92-.46,.48-.96,.92-1.56,1.49-4.41-4.3-8.77-8.52-13.08-12.77-9.93-9.79-19.85-19.59-29.77-29.39-8.96-8.85-17.92-17.71-26.88-26.57-8.77-8.66-17.57-17.29-26.29-25.99-7.57-7.56-15.05-15.22-22.69-22.95,.03-.05,.17-.34,.38-.57,9.26-9.7,18.52-19.38,27.78-29.08,8.66-9.06,17.31-18.12,25.96-27.18,8.19-8.57,16.37-17.15,24.55-25.73,8.6-9.02,17.22-18.02,25.8-27.05,5.42-5.71,10.77-11.47,16.38-17.45Z"/>
    <path class="cls-1" d="M27.48,225.71c-.19-4.1-.47-8.19-.56-12.29-.32-13.62-.56-27.25-.89-40.87-.03-1.39,.38-2.37,1.36-3.37,7.36-7.51,14.69-15.06,21.98-22.64,8.35-8.69,16.66-17.43,24.98-26.15,8.51-8.91,17.01-17.84,25.52-26.75,8.46-8.86,16.95-17.71,25.4-26.59,4.73-4.97,9.42-9.98,14.11-14.99,.54-.58,.96-1.26,1.44-1.89,.3,.11,.59,.22,.89,.34,0,4.14-.04,8.28,0,12.42,.16,13.9,.36,27.79,.47,41.69,0,.82-.44,1.82-1.01,2.44-3.17,3.4-6.46,6.7-9.68,10.06-8.52,8.9-17.03,17.82-25.54,26.73-8.09,8.47-16.19,16.95-24.28,25.42-8.79,9.21-17.59,18.41-26.38,27.62-8.28,8.67-16.56,17.33-24.82,26.02-.9,.95-1.7,2-2.54,3.01-.16-.07-.31-.14-.47-.2Z"/>
  </g>
</svg>