<?xml version="1.0" encoding="UTF-8" standalone="no"?>
<!-- Created with Inkscape (http://www.inkscape.org/) -->

<svg
   width="215.99934mm"
   height="228.80142mm"
   viewBox="0 0 215.99934 228.80142"
   version="1.1"
   id="svg1"
   xml:space="preserve"
   inkscape:version="1.4.2 (f4327f4, 2025-05-13)"
   sodipodi:docname="maintance.svg"
   xmlns:inkscape="http://www.inkscape.org/namespaces/inkscape"
   xmlns:sodipodi="http://sodipodi.sourceforge.net/DTD/sodipodi-0.dtd"
   xmlns="http://www.w3.org/2000/svg"
   xmlns:svg="http://www.w3.org/2000/svg"><sodipodi:namedview
     id="namedview1"
     pagecolor="#ffffff"
     bordercolor="#000000"
     borderopacity="0.25"
     inkscape:showpageshadow="2"
     inkscape:pageopacity="0.0"
     inkscape:pagecheckerboard="0"
     inkscape:deskcolor="#d1d1d1"
     inkscape:document-units="mm"
     inkscape:zoom="0.68862935"
     inkscape:cx="402.24832"
     inkscape:cy="456.70432"
     inkscape:window-width="1920"
     inkscape:window-height="991"
     inkscape:window-x="-9"
     inkscape:window-y="-9"
     inkscape:window-maximized="1"
     inkscape:current-layer="layer1" /><defs
     id="defs1" /><g
     inkscape:label="Capa 1"
     inkscape:groupmode="layer"
     id="layer1"
     transform="translate(1.5982749,-27.61548)"><path
       style="fill:#000000"
       d="m 200.37818,255.86357 c -2.01555,-0.68016 -3.25355,-1.34634 -5.29167,-2.84749 -1.7428,-1.28364 -3.38566,-2.09228 -4.25074,-2.09228 -0.38498,0 -1.37199,0.17267 -2.19336,0.38372 -0.82137,0.21105 -3.32987,0.69311 -5.57446,1.07125 -2.24458,0.37814 -4.1548,0.73311 -4.24493,0.78881 -0.0901,0.0557 -3.44163,0.76426 -7.44779,1.57458 -7.84147,1.58608 -9.84349,1.75455 -12.9716,1.09153 -1.95862,-0.41514 -3.32896,-1.0474 -5.58789,-2.57817 -1.03598,-0.70205 -1.55618,-0.9234 -1.62239,-0.69037 -0.0536,0.18867 -0.20081,0.80787 -0.32714,1.37601 -0.14232,0.64003 -0.5045,1.23693 -0.9521,1.56913 -0.70963,0.52667 -1.10985,0.53767 -22.62188,0.62164 -17.1914,0.0671 -22.03855,0.014 -22.54644,-0.24681 -1.46845,-0.75422 -2.23698,-3.82092 -1.80694,-7.21028 0.25995,-2.04873 1.92457,-5.45427 3.54941,-7.26148 1.9032,-2.11682 5.775,-4.4784 10.08331,-6.15027 0.61856,-0.24004 1.19534,-0.62066 1.28175,-0.84583 0.14595,-0.38036 -7.77536,-8.35724 -17.48763,-17.61029 -1.600733,-1.52504 -3.8903,-3.76696 -5.08793,-4.98203 l -2.177509,-2.20922 -1.856549,0.18294 -1.856549,0.18294 -0.817279,2.67787 c -1.895436,6.21054 -3.198734,9.92696 -3.597229,10.25768 -0.303098,0.25155 -1.136731,0.33238 -2.901033,0.28131 -1.361644,-0.0394 -2.475717,0.0347 -2.475717,0.16472 0,0.13002 0.962591,2.24692 2.139091,4.70424 1.1765,2.45731 3.571365,7.55028 5.321924,11.3177 2.904615,6.2511 3.171267,6.95247 3.050518,8.02376 -0.159894,1.41857 -1.18605,2.61201 -2.565202,2.98338 -0.568404,0.15305 -10.578739,0.25622 -25.223641,0.25995 -26.298848,0.007 -25.414556,0.0541 -26.577157,-1.42393 -0.303407,-0.38572 -0.628724,-1.1575 -0.722926,-1.71508 -0.155821,-0.9223 0.297077,-2.02579 5.019134,-12.22919 2.854726,-6.16848 5.256383,-11.36424 5.337018,-11.54614 0.111622,-0.25181 -0.45996,-0.33073 -2.395241,-0.33073 -2.158644,0 -2.61886,-0.077 -3.052672,-0.51083 -0.423616,-0.42361 -3.247785,-8.52982 -4.154477,-11.92459 -0.241901,-0.9057 -0.28569,-0.931 -1.993944,-1.15162 l -1.746611,-0.22558 -2.34551,2.35132 c -2.177572,2.18296 -13.325922,12.96621 -20.0863642,19.42854 -2.2433402,2.14441 -3.2245743,2.89759 -4.2143199,3.23483 -2.9657752,1.01054 -4.76070565,0.32137 -6.09065726,-2.33853 l -0.79374994,-1.5875 -0.079837,-20.90208 c -0.056626,-14.82517 0.00763,-21.35808 0.2210138,-22.47052 0.42560403,-2.2188 1.57492843,-4.49259 3.9430254,-7.80075 2.1214981,-2.96367 6.6697684,-8.61963 9.9256281,-12.34293 3.293907,-3.76681 7.993589,-8.96437 8.571636,-9.47971 0.344353,-0.30699 0.517578,-0.71572 0.44854,-1.05833 -0.15653,-0.77681 -0.344101,-4.33979 -0.691004,-13.12589 -0.417681,-10.57869 -0.178671,-36.87061 0.374012,-41.1427 C 23.258249,86.559717 28.46443,70.706744 35.821381,57.88074 40.955344,48.930261 46.996139,41.022488 54.6229,33.26839 c 4.588715,-4.665328 5.960667,-5.65291 7.853039,-5.65291 1.844219,0 2.852869,0.579466 5.629996,3.234417 17.618865,16.843745 30.025199,39.953809 34.341315,63.969746 1.93721,10.779117 2.20954,16.269417 1.78109,35.907657 -0.18346,8.40907 -0.39595,16.0081 -0.4722,16.88673 l -0.13864,1.59751 4.06263,1.14994 c 4.57584,1.2952 13.96557,3.42938 14.40445,3.27397 0.15821,-0.056 0.99164,-0.95851 1.85208,-2.00553 0.86044,-1.04701 2.66224,-3.17983 4.004,-4.73958 2.83396,-3.2944 3.11082,-3.92636 2.01553,-4.60064 -3.82795,-2.35652 -7.46603,-5.63262 -9.96464,-8.97318 -2.17118,-2.90282 -4.24907,-7.30899 -5.26062,-11.15516 -0.77656,-2.95272 -0.82517,-3.42062 -0.84765,-8.15943 -0.0188,-3.96559 0.0787,-5.49322 0.46164,-7.23464 1.44276,-6.56033 4.3586,-12.088285 8.82251,-16.726053 4.59447,-4.773414 10.05381,-7.81586 16.88575,-9.410294 2.94146,-0.686474 9.65598,-0.684584 12.83229,0.0036 14.43596,3.127767 24.50629,15.143378 25.80328,30.787697 l 0.18097,2.18281 6.91777,0.003 c 7.45162,0.003 8.41862,0.12925 10.97654,1.4288 1.92118,0.97604 3.59116,2.56488 5.07527,4.82866 1.4707,2.24333 1.35983,1.73031 3.82179,17.68419 3.25017,21.06167 5.74303,37.31108 6.00704,39.15624 0.63998,4.4729 -1.24559,9.49551 -4.70942,12.54449 -2.29552,2.0206 -5.04634,3.1059 -10.27966,4.05571 l -1.84704,0.33522 -0.0428,3.96875 c -0.0713,6.6125 -1.4587,13.31541 -3.42291,16.53646 -1.19737,1.96352 -3.84249,4.66921 -5.93711,6.07305 -2.09459,1.40382 -1.97307,1.30248 -1.78611,1.48945 0.0848,0.0848 1.82165,-0.39081 3.85968,-1.05689 4.81502,-1.57365 10.91942,-3.06603 12.54131,-3.06603 1.41709,0 2.90193,0.63971 3.85454,1.66063 0.74082,0.79395 5.35292,11.4478 8.32971,19.24146 l 2.17275,5.68854 -0.003,2.91041 c -0.003,2.74409 -0.0525,3.01161 -0.86611,4.68106 -1.6176,3.3192 -3.65793,4.44109 -8.39111,4.61391 -2.53559,0.0926 -3.14894,0.0258 -4.7625,-0.51874 z m 6.348,-6.26048 c 0.83074,-0.91796 0.38524,-3.79875 -1.42523,-9.21611 -2.66319,-7.96892 -6.21906,-16.18609 -7.00431,-16.18609 -0.93527,0 -12.40785,4.57442 -12.55121,5.0045 -0.0466,0.1398 0.32831,1.66058 0.83314,3.37952 0.50483,1.71894 1.42341,4.95563 2.04128,7.19265 l 1.12341,4.0673 1.74559,-0.17883 c 0.96007,-0.0984 2.2516,-0.24819 2.87006,-0.33295 l 1.12448,-0.15412 0.01,0.89586 c 0.0107,0.95592 0.0422,0.98492 3.77436,3.4779 3.62134,2.41894 6.42686,3.1902 7.45839,2.05037 z m -62.88201,-0.39771 c 0.19845,-0.19845 0.10295,-17.98864 -0.10334,-19.24981 l -0.16228,-0.99218 -3.54862,-0.0463 c -1.95174,-0.0255 -3.87604,-0.0674 -4.27623,-0.0932 -0.40018,-0.0258 -3.22791,-0.0943 -6.28385,-0.15214 l -5.55625,-0.10523 0.0849,0.92604 c 0.0691,0.75422 0.72186,4.11129 1.80601,9.2884 0.12683,0.60567 0.0428,0.70975 -0.6912,0.85656 -1.53367,0.30674 -6.99496,2.33676 -9.0907,3.37912 -3.87731,1.92846 -5.19529,3.0805 -6.02632,5.26759 l -0.53316,1.40317 17.11652,-0.16699 c 9.41408,-0.0918 17.18313,-0.2336 17.26455,-0.31502 z m 24.41555,-0.66614 c 9.4536,-1.95603 16.16713,-3.53882 16.28221,-3.83872 0.0627,-0.16352 -0.8241,-3.56291 -1.97077,-7.5542 l -2.08487,-7.25689 -4.07697,-0.0647 -4.07697,-0.0647 -0.51195,1.12304 c -0.72124,1.58217 -3.43722,4.21411 -5.31787,5.15333 -1.64206,0.82007 -3.03372,1.2637 -3.03372,0.96708 0,-0.0946 0.59475,-1.2114 1.32168,-2.48168 1.22205,-2.1355 3.38613,-6.7457 3.8201,-8.13809 l 0.18554,-0.59531 -4.58189,0.002 -4.58189,0.002 -3.63802,4.95268 -3.63802,4.95267 0.004,1.72586 c 0.008,3.67193 1.13901,6.63694 3.48893,9.14901 1.72256,1.84143 2.66712,2.38495 4.74442,2.73009 2.19721,0.36506 2.22203,0.36259 7.66615,-0.76385 z M 55.101075,241.05452 c 0.407866,-4.98759 1.785858,-14.28786 2.428546,-16.39061 0.12743,-0.41693 -0.09327,-0.46302 -2.217094,-0.46302 h -2.358612 l -1.934,4.03489 c -2.029416,4.23396 -6.878185,14.73554 -6.878185,14.89693 0,0.16891 3.497047,0.25212 7.176914,0.17077 l 3.605038,-0.0797 z m 23.577862,-3.02916 c -1.346917,-2.87403 -3.3568,-7.13052 -4.466406,-9.45885 l -2.017466,-4.23333 -2.346753,-0.0756 -2.346754,-0.0756 0.486893,2.85369 c 0.720871,4.22505 1.506952,10.42333 1.712506,13.50318 l 0.181002,2.71198 h 5.62296 5.62296 z m -58.742388,-25.81269 8.633042,-8.51699 -0.676465,-2.77813 c -1.535167,-6.30466 -4.213181,-22.99048 -5.07186,-31.60108 -0.360984,-3.61985 -0.05999,-3.70119 -4.398335,1.18857 -4.665809,5.25884 -9.683315,11.26092 -10.9445274,13.09215 -0.5086975,0.73861 -1.2484115,2.22917 -1.6438088,3.31237 l -0.7189041,1.96945 -0.076197,18.89077 -0.076197,18.89076 3.1701048,-2.96544 C 9.87696,222.06411 15.188376,216.89702 19.936549,212.21267 Z m 123.045551,9.8054 c -0.60856,-6.40824 -2.06819,-11.85473 -4.82707,-18.01183 -0.51031,-1.13887 -0.8873,-2.11005 -0.83776,-2.15818 0.0495,-0.0481 0.74492,0.33996 1.54529,0.8624 2.01339,1.31424 7.25044,6.62371 9.10907,9.235 1.45356,2.04221 1.61705,2.18263 2.89645,2.48777 0.74577,0.17786 2.59462,0.78774 4.10857,1.35528 9.41676,3.53011 17.66495,3.39967 25.00074,-0.39539 2.3809,-1.23172 4.82873,-3.36626 5.84083,-5.09328 1.32922,-2.26815 2.25684,-7.71757 2.25684,-13.25815 v -2.46104 l -0.61615,0.23426 c -1.0543,0.40084 -5.98603,1.04658 -10.52028,1.37749 -2.38793,0.17426 -4.49053,0.43032 -4.67243,0.56902 -0.1819,0.1387 -0.33073,0.47572 -0.33073,0.74895 0,0.27322 -0.15879,0.49677 -0.35287,0.49677 -0.19409,0 -1.89073,-0.60671 -3.77032,-1.34823 -4.8928,-1.93028 -16.84255,-5.85789 -21.72147,-7.13934 l -4.16413,-1.09372 -2.27244,0.55731 c -2.66142,0.65271 -5.10672,0.70518 -8.12315,0.17432 l -2.17209,-0.38226 -1.80909,0.99442 c -4.88921,2.68749 -6.88214,4.88576 -7.8709,8.68189 -0.64085,2.46038 -0.47638,4.37417 1.06676,12.41332 0.8043,4.19012 1.6023,8.72627 1.77332,10.08034 l 0.31095,2.46195 0.80636,0.0365 c 3.11658,0.14094 12.32923,0.40313 15.59107,0.44372 l 3.9368,0.049 z m -28.06434,-3.37343 c -0.3349,-1.96453 -0.85912,-5.11969 -1.16493,-7.01146 -0.30581,-1.89177 -0.7302,-4.39208 -0.94308,-5.55625 -0.49971,-2.73267 -0.5034,-6.96005 -0.008,-9.06154 0.83715,-3.55056 3.5705,-7.77056 6.51336,-10.05589 0.93858,-0.72888 1.45305,-1.28704 1.24631,-1.35217 -0.19364,-0.061 -4.73707,-1.59265 -10.09651,-3.40366 -5.35943,-1.81101 -9.787,-3.25017 -9.83903,-3.19814 -0.052,0.052 -0.51732,2.74536 -1.033965,5.98516 -0.799342,5.01252 -1.466091,8.39467 -3.371667,17.10312 l -0.286336,1.30856 5.787718,5.55819 c 3.18324,3.05701 7.57024,7.31345 9.74889,9.45875 2.17865,2.1453 3.98252,3.87729 4.00862,3.84887 0.0261,-0.0284 -0.22657,-1.65901 -0.56147,-3.62354 z m -33.741655,-4.90406 c 0.586093,-1.76642 1.065626,-3.37993 1.065629,-3.58558 5e-6,-0.31883 -2.923055,-0.3739 -19.843723,-0.3739 -13.644652,0 -19.843737,0.0865 -19.843755,0.27697 -3.2e-5,0.34326 2.006446,6.34213 2.256759,6.74715 0.131516,0.21279 5.056561,0.27409 17.740762,0.2208 l 17.558705,-0.0738 z m -21.953126,-26.5945 c 0,-17.43114 -0.03764,-17.00584 1.57884,-17.84175 1.067515,-0.55204 2.35549,-0.50102 3.398019,0.13459 1.690352,1.03058 1.666858,0.77096 1.623469,17.94013 l -0.03923,15.52288 8.824137,0.0817 c 4.853276,0.045 10.155019,0.004 11.781652,-0.0911 l 2.957515,-0.17279 0.175152,-1.09957 c 0.09633,-0.60477 0.636628,-3.12363 1.200654,-5.59749 0.938319,-4.11553 2.904683,-14.96592 2.748435,-15.16585 -0.03636,-0.0465 -0.549162,0.16183 -1.13955,0.46302 -1.345289,0.68632 -4.824882,0.76488 -6.31429,0.14256 -2.730864,-1.14102 -4.443379,-3.49171 -4.934683,-6.77359 -0.53751,-3.59053 -1.588226,-5.18338 -4.410537,-6.68622 -3.654487,-1.94598 -5.52237,-3.98654 -7.02664,-7.67623 -0.780166,-1.91359 -0.952457,-2.71015 -1.082362,-5.00408 -0.25942,-4.58103 0.801316,-7.88517 3.33281,-10.38155 l 1.090828,-1.0757 -1.034814,-2.49618 c -0.569147,-1.37289 -1.187431,-3.19285 -1.373964,-4.04434 l -0.33915,-1.54817 -0.944084,0.16884 c -0.519246,0.0929 -1.658459,0.29801 -2.531584,0.45589 -2.665747,0.48202 -7.199829,0.34507 -9.702816,-0.29307 -2.529415,-0.64488 -5.856229,-2.15472 -8.078699,-3.66645 -1.736732,-1.18133 -5.345318,-4.839 -6.660294,-6.75089 -1.389581,-2.02036 -3.139976,-5.95501 -3.794584,-8.52971 -0.511823,-2.01309 -0.598308,-3.01551 -0.580723,-6.73098 0.01874,-3.95999 0.0875,-4.58537 0.739986,-6.73057 2.335564,-7.678695 7.862703,-13.575873 15.616316,-16.66182 9.076499,-3.612458 20.428916,-0.701211 26.964174,6.914772 2.501436,2.915095 4.775783,7.017318 5.350847,9.651278 0.104856,0.48027 0.550844,1.39779 0.991086,2.03895 3.499585,5.09669 2.988892,14.07667 -1.070231,18.81884 l -0.90307,1.05503 0.703867,4.29686 c 0.777334,4.74536 1.398391,7.57956 1.760518,8.03416 0.130434,0.16374 0.740921,0.37574 1.356638,0.47112 2.412849,0.37373 5.165468,2.38495 7.23537,5.28655 l 0.544808,0.76372 0.174634,-4.99705 c 0.340603,-9.74612 0.202209,-32.74261 -0.221145,-36.74705 -0.79045,-7.47674 -3.662427,-18.891032 -6.396708,-25.422869 L 89.861718,74.975814 H 62.513116 c -26.973648,0 -27.352441,0.0072 -27.628605,0.523188 -0.633161,1.183073 -2.945808,7.868741 -3.816533,11.033278 -3.879758,14.10047 -4.55759,22.75689 -3.860203,49.2977 0.714323,27.18536 2.689685,44.02578 7.813143,66.60885 l 0.135059,0.59531 h 12.0335 12.0335 z m 118.268741,4.12084 c 2.11006,-0.20865 5.04459,-0.52431 6.52119,-0.70146 l 2.68474,-0.3221 0.15662,-0.94676 c 0.20316,-1.22802 0.20134,-4.64515 -0.003,-5.88159 l -0.15977,-0.9661 -1.78409,0.60681 c -6.85085,2.33013 -15.41481,3.841 -24.48118,4.31902 l -3.43958,0.18136 3.83645,1.25124 c 2.11006,0.68819 4.72943,1.60396 5.82084,2.03505 2.37239,0.93707 4.73114,1.02938 10.84791,0.42453 z m 20.02892,-5.31765 c 4.54549,-0.93889 6.52303,-2.36974 7.38817,-5.34571 0.49728,-1.71058 0.4153,-2.82964 -0.72022,-9.83175 -0.43509,-2.68291 -1.13856,-7.26682 -1.56327,-10.18645 -0.71281,-4.90022 -1.29039,-8.67129 -3.4673,-22.63864 -0.44227,-2.83765 -0.96972,-6.23093 -1.17211,-7.54062 -0.69691,-4.5097 -1.15933,-6.50441 -1.67378,-7.22001 -1.78008,-2.47611 -3.29106,-2.96631 -9.14499,-2.96682 l -4.25146,-3.8e-4 0.0868,3.58088 c 0.0825,3.40282 0.11944,3.61353 0.74315,4.23724 0.36099,0.36099 1.00531,1.40205 1.43181,2.31348 0.66461,1.42022 0.85158,2.3559 1.30782,6.54491 0.29279,2.68828 0.82462,6.37606 1.18184,8.19507 1.13553,5.78219 1.90868,10.6345 3.31827,20.82568 0.44706,3.2322 1.03936,6.92314 1.31623,8.20209 0.27688,1.27894 0.81622,4.40895 1.19855,6.95557 0.38233,2.54661 0.7431,4.77903 0.80172,4.96093 0.13996,0.43435 0.7851,0.41722 3.21876,-0.0855 z m -59.5594,-3.55971 c 1.96688,-0.67502 7.51177,-3.34263 10.29403,-4.95239 6.66416,-3.85577 9.9433,-6.41745 21.1571,-16.52808 1.74099,-1.56972 3.26633,-2.85403 3.38965,-2.85403 0.27644,0 0.0189,2.01861 -0.5063,3.96875 -0.21556,0.80036 -1.12594,2.94349 -2.02306,4.7625 -1.41852,2.8762 -1.92514,3.61335 -3.88676,5.65541 -2.37068,2.46788 -5.92287,5.26496 -9.83964,7.74795 -1.28583,0.81514 -2.33787,1.58861 -2.33787,1.71882 0,0.65243 1.57599,0.76778 6.8604,0.50216 5.90874,-0.29701 8.98233,-0.68958 13.42059,-1.71411 2.76512,-0.6383 9.28206,-2.47773 10.70193,-3.02066 l 0.68812,-0.26313 -0.46801,-3.53726 c -0.25741,-1.9455 -0.71411,-4.96153 -1.0149,-6.70229 -0.30079,-1.74076 -0.96524,-5.90346 -1.47655,-9.25044 -1.43428,-9.38859 -2.59491,-12.97688 -5.09776,-15.76066 -3.46502,-3.85393 -10.07586,-4.35338 -16.33778,-1.23433 -4.06532,2.02493 -5.33211,3.14096 -10.73156,9.45437 -4.6978,5.493 -15.1394,15.61042 -16.11061,15.61042 -0.24878,0 -2.48422,-0.6445 -4.96763,-1.43222 -7.10115,-2.25243 -10.94119,-3.39798 -11.04159,-3.29389 -0.20308,0.21055 -4.68278,14.827 -4.57673,14.93305 0.54848,0.54848 20.09138,6.67303 21.39139,6.70385 0.52292,0.0124 1.65402,-0.21881 2.51354,-0.51379 z m -48.656968,-5.59708 c 0.661267,-0.62123 1.668706,-2.52946 1.668706,-3.16077 0,-0.25018 -0.964273,-0.80365 -2.620232,-1.50397 -1.441128,-0.60945 -2.695385,-1.1081 -2.787238,-1.1081 -0.445608,0 0.736965,6.06981 1.249517,6.41342 0.495107,0.33191 1.81587,-0.008 2.489247,-0.64058 z m 20.368578,-4.18813 c 1.29965,-3.87471 4.30109,-13.3317 4.24592,-13.37811 -0.0326,-0.0274 -2.35821,-0.77845 -5.16794,-1.66888 -3.85914,-1.223 -5.49089,-1.61897 -6.67159,-1.61897 h -1.56297 l -1.052015,3.32663 c -1.05144,3.32483 -2.82284,10.39454 -2.63671,10.5232 0.05421,0.0375 1.289182,0.56356 2.744391,1.16909 4.921514,2.04791 8.729324,3.47413 9.128124,3.41895 0.23348,-0.0323 0.63398,-0.76181 0.97279,-1.77191 z m -18.348098,-7.94002 1.73043,-0.53448 0.439409,-1.51151 c 0.241674,-0.83133 0.791417,-2.28746 1.22165,-3.23583 0.430232,-0.94838 0.843499,-2.20058 0.91837,-2.78266 0.172669,-1.34242 -0.512804,-4.8849 -1.233184,-6.373 -0.719657,-1.48662 -3.708165,-4.70427 -4.782605,-5.14932 -0.792175,-0.32813 -0.874328,-0.30661 -1.414199,0.37046 -0.84011,1.05359 -1.46778,3.02019 -1.466287,4.59411 0.0014,1.46284 -0.168037,1.67383 -1.622714,2.02084 -0.594188,0.14174 -0.967964,-0.0827 -2.513542,-1.50957 -2.157393,-1.99163 -2.665901,-2.2879 -3.926859,-2.2879 -1.771676,0 -3.270783,2.38335 -3.494833,5.55625 -0.142874,2.02332 0.290034,3.64476 1.510982,5.65931 1.271801,2.09847 4.687096,4.18066 8.491519,5.177 2.530113,0.66261 4.012044,0.66413 6.141863,0.006 z m 40.394058,-9.17573 c 0,-1.55707 -0.0971,-2.71793 -0.2157,-2.57969 -0.11864,0.13825 -0.89255,1.03847 -1.7198,2.00049 -0.82724,0.96202 -1.50408,1.85582 -1.50408,1.98621 0,0.23498 2.47303,1.34673 3.10885,1.39758 0.24563,0.0196 0.33073,-0.70204 0.33073,-2.80459 z m 8.73125,-3.58833 2.24896,-2.38117 -2.2236,0.17653 c -1.22298,0.0971 -2.32431,0.23877 -2.4474,0.31484 -0.27621,0.17071 -0.30084,4.3539 -0.0254,4.3057 0.10914,-0.0191 1.21047,-1.10625 2.4474,-2.4159 z m 5.98497,-7.83446 c 1.53665,-0.74711 4.5989,-2.39322 6.80499,-3.65801 8.55115,-4.90252 14.02393,-6.86787 18.47693,-6.63532 1.2116,0.0633 2.41126,0.20767 2.66592,0.32087 0.41008,0.18229 0.46302,0.0379 0.46302,-1.26269 0,-2.01277 -0.4284,-2.29227 -3.51352,-2.29227 -1.93612,0 -3.11372,0.20687 -6.85884,1.20491 -5.04709,1.34501 -4.92803,1.2929 -11.23676,4.91727 -6.22916,3.57866 -8.26389,4.42264 -14.57265,6.04454 l -1.12448,0.28909 v 1.34963 1.34962 l 3.05074,-0.13463 c 3.01973,-0.13326 3.07914,-0.14844 5.84465,-1.49301 z m -62.920585,-0.43932 0.845415,-1.1994 -1.296286,-5.34904 c -0.712957,-2.94197 -1.675031,-7.02299 -2.13794,-9.06893 l -0.841655,-3.7199 1.963875,-1.96864 c 2.69868,-2.70523 3.223133,-4.03728 3.223133,-8.18635 0,-3.42793 -0.493847,-5.14838 -2.071585,-7.21693 -0.737133,-0.96645 -2.542248,-2.2906 -3.140486,-2.30372 -0.109141,-0.002 -0.198438,0.89363 -0.198438,1.99117 0,2.20819 -0.485851,4.89254 -1.390037,7.68003 l -0.594337,1.83226 -2.910417,0.58592 c -1.600729,0.32225 -3.047484,0.59049 -3.215011,0.59609 -0.409753,0.0137 -1.058363,-1.09508 -4.06782,-6.95374 l -2.557873,-4.97954 -0.552138,1.28348 c -2.58576,6.01076 -2.841462,10.67358 -0.774377,14.12109 0.94805,1.58117 1.744221,2.21826 5.709997,4.56908 l 2.74486,1.6271 2.31865,7.23788 c 1.275258,3.98083 2.437542,7.49882 2.582854,7.81774 0.171172,0.37568 0.912829,0.83435 2.106263,1.30257 1.013133,0.39749 2.068474,0.89408 2.345202,1.10353 0.773064,0.58512 0.996882,0.49108 1.908151,-0.80175 z m 58.740905,-7.38971 c 3.10078,-0.65227 4.97565,-1.40593 11.16223,-4.48699 4.47518,-2.22875 6.73919,-3.19204 9.1058,-3.87437 l 3.14973,-0.9081 1.91844,-1.89986 c 3.54163,-3.50732 5.05012,-7.70906 4.7801,-13.31448 -0.34794,-7.22301 -3.03251,-13.223834 -8.22642,-18.388545 -3.91888,-3.896847 -7.33764,-5.624452 -13.13799,-6.639033 -3.11515,-0.544893 -8.21839,-0.374432 -10.95406,0.365894 -4.6575,1.26041 -8.67836,3.56458 -12.00084,6.877119 -1.99438,1.988416 -2.25808,2.515011 -0.91045,1.818123 2.76551,-1.430102 7.53698,-1.673447 11.32379,-0.577513 6.12176,1.771684 10.60412,5.157515 12.79484,9.664785 1.63275,3.35928 1.98258,5.06902 1.81357,8.86354 -0.18018,4.04536 -0.595,5.55329 -2.69646,9.802 -3.20996,6.48984 -7.22069,9.78371 -13.23339,10.8681 -2.28142,0.41145 -4.26105,0.31485 -6.84309,-0.33392 -0.85248,-0.2142 -1.80498,-0.3513 -2.11667,-0.30468 -0.96705,0.14466 3.41117,1.99701 6.31245,2.6707 1.21643,0.28246 6.05258,0.15606 7.75842,-0.20277 z m 19.36928,-13.38475 c -1.78279,-0.75609 -3.96935,-3.24871 -5.19147,-5.91817 -0.77541,-1.69373 -1.18208,-5.21981 -0.86739,-7.52086 0.72746,-5.31935 5.0297,-7.83483 9.47707,-5.54115 2.14975,1.10871 4.275,3.39165 5.04991,5.42458 1.23914,3.25082 0.56324,8.37922 -1.45268,11.02227 -1.37319,1.80039 -2.73173,2.58662 -4.67666,2.70657 -0.92688,0.0572 -1.97933,-0.0208 -2.33878,-0.17324 z m 3.71361,-5.46571 c 1.65682,-1.39412 2.31808,-4.1778 1.42298,-5.99023 -0.48378,-0.97958 -2.27378,-2.48701 -3.24166,-2.72993 -0.37308,-0.0936 -1.16221,-0.003 -1.75361,0.20151 -0.85046,0.29404 -1.19973,0.61858 -1.67058,1.55231 -0.69512,1.37846 -0.74882,2.57213 -0.19899,4.42358 0.44563,1.50061 1.25494,2.66367 2.08762,3.00011 1.1546,0.46651 2.46934,0.28724 3.35424,-0.45735 z M 54.815784,126.5035 c -3.329923,-3.61779 -6.176137,-10.17156 -6.176137,-14.22136 0,-3.02883 1.60656,-8.07808 3.352697,-10.53717 1.541049,-2.170258 6.396201,-7.202426 7.928,-8.217048 1.532622,-1.015166 1.123766,-1.423407 -0.94274,-0.941324 -7.036546,1.641515 -12.355539,6.741585 -14.347935,13.757392 -0.879436,3.09675 -0.835318,7.20507 0.105837,9.85553 1.025364,2.88762 2.599446,5.33488 4.627114,7.19388 1.641166,1.50465 5.667141,4.23457 6.244975,4.23457 0.133758,0 -0.222557,-0.50601 -0.791811,-1.12447 z m 70.077456,-0.34024 c 0.078,-0.078 -0.16314,-0.88166 -0.53583,-1.78593 -0.58595,-1.42169 -0.69117,-2.12743 -0.77766,-5.21602 -0.0879,-3.13882 -0.021,-3.87852 0.5519,-6.10114 0.67107,-2.60351 3.18904,-9.44819 4.30921,-11.71383 0.34766,-0.70318 0.63212,-1.32826 0.63212,-1.389061 0,-0.363379 -1.84041,-6.63e-4 -3.24696,0.639921 -2.29489,1.04517 -3.25286,1.94525 -4.31487,4.05413 -1.37778,2.73589 -2.05581,5.855 -2.03264,9.3506 0.0287,4.33614 1.48251,8.8955 3.66241,11.48617 0.62574,0.74365 1.38955,1.03794 1.75232,0.67516 z M 86.745929,67.716381 C 85.557221,64.589844 79.635826,54.920884 75.2074,48.875285 72.515397,45.200218 68.732475,40.790922 65.616609,37.696459 l -3.036753,-3.015894 -3.613003,3.677353 C 50.921999,46.546056 44.791864,54.926656 39.584679,64.855582 l -1.838565,3.505729 h 24.622508 24.622509 z"
       id="path1" /></g></svg>
