<?xml version="1.0" encoding="UTF-8"?>
<svg id="Layer_2" data-name="Layer 2" xmlns="http://www.w3.org/2000/svg" viewBox="0 0 20.5 15.6">
  <g id="Capa_1" data-name="Capa 1">
    <path class="cls-1" d="M1.69,15.4c-1.2-.3-1.2-1.9-.6-2.7,.5-.7,1.2-1.1,1.9-1.5,.2-.2,.6-.4,1-.6-.6-.4-1.2-.8-1.8-1.2-.8-.7-1.6-1.3-2-2.3C-.11,6.6-.01,6,.19,5.5c.4-.9,1-1.7,1.8-2.4C3.59,1.6,5.49,.7,7.59,.2c1.3-.3,2.6-.3,3.8,.2,1,.4,1.6,1.4,1.4,2.5-.4,2.2-1.9,3.3-3.9,3.9-.8,.3-1.6,.3-2.4,.2-.7,0-1.7-.5-1.9-1.3,.1,0,.2,0,.3,.1,.6,.5,1.3,.7,2.1,.6s1.6-.3,2.3-.7c.9-.5,1.8-1.2,2.2-2.2,.5-1.1,.1-2-1.1-2.2-1.3-.2-2.6,0-3.8,.5-.7,.3-1.4,.5-2,1-1.1,.7-2.3,1.4-2.9,2.7-.3,.8-.3,1.7,.3,2.3,.8,.8,1.7,1.6,2.6,2.3,.1,.1,.2,.1,.3,0,.6-.3,1.1-.6,1.7-.9,.1-.1,.2-.1,.2-.2,.3-.6,.8-1,1.5-1.2,.6-.1,.9,.2,.9,.7v.5c.2,0,.5,0,.6,.2,.1,.1,0,.4,0,.6-.1,.6-.3,1.2-.5,1.9v.4h.1c.2-.5,.5-1,.8-1.5,.4-.8,.7-1.6,1-2.5,.1-.2,.1-.3,.2-.5,0-.4,.3-.6,.7-.6h.3c.4,0,.4,.1,.3,.5-.1,.4-.3,.9-.1,1.4,.1,.2,.1,.5,.2,.8h.1c.2-.3,.4-.7,.6-1,.3-.6,.5-1.1,.7-1.7,.2-.4,.8-.7,1.2-.4,.1,.1,.1,.3,.1,.4-.3,.8-.1,1.6,.3,2.4,.3-.1,.5-.2,.8-.2,.8-.2,1.6-.2,2.4,.1s1.3,.9,1.5,1.8c.1,.6-.4,1.3-.9,1.5h-.2v-.1c.9-.5,.9-1.5,.1-2.1-.7-.6-2.6-.8-3.4-.3,.5,1.1-.2,1.9-1.2,2.3-.3,.1-.6,.3-.9,0-.2-.3-.2-.6,0-.9,.3-.5,.6-1,1-1.5-.2-.5-.4-1-.5-1.5-.3,.5-.5,1-.8,1.5-.3,.4-.3,.7-.2,1.1,.2,.7-.1,1.4-.8,1.7-.4,.2-.9,.2-1.3,.3-.1,0-.4-.1-.4-.2s0-.3,.1-.4c.4-.5,.8-1,1.2-1.5,.1-.2,.1-.3,0-.5-.2-.5-.4-1-.5-1.3-.6,1.2-1.3,2.5-2,3.8-.2,.4-.6,.6-.9,.3-.1-.1-.2-.4-.3-.6v-.8c-.2,.5-.5,.9-.7,1.4-.3,.6-1.1,.5-1.4-.1-.5-.9-.4-1.9-.1-2.8v-.1c-.3,.2-.7,.3-1,.5-.1,0-.1,.2-.1,.3,.4,1.3,.1,2.4-.8,3.4-.5,.5-1,1-1.8,1,0,0,0,.1-.1,.1l-.9-.2h0Zm2.8-4.4c-.4,.2-.7,.4-1.1,.7-.6,.4-1.2,.9-1.4,1.6-.1,.2,0,.6,.1,.8,.1,.1,.4,.1,.6,.1,.6-.1,1-.5,1.3-.9,.5-.6,.7-1.4,.5-2.3h0Zm2.7,1.3c.7-.5,1.6-3.3,1.4-3.7-1.2,.3-2,2.6-1.4,3.7Zm7.2-.7c.6,0,1-.6,.8-1.4-.4,.4-.8,.8-.8,1.4Zm-2.9,.7c.6-.2,1-.6,.9-1.1-.3,.4-.6,.7-.9,1.1Z"/>
  </g>
</svg>