<?xml version="1.0" encoding="UTF-8" standalone="no"?>
<!-- Created with Inkscape (http://www.inkscape.org/) -->

<svg
   width="57.238968mm"
   height="57.271252mm"
   viewBox="0 0 57.238968 57.271252"
   version="1.1"
   id="svg1"
   inkscape:version="1.3 (0e150ed6c4, 2023-07-21)"
   sodipodi:docname="capacitorjs.svg"
   xml:space="preserve"
   xmlns:inkscape="http://www.inkscape.org/namespaces/inkscape"
   xmlns:sodipodi="http://sodipodi.sourceforge.net/DTD/sodipodi-0.dtd"
   xmlns="http://www.w3.org/2000/svg"
   xmlns:svg="http://www.w3.org/2000/svg"><sodipodi:namedview
     id="namedview1"
     pagecolor="#ffffff"
     bordercolor="#000000"
     borderopacity="0.25"
     inkscape:showpageshadow="2"
     inkscape:pageopacity="0.0"
     inkscape:pagecheckerboard="0"
     inkscape:deskcolor="#d1d1d1"
     inkscape:document-units="mm"
     inkscape:zoom="0.89263468"
     inkscape:cx="110.90763"
     inkscape:cy="114.82861"
     inkscape:window-width="1366"
     inkscape:window-height="697"
     inkscape:window-x="1912"
     inkscape:window-y="171"
     inkscape:window-maximized="1"
     inkscape:current-layer="layer1" /><defs
     id="defs1"><pattern
       id="EMFhbasepattern"
       patternUnits="userSpaceOnUse"
       width="6"
       height="6"
       x="0"
       y="0" /></defs><g
     inkscape:label="Capa 1"
     inkscape:groupmode="layer"
     id="layer1"
     transform="translate(-82.960291,-109.5145)"><path
       d="m 91.513916,166.67126 c -0.07244,-0.20607 -8.291517,-8.45924 -8.424298,-8.45924 -0.07113,0 -0.129327,-0.0677 -0.129327,-0.15056 0,-0.0828 3.083833,-3.23485 6.852963,-7.00456 l 6.852963,-6.85401 -6.827262,-6.82438 -6.827263,-6.82438 4.3772,-4.37361 c 2.40746,-2.40548 4.427192,-4.39027 4.488293,-4.41063 0.0611,-0.0204 8.246995,8.09654 18.190875,18.03758 l 18.07978,18.07462 -4.38964,4.43274 c -3.92037,3.95885 -4.8123,4.76519 -4.8123,4.35053 0,-0.21732 -11.86211,-11.95207 -12.00146,-11.8726 -0.074,0.0422 -0.0923,0.0303 -0.0407,-0.0265 0.0517,-0.0568 -0.24075,-0.44096 -0.64982,-0.8537 l -0.74378,-0.75045 -6.79937,6.81182 c -3.739649,3.7465 -6.87975,6.81182 -6.978002,6.81182 -0.09825,0 -0.196754,-0.0515 -0.218892,-0.11451 z m 21.709674,-30.01545 c -9.94467,-9.93812 -18.064405,-18.11895 -18.043843,-18.17961 0.05603,-0.16531 8.829883,-8.92928 8.939353,-8.92928 0.0519,0 0.0808,0.0424 0.0643,0.0942 -0.0512,0.15984 12.61374,12.70498 12.74466,12.62407 0.0677,-0.0418 0.0896,-0.022 0.0488,0.0442 -0.0409,0.0661 0.10264,0.29181 0.31894,0.50147 l 0.39329,0.38118 6.84119,-6.83877 6.84118,-6.83877 4.31441,4.30309 c 2.37293,2.3667 4.35918,4.30309 4.41389,4.30309 0.0547,0 0.0995,0.0858 0.0995,0.19074 0,0.10491 -3.07017,3.27025 -6.8226,7.0341 l -6.82261,6.84336 6.82261,6.82053 c 3.75243,3.7513 6.81401,6.84872 6.8035,6.88316 -0.0105,0.0344 -2.01173,2.03585 -4.44716,4.44759 l -4.42806,4.38498 z"
       id="path7" /></g></svg>