<?xml version="1.0" encoding="utf-8"?>
<!-- Generator: Adobe Illustrator 26.5.0, SVG Export Plug-In . SVG Version: 6.00 Build 0)  -->
<svg version="1.1" id="Layer_1" xmlns="http://www.w3.org/2000/svg" xmlns:xlink="http://www.w3.org/1999/xlink" x="0px" y="0px"
	 viewBox="0 0 123.7 164.8" style="enable-background:new 0 0 123.7 164.8;" xml:space="preserve">
<style type="text/css">
	.st0{fill:#FFFFFF;}
</style>
<g>
	<path class="st0" d="M0,82.7c0-24,0-48,0-72C0,3.8,3.2,0.4,10.1,0.3C37.4,0.1,64.6,0,91.8,0c1.8,0,4,0.9,5.3,2.1
		c8,7.5,15.9,15.2,23.5,23.1c1.7,1.8,2.8,4.9,2.8,7.3c0.2,41.1,0.2,82.2,0.2,123.3c0,4.8-3.5,8.9-7.7,8.9
		c-35.7,0.1-71.4,0.1-107.2,0.1c-5.5,0-8.8-3.7-8.8-9.3C0,131.2,0,107,0,82.7z M89.3,6.5c-1.7,0-2.9,0-4.2,0c-24,0-48,0.1-71.9,0.1
		c-6.4,0-6.4,0-6.4,6.3c0,46.6,0,93.2,0,139.8c0,5.7,0,5.8,5.7,5.8c32.7,0.1,65.4,0.1,98.2,0.1c6.2,0,6.4,1.4,6.4-6.2
		c0-38.2,0.1-76.4,0.1-114.7c0-1.1-0.2-2.2-0.3-3.6c-7.1,0-13.9,0-20.8,0c-6.1,0-6.6-0.4-6.7-6.6C89.2,20.8,89.3,13.9,89.3,6.5z
		 M111,27.3c-4.5-4.7-9.8-10.2-14.7-15.4c0,4.7,0,10,0,15.4C102,27.3,107.4,27.3,111,27.3z"/>
	<path class="st0" d="M62.2,137.6c-11.9,0-23.7,0-35.6,0c-2.3,0-4.9,0.2-4.9-3.1c0-3.1,2.2-3.6,4.9-3.6c21.5,0.1,42.9,0.1,64.4,0.2
		c2.7,0,5.5,0.1,8.2,0.6c1.1,0.2,2.8,1.9,2.6,2.5c-0.3,1.3-1.5,2.5-2.7,3.3c-0.7,0.5-1.9,0.1-2.9,0.1
		C85,137.7,73.6,137.7,62.2,137.6C62.2,137.7,62.2,137.7,62.2,137.6z"/>
	<path class="st0" d="M61.7,116.7c-11.9,0-23.7,0-35.6,0c-2.3,0-4.3-0.2-4.4-3.2c-0.1-3.2,2.2-3.1,4.4-3.1c23.8,0,47.7,0,71.5,0
		c2.1,0,4.5-0.1,4.5,3.1c-0.1,3.3-2.4,3.2-4.8,3.2C85.4,116.7,73.6,116.7,61.7,116.7z"/>
	<path class="st0" d="M41,79.7c0.2-7.3,3.3-12.4,9.2-15.8c5.3-3.1,10.5-2.3,15.5,0.9c0.8,0.5,2,1.1,2.3,1.8c0.4,1.5,0.3,3.1,0.4,4.7
		c-1.5,0.1-3.5,0.8-4.5,0.1c-3.3-2.3-6.5-3.7-10.4-1.9c-4.1,1.9-5.7,5.4-5.7,9.7c0,3.9,1.1,7.5,4.8,9.4c3.8,2,7.5,1.5,10.7-1.3
		c1.9-1.6,3.9-2.2,5.5-0.2c1.7,2.1,0.3,4-1.4,5.4c-4.8,3.8-10.2,5.4-16,2.6C44.8,92,41.2,86.6,41,79.7z"/>
	<path class="st0" d="M88.3,84c2.1-5.1,3.8-9.5,5.6-13.8c0.6-1.4,1.2-2.7,1.8-4.1c0.9-2.2,2.2-3.8,4.8-2.7c2.6,1.1,1.8,3.3,1.1,5.1
		c-2,5.2-4,10.4-6.1,15.6c-1.3,3.3-2.6,6.7-4.2,9.9c-0.5,1-1.9,2-3,2.1c-0.9,0.1-2.3-1.1-2.7-2c-3.8-8.8-7.5-17.6-11-26.5
		C74,66.6,75,64.2,76,63.5c1.8-1.2,3.5-0.2,4.4,2C82.9,71.4,85.4,77.3,88.3,84z"/>
</g>
</svg>
