<?xml version="1.0" encoding="UTF-8"?>
<svg id="Layer_2" data-name="Layer 2" xmlns="http://www.w3.org/2000/svg" viewBox="0 0 13.2 15.47">
  <defs>
    <style>
      .cls-1 {
        fill: #fff;
      }
    </style>
  </defs>
  <g id="Capa_1" data-name="Capa 1">
    <path class="cls-1" d="M.3,0H12.9c.2,.1,.3,.3,.3,.5-.1,.9-.1,1.8-.2,2.7,0,.9,0,1.7-.1,2.6-.1,1.2-.2,2.4-.3,3.6-.1,1.3-.2,2.6-.3,3.9,0,.3-.1,.4-.4,.5-.5,.2-1,.3-1.6,.5-1.1,.4-2.3,.7-3.4,1.1-.2,.1-.3,.1-.4,0-1.3-.4-2.5-.8-3.7-1.1-.5-.2-1-.3-1.5-.5-.2-.1-.3-.2-.3-.5-.1-.7-.1-1.3-.1-2-.1-.9-.1-1.9-.2-2.9-.2-.8-.2-1.6-.3-2.5s-.1-1.9-.2-2.9C.2,2.2,.1,1.4,0,.6,0,.3,.1,.1,.3,0H.3ZM2.9,8.8v.1c0,.4,.1,.8,.1,1.2v1.3q0,.1,.1,.1c.3,.1,.6,.2,.9,.3,.9,.3,1.7,.6,2.6,.8h.1c.9-.3,1.8-.6,2.7-.9,.2-.1,.5-.1,.7-.2,.1,0,.1-.1,.1-.1,0-.3,0-.6,.1-1,.1-1.2,.2-2.5,.3-3.7v-.4H4.6q-.1,0-.1-.1c0-.5-.1-.9-.1-1.4v-.3h6.3q.1,0,.1-.1c0-.4,.1-.8,.1-1.1v-.4H2.4c.1,1.6,.3,3.4,.4,5.1h5.9q.1,0,.1,.1c-.1,.6-.1,1.3-.2,1.9q0,.1-.1,.1c-.4,.1-.9,.2-1.3,.4-.3,.1-.7,.1-1,0-.4-.2-.9-.3-1.4-.4-.1,0-.1-.1-.1-.1v-1.1q0-.1-.1-.1h-1.7Z"/>
  </g>
</svg>