<?xml version="1.0" encoding="UTF-8"?>
<svg id="Layer_2" data-name="Layer 2" xmlns="http://www.w3.org/2000/svg" viewBox="0 0 15.81 15.81">
  <defs>
    <style>
      .cls-1 {
        fill: #fff;
      }
    </style>
  </defs>
  <g id="Capa_1" data-name="Capa 1">
    <path class="cls-1" d="M0,15.81V0H15.81V15.81H0Zm9.41-2.76h0v.03c.27,.51,.66,.9,1.18,1.17,.44,.22,.92,.32,1.41,.33,.23,0,.45,0,.68-.04,.29-.04,.56-.12,.82-.26,.46-.24,.8-.59,.96-1.09,.12-.37,.13-.74,.07-1.12-.07-.42-.25-.78-.57-1.08-.25-.24-.54-.43-.86-.58s-.65-.29-.97-.44c-.18-.08-.36-.16-.52-.28-.21-.14-.32-.34-.31-.59,0-.27,.13-.45,.37-.56,.14-.06,.28-.07,.43-.06,.18,.01,.35,.07,.5,.18,.14,.11,.24,.25,.33,.4,0,.01,.02,.03,.03,.05,.39-.25,.77-.5,1.16-.75-.06-.1-.12-.19-.19-.28-.26-.37-.6-.64-1.03-.78-.38-.13-.77-.15-1.17-.12-.27,.02-.53,.08-.78,.19-.46,.21-.81,.54-1,1.01-.17,.41-.17,.84-.09,1.28,.09,.45,.33,.81,.67,1.1,.27,.22,.57,.39,.89,.53,.3,.13,.6,.26,.89,.39,.17,.08,.33,.16,.48,.28,.29,.24,.31,.65,.14,.89-.1,.15-.25,.24-.42,.3-.23,.08-.46,.09-.69,.06-.25-.03-.48-.11-.69-.26-.22-.16-.39-.36-.53-.59,0-.01-.02-.03-.03-.05-.4,.23-.8,.47-1.21,.7l.05,.04Zm-2.29-5.79v5.02c0,.16,0,.32-.05,.48-.06,.2-.17,.36-.38,.43-.18,.06-.36,.07-.54,.04-.2-.03-.36-.14-.49-.3-.11-.13-.19-.27-.27-.41,0-.01-.02-.03-.03-.04-.41,.25-.81,.49-1.21,.73h0v.03c.3,.61,.76,1.03,1.41,1.22,.29,.09,.59,.11,.89,.11,.26,0,.51-.04,.76-.11,.61-.18,1.02-.57,1.24-1.17,.11-.31,.15-.64,.15-.97V7.3s-.01-.05-.05-.05h-1.43Z"/>
  </g>
</svg>