<?xml version="1.0" encoding="UTF-8"?>
<svg id="Layer_2" data-name="Layer 2" xmlns="http://www.w3.org/2000/svg" viewBox="0 0 383.7 383.6">
  <defs>
    <style>
      .cls-1 {
        fill: #fff;
      }
    </style>
  </defs>
  <path class="cls-1" d="M203.3,383.6h-22.5c-1.2-.2-2.3-.6-3.5-.7-15-1.1-29.7-4.1-44-8.8-30.1-9.8-56.4-25.9-78.5-48.4C22.5,292.8,4.4,253.4,.6,207.5c-.1-1.3-.4-2.5-.6-3.7,0-7.7,0-15.3,0-23,.2-1.1,.5-2.2,.6-3.3,1.2-16.6,4.4-32.7,9.9-48.4C23.6,91.8,46.2,61.5,78,38.1,105.7,17.7,136.8,5.4,171.1,1.3c21.4-2.6,42.6-1.4,63.6,3.4,29.2,6.7,55.5,19.5,78.7,38.5,43.9,36,66.6,83,70,139.4,1.2,20.1-1.2,39.9-6.5,59.3-11.6,42.8-35.3,77.4-70.9,103.8-3.1,2.3-6.4,4.4-9.7,6.7-.7-.9-1.2-1.5-1.6-2.2-51.6-77.9-103.3-155.8-154.9-233.7-4.5-6.9-11.4-9.7-19.4-7.9-5.3,1.2-8.1,4.4-8.1,9.4,0,55.7,0,111.4,0,167.1,0,4.9,2.2,8.4,6.8,9.9,2.7,.9,5.7,1.3,8.4,1.1,8-.7,11.4-4.7,11.4-12.7,0-39.9,0-79.7,0-119.6,0-.8,0-1.7,0-2.5,.2,0,.5-.1,.7-.2,45.8,67.3,91.5,134.6,137.4,202.2-1.1,.6-1.9,1-2.8,1.4-19.3,9.1-39.4,15.2-60.7,17.5-3.5,.4-7,.9-10.4,1.3Zm67.8-119.9h.5c0-.9,.1-1.6,.1-2.4,0-49.2,0-98.4,0-147.6,0-4.4-1.4-6.5-5.4-8-5.3-2-10.6-2-15.9,0-4.1,1.6-5.4,3.6-5.4,8,0,36,0,72.1,0,108.1,0,1.3,.4,2.9,1.2,4,7.8,12,15.6,24,23.5,35.9,.5,.7,1,1.4,1.5,2.1Z"/>
</svg>