<?xml version="1.0" encoding="UTF-8"?>
<svg id="Layer_2" data-name="Layer 2" xmlns="http://www.w3.org/2000/svg" viewBox="0 0 14.6 16.25">
  <defs>
    <style>
      .cls-1 {
        fill: #fff;
      }
    </style>
  </defs>
  <g id="Capa_1" data-name="Capa 1">
    <g>
      <path class="cls-1" d="M14.5,11.72c-.1,.5-.5,.9-1,1.1-1.8,1-3.7,2.1-5.5,3.2-.6,.3-1.1,.3-1.6,0s-1.1-.7-1.7-1c-.1-.1-.2-.1-.3-.2,.4-.2,.7-.4,1-.5,.1,0,.2,0,.3,.1,.4,.2,.8,.5,1.3,.7,.1,.1,.3,.1,.4,0,1.9-1.1,3.8-2.2,5.7-3.3,.1-.1,.2-.2,.2-.4V4.73c0-.1-.1-.3-.2-.3-1.9-1.1-3.8-2.2-5.8-3.3-.1-.1-.3,0-.4,0-1.8,1.1-3.7,2.2-5.6,3.3-.1,.1-.2,.3-.2,.4v6.6c0,.1,.1,.3,.2,.4,.5,.3,.9,.6,1.4,.8,.1,.1,.2,.1,.3,.2,.7,.2,1.2-.1,1.2-.9V5.42c0-.2,.1-.4,.3-.3,.8,0,.8-.1,.8,.8v6c0,.3,0,.5-.1,.8-.2,1-1.1,1.5-2.2,1.2-.3-.1-.7-.2-1-.4-.3-.2-.6-.5-1-.6-.5-.3-.9-.6-1-1.2V4.52c.1-.4,.3-.8,.8-1C2.7,2.43,4.6,1.32,6.5,.23c.5-.3,1-.3,1.6,0,1.8,1.1,3.7,2.1,5.5,3.2,.5,.3,.8,.6,1,1.1v7.2h-.1Z"/>
      <path class="cls-1" d="M8.9,4.83c.6,.2,1.2,.2,1.7,.4,.7,.3,1.1,.8,1.1,1.6,0,.2,0,.4-.3,.3h-.2c-.4,.1-.6,0-.7-.5-.1-.3-.4-.6-.7-.6-.6-.1-1.3,0-1.9,0-.2,0-.3,.1-.4,.2-.4,.3-.3,.9,.2,1,.6,.2,1.2,.2,1.9,.3,.4,.1,.9,.2,1.3,.3,.6,.3,1.1,.8,1.1,1.5,.1,.7-.2,1.3-.8,1.7-.4,.2-.9,.4-1.4,.5-.9,.1-1.8,.1-2.6-.2-.7-.3-1.2-.9-1.3-1.7,0-.3,0-.4,.3-.4h.3c.4-.1,.5,0,.6,.4,.1,.5,.4,.8,.9,.8,.7,.1,1.4,0,2.1,0,.2,0,.3-.1,.5-.2,.3-.1,.4-.4,.4-.7s-.2-.5-.5-.5c-.8-.2-1.5-.2-2.2-.4-.4-.1-.8-.1-1.2-.3-.6-.2-.9-.6-1-1.2-.1-.6,.1-1.2,.7-1.6,.6-.5,1.3-.6,2.1-.7h0Z"/>
    </g>
  </g>
</svg>