<?xml version="1.0" encoding="UTF-8" standalone="no"?>
<!-- Created with Inkscape (http://www.inkscape.org/) -->

<svg
   width="150.89655mm"
   height="161.12497mm"
   viewBox="0 0 150.89654 161.12496"
   version="1.1"
   id="svg1"
   xml:space="preserve"
   inkscape:version="1.3 (0e150ed6c4, 2023-07-21)"
   sodipodi:docname="astronaut_developer.svg"
   xmlns:inkscape="http://www.inkscape.org/namespaces/inkscape"
   xmlns:sodipodi="http://sodipodi.sourceforge.net/DTD/sodipodi-0.dtd"
   xmlns="http://www.w3.org/2000/svg"
   xmlns:svg="http://www.w3.org/2000/svg"><sodipodi:namedview
     id="namedview1"
     pagecolor="#ffffff"
     bordercolor="#000000"
     borderopacity="0.25"
     inkscape:showpageshadow="2"
     inkscape:pageopacity="0.0"
     inkscape:pagecheckerboard="0"
     inkscape:deskcolor="#d1d1d1"
     inkscape:document-units="mm"
     inkscape:zoom="0.44631734"
     inkscape:cx="404.42076"
     inkscape:cy="355.12848"
     inkscape:window-width="1536"
     inkscape:window-height="793"
     inkscape:window-x="-8"
     inkscape:window-y="-8"
     inkscape:window-maximized="1"
     inkscape:current-layer="layer1" /><defs
     id="defs1" /><g
     inkscape:label="Capa 1"
     inkscape:groupmode="layer"
     id="layer1"
     transform="translate(-45.126883,-91.8552)"><path
       style="fill:#ffffff;stroke-width:1.03927"
       d="m 124.63049,252.46737 c -3.6661,-1.08713 -6.13286,-2.2169 -8.50258,-3.89417 -1.33717,-0.94645 -2.63423,-1.9238 -2.88232,-2.17191 -0.24811,-0.2481 -0.55454,-0.4511 -0.68099,-0.4511 -0.12644,0 -1.32405,-1.06102 -2.66137,-2.35783 l -2.43146,-2.35784 -0.6756,0.91422 c -1.24278,1.68177 -3.22845,3.39657 -4.8558,4.19341 -1.31323,0.64302 -1.996577,0.79464 -3.684317,0.81744 -1.90562,0.0258 -2.2001,-0.0493 -3.66618,-0.93443 -2.22612,-1.34395 -4.88968,-4.02018 -5.94984,-5.97811 -0.58451,-1.07948 -0.93671,-1.66622 -1.69472,-2.82315 -0.62306,-0.951 -2.29137,-5.27707 -2.81498,-7.29957 -0.57326,-2.21423 -1.85834,-6.10221 -2.85805,-8.64687 -2.15046,-5.47376 -2.0961,-5.27435 -2.06125,-7.56181 0.0323,-2.12007 0.0653,-2.2264 0.91199,-2.93428 0.48315,-0.40398 1.20418,-0.81577 1.60226,-0.91512 2.24288,-0.55964 3.40997,-2.40198 1.75495,-2.77029 -1.39906,-0.31136 -1.85027,-0.46527 -3.29969,-1.12553 -0.79399,-0.36168 -1.44374,-0.74679 -1.4439,-0.8558 -1.5e-4,-0.10899 -0.64467,-0.56009 -1.43228,-1.00247 -1.92902,-1.08348 -6.337,-5.53906 -7.50191,-7.58294 -1.53998,-2.70194 -3.16441,-6.57667 -3.16441,-7.54801 0,-0.68409 -0.16045,-0.96051 -0.70037,-1.20651 -0.3852,-0.17552 -0.83936,-0.31912 -1.00923,-0.31912 -0.16987,0 -1.18488,-0.38243 -2.25559,-0.84988 -3.47743,-1.51811 -4.52661,-1.92402 -6.44186,-2.49231 -0.50622,-0.15019 -1.31053,-0.51097 -1.78732,-0.80172 -0.47681,-0.29071 -1.02509,-0.52906 -1.21842,-0.52962 -0.19334,-5.7e-4 -1.65875,-0.64441 -3.25649,-1.43077 -2.02706,-0.99765 -3.19768,-1.76635 -3.87343,-2.54351 l -0.96845,-1.11378 0.17484,-15.26109 c 0.0961,-8.39359 0.1885,-22.54452 0.20519,-31.4465 0.0243,-12.94817 0.10673,-16.43914 0.41215,-17.45398 0.37087,-1.2323 1.42865,-3.04102 2.28627,-3.90931 0.65932,-0.66753 2.97397,-1.78675 5.23393,-2.5308 1.13427,-0.37344 2.92848,-1.01359 3.98713,-1.42255 2.32395,-0.89778 6.01575,-2.07375 7.14934,-2.27733 0.45371,-0.0815 0.96185,-0.25676 1.12921,-0.38952 0.16736,-0.13275 0.84791,-0.35308 1.51236,-0.48963 0.66444,-0.13654 2.50733,-0.6899 4.0953,-1.22968 8.51336,-2.893851 9.55744,-3.062661 12.89844,-2.085461 l 1.21204,0.35451 0.9203,-1.00423 c 1.65985,-1.81121 6.16499,-4.218893 11.00749,-5.882728 2.821837,-0.969549 3.144747,-1.020401 6.408737,-1.009354 2.28229,0.0073 4.1301,0.174495 5.49948,0.496368 1.13428,0.266605 2.59192,0.594611 3.2392,0.728895 1.23226,0.255662 2.71521,1.02912 5.33868,2.784519 0.86131,0.57632 1.64903,1.04786 1.7505,1.04786 0.33345,0 2.94321,2.01912 3.89463,3.01319 1.45993,1.525381 3.74148,4.494961 4.24986,5.531461 1.88921,3.85177 2.27146,4.89704 3.00919,8.22881 0.48156,2.17479 -0.21477,9.52781 -1.32172,13.95689 -0.2365,0.9463 -1.01581,2.74221 -1.73181,3.99091 -0.71599,1.2487 -1.38353,2.52789 -1.48343,2.84265 -0.12566,0.39595 0.32051,1.62328 1.4481,3.98335 1.22526,2.56455 1.84749,4.32847 2.50726,7.10768 0.48263,2.03314 0.87753,4.11353 0.87753,4.6231 0,0.78104 0.19331,1.06679 1.2311,1.81992 1.87893,1.36353 7.4967,4.36168 7.88993,4.21078 0.19148,-0.0735 0.50751,-0.8576 0.70232,-1.7425 0.63834,-2.89967 1.91233,-6.53587 2.75605,-7.86627 0.84487,-1.33222 2.23344,-2.40147 3.12104,-2.40332 0.27188,-5.6e-4 0.76684,-0.28723 1.09989,-0.63704 1.09511,-1.15019 8.22563,-3.37345 24.52835,-7.64786 8.7717,-2.29984 16.42217,-4.23672 17.00106,-4.30416 2.54305,-0.2963 5.97701,1.84473 6.42488,4.00581 0.49381,2.3828 0.20499,4.96248 -0.93005,8.30725 -0.51403,1.51473 -1.49996,5.20229 -2.13207,7.97427 -0.60357,2.6468 -1.50521,5.7694 -3.05683,10.58651 -0.68201,2.11731 -1.30631,4.64742 -1.38732,5.62246 -0.0811,0.97503 -0.26234,1.98774 -0.40294,2.25046 -0.14061,0.26271 -0.25564,0.70807 -0.25564,0.98968 0,0.79022 -1.68196,3.2734 -2.75235,4.06345 -0.52788,0.38962 -2.19719,1.09164 -3.70955,1.56001 -1.51236,0.46839 -3.82516,1.20559 -5.13957,1.63824 -1.31439,0.43265 -2.61365,0.79057 -2.88722,0.79538 -0.27358,0.005 -0.73761,0.19042 -1.03118,0.41248 -0.29357,0.22203 -0.93589,0.4037 -1.4274,0.4037 -0.49149,0 -0.96741,0.11941 -1.05762,0.26537 -0.186,0.30096 -5.12087,1.93353 -5.85244,1.93613 -0.26285,9.3e-4 -0.81187,0.17591 -1.22005,0.38886 -0.94027,0.49055 -3.09925,1.13289 -7.02428,2.08991 -3.09554,0.75476 -4.62916,1.43906 -4.32566,1.93014 0.089,0.144 0.46156,1.28315 0.82791,2.53143 0.69676,2.37407 0.93619,6.33946 0.40267,6.6692 -0.15123,0.0934 -0.27498,0.52657 -0.27498,0.96241 0,0.43586 -0.12374,0.86894 -0.27497,0.96241 -0.15124,0.0934 -0.27497,0.46661 -0.27497,0.82922 0,1.03221 -2.65632,5.87062 -4.2246,7.695 -1.55109,1.80436 -4.64768,4.81205 -4.9543,4.81205 -0.38342,0 -2.59414,1.68515 -5.39476,4.11222 -3.5237,3.05371 -4.12464,3.69332 -4.12656,4.3921 -0.002,0.83071 -0.70979,5.38778 -0.97117,6.25523 -0.14607,0.48478 0.0206,0.72759 0.87762,1.27918 1.558,1.00269 7.16866,6.63383 7.64676,7.67469 0.22657,0.49324 0.51705,1.08241 0.64553,1.30927 0.83869,1.48095 1.42732,2.7827 1.42732,3.15657 0,0.23945 0.1856,0.50658 0.41245,0.59364 0.31096,0.11932 0.41247,0.62074 0.41247,2.03744 0,1.03354 -0.12375,1.95565 -0.27499,2.04913 -0.15123,0.0934 -0.27496,0.38323 -0.27496,0.64391 0,0.81695 -1.91265,4.11845 -2.76728,4.77669 -0.44905,0.34586 -1.17506,0.90935 -1.61336,1.2522 -0.4383,0.34286 -1.76645,0.93988 -2.95145,1.32671 -2.91346,0.95105 -8.16644,1.09881 -10.84342,0.30499 z m 7.50671,-3.52234 c 4.12541,-0.86313 7.47706,-4.3111 6.91629,-7.11503 -0.20445,-1.02218 -0.5864,-1.31581 -0.83322,-0.64053 -0.51218,1.40138 -2.13184,3.47292 -3.28918,4.20688 -1.70837,1.08342 -4.87288,1.77131 -7.23678,1.57314 -2.50795,-0.21026 -5.83198,-1.36052 -8.7269,-3.01989 -2.7278,-1.56357 -4.57855,-2.51554 -5.75046,-2.95791 -0.77328,-0.29187 -0.76507,-0.26889 0.292,0.81742 1.3351,1.37207 5.39431,4.11471 7.98652,5.39618 2.07821,1.02738 5.81362,1.98414 7.89198,2.02141 0.71093,0.0129 1.94832,-0.114 2.74975,-0.28167 z m -0.21423,-5.30539 c 2.13055,-0.8902 4.28364,-3.60011 4.28364,-5.39143 0,-1.45867 -0.75945,-2.50009 -4.45912,-6.11474 l -3.58763,-3.50518 -1.00491,0.90787 c -1.46611,1.32455 -3.72332,2.52658 -6.07194,3.23349 -2.27224,0.68392 -6.48971,0.86802 -10.00743,0.43684 l -1.89567,-0.23236 0.18107,0.90543 c 0.37299,1.86487 1.30933,2.57712 5.7797,4.39646 1.04195,0.42406 3.06162,1.47717 4.48817,2.34027 4.72411,2.85818 9.73824,4.09125 12.29412,3.02335 z m -32.711577,-0.64542 c 0.1299,-0.33753 -0.0392,-0.6454 -0.56614,-1.03115 -3.63915,-2.66379 -5.98902,-6.78131 -8.47411,-14.84863 -1.86841,-6.06539 -4.55542,-13.33627 -4.92854,-13.33627 -0.64715,0 -1.28116,0.94978 -1.28116,1.91927 0,1.00325 0.29128,1.94822 2.45412,7.96147 0.62194,1.72911 1.4523,4.32402 1.84525,5.76645 1.33332,4.89415 3.6451,9.33021 6.05413,11.61724 2.35322,2.23404 4.46399,3.07535 4.89645,1.95162 z m 4.322307,-3.88213 c 0.7893,-0.70522 0.89477,-0.97868 0.99706,-2.58506 0.13928,-2.18751 -0.17267,-3.20084 -1.92414,-6.25038 -0.73831,-1.28551 -1.7226,-3.55669 -2.1873,-5.04707 -0.464687,-1.49037 -1.184947,-3.47019 -1.600547,-4.39958 -0.41559,-0.92941 -0.83475,-2.10591 -0.93144,-2.61447 -0.0966,-0.50855 -0.59429,-1.49847 -1.10577,-2.1998 -0.51148,-0.70133 -1.37213,-2.15758 -1.91253,-3.23612 -1.44267,-2.87917 -1.5519,-2.95581 -3.27768,-2.30007 -0.77957,0.29621 -1.66862,0.78981 -1.97569,1.09686 -0.91852,0.91852 -0.70078,3.17679 0.67962,7.04902 0.64006,1.79548 1.949,5.59081 2.90872,8.43409 2.42988,7.19876 4.1732,10.10246 7.241007,12.06085 1.53198,0.97796 1.98628,0.97676 3.08869,-0.008 z m 14.53434,-8.94936 c 4.15446,-0.74124 8.59352,-3.80921 9.89752,-6.84042 0.63621,-1.47889 0.81951,-3.89756 0.42639,-5.62574 -0.21097,-0.92739 -0.70955,-1.23579 -0.70955,-0.43889 0,0.85996 -2.02587,4.08408 -3.42899,5.45717 -1.55961,1.52621 -3.76801,2.79984 -6.47009,3.73142 -2.39666,0.82627 -6.3596,0.82928 -9.46187,0.007 -1.19627,-0.31701 -2.21712,-0.57639 -2.26854,-0.57639 -0.0514,0 -0.0907,0.34028 -0.0874,0.75619 0.0153,1.89333 2.09443,2.98197 7.14322,3.74024 1.41786,0.21294 2.94938,0.14786 4.95928,-0.21075 z m -0.83467,-6.66782 c 3.2563,-0.89414 5.86812,-2.94713 7.11429,-5.59211 0.60888,-1.29234 0.71326,-1.89241 0.7175,-4.12463 0.004,-2.00977 -0.10995,-2.82286 -0.49332,-3.52534 -0.27407,-0.5022 -0.66009,-1.98705 -0.85782,-3.2997 -0.19773,-1.31263 -0.56724,-2.88005 -0.82111,-3.48315 l -0.4616,-1.09654 -0.82387,1.509 c -1.21137,2.21873 -2.83814,3.73333 -5.33648,4.96846 -3.07549,1.52045 -7.09046,2.27923 -9.14593,1.72845 -0.60248,-0.16144 -0.69295,-0.36123 -0.99722,-2.2023 l -0.14281,-0.86403 2.39323,0.0307 c 6.6677,0.0857 12.49955,-4.56202 12.08963,-9.63493 -0.24702,-3.05712 -3.15376,-7.30868 -5.86963,-8.58531 -1.66453,-0.78241 -6.01142,-1.80903 -10.56364,-2.49487 -2.04168,-0.3076 -4.356477,-0.7576 -5.143997,-1.00002 -0.78752,-0.2424 -1.61422,-0.37075 -1.83712,-0.28522 -0.61353,0.23543 -2.59237,2.85186 -3.45834,4.57266 -1.09101,2.16796 -1.4758,4.20577 -1.33262,7.05759 0.13965,2.78186 0.81621,4.64017 2.216,6.08671 0.97694,1.00959 1.91607,1.1394 3.69705,0.51103 2.109547,-0.74428 2.517607,0.34179 1.32193,3.51839 -0.90907,2.41522 -0.8939,3.66014 0.0596,4.88343 1.047937,1.34447 1.780107,1.84066 4.171537,2.82714 2.43691,1.00524 2.84703,1.66604 1.21677,1.96052 -1.46002,0.26373 -2.0107,0.59812 -2.0107,1.22098 0,4.19875 7.80066,7.09729 14.29867,5.31303 z m 16.36098,-10.95415 c 1.6488,-0.94493 4.53708,-3.12444 4.53708,-3.42372 0,-0.14447 -0.5669,-0.51343 -1.25979,-0.81994 -3.68195,-1.62869 -6.9685,-5.61063 -6.98341,-8.46096 -0.007,-1.30436 0.48897,-2.61789 0.93501,-2.47722 0.16299,0.0514 0.74209,0.94549 1.28688,1.98686 1.73111,3.30901 5.42821,6.1012 8.46482,6.39298 l 1.30242,0.12516 1.67085,-1.82344 c 1.84844,-2.01724 3.35388,-4.65641 4.09175,-7.17325 0.83254,-2.83971 0.45918,-7.39119 -0.72315,-8.81581 -0.21831,-0.26305 -0.88049,-0.1182 -2.95229,0.64579 -8.01145,2.95421 -9.5028,3.26542 -13.48432,2.81382 -3.01439,-0.3419 -4.41106,-0.0762 -5.25783,1.00032 -1.01783,1.29396 -0.67777,4.35746 0.95662,8.61799 0.49313,1.28551 1.0414,3.07972 1.21838,3.98713 0.30521,1.56489 2.26768,5.98656 3.39121,7.64082 0.58741,0.86487 0.97041,0.83532 2.80577,-0.21653 z m -42.208597,-7.69104 c 0,-0.0711 -0.36767,-0.8528 -0.81705,-1.73713 -1.16882,-2.30007 -1.46742,-4.05153 -1.31839,-7.73338 0.13708,-3.38653 0.3115,-4.01023 2.21378,-7.91653 l 0.96436,-1.98024 -1.51135,-0.33824 c -1.7816,-0.39871 -2.15073,-0.24049 -3.03391,1.30037 -2.15304,3.75638 -3.05948,7.60996 -2.56483,10.90387 0.60826,4.05038 1.96837,6.50193 4.00508,7.21911 1.10892,0.39047 2.06231,0.52092 2.06231,0.28217 z m -7.97426,-2.35418 c 0,-0.15601 -0.26984,-1.05311 -0.59963,-1.99357 -0.47183,-1.34553 -0.60213,-2.35447 -0.6114,-4.73463 -0.0138,-3.54894 0.43989,-5.53426 2.02463,-8.85869 l 1.077,-2.25928 -1.01404,-0.16796 c -0.55773,-0.0924 -1.37743,-0.28374 -1.82158,-0.4253 -0.74809,-0.23841 -0.90498,-0.15357 -2.13099,1.15229 -0.72789,0.7753 -1.59052,1.88485 -1.91694,2.46564 -1.71257,3.04709 -2.6977,0.29501 -1.02818,-2.87232 0.96537,-1.83143 0.91071,-1.94141 -1.10496,-2.22296 -1.90808,-0.26655 -4.16341,-0.92608 -5.33458,-1.56006 -0.57708,-0.31238 -1.12076,-0.49643 -1.20819,-0.409 -0.28644,0.28643 0.44287,5.52468 1.04081,7.47552 0.78894,2.57393 2.71429,6.24997 4.31263,8.23396 1.52644,1.89475 4.5589,4.52452 6.52807,5.66123 1.49529,0.86313 1.78735,0.9473 1.78735,0.51513 z M 133.0444,185.51432 c 0,-2.30893 -0.17304,-2.52135 -2.0623,-2.53157 -0.68058,-0.004 -2.59852,-0.31598 -4.26211,-0.69397 -1.6636,-0.37799 -4.13837,-0.88049 -5.49949,-1.11667 -2.7649,-0.47975 -5.82606,-1.27831 -6.70649,-1.74949 -0.75901,-0.40622 -0.74024,-1.27569 0.0385,-1.77615 0.34028,-0.21874 2.59851,-0.9574 5.01828,-1.6415 5.25365,-1.48525 7.06423,-2.10058 9.5445,-3.24383 1.99336,-0.91878 2.54963,-1.54527 0.83578,-0.94124 -1.26011,0.44412 -1.93583,0.22446 -2.92472,-0.95077 l -0.74883,-0.88993 -2.80342,0.85239 c -1.54187,0.46882 -3.79333,1.1101 -5.0032,1.4251 -1.2099,0.31499 -3.03504,0.83237 -4.05589,1.14974 l -1.85608,0.57699 v 1.7084 c 0,1.32161 -0.14155,1.91843 -0.62522,2.63617 -1.39247,2.06629 -4.34123,3.21288 -7.32725,2.84912 -0.99501,-0.12121 -2.36594,-0.22895 -3.0465,-0.23939 -1.06041,-0.0164 -1.23739,0.0597 -1.23739,0.53094 0,0.48355 0.38179,0.62184 3.16221,1.14539 1.73921,0.3275 4.7708,0.84685 6.73688,1.15413 6.99228,1.09279 18.44678,3.078 19.93565,3.45511 0.83179,0.21069 1.8217,0.3632 2.19979,0.33893 0.66634,-0.0428 0.68744,-0.10561 0.68744,-2.0479 z m 17.04843,-3.17589 c 2.72224,-0.83248 8.043,-2.45796 11.8239,-3.61218 14.54922,-4.44148 19.77603,-6.20121 20.36969,-6.8579 0.58845,-0.65095 1.34955,-3.1023 3.55039,-11.43524 2.52007,-9.54162 2.96204,-11.18072 3.78126,-14.0237 1.49254,-5.17961 2.14282,-8.09439 1.97765,-8.86459 -0.2593,-1.20909 -1.39109,-1.92265 -2.71857,-1.71395 -1.82377,0.28672 -10.26661,2.528 -14.92113,3.96101 -2.387,0.73491 -5.82486,1.73033 -7.6397,2.21206 -1.81482,0.48171 -5.46511,1.55946 -8.11174,2.39498 -2.64664,0.83551 -5.67824,1.76839 -6.73688,2.07306 -3.14343,0.90466 -4.13012,1.47606 -4.78705,2.77233 -0.32117,0.63372 -1.15,3.19391 -1.84186,5.6893 -1.88606,6.80263 -4.68722,16.21652 -5.93199,19.93565 -1.11215,3.32291 -2.68727,9.84245 -2.69565,11.15768 l -0.004,0.70863 4.46833,-1.44177 c 2.45759,-0.79297 6.69563,-2.12289 9.41789,-2.95537 z m 14.60796,-14.8818 c -0.58608,-0.21066 -1.45814,-0.76347 -1.93792,-1.2285 -0.99083,-0.96034 -1.72798,-1.04742 -3.49257,-0.41265 -2.60659,0.93768 -6.43545,0.46857 -6.94162,-0.8505 -0.27648,-0.72048 0.50855,-2.17275 1.67303,-3.09504 1.05371,-0.83455 4.69866,-2.72644 6.38624,-3.31473 0.55699,-0.19417 0.95606,-0.61411 1.24833,-1.31361 1.10154,-2.63639 3.97043,-4.78277 6.39271,-4.78277 1.65253,0 2.82881,0.55889 3.96155,1.88224 0.73631,0.86022 1.04265,1.05253 1.28714,0.80802 0.17647,-0.17648 1.41233,-0.37305 2.74637,-0.43683 2.24526,-0.10733 2.482,-0.0673 3.18593,0.53815 0.63488,0.54608 0.72724,0.78643 0.5593,1.4555 -0.31726,1.26411 -2.23509,2.93901 -4.99886,4.36566 -2.1025,1.08531 -2.63798,1.49612 -3.08033,2.3632 -0.78232,1.53347 -1.84164,2.69569 -3.1342,3.43868 -1.53535,0.88253 -2.58185,1.04084 -3.8551,0.58318 z m 4.03207,-4.51971 c 0.99418,-0.38694 5.50766,-3.04799 6.96233,-4.10483 1.1234,-0.81616 1.58289,-1.64148 1.23093,-2.21098 -0.10133,-0.16401 -1.08049,-0.38149 -2.1758,-0.48328 l -1.99152,-0.1851 0.17014,1.20903 c 0.0935,0.66498 0.21743,1.36279 0.27526,1.5507 0.1427,0.46373 -0.18953,0.70476 -2.90074,2.10437 -2.78249,1.43641 -5.4087,2.28506 -7.84303,2.53447 l -1.78109,0.18246 v -2.10027 c 0,-1.15515 -0.0707,-2.10027 -0.15695,-2.10027 -0.20918,0 -3.66536,2.42435 -4.44887,3.12068 -0.34028,0.30241 -0.61869,0.75588 -0.61869,1.00772 0,0.86323 1.22407,1.11502 4.46386,0.91825 2.01957,-0.12265 2.98962,-0.0918 2.8763,0.0916 -0.16077,0.26015 4.26655,-0.884 5.93787,-1.53449 z m -103.789747,17.18931 -0.0924,-3.12975 -1.2492,-1.33859 c -1.7439,-1.86867 -2.845,-3.93245 -3.7128,-6.95892 -1.00336,-3.49927 -0.84777,-5.01242 1.11233,-10.81753 0.82905,-2.45534 1.75561,-5.81538 2.05901,-7.46677 0.30339,-1.65139 1.03477,-4.4346 1.62524,-6.18489 0.59049,-1.75031 1.15793,-3.55359 1.26101,-4.00731 0.28976,-1.27551 0.17399,-16.66612 -0.13771,-18.30976 -0.45539,-2.40125 0.0274,-2.08488 -10.61101,-6.95357 -1.52832,-0.69943 -3.04975,-1.2717 -3.38093,-1.2717 -0.33119,0 -0.89152,0.28934 -1.24516,0.64298 -0.62055,0.62054 -0.65016,0.8532 -0.84839,6.66812 -0.11298,3.31384 -0.14085,7.75749 -0.062,9.87479 0.0788,2.11731 0.0344,11.52144 -0.0992,20.89808 -0.35247,24.77424 -0.36045,23.31893 0.13313,24.27342 0.58132,1.12415 1.48441,1.63322 6.63137,3.73811 2.41977,0.9896 5.26576,2.17252 6.3244,2.62872 1.05866,0.4562 2.02829,0.8328 2.15472,0.83689 0.12644,0.004 0.18832,-1.40095 0.13748,-3.12232 z m -9.44154,-4.70761 c -1.24434,-0.43999 -2.78248,-1.9611 -3.04642,-3.0127 -0.26076,-1.03894 0.51182,-2.07373 1.54824,-2.07373 0.96822,0 3.74487,1.33716 4.49003,2.16227 0.92507,1.02433 0.004,3.3528 -1.31587,3.32515 -0.31684,-0.006 -1.07104,-0.18708 -1.67598,-0.40099 z m 4.12462,-40.05004 c -1.05865,-0.44588 -3.00753,-1.25452 -4.33085,-1.79697 -1.9589,-0.80302 -2.40533,-1.09428 -2.40227,-1.56732 0.007,-1.16654 0.32896,-1.81839 0.89665,-1.81839 0.62418,0 7.13321,2.56002 8.10501,3.18772 0.61758,0.39891 0.81761,1.47342 0.45178,2.42677 -0.21732,0.56634 -0.43087,0.53243 -2.72032,-0.43181 z m -2.83136,-8.09357 c -1.87183,-0.93277 -2.60996,-1.99452 -2.75203,-3.95864 -0.0986,-1.36234 -0.0248,-1.64683 0.62926,-2.42401 0.60296,-0.71658 0.94279,-0.88052 1.8252,-0.88052 1.52739,0 2.69256,0.56198 3.86957,1.86638 1.70853,1.89341 1.66724,3.9306 -0.10997,5.42601 -1.02562,0.86302 -1.68267,0.85746 -3.46203,-0.0293 z m 36.45484,53.82465 c 0.2651,-0.16823 0.14849,-0.47861 -0.47419,-1.26214 -0.78216,-0.98424 -0.93246,-1.44911 -1.20625,-3.73086 -0.19357,-1.61317 0.33648,-4.45507 1.12183,-6.01491 0.84112,-1.67061 2.73118,-3.66706 3.94935,-4.17164 1.04392,-0.4324 0.89484,-0.85528 -0.46365,-1.31509 -2.29064,-0.77533 -4.23853,0.14338 -6.19303,2.92089 -1.4743,2.09512 -2.03761,4.10239 -2.02219,7.20586 0.0107,2.14513 0.12555,2.84334 0.64241,3.90441 0.73741,1.51384 1.04707,1.80653 2.43548,2.30196 1.20784,0.43102 1.72591,0.46886 2.21024,0.16152 z m -7.75159,-1.76206 c -0.99037,-3.45504 -1.03892,-3.85984 -0.753,-6.27801 0.3381,-2.85957 1.54267,-5.98337 2.93404,-7.60887 1.05806,-1.23611 1.01578,-1.34437 -0.83044,-2.1264 -1.28168,-0.54289 -6.12948,-1.09708 -9.48663,-1.08448 -1.94517,0.007 -2.6081,0.13327 -3.95162,0.75087 -0.88788,0.40815 -1.66124,0.74209 -1.71859,0.74209 -0.0574,0 -0.10427,-0.39038 -0.10427,-0.8675 0,-0.652 0.26881,-1.1232 1.08201,-1.89677 1.57976,-1.50281 3.4137,-2.04556 6.74965,-1.99759 l 2.7446,0.0395 -0.95726,-0.79995 c -0.52652,-0.43997 -1.53997,-1.07883 -2.25215,-1.41971 -0.71217,-0.34085 -1.29993,-0.72831 -1.30612,-0.86097 -0.006,-0.13266 0.58098,-0.18429 1.30488,-0.11475 1.15443,0.11093 2.43287,0.69576 4.2389,1.93913 0.2574,0.17722 0.53498,0.25523 0.61683,0.17338 0.0819,-0.0819 -0.0227,-1.37674 -0.23221,-2.87751 -0.20959,-1.50077 -0.33119,-2.78152 -0.27026,-2.84612 0.0608,-0.0646 0.45655,0.21382 0.87914,0.61869 0.42261,0.40488 0.83939,0.73615 0.92618,0.73615 0.43435,0 0.80173,-1.70134 0.63201,-2.92672 -0.7493,-5.40967 -2.98545,-9.18087 -6.45163,-10.88052 -1.86436,-0.91419 -4.89154,-0.86546 -6.74215,0.10853 -2.59349,1.365 -3.45662,2.75801 -4.82473,7.78674 -1.1462,4.2131 -1.27635,5.56773 -0.65982,6.86702 l 0.47709,1.00537 -1.12654,1.15084 c -4.98134,5.08887 -2.62112,16.21204 4.1893,19.74306 0.97519,0.50561 1.84517,0.84718 1.93333,0.75903 0.0881,-0.0882 0.0202,-0.81312 -0.15087,-1.61105 -0.399,-1.86048 -0.21636,-4.25321 0.42695,-5.59317 0.5137,-1.07001 1.66352,-2.06123 2.00033,-1.72443 0.10205,0.10207 0.19099,1.82023 0.19764,3.81815 0.0103,2.99506 0.10342,3.81651 0.5326,4.68054 0.58678,1.18139 2.17157,2.38924 3.13485,2.38924 0.61112,0 0.63053,-0.0598 0.42389,-1.30613 -0.45471,-2.74246 0.14653,-5.17152 1.22844,-4.96316 0.32154,0.062 0.51871,0.49289 0.65207,1.42526 0.40071,2.80128 2.49979,5.66895 4.14955,5.66895 0.43064,0 0.50509,-0.12655 0.36401,-0.6187 z m 12.97122,-2.13119 c 1.725607,-0.65586 3.327097,-0.69606 5.472157,-0.13734 3.44441,0.89716 5.04859,0.22239 5.03663,-2.11855 -0.0115,-2.25948 -1.39437,-4.33024 -3.66789,-5.49268 -1.49563,-0.76472 -4.736,-1.39309 -6.044117,-1.17208 -1.5356,0.25943 -3.31907,1.96775 -3.9092,3.74448 -0.85287,2.5677 -0.17583,5.72656 1.22726,5.72612 0.24124,-7e-5 1.08955,-0.24755 1.88516,-0.54995 z m 38.281837,-6.94298 c 0.14178,-0.34027 0.45382,-1.62584 0.69345,-2.85678 0.23962,-1.23096 0.73312,-3.20222 1.0967,-4.3806 0.36355,-1.17836 0.59838,-2.24382 0.52182,-2.3677 -0.0766,-0.12389 -0.93157,-0.22524 -1.90001,-0.22524 -3.32414,0 -6.09055,1.56332 -7.39358,4.17817 -1.26159,2.53169 -0.69135,5.44593 1.06562,5.44593 0.6918,0 0.96976,-0.45686 0.97563,-1.6036 0.005,-0.98168 0.28387,-1.97107 0.55552,-1.97107 0.12109,0 0.429,0.54684 0.68424,1.21519 0.57828,1.51419 2.0759,3.18441 2.85534,3.18441 0.34958,0 0.69189,-0.25057 0.84527,-0.61871 z m -24.9493,-5.12746 c 2.0043,-0.7406 4.78692,-1.69956 6.18356,-2.13105 l 2.53939,-0.78448 0.004,-6.00362 c 0.003,-4.69761 -0.0708,-5.97228 -0.33958,-5.85961 -0.18904,0.0792 -1.02429,0.34861 -1.85608,0.59872 -0.83181,0.25011 -4.9454,1.55674 -9.14131,2.90364 -4.19593,1.3469 -7.69152,2.44891 -7.76802,2.44891 -0.0765,0 -0.13909,1.74309 -0.13909,3.87353 v 3.87353 l 0.87235,0.31983 c 0.47981,0.17593 1.74812,0.70886 2.81848,1.18434 1.07038,0.47547 2.22419,0.87762 2.56405,0.89367 0.33985,0.016 2.2578,-0.57679 4.26211,-1.31741 z m -6.68851,-3.03187 c -0.64517,-0.64518 -0.80204,-1.03852 -0.79503,-1.99356 0.009,-1.29637 0.39669,-1.97461 1.56807,-2.74703 1.12419,-0.74129 2.18005,-0.64017 3.11891,0.2987 0.93176,0.93176 1.06761,2.26927 0.37806,3.72239 -0.8017,1.68946 -2.93979,2.04974 -4.27001,0.7195 z m 8.47647,-2.4911 c -1.46886,-1.15538 -1.10107,-3.86689 0.67105,-4.94731 1.25185,-0.76324 2.0494,-0.69749 2.99367,0.24678 0.59286,0.59286 0.80376,1.06543 0.80376,1.80098 0,2.71298 -2.57854,4.38618 -4.46848,2.89955 z m 13.59348,1.92094 c 1.23092,-1.62236 3.51081,-3.19024 5.57571,-3.83447 l 1.66028,-0.518 -1.37487,-0.62639 c -2.05461,-0.93609 -4.36269,-1.0059 -5.91196,-0.1788 -1.81389,0.96838 -2.5655,2.19969 -2.37166,3.88537 0.15503,1.34812 0.83689,2.75431 1.25811,2.59455 0.12443,-0.0471 0.64841,-0.64221 1.16439,-1.32226 z m -32.248467,-0.80422 c 0.31951,-0.20226 0.3588,-1.13472 0.22573,-5.35765 -0.14338,-4.55038 -0.11045,-5.16341 0.29934,-5.57321 0.72313,-0.72312 3.6355,-1.94383 6.144857,-2.57558 4.7309,-1.19106 5.01283,-1.44676 1.95246,-1.77092 -4.518907,-0.47861 -10.192597,-2.44559 -13.480717,-4.67349 -2.77765,-1.88204 -7.03995,-6.71653 -8.56405,-9.71372 -0.68371,-1.34453 -0.98733,-1.35687 -2.913,-0.11837 -1.26919,0.81629 -4.81205,4.44277 -4.81205,4.92561 0,0.2209 0.63969,0.32377 1.99356,0.32057 1.16978,-0.003 2.56171,0.189 3.36843,0.46409 4.80903,1.63979 8.80956,6.82661 9.51149,12.33202 0.35294,2.76817 0.20271,4.50107 -0.60393,6.96602 -0.86246,2.63558 -0.7131,3.0751 1.404,4.13169 1.42219,0.70978 2.1244,0.89158 3.43718,0.88994 0.90742,-9.7e-4 1.82392,-0.11229 2.0367,-0.247 z m 31.303967,-7.71791 c 1.17219,-0.71471 1.1585,-1.12558 -0.21222,-6.36356 -1.18733,-4.53729 -2.36852,-7.93813 -2.75708,-7.93813 -0.13213,0 -0.49252,0.2708 -0.80089,0.60179 -0.49122,0.52728 -0.56065,0.96329 -0.56065,3.52084 0,2.78086 0.0397,2.98155 0.83764,4.23989 0.87769,1.38395 1.36214,3.26408 1.36214,5.28624 0,1.06129 0.0715,1.19974 0.61871,1.19884 0.34027,-5.7e-4 1.02084,-0.24623 1.51235,-0.54591 z m -22.68215,-0.27711 c 0.80714,-0.30198 2.40564,-0.79478 3.55225,-1.09511 1.1466,-0.30032 2.99658,-0.90924 4.11105,-1.35314 1.11446,-0.44392 3.17089,-1.01575 4.56982,-1.27076 1.39893,-0.255 2.54351,-0.56862 2.54351,-0.69696 0,-0.33208 -4.4096,-2.38464 -5.60469,-2.60885 -1.0652,-0.19984 -2.87959,0.38162 -5.48084,1.75642 -0.72817,0.38486 -3.24302,1.32831 -5.58857,2.09657 -2.345567,0.76828 -4.267317,1.50889 -4.270567,1.64581 -0.008,0.37135 3.327287,2.07508 4.063247,2.07508 0.35051,0 1.29767,-0.24708 2.10479,-0.54906 z m 15.76846,-8.68507 c -0.0918,-0.23923 -0.1669,-0.67231 -0.1669,-0.96241 0,-0.40397 -0.19517,-0.52746 -0.83356,-0.52746 -1.10713,0 -1.39674,0.73749 -0.5567,1.4177 0.79278,0.64195 1.79361,0.68835 1.55716,0.0721 z m -7.79922,-2.85185 c 3.69582,-1.30061 5.69042,-2.49177 8.26896,-4.93815 2.81915,-2.67469 5.01681,-6.22058 6.23545,-10.06087 0.8457,-2.66501 1.0723,-7.83371 0.44984,-10.26068 -0.50165,-1.95594 -1.58783,-3.97886 -2.46995,-4.60004 -0.87596,-0.61685 -0.8781,-0.033 -0.008,2.22356 1.06222,2.75541 1.23903,7.31048 0.41089,10.58531 -1.98943,7.86715 -7.78691,13.8679 -14.78902,15.30753 -2.91381,0.59907 -6.50513,0.18401 -9.0926,-1.05087 -2.522757,-1.204 -5.322227,-3.96294 -7.343117,-7.23677 -1.23221,-1.99618 -1.74008,-2.60323 -2.06231,-2.46503 -1.81619,0.77888 -2.7993,0.97442 -4.44265,0.88361 l -1.81536,-0.10028 0.83748,1.38157 c 2.71321,4.47588 6.75224,7.47182 12.80894,9.50101 4.946627,1.65725 9.784197,1.96588 13.011637,0.83011 z M 87.612373,126.5947 c 1.30042,-0.36114 2.81733,-1.67317 3.5146,-3.03994 1.12749,-2.21005 0.35814,-6.01592 -1.5858,-7.84475 -0.93818,-0.88265 -2.72632,-1.73394 -3.65491,-1.74002 -2.83227,-0.0186 -5.77773,2.52978 -6.20318,5.36689 -0.37615,2.50838 1.26377,5.52204 3.69107,6.78304 1.57954,0.82059 2.58668,0.93341 4.23822,0.47478 z m -2.69363,-2.29149 c -1.01008,-0.44012 -2.53631,-2.12601 -2.77094,-3.06083 -0.4255,-1.69541 0.95339,-4.25472 2.50173,-4.64331 1.74285,-0.43743 3.92086,1.68135 4.19088,4.07694 0.1713,1.51984 -0.60092,2.91951 -1.96888,3.56865 -1.0904,0.51745 -0.91192,0.51209 -1.95279,0.0585 z m 14.81513,1.55184 c 0.0747,-0.26466 0.21945,-1.03803 0.321527,-1.71858 0.65249,-4.35017 5.10568,-8.81069 11.71302,-11.73231 1.26651,-0.56 2.45742,-1.13423 2.64645,-1.27601 0.55507,-0.41633 0.39596,-1.24346 -0.33081,-1.71967 -0.57919,-0.3795 -0.95114,-0.39906 -2.63103,-0.13841 -5.89916,0.91527 -11.865567,5.46994 -13.679217,10.44248 -0.79438,2.17801 -1.13424,5.58391 -0.61911,6.2046 0.50306,0.60614 2.40332,0.5604 2.57917,-0.0622 z m -26.04461,-10.51296 c 2.29587,-0.72452 4.29227,-1.39019 4.43641,-1.47928 0.14416,-0.0891 0.41426,-0.93547 0.60025,-1.88081 0.44659,-2.27 1.48084,-4.80518 2.78095,-6.8167 1.15679,-1.78977 1.09258,-1.9995 -0.60492,-1.97608 -0.91771,0.0127 -6.40302,1.58871 -10.27678,2.95273 -0.99881,0.35171 -2.95788,0.95594 -12.03773,3.71286 -1.67199,0.50767 -2.92171,1.02958 -2.8675,1.19757 0.0528,0.16378 2.61926,1.57618 5.70316,3.1387 6.557,3.32219 5.65439,3.23749 12.26616,1.15101 z m 20.44625,0.29913 c 0,-0.45757 5.27644,-5.54334 6.837137,-6.59006 2.06854,-1.38733 6.45878,-3.2708 8.76134,-3.75872 2.17712,-0.46135 5.97172,-0.52134 8.08054,-0.12776 1.68691,0.31482 4.5188,1.62268 5.74176,2.65173 0.96599,0.81284 1.01192,0.71128 0.30315,-0.67058 -0.86048,-1.67766 -4.01266,-5.15609 -5.86037,-6.46689 -6.70591,-4.757361 -13.96655,-5.800217 -21.539087,-3.093691 -2.54596,0.90997 -5.45944,2.601221 -7.36838,4.277301 -2.02691,1.77964 -4.82667,6.38371 -5.28849,8.69666 l -0.17149,0.85892 1.91546,-0.13704 c 3.24826,-0.23242 5.44675,0.80079 7.23532,3.4004 0.77275,1.12316 1.35311,1.53479 1.35311,0.95973 z"
       id="path1-2"
       sodipodi:nodetypes="ssssscssscsssscsssssssssscssssscccscscssscscsscssssscssssssssscssssssssscssssscsssssscscscsssscscssssssssssssssssssssssssscssscssssscssssssscsssscssssssscccssssscscsccsscssscsssscssssssssssssssssssscccsscsssssssssssssscsssssssssccsssssssssssscsssssssscssscscscsssscscsssssssssssssccsccsssssscssssssssssssssccssscssssssssccssssscsssssccsssccsssscssscsssscccscsccssssssscssssssscssssccssccssccsscsssscssscssccscsssssssssssssssscssscsssscsccssssscsscccscssssssssssscssssssssssssssccssscsssssscssssssssssscsscssscccssssccssssccssccscscscscssssccccssssssccscscsssccssssssscssscssscc" /></g></svg>
