<svg
   width="183.93408mm"
   height="185.27638mm"
   viewBox="0 0 183.93408 185.27638"
   version="1.1"
   id="svg1"
   xml:space="preserve"
   inkscape:version="1.3 (0e150ed6c4, 2023-07-21)"
   sodipodi:docname="astronaut.svg"
   xmlns:inkscape="http://www.inkscape.org/namespaces/inkscape"
   xmlns:sodipodi="http://sodipodi.sourceforge.net/DTD/sodipodi-0.dtd"
   xmlns="http://www.w3.org/2000/svg"
   xmlns:svg="http://www.w3.org/2000/svg"><sodipodi:namedview
     id="namedview1"
     pagecolor="#ffffff"
     bordercolor="#000000"
     borderopacity="0.25"
     inkscape:showpageshadow="2"
     inkscape:pageopacity="0.0"
     inkscape:pagecheckerboard="0"
     inkscape:deskcolor="#d1d1d1"
     inkscape:document-units="mm"
     inkscape:zoom="0.44631734"
     inkscape:cx="355.12848"
     inkscape:cy="337.20402"
     inkscape:window-width="1366"
     inkscape:window-height="697"
     inkscape:window-x="1912"
     inkscape:window-y="171"
     inkscape:window-maximized="1"
     inkscape:current-layer="layer1" /><defs
     id="defs1" /><g
     inkscape:label="Capa 1"
     inkscape:groupmode="layer"
     id="layer1"
     transform="translate(-11.430437,-59.545019)"><path
       style="fill:#000000"
       d="m 97.645264,244.6899 c -10.714571,-1.06901 -20.577321,-3.25036 -28.178131,-6.23214 -7.7014,-3.02125 -17.47703,-8.62206 -23.68851,-13.57198 -4.1421,-3.30083 -10.57309,-9.67984 -13.59851,-13.48859 -8.26259,-10.40189 -14.57023,-22.44157 -17.49049,-33.38493 -3.2679,-12.2461 -4.09508,-25.28406 -2.4058,-37.92028 1.53836,-11.5073 3.2358,-17.5367 7.65129,-27.17782 3.48291,-7.60487 6.69144,-12.69595 13.05307,-20.711759 2.66354,-3.35613 9.36634,-10.069773 12.66645,-12.68695 7.01128,-5.560337 16.79867,-10.872881 26.74734,-14.518305 11.3013,-4.141063 23.87413,-6.016378 35.562037,-5.304299 24.33278,1.48246 46.4002,11.767686 62.72244,29.233793 6.48727,6.94191 13.66921,18.26191 17.18605,27.08826 6.61767,16.60862 8.67948,30.87209 6.86164,47.4684 -1.63556,14.93214 -6.98026,29.36613 -15.34154,41.4316 -3.80668,5.49311 -6.0419,8.2192 -10.83901,13.21932 -2.8039,2.92256 -10.21843,8.88204 -14.55208,11.69633 -13.08795,8.49937 -27.14256,13.18261 -44.31771,14.76743 -2.70135,0.24927 -9.909836,0.30431 -12.038536,0.0919 z M 105.622,232.76229 c 0.0216,-2.58299 0.009,-6.1251 -0.0279,-7.87135 l -0.0672,-3.175 8.7081,-0.0255 c 7.62338,-0.0223 8.89796,-0.0852 10.23233,-0.50489 1.97321,-0.62065 3.78428,-2.2388 4.7826,-4.27315 1.08459,-2.21014 1.26465,-4.94818 1.13695,-17.28922 -0.1279,-12.36085 -0.13763,-12.41751 -2.54845,-14.82833 -2.85558,-2.85558 -2.44988,-2.77016 -13.02615,-2.74256 l -9.15902,0.0239 -0.16754,-1.98206 c -0.0922,-1.09012 -0.16755,-3.20721 -0.16755,-4.70464 0,-1.49742 -0.1142,-2.79317 -0.25379,-2.87944 -0.13959,-0.0863 -1.01958,-0.22837 -1.95554,-0.31577 l -1.70175,-0.15891 -0.19514,0.88849 c -0.10733,0.48866 -0.19514,2.78268 -0.19514,5.09782 v 4.20933 l -4.662337,-0.16317 c -2.56429,-0.0897 -6.75336,-0.0704 -9.30905,0.0429 -4.37579,0.19404 -4.71739,0.24748 -5.85909,0.91656 -1.49925,0.87862 -2.4806,2.01635 -3.32651,3.85658 -0.94935,2.06529 -1.12773,5.59322 -0.89242,17.64986 0.20067,10.28105 0.20253,10.30611 0.87508,11.77027 0.92348,2.01042 2.02292,3.18187 3.9846,4.24557 l 1.66297,0.90173 8.78468,0.0823 c 8.769027,0.0821 8.785017,0.0833 8.975317,0.66146 0.10484,0.31856 0.18912,3.88318 0.18727,7.92138 l -0.003,7.34219 h 2.0744 2.0744 z M 83.511503,216.42337 c -0.43262,-0.29153 -1.03115,-0.94637 -1.33006,-1.4552 -0.52344,-0.89104 -0.54668,-1.37728 -0.6305,-13.18922 -0.064,-9.02128 -0.004,-12.4641 0.22635,-13.02061 0.17235,-0.4161 0.74729,-1.08852 1.27765,-1.49426 0.82784,-0.63334 1.20761,-0.73747 2.68407,-0.73592 0.94588,9.9e-4 9.77535,0.0308 19.621027,0.0661 l 17.90124,0.0643 1.23871,1.20389 1.2387,1.20388 -0.0934,12.6206 c -0.10256,13.8519 -0.0786,13.64718 -1.72657,14.76411 -0.71128,0.48208 -1.52421,0.50231 -20.18086,0.50231 -19.012567,0 -19.457007,-0.0117 -20.226317,-0.53007 z m 35.781477,-3.99342 c 3.34731,-1.66804 3.64353,-5.63413 0.59587,-7.97807 -2.25139,-1.73154 -5.02627,-0.8861 -6.46993,1.97123 -1.1785,2.33251 0.2134,5.34294 2.91578,6.30631 1.36957,0.48824 1.37958,0.48722 2.95828,-0.29947 z m -12.26355,-2.8187 c -0.0592,-0.47294 -0.17623,-1.41346 -0.26017,-2.09004 -0.14964,-1.2062 -0.17426,-1.23375 -1.26487,-1.41528 -0.61174,-0.10182 -5.07109,-0.23882 -9.909647,-0.30444 l -8.7974,-0.11932 0.004,1.66689 c 0.007,3.12145 -0.67069,2.83731 6.97139,2.92392 3.658071,0.0415 8.161597,0.10301 10.007847,0.13677 l 3.3568,0.0614 z m 12.17781,-10.25185 c 2.4827,-1.20185 3.51729,-4.39624 2.10017,-6.48448 -1.35958,-2.00346 -2.87811,-2.71445 -4.73155,-2.21537 -1.43579,0.38662 -3.21537,2.18279 -3.46127,3.49353 -0.46466,2.47688 2.02011,5.54729 4.62161,5.71087 0.20872,0.0131 0.87069,-0.21392 1.47104,-0.50455 z m -13.92788,-2.2874 1.62631,-0.16998 v -1.94669 -1.94668 l -7.474466,-10e-4 c -4.110971,-7.5e-4 -8.635341,-0.0782 -10.054171,-0.1722 l -2.57969,-0.17083 v 2.1527 2.15269 l 8.00365,0.074 c 4.402001,0.0407 8.194537,0.10201 8.427847,0.13617 0.23332,0.0342 1.15605,-0.0144 2.05052,-0.10786 z m -27.213267,35.78814 c 0,-1.28299 -5.68814,-24.61017 -8.07229,-33.10462 -0.9394,-3.34698 -2.61193,-9.35963 -3.71674,-13.36145 -1.85616,-6.72337 -5.20611,-17.44438 -8.20523,-26.25964 -1.43188,-4.20867 -1.47664,-4.00822 1.19361,-5.3457 2.75934,-1.38209 2.73318,-1.38211 3.40594,0.003 1.49046,3.06784 6.8205,7.48085 12.40667,10.27214 4.91265,2.45474 13.26753,4.92841 19.25992,5.70236 9.242317,1.19371 14.667037,0.83065 25.878297,-1.73196 9.65113,-2.206 19.87154,-8.11554 23.11014,-13.36248 0.9202,-1.49083 1.02012,-1.56961 1.78995,-1.4112 1.53458,0.31578 4.33448,1.21299 4.76285,1.52623 0.47951,0.35063 0.68112,-0.4504 -1.90999,7.58889 -3.97441,12.33116 -5.92836,18.60608 -7.04423,22.62187 -2.77934,10.00223 -3.97633,14.4842 -5.15829,19.31458 -2.75845,11.2731 -5.10689,20.44384 -5.89463,23.01875 -0.7701,2.51723 -1.02314,4.43666 -0.63595,4.82385 0.15228,0.15228 3.49938,-0.86234 4.12373,-1.25004 0.26687,-0.16571 1.02344,-3.00973 5.17379,-19.44881 5.11049,-20.24209 7.25163,-27.63992 14.22431,-49.14635 0.88463,-2.72852 1.73468,-4.96085 1.88901,-4.96075 0.27633,1.9e-4 4.61042,2.50002 4.95589,2.85847 0.0976,0.10123 -0.53598,2.26764 -1.40786,4.81426 -2.45234,7.16287 -2.73523,8.0165 -4.29644,12.96458 -1.81305,5.74623 -4.40678,14.56451 -6.38143,21.69584 -3.54496,12.80238 -4.17965,15.12827 -5.01787,18.38854 -0.48638,1.89177 -1.25174,4.8088 -1.70081,6.48229 -0.44906,1.67349 -0.81723,3.132 -0.81816,3.24114 -0.003,0.40928 0.84297,0.16892 2.77938,-0.78924 l 1.99608,-0.98769 0.76816,-2.39804 c 0.42249,-1.31893 1.08016,-3.64268 1.46149,-5.16388 1.69467,-6.76044 8.55811,-30.79318 11.02848,-38.61687 2.29396,-7.26497 5.3641,-16.47894 5.63917,-16.92401 0.27082,-0.43821 0.75625,-0.32742 2.41591,0.55137 2.26253,1.19802 4.66483,2.96384 6.3706,4.68275 1.59629,1.60857 4.31613,5.08435 4.31613,5.51572 0,0.19932 -11.08538,2.60339 -14.15521,3.06983 -0.47447,0.0721 -0.52235,0.25721 -0.46315,1.79081 0.0976,2.52865 0.0374,2.46841 2.25372,2.2554 2.50779,-0.24102 10.26984,-1.36576 12.01219,-1.74059 0.75204,-0.16178 1.80874,-0.25662 2.34824,-0.21074 0.97367,0.0828 0.98617,0.099 1.6952,2.20008 0.39286,1.16417 0.79984,2.30531 0.90439,2.53586 0.20724,0.457 -0.0882,0.50662 -9.35788,1.57144 -3.74748,0.43047 -10.03197,1.32683 -10.25971,1.46335 -0.0996,0.0597 0.69437,4.92825 0.82506,5.05894 0.0572,0.0572 0.64246,-0.0167 1.30055,-0.16414 1.25335,-0.28088 12.66407,-2.22128 14.78745,-2.51462 1.16816,-0.16138 1.25712,-0.23428 1.78594,-1.46355 0.3061,-0.71154 0.55654,-1.35832 0.55654,-1.4373 0,-0.079 0.40104,-1.0094 0.8912,-2.06761 1.59494,-3.44334 3.87145,-11.34793 4.78321,-16.60841 1.08874,-6.28163 1.47015,-10.19445 1.49692,-15.35657 0.0265,-5.11013 -0.14845,-7.04459 -1.23481,-13.65384 -1.62762,-9.90222 -5.5054,-20.84099 -10.70617,-30.20088 -3.7889,-6.81893 -7.97611,-12.235656 -14.05588,-18.18319 -7.95153,-7.778587 -16.11634,-13.203083 -25.91127,-17.214816 -9.22441,-3.77806 -16.29839,-5.615096 -24.95213,-6.479794 -4.13468,-0.413145 -16.479217,-0.174571 -20.217427,0.390729 -6.4406,0.973959 -13.34052,2.857806 -18.9211,5.165917 -12.92899,5.347402 -22.42623,11.666876 -29.68314,19.751206 -4.86697,5.421896 -5.05318,5.658396 -9.25339,11.752068 -5.02085,7.28428 -10.1361,18.87473 -12.14401,27.51667 -3.03496,13.06233 -3.28948,26.83787 -0.72351,39.15833 1.00354,4.81846 3.81774,13.42175 5.53903,16.93334 l 0.97268,1.98437 2.77813,0.17966 c 3.79812,0.24561 9.18238,1.1367 11.97423,1.98172 1.27431,0.3857 2.36605,0.65216 2.42609,0.59212 0.06,-0.06 0.30886,-1.09476 0.55295,-2.29939 0.32909,-1.62413 0.36763,-2.28202 0.14909,-2.54534 -0.71784,-0.86495 -3.97341,-1.39549 -13.25028,-2.15934 -2.83765,-0.23365 -5.1758,-0.44442 -5.19587,-0.46837 -0.0201,-0.024 0.39887,-1.23418 0.93097,-2.68939 l 0.96747,-2.64584 1.1547,-0.0831 c 1.22258,-0.088 4.49093,0.36242 10.32174,1.42235 1.95183,0.3548 3.99709,0.6451 4.54502,0.6451 h 0.99623 l 0.17745,-1.4203 c 0.27827,-2.22718 0.20098,-2.35986 -1.59714,-2.74167 -3.89638,-0.82735 -11.18816,-2.50287 -11.96984,-2.75046 -0.47294,-0.1498 -0.85989,-0.39736 -0.85989,-0.55014 0,-0.45933 3.64879,-4.6111 5.83897,-6.64386 2.08976,-1.93957 5.3776,-4.11174 6.38939,-4.22127 0.45327,-0.0491 0.67701,0.22073 1.15634,1.39437 1.55904,3.8173 8.20622,25.79161 9.8044,32.41145 0.21079,0.87313 0.67072,2.54 1.02207,3.70417 0.74886,2.48126 2.52648,8.6704 3.57167,12.43542 0.40397,1.45521 1.34278,4.78555 2.08624,7.40075 0.74346,2.61521 1.35175,5.02422 1.35175,5.35336 0,0.45594 0.32986,0.76558 1.38536,1.30045 0.76195,0.3861 1.84476,0.99202 2.40625,1.34647 0.56149,0.35445 1.0854,0.57994 1.16425,0.50109 0.21689,-0.21689 -1.33692,-6.69896 -3.24108,-13.52087 -0.93422,-3.34698 -3.18713,-11.44323 -5.00646,-17.99167 -1.81933,-6.54844 -3.67664,-13.21594 -4.12736,-14.81667 -1.18996,-4.22618 -5.47578,-17.10855 -6.51111,-19.57113 -0.48758,-1.15975 -0.88652,-2.20551 -0.88652,-2.3239 0,-0.2469 4.68809,-2.57892 5.18444,-2.57892 0.18042,0 0.50493,0.50601 0.72113,1.12447 2.19191,6.27029 2.99173,8.65091 4.24465,12.63386 2.57273,8.17856 4.07703,13.30606 6.49067,22.12382 0.881,3.21857 1.72278,6.17009 1.87062,6.55894 0.36797,0.96782 4.40322,16.83106 5.15501,20.26516 0.53813,2.45817 1.98299,8.29852 2.47885,10.01993 0.1351,0.46901 0.64788,0.81592 2.03276,1.37522 2.28407,0.92245 2.51354,0.93578 2.51354,0.14592 z m 20.769791,-66.73406 c -0.43656,-0.0644 -2.35926,-0.28961 -4.272661,-0.50051 -10.61022,-1.16952 -21.2128,-5.75028 -26.64988,-11.51387 -2.10997,-2.23668 -5.24853,-6.89461 -6.50502,-9.65409 -0.53009,-1.16417 -1.30231,-3.20148 -1.71605,-4.52737 l -0.75227,-2.41069 -2.30459,-0.14931 c -3.77945,-0.24486 -5.03194,-1.12517 -5.55961,-3.90758 -0.14399,-0.75922 -0.26179,-5.23128 -0.26179,-9.9379 0,-9.47273 0.10006,-10.15488 1.65159,-11.25967 0.70417,-0.50141 2.82227,-0.88521 5.49703,-0.99604 0.29901,-0.0124 0.52481,-0.71013 0.88303,-2.72863 0.98842,-5.56965 3.69582,-12.09621 6.99699,-16.867186 1.86912,-2.701315 6.17924,-7.189875 9.18073,-9.560813 5.16489,-4.079841 11.84264,-7.241713 18.33343,-8.680766 6.672577,-1.479356 10.438277,-1.601069 16.906317,-0.546433 3.13728,0.511544 9.15415,2.424994 11.85609,3.770405 4.9011,2.440467 9.27403,5.597966 13.2577,9.572804 5.54508,5.532775 8.19866,10.047281 10.89863,18.541679 0.87883,2.76489 1.63844,5.2652 1.68802,5.55625 0.0792,0.46471 0.35474,0.54641 2.2626,0.67073 1.94656,0.12684 2.25917,0.22313 3.00648,0.92604 1.50342,1.4141 1.51817,1.52839 1.59114,12.33128 0.0639,9.45099 0.0418,9.98032 -0.45109,10.83644 -0.80617,1.40025 -2.19528,1.95214 -4.92208,1.95555 l -2.30193,0.003 -0.17682,1.04014 c -0.28945,1.70265 -1.86311,6.31087 -2.77327,8.12111 -3.85633,7.66991 -10.11009,12.74463 -20.34344,16.50804 -6.30214,2.31767 -11.76087,3.30018 -19.06615,3.43169 -2.83766,0.0511 -5.516556,0.0402 -5.953126,-0.0242 z m 13.229166,-6.83085 c 5.73832,-1.34702 8.71376,-2.3603 12.22393,-4.16282 7.87258,-4.04268 13.83636,-9.78205 17.27806,-16.62793 2.042,-4.06172 3.02187,-7.91334 3.45935,-13.59776 0.54728,-7.11132 -0.71693,-13.54276 -3.89478,-19.81395 -3.63578,-7.174862 -10.98168,-13.667573 -19.59789,-17.321696 -3.07315,-1.303316 -8.54477,-2.790919 -12.40606,-3.372911 -3.38071,-0.509556 -9.359406,-0.5069 -13.035247,0.0058 -3.9273,0.547764 -10.7323,2.475444 -13.79299,3.907196 -4.26962,1.997277 -9.17353,5.572072 -11.93032,8.696817 -1.59418,1.806962 -5.07877,7.197974 -6.04332,9.349644 -2.24275,5.00297 -3.46032,10.28625 -3.45276,14.9822 0.0152,9.40617 3.02428,17.67226 8.89449,24.43321 5.60634,6.45703 13.4523,11.07573 22.52589,13.26038 5.164651,1.24349 6.568281,1.41071 11.172687,1.33107 3.96822,-0.0686 4.75099,-0.16597 8.59896,-1.06924 z m -13.966776,-4.15537 c -11.268931,-1.44955 -21.784501,-7.63642 -27.308191,-16.06684 -2.23056,-3.40435 -3.43991,-6.08807 -4.30486,-9.5531 -0.60683,-2.43094 -0.69797,-3.3504 -0.70928,-7.15502 -0.0109,-3.66053 0.0843,-4.77159 0.58936,-6.87917 2.07901,-8.67575 6.64746,-15.27927 13.81237,-19.965267 3.78551,-2.475806 4.34914,-2.757838 8.33815,-4.172322 4.25293,-1.50807 6.68095,-2.02426 10.981241,-2.334587 6.560966,-0.473467 13.194876,0.47093 19.640526,2.796003 4.82779,1.741482 8.92587,4.517232 12.82841,8.689053 6.32933,6.76607 9.27139,16.62404 7.89615,26.45764 -1.24635,8.91192 -5.43705,15.68845 -12.93464,20.91582 -7.89818,5.50666 -19.59556,8.45554 -28.829236,7.26779 z M 77.896293,134.66664 c 1.41364,-0.59065 1.84899,-1.41277 1.62202,-3.06305 -0.27033,-1.96557 -0.86547,-2.46681 -2.7037,-2.27709 -2.13074,0.21992 -2.54504,0.70052 -2.3808,2.76177 0.2248,2.82136 1.17948,3.53227 3.46248,2.57837 z m 0.90416,-11.30955 c 0.40035,-0.49043 1.11772,-3.08131 1.11772,-4.0368 0,-1.85456 -3.29859,-3.26921 -4.94081,-2.11895 -0.74417,0.52123 -1.29781,2.99899 -1.17141,5.24248 0.0152,0.26929 0.4,0.638 0.8867,0.84954 1.08282,0.47063 3.74195,0.51189 4.1078,0.0637 z m 4.82622,-10.92393 c 0.5117,-0.35084 1.4642,-1.18182 2.11667,-1.84663 1.07311,-1.09342 1.18629,-1.33007 1.18629,-2.48034 0,-0.69938 -0.16726,-1.58413 -0.37169,-1.96611 -0.68175,-1.27386 -2.93754,-1.53297 -4.82929,-0.55471 -0.90252,0.46671 -2.77816,3.05411 -3.17561,4.38067 -0.38384,1.28115 0.14545,2.17429 1.71649,2.89643 1.26898,0.5833 2.02037,0.48722 3.35714,-0.42931 z m 10.14521,-9.46318 c 1.49698,-1.41183 1.61397,-3.324022 0.29069,-4.751132 -0.75763,-0.81706 -1.54702,-0.91011 -2.90557,-0.34246 -2.32625,0.97196 -2.8195,2.573772 -1.45507,4.725252 0.74584,1.17606 0.85082,1.24242 1.96554,1.24242 0.96909,0 1.34172,-0.15477 2.10441,-0.87408 z"
       id="path1" /></g></svg>
