<?xml version="1.0" encoding="UTF-8" standalone="no"?>
<!-- Created with Inkscape (http://www.inkscape.org/) -->

<svg
   width="213.50456mm"
   height="226.68456mm"
   viewBox="0 0 213.50456 226.68456"
   version="1.1"
   id="svg1"
   xml:space="preserve"
   inkscape:version="1.3 (0e150ed6c4, 2023-07-21)"
   sodipodi:docname="astronaut_blog.svg"
   xmlns:inkscape="http://www.inkscape.org/namespaces/inkscape"
   xmlns:sodipodi="http://sodipodi.sourceforge.net/DTD/sodipodi-0.dtd"
   xmlns="http://www.w3.org/2000/svg"
   xmlns:svg="http://www.w3.org/2000/svg"><sodipodi:namedview
     id="namedview1"
     pagecolor="#ffffff"
     bordercolor="#000000"
     borderopacity="0.25"
     inkscape:showpageshadow="2"
     inkscape:pageopacity="0.0"
     inkscape:pagecheckerboard="0"
     inkscape:deskcolor="#d1d1d1"
     inkscape:document-units="mm"
     inkscape:zoom="0.44631734"
     inkscape:cx="397.69909"
     inkscape:cy="406.66132"
     inkscape:window-width="1366"
     inkscape:window-height="697"
     inkscape:window-x="1912"
     inkscape:window-y="171"
     inkscape:window-maximized="1"
     inkscape:current-layer="layer1" /><defs
     id="defs1" /><g
     inkscape:label="Capa 1"
     inkscape:groupmode="layer"
     id="layer1"
     transform="translate(-0.23493506,-40.675312)"><path
       style="fill:#ffffff"
       d="m 85.430765,266.18881 c 0,-0.63952 0.23081,-1.91944 0.51291,-2.84427 0.87676,-2.8743 1.6378,-6.10129 1.47687,-6.26222 -0.0846,-0.0846 -1.43558,-0.0113 -3.00221,0.16293 -1.56663,0.1742 -3.22074,0.31673 -3.67582,0.31673 -1.16312,0 -2.32653,-1.07819 -2.93817,-2.72296 -1.04097,-2.79929 -1.02317,-3.00751 0.89038,-10.41234 2.18908,-8.47107 2.16804,-8.383 2.77265,-11.60324 0.27321,-1.45521 0.74487,-3.77693 1.04812,-5.15938 0.75259,-3.4309 2.74216,-13.32933 3.29721,-16.40416 0.49437,-2.73872 3.21249,-15.16139 5.70565,-26.0767 0.86611,-3.79192 1.75327,-7.82743 1.97146,-8.9678 0.21818,-1.14037 0.57151,-2.34019 0.78517,-2.66628 0.95233,-1.45344 7.531775,-3.28157 16.166705,-4.49199 5.15385,-0.72246 10.19919,-1.09897 17.58698,-1.31244 2.83766,-0.082 7.83828,-0.27061 11.1125,-0.41915 3.62815,-0.1646 8.32977,-0.18462 12.03854,-0.0513 3.34698,0.12033 6.14018,0.17899 6.20711,0.13035 0.0669,-0.0486 -0.60584,-1.54899 -1.49503,-3.33411 -2.35549,-4.72884 -5.16109,-8.29369 -9.47458,-12.03859 -3.63669,-3.15732 -6.04724,-4.8926 -10.54626,-7.59197 -1.33008,-0.79804 -2.66435,-1.62767 -2.96504,-1.84364 -0.51945,-0.37308 -0.5999,-0.31016 -1.61252,1.26099 -2.05524,3.18887 -5.15944,6.32324 -8.45315,8.53532 -5.89797,3.96113 -10.72826,6.10954 -15.46717,6.87948 -10.148765,1.64888 -8.713865,1.12229 -10.810155,3.96714 -2.22504,3.01956 -6.75342,5.42275 -10.21819,5.42275 h -1.37124 l -0.4641,1.21523 c -0.77076,2.0182 -2.92732,4.96687 -5.18803,7.09358 -1.17512,1.10547 -2.22959,2.00994 -2.34326,2.00994 -0.11367,0 -0.20496,1.27993 -0.20287,2.84427 0.004,2.8253 -0.007,2.8734 -1.59665,7.2099 -1.93447,5.27675 -3.60329,9.48245 -4.32037,10.88805 -0.83477,1.63628 -2.45396,3.10121 -3.63685,3.29036 -0.96914,0.15497 -1.03568,0.2295 -1.36143,1.52507 -0.56445,2.24487 -1.62193,4.71257 -2.68128,6.25694 -0.54901,0.80036 -1.53788,2.72576 -2.19748,4.27866 -1.47101,3.4632 -5.02779,10.42609 -6.85131,13.4124 -0.74321,1.21711 -2.24962,3.21827 -3.34758,4.44702 -1.09797,1.22875 -2.68775,3.09043 -3.53284,4.13707 -1.98431,2.45753 -5.2753,5.80811 -6.82331,6.94686 -1.71567,1.26208 -5.25976,2.89262 -7.97384,3.66853 -3.3514,0.95812 -6.29687,1.09938 -9.86006,0.47287 -5.27067,-0.92673 -9.47629,-3.08683 -13.2356297,-6.79811 -3.7694402,-3.72124 -5.8827602,-7.67068 -7.0112602,-13.10281 -0.31743,-1.52796 -0.67308,-2.95825 -0.79034,-3.1784 -0.39171,-0.73545 -1.32006004,-6.43902 -1.32006004,-8.11013 0,-2.20454 0.42403,-4.11308 1.35072004,-6.0795 0.93768,-1.98975 0.95,-2.47351 0.0959,-3.76416 -0.36852,-0.55688 -0.80458004,-1.73592 -0.96901004,-2.62009 -0.25299,-1.36038 -0.22637,-1.88531 0.17309,-3.41359 0.25962004,-0.9933 0.45366004,-2.52037 0.43119004,-3.3935 -0.091,-3.53665 1.2638,-6.52107 4.33628,-9.55212 l 2.17309,-2.14379 0.23927,-3.41246 c 0.1316,-1.87685 0.20512,-13.83043 0.16339,-26.5635 -0.0526,-16.04168 0.0144,-23.71979 0.2181,-25.00313 0.3690802,-2.32518 2.2467199,-6.26164 3.6248799,-7.59951 1.58589,-1.53954 3.90616,-2.78871 5.98902,-3.22432 1.41274,-0.29546 4.70523,-0.43446 13.13034,-0.55433 6.18463,-0.088 11.61914,-0.22393 12.07668,-0.30208 0.8161,-0.1394 0.82695,-0.16046 0.57204,-1.11009 -0.35778,-1.33287 -0.60048,-1.50546 -2.7947,-1.98752 -3.95766,-0.86947 -6.43706,-2.74999 -8.02136,-6.08385 -1.16882,-2.45956 -1.39898,-4.57118 -1.21564,-11.15287 0.17794,-6.38775 0.46176,-8.02368 1.79978,-10.374032 1.36858,-2.404018 4.27083,-4.504968 6.87445,-4.976458 0.94092,-0.17039 0.95957,-0.19828 1.1181,-1.67181 0.23457,-2.180228 1.34772,-6.335877 2.29345,-8.561974 6.12541,-14.418134 18.31719,-24.971023 33.22172,-28.755854 4.85524,-1.232933 6.93879,-1.427087 13.70824,-1.2774 6.90258,0.15263 8.076866,0.323524 13.147575,1.913359 4.43892,1.391749 10.56239,4.522627 13.86239,7.087719 7.01366,5.451717 11.35754,10.69679 14.94162,18.041448 1.88963,3.872318 3.013,7.125266 3.60915,10.451042 0.2478,1.38245 0.48103,2.55104 0.51828,2.59687 0.0373,0.0458 0.79796,0.25369 1.69046,0.4619 2.2407,0.52272 3.39849,1.1699 4.82919,2.69944 1.44942,1.549538 2.18214,2.903118 2.79118,5.15623 0.59385,2.19691 0.6703,14.07106 0.10519,16.33764 -1.17743,4.72248 -4.54033,7.7213 -9.09004,8.10589 l -1.99807,0.1689 -0.2938,1.46295 c -0.16159,0.80463 -0.24626,1.5105 -0.18816,1.56861 0.0581,0.0581 2.231,0.10563 4.82864,0.10561 2.59765,-3e-5 5.55643,0.1125 6.57508,0.25005 4.72622,0.63822 9.05277,4.57586 10.31413,9.38699 0.60476,2.30674 0.73999,7.57398 0.45473,17.71245 l -0.25311,8.99584 0.77802,1.32291 c 0.42791,0.72761 1.25111,2.09683 1.82933,3.04271 0.57822,0.94589 1.47767,2.55323 1.99877,3.57188 0.5211,1.01864 0.99383,1.90249 1.05051,1.96411 0.0567,0.0616 1.20359,-1.0689 2.54867,-2.51226 4.11752,-4.41835 6.44555,-6.50164 12.49843,-11.18449 7.68774,-5.94769 15.93595,-10.93531 17.34469,-10.48819 0.71483,0.22688 1.0452,1.15093 1.0452,2.92347 v 1.43798 h 1.97123 c 1.57374,0 2.02156,0.09 2.22086,0.44608 0.27732,0.49555 -0.12676,1.67059 -0.57449,1.67059 -0.14642,0 -0.20321,0.063 -0.12622,0.13999 0.077,0.077 1.184,-0.0421 2.46001,-0.26458 1.276,-0.22252 2.79831,-0.40458 3.3829,-0.40458 h 1.06289 l -0.16522,2.14256 c -0.15125,1.96138 -0.1266,2.1265 0.29151,1.95258 1.11089,-0.46211 2.78413,-0.8988 4.63622,-1.21001 3.04975,-0.51245 3.35043,-0.0329 2.19486,3.50092 -0.35042,1.07158 -1.19475,3.73426 -1.8763,5.91708 -0.68155,2.18281 -2.23209,7.06437 -3.44564,10.84791 -1.21355,3.78354 -2.47325,7.73308 -2.79934,8.77674 l -0.59287,1.89758 1.30717,1.43025 c 0.71894,0.78664 1.72165,2.19492 2.22823,3.12951 l 0.92107,1.69926 0.005,3.70416 c 0.003,2.03729 0.10307,4.48317 0.22339,5.43527 0.18964,1.5007 0.13155,1.99372 -0.43645,3.70417 -0.47624,1.43413 -0.688,2.74986 -0.77527,4.81697 -0.11426,2.70654 -0.17519,2.95575 -1.26131,5.15937 -0.88284,1.7912 -1.5816,2.75098 -3.08614,4.2389 -1.7459,1.72663 -1.9449,2.02749 -1.9449,2.94045 0,2.58015 -1.46286,6.91315 -3.25207,9.63265 -1.6385,2.49042 -4.7615,5.44959 -6.97201,6.60625 -2.0483,1.07179 -2.10915,1.15082 -2.36368,3.06949 -0.0943,0.71074 -0.2474,1.40138 -0.34027,1.53474 -0.0929,0.13337 -1.59759,0.85519 -3.34384,1.60405 -6.59431,2.8279 -12.21678,5.30913 -13.49375,5.95489 -0.7276,0.36794 -2.98979,1.38775 -5.02708,2.26624 -2.03729,0.87849 -5.31151,2.32931 -7.27604,3.22403 -1.96454,0.89473 -5.11969,2.25939 -7.01146,3.03259 -1.89177,0.77319 -4.86834,2.08505 -6.61459,2.91522 l -3.175,1.50941 -7.01145,0.89433 c -10.24269,1.30649 -18.12595,2.42522 -20.27009,2.87657 -1.03486,0.21784 -3.5947,0.64525 -5.68855,0.9498 -2.09384,0.30455 -5.41433,0.85094 -7.37886,1.2142 -1.96453,0.36327 -5.655465,0.89612 -8.202075,1.18412 -2.54662,0.288 -5.27716,0.63969 -6.06787,0.78152 -2.55887,0.45902 -2.66338,0.42351 -2.66338,-0.90486 z m 15.573095,-5.33875 c 1.83953,-0.23254 7.57132,-1.13045 12.73731,-1.99536 5.16599,-0.8649 10.94052,-1.74682 12.83229,-1.95981 3.00096,-0.33788 13.51538,-1.89039 14.31035,-2.113 0.54415,-0.15237 2.98206,-8.93217 7.12583,-25.66262 5.17157,-20.88022 8.07134,-32.71072 8.6054,-35.10832 0.2936,-1.31812 0.94238,-3.78064 1.44171,-5.47226 1.08625,-3.67989 3.30942,-12.61722 3.30942,-13.30411 0,-0.5697 0.21763,-0.55958 -4.7625,-0.22154 -5.71367,0.38783 -8.82724,0.72132 -14.68438,1.57281 -2.91041,0.4231 -6.60135,0.94616 -8.20208,1.16234 -6.70385,0.90538 -23.2936,3.93742 -24.24025,4.43029 -0.27207,0.14165 -0.71891,1.35767 -1.22772,3.34113 -0.43999,1.71513 -1.33589,5.14248 -1.99091,7.61633 -1.85258,6.9968 -5.45087,21.83378 -6.15447,25.37699 -0.349279,1.75891 -1.119709,5.2816 -1.712065,7.82822 -2.19317,9.4287 -5.08759,22.9382 -5.95215,27.78125 -0.37668,2.11005 -0.90162,4.78895 -1.16653,5.95312 -0.2649,1.16417 -0.44234,2.18701 -0.39429,2.27299 0.048,0.086 1.5933,-0.12088 3.43389,-0.45967 1.8406,-0.33878 4.851616,-0.80624 6.691145,-1.03878 z m -2.780835,-3.94065 c 0.0948,-0.24697 0.17232,-0.54203 0.17232,-0.65569 0,-0.11365 0.922726,-0.35138 2.050515,-0.52829 1.12779,-0.17691 3.72287,-0.66147 5.76686,-1.07678 2.90772,-0.59082 9.04527,-1.58459 9.78651,-1.58459 0.33352,0 0.0662,0.75901 -0.31946,0.907 -0.60472,0.23205 -6.10996,1.28132 -11.86047,2.26054 -2.61938,0.44604 -4.988869,0.88205 -5.265545,0.96892 -0.393,0.12339 -0.46535,0.0597 -0.33073,-0.29111 z m 0.48547,-3.24732 0.0837,-0.7249 8.466665,-1.50559 c 9.1473,-1.62662 10.18646,-1.7468 10.18646,-1.17806 0,0.71646 -0.7921,0.98216 -5.19746,1.74348 -2.45617,0.42446 -5.40775,0.96632 -6.55905,1.20413 -2.00471,0.41409 -6.396069,1.17155 -6.848039,1.18121 -0.118806,0.003 -0.178336,-0.32158 -0.132296,-0.72027 z m 22.221165,-0.76702 c 0.0481,-0.24993 0.44474,-0.55438 0.8813,-0.67656 2.13495,-0.59752 13.28608,-2.32945 14.99828,-2.32945 0.57188,0 0.74443,0.12459 0.74443,0.53747 0,0.66593 0.0266,0.65882 -3.83646,1.0269 -6.07862,0.57918 -8.82437,0.97238 -12.25838,1.75542 -0.48005,0.10946 -0.59732,0.0399 -0.52917,-0.31378 z m -21.371999,-2.89535 c 0.0883,-0.23019 0.1606,-0.51511 0.1606,-0.63316 0,-0.35113 0.474559,-0.453 6.113559,-1.31233 5.46552,-0.83288 11.20733,-1.83693 11.81196,-2.0655 0.22044,-0.0833 0.33072,0.14909 0.33072,0.69703 0,0.45213 -0.0435,0.82205 -0.0967,0.82205 -0.0532,0 -1.39266,0.29201 -2.97656,0.64891 -2.81343,0.63394 -13.48488,2.26151 -14.82801,2.26151 -0.507849,0 -0.636169,-0.10417 -0.515539,-0.41851 z m 22.125059,0.0426 c 0.002,-0.15703 0.10897,-0.45119 0.23719,-0.65369 0.25388,-0.40091 5.5458,-1.51945 11.40043,-2.40968 1.96453,-0.29872 3.95882,-0.61283 4.43177,-0.69802 0.73382,-0.13218 0.85989,-0.0777 0.85989,0.37132 0,0.28942 -0.14882,0.64972 -0.33073,0.80068 -0.34811,0.28889 -3.84434,0.97588 -9.59114,1.88461 -5.56511,0.87999 -7.01196,1.02551 -7.00741,0.70478 z m -21.3018,-3.55954 c 0.19623,-0.78182 0.556,-1.07931 1.32171,-1.09288 0.29104,-0.005 2.3151,-0.36772 4.49792,-0.80569 3.5249,-0.70725 11.13068,-1.83777 12.36927,-1.83857 0.62698,-4e-4 0.60285,0.96458 -0.0326,1.30468 -0.76093,0.40723 -2.64354,0.77719 -5.50335,1.08149 -1.42998,0.15215 -3.90966,0.51021 -5.51039,0.79569 -1.60073,0.28549 -3.90157,0.68233 -5.11299,0.88189 l -2.20258,0.36282 z m 22.2357,-0.0994 c 0.0989,-0.32742 0.25577,-0.67658 0.34856,-0.77591 0.26559,-0.28433 7.61894,-1.74971 11.01241,-2.19455 4.90343,-0.64279 5.93048,-0.53276 5.22567,0.55982 -0.10691,0.16573 -1.92079,0.56172 -4.03084,0.87996 -2.11005,0.31825 -5.68193,0.92632 -7.9375,1.35127 -4.98269,0.93873 -4.84611,0.93343 -4.6183,0.17941 z m -21.53281,-3.40042 c 0.10891,-0.77025 0.83955,-1.03932 4.87705,-1.79608 1.58703,-0.29746 4.43333,-0.83254 6.3251,-1.18906 1.89177,-0.35653 4.42185,-0.73299 5.6224,-0.83659 2.09172,-0.1805 2.18281,-0.16551 2.18281,0.35935 0,0.30125 -0.11928,0.62144 -0.26508,0.71155 -0.14579,0.0901 -2.08056,0.45099 -4.29948,0.80196 -2.21892,0.35098 -5.64174,0.99655 -7.60627,1.43461 -1.96453,0.43806 -4.32659,0.87563 -5.24903,0.97239 -1.65854,0.17396 -1.67615,0.16888 -1.5875,-0.45813 z m 22.18523,-0.24762 c 0.13496,-0.47057 0.27883,-0.88336 0.3197,-0.91729 0.33026,-0.27422 14.49483,-2.51214 15.90073,-2.51222 0.65465,-4e-5 0.73501,0.0871 0.66146,0.71777 -0.0815,0.69855 -0.15118,0.72628 -2.59726,1.03304 -2.32786,0.29194 -12.60702,2.05166 -13.94274,2.38691 -0.54975,0.13797 -0.57159,0.0927 -0.34189,-0.70821 z m -21.40064,-3.67645 c 0.31389,-0.90042 0.008,-0.81598 8.1686,-2.25188 2.98318,-0.52488 6.53519,-1.17336 7.89335,-1.44106 1.99148,-0.39253 2.49507,-0.41981 2.60207,-0.14099 0.28935,0.75404 -0.0609,1.28641 -0.97221,1.47761 -4.2893,0.89996 -16.82262,3.13238 -17.58586,3.13238 -0.30151,0 -0.32261,-0.15455 -0.10595,-0.77606 z m 22.19152,-0.13328 c 0,-0.91409 0.28109,-0.99852 5.68854,-1.7087 4.19891,-0.55146 9.72359,-1.46231 10.78177,-1.77758 0.36874,-0.10987 0.46302,0.0237 0.46302,0.65579 0,0.52485 -0.15686,0.84241 -0.46302,0.93738 -0.85817,0.26621 -8.1103,1.46358 -11.31093,1.86751 -1.74625,0.22038 -3.62149,0.47183 -4.16719,0.55878 -0.93369,0.14877 -0.99219,0.11733 -0.99219,-0.53318 z m -21.43125,-3.46284 c 0,-0.4839 0.20053,-0.7458 0.72761,-0.95031 1.13333,-0.43973 7.67694,-1.74518 11.80716,-2.35553 2.05541,-0.30375 4.25892,-0.66903 4.89669,-0.81174 1.36639,-0.30574 1.53599,-0.20253 1.20478,0.73318 -0.21131,0.59696 -0.50036,0.75323 -1.96749,1.06367 -2.45604,0.51971 -5.50817,1.09288 -8.86354,1.66453 -1.60073,0.27272 -3.96781,0.68223 -5.26018,0.91003 -1.29237,0.2278 -2.3937,0.41418 -2.44739,0.41418 -0.0537,0 -0.0976,-0.3006 -0.0976,-0.66801 z m 22.22905,0.0727 c 0.0117,-0.95121 0.37832,-1.04224 11.42034,-2.83544 2.71816,-0.44142 5.06965,-0.80258 5.22553,-0.80258 0.33207,0 0.38638,1.22805 0.0631,1.42782 -0.49401,0.30532 -15.06223,2.54093 -16.55779,2.54093 -0.0854,0 -0.15345,-0.14883 -0.15122,-0.33073 z m 0.52512,-3.54607 c 0,-0.84152 0.51792,-1.04597 4.25674,-1.68035 1.80614,-0.30645 4.17685,-0.77984 5.26826,-1.05197 1.8528,-0.46197 5.99262,-1.06136 7.34218,-1.06305 0.40625,-5.1e-4 0.59532,0.15702 0.59532,0.49602 0,0.69191 -0.46878,1.00046 -1.85209,1.21902 -0.65484,0.10347 -3.51234,0.64491 -6.35,1.2032 -2.83765,0.55829 -6.08211,1.1196 -7.20989,1.24736 -2.02533,0.22943 -2.05052,0.22488 -2.05052,-0.37023 z m -21.69178,-2.63514 c 0.0122,-0.70491 0.69553,-1.01762 3.21175,-1.46973 5.29304,-0.95103 10.42919,-1.76465 12.26232,-1.94248 1.01865,-0.0988 3.89487,-0.5225 6.39162,-0.94152 2.49674,-0.41901 5.71143,-0.87631 7.14375,-1.01623 1.43232,-0.13991 3.78161,-0.50099 5.22064,-0.80239 1.43904,-0.30141 3.43334,-0.62394 4.43177,-0.71673 1.5513,-0.14418 1.81534,-0.10774 1.81534,0.25053 0,0.59078 -0.10769,0.62682 -2.87449,0.96214 -1.36269,0.16514 -4.07412,0.65722 -6.02541,1.0935 -4.03939,0.90315 -9.68784,1.8365 -16.68843,2.75759 -2.6502,0.3487 -6.16254,0.87293 -7.80521,1.16497 -3.70379,0.65846 -7.08906,0.97404 -7.08365,0.66035 z m 0.97824,-3.72518 c -0.22232,-0.37623 0.28971,-1.35307 0.78651,-1.50049 2.27703,-0.67565 17.41499,-3.12165 17.67991,-2.85673 0.30801,0.30801 0.091,1.10307 -0.36812,1.3488 -0.27421,0.14675 -1.73272,0.45763 -3.24114,0.69084 -1.50842,0.23322 -4.58805,0.76338 -6.84362,1.17815 -2.25557,0.41477 -4.63682,0.82882 -5.29167,0.92012 -0.65484,0.0913 -1.50671,0.22613 -1.89304,0.29962 -0.38633,0.0735 -0.7593,0.0374 -0.82883,-0.0803 z m 22.83426,-4.11149 c 0.008,-1.11924 0.34956,-1.26482 4.24943,-1.80888 2.09897,-0.29283 5.30459,-0.82117 7.1236,-1.1741 1.81901,-0.35293 3.9919,-0.72175 4.82864,-0.8196 1.37844,-0.1612 1.52098,-0.131 1.5173,0.32153 -0.007,0.89109 -0.35822,1.08222 -2.57706,1.40334 -1.20133,0.17386 -2.7564,0.48602 -3.4557,0.69369 -0.69931,0.20767 -3.3478,0.67974 -5.88555,1.04905 -2.53775,0.3693 -4.88198,0.73083 -5.2094,0.8034 -0.48194,0.1068 -0.59454,0.0176 -0.59126,-0.46843 z m -21.95606,-0.005 c 0.0232,-0.91038 0.78412,-1.2732 3.99043,-1.90262 3.20387,-0.62894 10.39725,-1.81091 13.10197,-2.15284 l 1.3581,-0.17168 -0.13594,0.71114 c -0.17414,0.91095 -0.50158,1.0236 -4.96597,1.7084 -2.03484,0.31213 -5.53604,0.92094 -7.78045,1.35292 -4.49257,0.86468 -5.58083,0.95354 -5.56814,0.45468 z m 22.64986,-3.29294 c -0.0511,-0.0511 -0.0364,-0.38854 0.0326,-0.74984 0.18111,-0.9474 1.02505,-1.14907 13.22639,-3.16051 1.34613,-0.22191 2.99152,-0.40348 3.65642,-0.40348 1.08651,0 1.20035,0.0575 1.12437,0.56829 -0.11245,0.75581 -0.4412,0.88767 -3.39184,1.36046 -1.38245,0.22151 -4.23995,0.70754 -6.35,1.08005 -6.02409,1.06353 -8.19765,1.40536 -8.29798,1.30503 z m -21.59994,-0.72619 c 0,-0.91934 0.42968,-1.13491 3.72486,-1.86873 4.92159,-1.096 6.55145,-1.39705 9.99781,-1.84667 1.7994,-0.23476 3.6151,-0.49552 4.0349,-0.57948 0.68411,-0.13682 0.76326,-0.0816 0.76326,0.53257 0,0.38308 -0.20416,0.793 -0.46302,0.92966 -0.7587,0.40053 -3.51711,1.02819 -5.35781,1.21915 -0.94588,0.0981 -3.74385,0.57389 -6.21771,1.05727 -6.6632,1.30195 -6.48229,1.28643 -6.48229,0.55623 z m 22.48958,-3.56487 c 0,-1.10975 0.82867,-1.61763 3.3073,-2.02702 1.30968,-0.21631 5.11968,-0.85612 8.46666,-1.42179 3.34698,-0.56568 6.18654,-0.93118 6.31014,-0.81224 0.47361,0.45579 -0.12839,1.31726 -1.1006,1.57498 -1.50607,0.39924 -9.35576,1.81071 -12.74506,2.29172 -1.67068,0.2371 -3.30779,0.53382 -3.63802,0.65937 -0.4911,0.18672 -0.60042,0.13847 -0.60042,-0.26502 z m -21.69178,-0.61808 c 0.013,-1.0575 0.81499,-1.36976 5.56203,-2.1655 2.25017,-0.3772 5.63903,-0.97839 7.5308,-1.33599 4.24137,-0.80172 5.42553,-0.84601 5.4199,-0.20268 -0.008,0.90926 -0.45407,1.11367 -3.57796,1.63945 -1.74068,0.29297 -5.48658,0.95085 -8.32424,1.46194 -5.62925,1.0139 -6.61667,1.10394 -6.61053,0.60278 z m 22.79951,-3.96893 c 0.0715,-0.74163 0.22827,-0.90774 1.14123,-1.20937 0.58209,-0.19232 3.49912,-0.70405 6.48229,-1.1372 2.98318,-0.43315 6.09599,-0.96041 6.91736,-1.1717 0.82137,-0.21128 1.9227,-0.38415 2.4474,-0.38415 0.87676,0 0.95399,0.0623 0.95399,0.76892 0,0.72835 -0.0733,0.77842 -1.38906,0.94888 -0.76398,0.099 -2.28203,0.39897 -3.37344,0.66665 -1.0914,0.26768 -4.21922,0.79705 -6.95071,1.17638 -2.73148,0.37934 -5.2691,0.80481 -5.63914,0.9455 -0.64282,0.2444 -0.66912,0.21748 -0.58992,-0.60391 z m -21.63015,-0.36778 c 0.10282,-0.41608 0.27877,-0.85081 0.39099,-0.96604 0.18997,-0.19509 3.04706,-0.69461 11.53248,-2.01628 6.15291,-0.95836 6.2177,-0.96205 6.2177,-0.35422 0,0.29197 -0.15259,0.65749 -0.33909,0.81228 -0.31451,0.26102 -5.70151,1.25282 -13.28695,2.44626 -1.74625,0.27475 -3.51859,0.57491 -3.93854,0.66703 -0.73071,0.16029 -0.75551,0.13496 -0.57659,-0.58903 z m 22.37451,-3.39144 c 0,-0.84129 0.54193,-1.44915 1.52585,-1.71151 0.54323,-0.14484 3.96425,-0.68734 7.60227,-1.20554 3.63802,-0.51821 7.09083,-1.05575 7.67292,-1.19453 1.46966,-0.3504 1.45521,-0.3555 1.45521,0.51318 0,0.96129 -0.0736,1.00664 -2.1523,1.32703 -0.92629,0.14277 -3.33907,0.55935 -5.36174,0.92572 -2.02267,0.36638 -5.0893,0.85037 -6.81472,1.07554 -1.72542,0.22517 -3.31496,0.47764 -3.53231,0.56104 -0.25346,0.0973 -0.39518,-0.007 -0.39518,-0.29093 z m -21.43125,-0.49606 c 0,-1.16725 0.54123,-1.46857 3.83646,-2.13585 2.94153,-0.59566 9.69827,-1.73795 12.63385,-2.13586 l 1.25677,-0.17036 v 0.81827 c 0,0.45004 -0.14883,0.87287 -0.33073,0.9396 -0.3443,0.12632 -5.48386,1.0267 -12.15089,2.12866 -2.13546,0.35296 -4.18929,0.75832 -4.56406,0.90081 -0.60888,0.2315 -0.6814,0.19475 -0.6814,-0.34527 z m 22.13857,-3.87134 c 0.3468,-1.45694 0.45899,-1.51674 3.71785,-1.98183 1.7135,-0.24454 3.82983,-0.55409 4.70295,-0.68788 0.87313,-0.1338 2.65906,-0.37574 3.96875,-0.53766 1.30969,-0.16191 3.17706,-0.43801 4.14972,-0.61354 1.67667,-0.30258 1.77554,-0.29212 1.90465,0.20159 0.3221,1.23173 -0.0307,1.35931 -6.63606,2.39995 -3.46361,0.54567 -7.57323,1.19414 -9.13248,1.44105 l -2.835,0.44892 z m -20.02191,-4.54734 c 0,-0.18729 0.55156,-2.42911 1.22567,-4.98184 l 1.22567,-4.64131 4.13215,-0.87224 c 2.27267,-0.47973 5.65136,-1.10132 7.50818,-1.3813 1.85682,-0.27999 4.71432,-0.74024 6.35,-1.02279 1.63568,-0.28255 4.22411,-0.65013 5.75208,-0.81685 1.52797,-0.16671 5.21891,-0.64187 8.20209,-1.05589 5.5881,-0.77555 8.46666,-1.09265 8.46666,-0.93267 0,0.0504 -0.46328,1.79794 -1.02952,3.88348 -0.56624,2.08555 -1.10741,4.23839 -1.20261,4.78409 -0.1552,0.88962 -0.25581,0.99219 -0.97314,0.99219 -0.98551,0 -14.45543,2.01138 -23.91452,3.57102 -6.05023,0.99757 -14.73569,2.52067 -15.27968,2.67947 -0.27115,0.0792 -0.46303,-0.006 -0.46303,-0.20536 z m 35.88522,55.71132 c 0.85433,-0.37687 3.2202,-1.43783 5.25749,-2.35769 3.6521,-1.64898 4.84512,-2.17419 11.1125,-4.89216 4.94183,-2.14311 18.02112,-8.07743 19.97137,-9.06138 l 1.18596,-0.59835 0.97659,-3.30729 c 0.53713,-1.81901 1.53759,-5.33135 2.22325,-7.80521 0.68567,-2.47385 1.30284,-4.64674 1.37149,-4.82864 0.092,-0.24365 -0.332,-0.33073 -1.61025,-0.33073 -2.41294,0 -4.24883,-0.43557 -6.25904,-1.48496 -2.51683,-1.31388 -3.39524,-2.88706 -3.42806,-6.13947 -0.008,-0.82609 -0.21285,-1.40632 -0.73912,-2.09689 -0.65085,-0.85404 -0.73247,-1.19412 -0.77374,-3.22349 -0.0254,-1.2478 -0.12816,-3.00151 -0.22841,-3.89713 -0.2257,-2.01627 0.50633,-4.47655 1.79843,-6.04437 0.78657,-0.95441 0.85745,-1.19401 0.85842,-2.90148 5.9e-4,-1.02364 0.16968,-2.27789 0.37576,-2.78721 0.63522,-1.5699 2.13874,-3.4251 3.69393,-4.55793 0.81702,-0.59515 1.80128,-1.39066 2.18722,-1.76781 0.90206,-0.8815 10.86158,-5.63242 11.16706,-5.32694 0.12934,0.12934 0.1275,0.5347 -0.004,0.92987 -0.19046,0.57137 -0.76936,0.93423 -3.13862,1.96735 -1.5978,0.69672 -3.53789,1.47557 -4.3113,1.73078 -2.38387,0.78662 -1.33598,0.74846 2.63699,-0.096 2.08797,-0.44381 4.71183,-0.94161 5.8308,-1.10623 2.46421,-0.3625 2.21586,0.0395 4.3163,-6.9866 1.46797,-4.91046 5.35591,-17.00348 6.10498,-18.98886 l 0.37623,-0.99719 -0.72746,0.17005 c -2.0107,0.47001 -14.37019,4.55883 -17.26204,5.71071 -7.69282,3.06418 -19.70348,8.79386 -23.36792,11.14766 -1.78575,1.14706 -1.94888,1.46291 -2.96241,5.73575 -0.39695,1.67349 -1.43373,5.72162 -2.30394,8.99584 -0.87021,3.27422 -2.28955,8.87015 -3.15408,12.43541 -0.86454,3.56526 -2.09713,8.56589 -2.73911,11.1125 -0.64197,2.54662 -1.71345,6.95193 -2.38107,9.78959 -0.66762,2.83765 -1.74307,7.18343 -2.38989,9.65729 -2.10338,8.04467 -5.41805,21.68249 -5.41805,22.29195 0,0.32698 0.0452,0.5945 0.10032,0.5945 0.0552,0 0.79932,-0.30834 1.65365,-0.68521 z m 4.86062,-6.58141 c 0,-1.17875 1.97666,-2.19828 12.5677,-6.48221 2.40361,-0.97222 3.67702,-1.25098 3.51663,-0.76979 -0.11199,0.33597 -3.3762,1.93295 -11.82935,5.78737 -4.62286,2.10792 -4.25498,1.98129 -4.25498,1.46463 z m 0.79375,-3.4702 c 0,-0.79759 1.15552,-1.58603 4.36562,-2.97876 1.30969,-0.56822 3.40848,-1.51236 4.66398,-2.09809 3.83007,-1.78685 6.81844,-2.83995 7.14165,-2.51673 0.50864,0.50863 -0.0122,1.35018 -1.0365,1.67486 -0.53875,0.17076 -3.06314,1.23564 -5.60975,2.3664 -2.54662,1.13076 -5.73154,2.53499 -7.07761,3.12051 l -2.44739,1.06457 z m 0.79375,-3.59932 c 0,-1.21183 2.96808,-2.76697 12.83009,-6.72243 3.04051,-1.21948 3.44705,-1.32143 3.69161,-0.92572 0.4804,0.77732 -1.24124,1.84301 -5.80608,3.59395 -0.87312,0.33491 -3.30289,1.40178 -5.39947,2.37083 -4.17372,1.92911 -5.31615,2.29086 -5.31615,1.68337 z m 19.31458,-2.15419 c 0,-0.52109 1.05667,-1.41779 2.25257,-1.91154 0.58009,-0.23951 2.15183,-0.95957 3.49273,-1.60013 1.34091,-0.64056 2.68036,-1.16466 2.97657,-1.16466 0.72176,0 0.68508,0.68553 -0.0629,1.17563 -0.60038,0.39339 -8.24721,3.85145 -8.51673,3.85145 -0.0782,0 -0.14223,-0.15784 -0.14223,-0.35075 z m -18.25625,-1.61198 c 0,-0.80661 0.37282,-1.23536 1.76862,-2.03396 2.03642,-1.16512 14.44974,-6.08453 14.7062,-5.82807 0.60358,0.60358 -0.8565,1.76448 -3.67691,2.92347 -0.99974,0.41083 -3.48458,1.43229 -5.52187,2.26992 -2.03729,0.83763 -4.38538,1.86517 -5.21798,2.28342 -1.70667,0.85733 -2.05806,0.92311 -2.05806,0.38522 z m 18.52083,-1.45795 c 0,-1.01099 1.41094,-1.83224 6.67076,-3.88276 2.75587,-1.07436 3.18663,-1.11691 3.07108,-0.30333 -0.062,0.43668 -0.54283,0.81921 -1.80434,1.43555 -1.83601,0.89702 -7.4603,3.2608 -7.75862,3.2608 -0.0984,0 -0.17888,-0.22962 -0.17888,-0.51026 z m -17.41035,-3.01971 c 0.10034,-1.01398 0.73652,-1.40077 4.89182,-2.97417 1.7192,-0.65098 4.37598,-1.77251 5.90395,-2.49231 2.26128,-1.06524 5.5735,-2.38063 5.99454,-2.38063 0.05,0 0.0909,0.29194 0.0909,0.64875 0,0.79601 -1.72799,2.06462 -3.77478,2.77127 -0.76153,0.26292 -3.111,1.22703 -5.22105,2.14247 -2.11005,0.91545 -4.76549,1.98622 -5.90097,2.37949 l -2.06452,0.71504 z m 18.20815,-0.63721 c 0.002,-0.25466 0.10299,-0.61902 0.22391,-0.80969 0.20112,-0.31714 8.7231,-3.75437 9.30826,-3.75437 0.42556,0 0.28203,0.95037 -0.21091,1.39648 -0.25535,0.23108 -1.35668,0.74041 -2.4474,1.13182 -1.09071,0.39142 -2.95864,1.11377 -4.15095,1.60522 -2.48923,1.02603 -2.72845,1.06386 -2.72291,0.43054 z m -17.46655,-2.6725 c 0,-0.12381 0.13493,-0.61215 0.29984,-1.08522 0.32076,-0.92012 0.67935,-1.11905 6.31475,-3.50309 1.38244,-0.58485 3.64463,-1.57088 5.02708,-2.19119 3.40254,-1.52673 5.26894,-2.11979 5.60706,-1.78167 0.47007,0.47007 -0.81769,1.82345 -2.4004,2.52272 -2.54967,1.12651 -10.12917,4.31282 -12.0702,5.07414 -1.01865,0.39954 -1.9652,0.83061 -2.10344,0.95792 -0.32016,0.29486 -0.67469,0.29822 -0.67469,0.006 z m 18.83399,-1.54359 c 0.0755,-0.64067 0.39524,-0.83641 3.25872,-1.99498 5.5721,-2.25448 5.9925,-2.37102 6.367,-1.76506 0.30995,0.50149 -0.99359,1.48399 -3.05971,2.30616 -1.09141,0.4343 -2.69875,1.09609 -3.57187,1.47066 -0.87313,0.37456 -1.92283,0.68384 -2.33268,0.6873 -0.65416,0.006 -0.73495,-0.0805 -0.66146,-0.70408 z m 1.00976,-3.34762 c 0,-0.84907 1.20288,-1.78248 3.1342,-2.43207 2.26574,-0.76206 2.5133,-0.78449 2.94306,-0.26666 0.54845,0.66085 -0.79484,1.60276 -3.21833,2.25669 -1.18107,0.31868 -2.30749,0.64086 -2.50316,0.71595 -0.20374,0.0782 -0.35577,-0.0389 -0.35577,-0.27391 z m 1.69149,-4.56262 c 0.0883,-0.23018 0.16059,-0.47533 0.16059,-0.54478 0,-0.0695 0.11387,-0.0559 0.25303,0.0301 0.30717,0.18984 0.0605,0.93319 -0.30964,0.93319 -0.14552,0 -0.19231,-0.18834 -0.10398,-0.41852 z m -18.99141,-0.85539 c -0.56778,-0.9187 2.79064,-2.96498 7.37805,-4.49543 1.30968,-0.43694 3.30708,-1.16305 4.43865,-1.61359 2.3458,-0.93398 2.91341,-1.01093 2.79064,-0.37834 -0.12645,0.65158 -2.21741,1.83479 -5.0203,2.84083 -2.13828,0.76749 -4.28191,1.63662 -8.47869,3.43766 -0.53792,0.23084 -1.03668,0.32483 -1.10835,0.20887 z m 0.89576,-4.27903 c 0,-0.62399 1.43092,-1.58754 3.94377,-2.65564 1.40118,-0.59557 8.0247,-3.09051 9.49384,-3.57612 0.18741,-0.0619 0.40494,0.0547 0.4834,0.25911 0.29733,0.77482 -0.43824,1.39961 -2.59633,2.20529 -1.20811,0.45103 -4.13008,1.60151 -6.49327,2.55663 -2.36319,0.95512 -4.41702,1.73658 -4.56406,1.73658 -0.14705,0 -0.26735,-0.23663 -0.26735,-0.52585 z m 0.93598,-3.16222 c -0.35889,-0.5807 0.558,-1.60633 2.33353,-2.61028 1.77448,-1.00336 8.23084,-3.46628 10.17987,-3.88335 0.81647,-0.17471 0.87518,-0.14272 0.79375,0.43246 -0.10704,0.75612 -0.77006,1.10507 -5.49876,2.89405 -1.95731,0.74049 -4.4814,1.81025 -5.60909,2.37724 -1.12769,0.56699 -2.11737,0.92244 -2.1993,0.78988 z m 0.65152,-3.98545 c 0,-1.25475 2.36331,-2.82748 6.48229,-4.3138 1.01864,-0.36758 2.44739,-0.93544 3.175,-1.26191 2.03482,-0.91303 3.00557,-1.07286 3.28985,-0.54168 0.14072,0.26294 0.13858,0.61925 -0.005,0.87628 -0.24059,0.42989 -2.58836,1.42735 -5.48158,2.32885 -0.82896,0.25829 -2.84664,1.07301 -4.48375,1.81047 -1.63711,0.73747 -2.97656,1.23328 -2.97656,1.10179 z m 1.05833,-4.06804 c 0,-0.38162 0.247,-0.94085 0.54888,-1.24274 1.15953,-1.15952 10.72014,-5.27195 12.25629,-5.27195 0.2332,0 0.42399,0.16014 0.42399,0.35587 0,0.75969 -1.43257,1.59133 -5.72552,3.3238 -3.8092,1.53724 -6.6354,2.8083 -7.09809,3.1923 -0.34681,0.28783 -0.40555,0.23608 -0.40555,-0.35728 z m 1.05833,-3.73594 c 0,-1.63474 1.94181,-2.77897 9.39271,-5.53472 1.82203,-0.67388 3.73476,-1.73679 3.13155,-1.7402 -0.16942,-9.6e-4 -1.41056,0.419 -2.75809,0.93323 -1.34753,0.51424 -3.52151,1.23623 -4.83107,1.60443 -1.30955,0.3682 -2.72862,0.84921 -3.15347,1.06891 -0.42486,0.2197 -0.8507,0.32102 -0.94632,0.22515 -0.33538,-0.33627 1.25636,-1.39626 3.17775,-2.11617 1.06704,-0.3998 3.01163,-1.29454 4.32132,-1.9883 1.92156,-1.01788 5.8324,-2.63941 6.36576,-2.63941 0.7271,0 -1.7216,3.81057 -3.06207,4.76506 -0.41535,0.29576 -1.26907,0.71751 -1.89715,0.93723 -1.36141,0.47625 -7.97775,3.72441 -9.01331,4.4249 -0.64881,0.43888 -0.72761,0.44536 -0.72761,0.0599 z m 2.48031,-10.32818 c 0.089,-0.23185 0.51517,-1.81299 0.94711,-3.51366 0.43194,-1.70066 1.05787,-3.92555 1.39094,-4.9442 l 0.6056,-1.85208 5.8274,-2.92211 c 8.10868,-4.06604 16.23364,-7.56002 23.04268,-9.90907 l 2.94091,-1.01458 -0.60183,1.8958 c -0.33102,1.04268 -0.89649,2.73929 -1.25662,3.77024 -0.36013,1.03095 -0.73773,2.36543 -0.83911,2.96552 -0.13589,0.80433 -0.33517,1.13431 -0.75826,1.25559 -0.31566,0.0905 -2.30033,0.97776 -4.41038,1.97172 -4.94531,2.32954 -13.06985,6.05218 -15.61042,7.15264 -1.0914,0.47274 -4.11184,1.91843 -6.71207,3.21263 -2.94289,1.46475 -4.66664,2.19395 -4.56595,1.93156 z m -79.516675,64.86097 1.47756,-0.29383 0.62265,-3.04271 c 1.02956,-5.03122 2.9243,-13.56551 4.13829,-18.63967 0.62846,-2.62677 1.64124,-7.09767 2.25062,-9.93533 2.90241,-13.51541 9.377975,-39.386 10.155645,-40.57286 0.24906,-0.38012 0.79238,-0.86671 1.20738,-1.08131 1.72068,-0.8898 13.77171,-2.95074 23.97902,-4.10084 10.30136,-1.1607 16.02187,-1.96124 15.77546,-2.20765 -0.11815,-0.11815 -2.823,-0.0806 -6.01077,0.0834 -3.18777,0.16404 -9.66548,0.32963 -14.3949,0.36797 -10.39257,0.0842 -13.52068,0.48355 -24.73854,3.15783 l -3.704165,0.88306 -0.22225,1.42841 c -0.12224,0.78562 -0.56391,2.97621 -0.9815,4.86799 -0.41758,1.89177 -1.11348,5.16598 -1.54643,7.27604 -0.43296,2.11005 -1.33491,6.2177 -2.00435,9.12812 -0.66943,2.91042 -1.51878,7.13714 -1.88743,9.39271 -0.36866,2.25557 -0.89877,5.05354 -1.17801,6.21771 -0.27924,1.16416 -1.28069,5.8076 -2.22545,10.31875 -0.94475,4.51114 -2.43214,11.35724 -3.30532,15.21354 -1.88348,8.31822 -2.29611,10.83202 -1.89962,11.57287 0.23895,0.44648 0.47825,0.50329 1.64706,0.39098 0.75212,-0.0723 2.03239,-0.26362 2.84505,-0.42523 z m -58.01469,-8.64764 c 3.88166,-0.53989 7.91881,-2.41603 10.36617,-4.81736 0.76399,-0.74961 1.3884,-1.42653 1.3876,-1.50426 -8.1e-4,-0.0777 -1.10214,-0.1618 -2.4474,-0.18681 -4.61952,-0.0859 -8.96788,-1.46762 -12.92472,-4.10688 -3.28708,-2.19252 -4.80162,-3.65857 -7.03704,-6.81172 -3.91667,-5.52461 -5.31874,-9.51138 -5.43646,-15.4585 l -0.0665,-3.35774 -0.74482,0.86724 c -0.40965,0.47699 -1.42744,1.88552 -2.2617597,3.13008 -1.5923902,2.37537 -2.4240502,4.54976 -2.9692102,7.76304 -0.40515,2.38803 -0.17194,8.02705 0.41151,9.95017 0.66713,2.19898 3.9800499,7.51307 5.8459299,9.37717 2.66893,2.66639 7.38045,4.82151 11.49231,5.25678 1.81392,0.19202 2.36806,0.17923 4.38435,-0.10121 z m -16.22509,-15.26829 c -0.32777,-0.0523 -0.89331,-0.48504 -1.25677,-0.96155 -0.69765,-0.91467 -0.90782,-2.09385 -0.33009,-1.85202 0.36001,0.1507 2.43645,2.7434 2.27921,2.8459 -0.053,0.0346 -0.36457,0.02 -0.69235,-0.0323 z m 32.08318,3.19065 c 2.27474,-1.17611 5.35271,-5.26351 8.43595,-11.20254 1.49005,-2.87019 3.86888,-8.36167 3.86349,-8.91881 -10e-4,-0.10622 -0.84646,-0.39683 -1.87874,-0.64582 -2.55039,-0.61514 -7.26961,-3.00485 -10.15793,-5.14375 -4.3734,-3.23866 -11.30432,-10.69425 -13.10687,-14.09906 -0.27429,-0.5181 -0.6083,-1.10485 -0.74225,-1.30389 -0.48922,-0.72695 -11.36782,11.01427 -12.59255,13.59106 -1.30958,2.75534 -1.59777,7.50692 -0.67543,11.13633 1.74413,6.86316 7.47184,13.32782 14.16734,15.99017 2.96524,1.17908 3.74731,1.29923 7.92268,1.21721 3.13746,-0.0616 3.86636,-0.15663 4.76431,-0.6209 z M 194.4217,225.62294 c 0.75775,-1.144 2.55855,-6.08923 2.30846,-6.33933 -0.18961,-0.1896 -2.52768,0.48654 -2.77702,0.80308 -0.42233,0.53614 -1.40862,3.85996 -2.27781,7.67625 l -0.17317,0.76034 1.05011,-0.83171 c 0.57757,-0.45744 1.41881,-1.38832 1.86943,-2.06863 z m 1.08859,-11.05846 c 2.31223,-0.48639 3.48154,-1.07748 5.2155,-2.63646 2.51934,-2.2651 3.99435,-6.39315 2.833,-7.92859 -0.66386,-0.87771 -0.47537,-2.08023 0.52406,-3.3432 1.48882,-1.88142 1.45588,-4.00797 -0.0833,-5.37946 -0.49422,-0.44036 -0.65976,-0.46175 -1.29329,-0.16713 -0.39959,0.18583 -1.08372,0.4481 -1.52028,0.58281 -1.57255,0.48526 -9.71951,2.06373 -12.76427,2.47306 -6.40289,0.8608 -7.06553,1.14028 -7.38601,3.11514 -0.12649,0.7795 -0.0343,1.06351 0.52762,1.62544 0.89168,0.89168 2.44272,0.90147 6.98708,0.0441 8.19214,-1.54556 10.91722,-2.00907 11.81165,-2.00907 0.82247,0 0.95622,0.0855 0.95622,0.61089 0,1.03938 -0.57251,1.45428 -3.175,2.30095 -2.51019,0.81663 -4.67614,1.17864 -11.90625,1.98995 -2.11005,0.23678 -3.93341,0.52427 -4.0519,0.63887 -0.1185,0.1146 -0.006,0.41744 0.24918,0.67299 0.42166,0.42166 0.96772,0.45297 5.90399,0.33858 3.29445,-0.0764 6.71364,-0.31876 8.67086,-0.61475 1.77733,-0.26879 3.31987,-0.40034 3.42787,-0.29234 0.108,0.10799 0.023,0.69458 -0.1888,1.30352 -0.33674,0.96799 -0.54973,1.16811 -1.69443,1.59199 -1.66254,0.61564 -5.28791,1.15005 -10.28061,1.51545 -5.50644,0.40299 -5.99429,0.67522 -4.4211,2.46698 0.72725,0.82829 1.16923,1.02742 3.57557,1.61095 0.9249,0.22428 6.16162,-0.10659 8.08266,-0.5107 z m -134.784535,-9.39 c 1.11653,-2.36248 1.2045,-2.20145 -1.66561,-3.04901 -3.12215,-0.922 -5.50521,-2.0404 -8.14906,-3.82446 -4.72417,-3.18783 -10.8987,-9.16009 -13.43505,-12.99492 -0.76101,-1.15061 -1.4727,-2.09202 -1.58154,-2.09202 -0.10884,0 -0.51105,0.47322 -0.89381,1.0516 -0.83065,1.2552 -0.7438,2.1916 0.41647,4.49006 3.24364,6.42563 12.70806,14.42283 19.71882,16.66192 3.11167,0.9938 3.2989,1.03754 4.23333,0.98883 0.66517,-0.0347 0.8849,-0.23424 1.35645,-1.232 z M 6.8463951,205.04551 c 0.94377,-1.00459 4.2997199,-3.24804 7.3055899,-4.88377 2.34028,-1.27353 2.89605,-1.71562 4.16658,-3.31431 0.80635,-1.01461 1.42083,-1.89001 1.36551,-1.94533 -0.25703,-0.25703 -4.9784,0.59564 -7.15001,1.29126 -4.2623699,1.36536 -6.9411299,3.58255 -7.2099599,5.96764 -0.12868,1.14165 0.35924,3.54265 0.71992,3.54265 0.10125,0 0.46231,-0.29616 0.80237,-0.65814 z m 59.4312999,-6.95268 c 0.6439,-0.42601 1.12102,-1.64276 4.2262,-10.77772 1.69821,-4.99586 1.67545,-4.89497 1.16853,-5.18022 -0.81376,-0.45791 -4.31648,-1.87989 -6.71672,-2.72676 -1.77698,-0.62696 -3.1097,-1.33188 -4.69529,-2.48349 -3.58328,-2.60252 -7.44856,-6.85421 -8.96836,-9.86493 -0.43665,-0.865 -0.89838,-1.57273 -1.02607,-1.57273 -0.47714,0 -5.77495,4.89994 -9.31086,8.61161 -2.24809,2.35982 -2.40863,2.60085 -2.27613,3.41735 0.36087,2.22378 3.43831,6.91035 6.82473,10.39326 5.41698,5.5713 14.13302,10.31974 19.02495,10.36465 0.80037,0.007 1.58743,-0.0741 1.74902,-0.18102 z m 128.552545,-4.69304 c 3.92592,-0.65444 7.63987,-1.18989 8.25323,-1.18989 0.85247,0 1.21222,-0.13853 1.52707,-0.58804 1.32946,-1.89807 -0.67397,-5.23279 -3.14374,-5.23279 -1.39569,0 -10.85414,1.66972 -12.84855,2.26818 -3.38085,1.01449 -5.02708,2.33438 -5.02708,4.03052 0,2.31201 1.18899,2.38733 11.23907,0.71202 z M 10.264135,193.13148 c 3.51169,-1.35622 7.41186,-2.24261 10.68221,-2.42773 l 2.85205,-0.16145 3.03493,-3.14788 c 1.66922,-1.73134 3.03494,-3.31483 3.03494,-3.51888 0,-0.20404 0.83344,-1.21608 1.85208,-2.24897 l 1.85209,-1.87799 v -1.93816 c 0,-1.06598 0.1759,-2.43672 0.39089,-3.04607 l 0.3909,-1.10792 -1.59811,-3.07499 c -1.76049,-3.38742 -1.99687,-3.75312 -4.39224,-6.79523 -0.90844,-1.15371 -1.76883,-2.43363 -1.91198,-2.84427 -0.24446,-0.70127 -0.21605,-0.74662 0.46777,-0.74662 2.06474,0 6.67237,3.80045 9.54905,7.87622 l 1.67055,2.36689 4.26502,-4.28275 c 3.47075,-3.48518 4.56066,-4.41857 5.85252,-5.01204 0.87312,-0.4011 1.75828,-0.81638 1.96701,-0.92283 0.20873,-0.10645 0.88952,-1.73331 1.51287,-3.61525 0.62335,-1.88193 1.24585,-3.61181 1.38335,-3.84417 0.19743,-0.33366 -0.11987,-0.75084 -1.50933,-1.98438 -2.8768,-2.554 -5.13766,-5.08056 -6.96996,-7.78908 l -0.44107,-0.65199 -2.05103,1.05834 c -2.40477,1.24086 -7.8997,4.84664 -10.08816,6.61988 -7.45256,6.03855 -13.18618,13.95966 -16.51704,22.81859 -0.56156,1.49356 -1.02129,3.04137 -1.02162,3.43959 l -6.1e-4,0.72402 2.4238,-0.086 c 2.79951,-0.0993 5.06757,0.24204 7.96242,1.19847 1.6435,0.54299 2.15157,0.84126 2.55906,1.50231 0.8215,1.33267 0.91773,2.10437 0.32886,2.63728 -0.495,0.44798 -0.61001,0.42986 -2.90973,-0.45829 -2.94935,-1.13904 -4.80417,-1.49571 -7.56752,-1.45518 -3.69122,0.0541 -4.08239,0.28594 -4.52377,2.68068 l -0.18288,0.99219 h 2.77518 c 2.0839,0 2.8534,0.0943 3.08923,0.37842 0.38891,0.4686 0.012,0.69289 -2.23364,1.32922 -5.08433,1.44071 -9.0997599,4.79437 -9.1223199,7.61892 -0.007,0.94156 0.21861,0.92697 3.1442299,-0.2029 z m 57.84965,-15.95823 c 0.13824,-0.12099 0.78685,-0.37272 1.44135,-0.55941 2.13645,-0.60941 5.7103,-2.5861 7.05869,-3.90416 1.71385,-1.67528 2.59729,-3.00048 4.73841,-7.1078 0.98118,-1.8822 2.14219,-3.86945 2.58003,-4.4161 1.01934,-1.27266 2.78112,-2.39072 4.86359,-3.08654 2.21563,-0.74032 2.45574,-0.71705 2.45574,0.23805 0,0.63525 -0.3843,1.15547 -1.98438,2.68629 -1.0914,1.04417 -1.98437,1.99934 -1.98437,2.12261 0,0.38236 0.94583,0.24889 2.55614,-0.3607 2.457,-0.93011 5.22029,-4.14684 5.75924,-6.70432 0.33138,-1.57248 -1.68753,-3.60257 -3.91488,-3.93658 -1.24596,-0.18685 -1.28085,-0.1816 -5.29953,0.79787 -3.06422,0.74683 -3.82232,0.78879 -4.03922,0.22355 -0.32492,-0.84671 0.53008,-1.73028 2.67802,-2.7675 2.59977,-1.2554 4.78253,-1.84486 6.83156,-1.84486 1.48483,0 1.5421,-0.0249 1.36724,-0.59531 -0.27965,-0.9122 -0.58921,-1.19097 -1.8625,-1.67725 -1.65476,-0.63195 -4.38454,-0.38361 -9.04177,0.82257 -4.06175,1.05197 -4.5593,1.01899 -4.5593,-0.3022 0,-0.95398 0.72795,-1.49961 3.45943,-2.593 3.2711,-1.3094 6.29769,-1.96263 8.31738,-1.79514 l 1.57879,0.13093 -0.69159,-0.8979 c -1.88956,-2.45325 -5.45712,-2.8875 -10.81193,-1.31606 -1.67349,0.49111 -3.92268,1.29212 -4.9982,1.78002 -2.26958,1.02958 -2.55993,1.06677 -2.92999,0.37532 -0.44231,-0.82646 -0.317,-1.73683 0.32142,-2.33519 0.85455,-0.80091 4.62622,-2.60812 7.29927,-3.49746 2.23127,-0.74236 6.02575,-1.42823 6.71286,-1.21338 0.18783,0.0587 0.9666,0.18003 1.73058,0.26954 1.22931,0.14402 1.38906,0.10701 1.38906,-0.32184 0,-0.8473 -1.86413,-2.36406 -3.62967,-2.95329 -5.3821,-1.79623 -13.06063,1.12415 -19.42201,7.38677 -3.22802,3.17791 -5.67885,7.46945 -8.29498,14.52497 -0.66861,1.8032 -1.64015,4.30351 -2.15897,5.55625 -1.12201,2.70917 -1.10245,3.70562 0.12154,6.1919 0.76322,1.55032 1.79796,2.75048 5.06556,5.87538 0.76083,0.7276 2.0272,2.09118 2.81415,3.03018 0.78696,0.93899 1.75746,1.85206 2.15667,2.02903 0.86263,0.38241 1.97588,0.45167 2.32657,0.14476 z M 16.453445,161.0784 c 3.09188,-4.79232 4.92581,-7.21421 7.45702,-9.84779 4.74003,-4.93173 9.23664,-8.30669 14.92717,-11.20369 1.68804,-0.85937 3.23064,-1.72032 3.42799,-1.91323 0.25011,-0.24448 0.30518,-0.66823 0.18177,-1.39868 l -0.17705,-1.04795 -12.08802,-0.15686 c -6.64841,-0.0863 -12.43734,-0.2591 -12.86428,-0.38408 -0.70784,-0.2072 -0.78527,-0.34695 -0.87845,-1.58554 -0.16976,-2.25663 -0.62686,-2.18484 13.9126,-2.18484 h 12.41645 l 0.34616,-0.8599 c 0.19039,-0.47294 0.85549,-1.92572 1.47802,-3.22838 0.62252,-1.30267 1.09804,-2.40231 1.05671,-2.44364 -0.0413,-0.0413 -5.54379,-0.15316 -12.22769,-0.24851 -10.8406,-0.15465 -12.33587,-0.12585 -13.85069,0.26675 -2.83466,0.73467 -4.40849,1.9813 -5.55107,4.39701 l -0.68828,1.45521 v 16.66875 c 0,9.16781 0.0995,16.90687 0.22117,17.19791 l 0.22118,0.52917 0.38692,-0.52917 c 0.21281,-0.29104 1.24438,-1.85818 2.29237,-3.48254 z m 164.525395,0.81938 c 3.48721,-1.8033 10.79436,-4.83591 15.57691,-6.46471 3.73101,-1.27068 4.84243,-1.77353 4.64084,-2.09971 -0.22945,-0.37126 -6.02875,1.22995 -9.61848,2.65571 -1.8462,0.73327 -4.54736,1.96851 -6.00257,2.74499 -6.03397,3.21965 -7.65909,4.12001 -7.92353,4.38986 -0.29681,0.30288 2.02442,-0.55263 3.32683,-1.22614 z m -2.10171,-2.39515 c 5.25992,-3.05405 8.98081,-4.92693 12.51925,-6.30146 3.92118,-1.52322 6.74687,-2.82752 6.74687,-3.11426 0,-0.59001 -6.53559,1.47537 -8.96044,2.83169 -0.38327,0.21437 -1.64935,0.81362 -2.81352,1.33165 -1.16416,0.51803 -3.24776,1.69592 -4.63021,2.61752 -1.38244,0.9216 -3.55533,2.35945 -4.82864,3.19522 -2.17178,1.4255 -2.81692,1.96901 -1.93591,1.63093 0.20856,-0.08 1.96473,-1.06611 3.9026,-2.19129 z m -1.37138,-2.36025 c 2.6435,-1.89194 6.83883,-4.5903 8.2059,-5.2779 0.79827,-0.4015 2.70155,-1.45952 4.22952,-2.35115 2.04232,-1.19177 2.62676,-1.6427 2.20662,-1.70256 -0.74613,-0.10631 -5.91902,2.45898 -8.50919,4.21979 -2.16954,1.47487 -7.98493,6.00166 -7.98493,6.2156 0,0.1709 0.42465,-0.0822 1.85208,-1.10378 z m -74.04631,-3.28355 c 3.98009,-0.82873 7.19681,-1.99371 12.06307,-4.3688 4.57786,-2.23433 5.32111,-2.689 8.00824,-4.89896 2.40718,-1.97971 3.99452,-4.00962 5.51262,-7.04962 1.52735,-3.05852 1.60736,-3.91453 0.51132,-5.4704 l -0.52122,-0.73989 -0.53384,1.00448 c -1.40237,2.63872 -4.573,5.97568 -7.61471,8.01418 -0.94588,0.63392 -2.19604,1.53824 -2.77812,2.00961 -1.07687,0.87204 -4.50862,2.67264 -7.44469,3.90614 -1.27156,0.53421 -5.16383,1.75892 -5.59005,1.75892 -0.0444,0 2.17998,-1.15089 4.94315,-2.55752 7.19301,-3.66172 11.00245,-6.65687 15.78152,-12.40814 1.68825,-2.03168 2.11892,-3.02903 1.79529,-4.15748 -0.37253,-1.29891 -0.90523,-1.15841 -2.16454,0.5709 -2.03511,2.79464 -8.50456,8.59065 -12.21548,10.94388 -3.86926,2.45366 -9.62197,4.76324 -13.521909,5.42873 -1.439716,0.24568 -2.617666,0.51618 -2.617666,0.60112 0,0.0849 0.42004,0.85197 0.93343,1.70453 0.817036,1.35684 1.308436,2.40113 2.586345,5.49637 0.16522,0.40018 0.32072,0.72761 0.34556,0.72761 0.0248,0 1.1596,-0.23205 2.52168,-0.51566 z m 2.11273,-2.49593 c 0.22089,-0.24774 3.94929,-1.29632 4.09417,-1.15144 0.0625,0.0625 -0.6917,0.32873 -1.67606,0.59157 -0.98435,0.26283 -1.96833,0.53806 -2.18661,0.61162 -0.21828,0.0735 -0.32246,0.0503 -0.2315,-0.0517 z m 4.46483,-1.32318 c 0,-0.0558 0.23829,-0.16375 0.52954,-0.23991 0.29124,-0.0762 0.46281,-0.0305 0.38126,0.10143 -0.14242,0.23043 -0.9108,0.34725 -0.9108,0.13848 z m 1.5875,-0.62223 c 0.21829,-0.084 1.34938,-0.55261 2.51355,-1.04136 1.52887,-0.64188 1.93298,-0.74268 1.4552,-0.36298 -0.64022,0.50879 -3.51879,1.62038 -4.08627,1.57795 -0.15364,-0.0115 -0.10076,-0.0896 0.11752,-0.17361 z m 11.90625,-6.93364 c 0,-0.13693 0.1177,-0.32171 0.26156,-0.41062 0.14998,-0.0927 0.19434,0.0135 0.10398,0.24897 -0.17589,0.45837 -0.36554,0.54224 -0.36554,0.16165 z m 28.25623,0.16961 c 0.0477,-4.22986 -0.0231,-7.08215 -0.18141,-7.31703 -0.22343,-0.33143 -0.71245,-0.34032 -3.51768,-0.064 -1.792,0.17654 -5.47786,0.32 -8.19081,0.31879 -5.43125,-0.002 -5.25383,-0.0599 -5.25383,1.70238 0,0.79531 0.13767,0.93972 1.65365,1.73452 4.24646,2.22637 10.67569,6.84462 13.41648,9.63733 1.00153,1.0205 1.52858,1.38696 1.71979,1.19576 0.17301,-0.173 0.3048,-2.85784 0.35381,-7.20779 z m -95.603075,2.77252 c 0.0902,-0.41053 0.51635,-1.13225 0.94707,-1.60383 0.43072,-0.47157 0.78312,-1.07877 0.78312,-1.34933 0,-0.3025 -1.50273,-1.81045 -3.9026,-3.91616 -4.42116,-3.87924 -6.14759,-5.65465 -6.16037,-6.33512 -0.007,-0.39821 -0.0873,-0.37473 -0.52916,0.1557 -0.84339,1.01236 -0.73067,3.61281 0.2178,5.02506 0.74592,1.11064 5.46476,5.33052 5.96081,5.33052 0.41175,0 -0.041,0.35947 -0.54607,0.4336 -0.2455,0.036 -0.629,-0.0765 -0.85224,-0.25019 -0.363,-0.28235 -0.36395,-0.26215 -0.009,0.19127 0.21828,0.27884 0.98622,0.9738 1.70652,1.54437 1.15187,0.91242 1.34663,0.9868 1.61667,0.6175 0.43237,-0.5913 0.71972,-0.52365 0.39029,0.0919 -0.33754,0.6307 -0.34429,0.81114 -0.0303,0.81114 0.13396,0 0.31733,-0.33589 0.4075,-0.74642 z m -1.44481,-0.4442 c -0.18985,-0.22876 -0.21557,-0.39688 -0.0607,-0.39688 0.14777,0 0.33721,0.1786 0.42097,0.39688 0.0838,0.21828 0.11108,0.39687 0.0607,0.39687 -0.0504,0 -0.23981,-0.17859 -0.42097,-0.39687 z m 46.169785,-3.98699 c 5.05151,-1.46065 10.63524,-4.44525 15.08125,-8.06116 6.69132,-5.44201 12.00911,-13.75263 13.81802,-21.59475 0.66234,-2.87138 0.72195,-3.57789 0.71098,-8.42585 -0.0133,-5.86193 -0.23504,-7.20266 -2.07707,-12.556622 -2.81888,-8.193228 -8.85184,-15.538546 -16.92504,-20.606752 -4.63035,-2.906853 -11.698349,-5.284341 -18.281055,-6.149264 -9.2804,-1.219382 -21.71894,2.178519 -29.50104,8.058957 -8.1228,6.137883 -13.55313,14.572631 -15.66035,24.324671 -0.88519,4.0966 -0.81831,9.78374 0.1655,14.07276 1.22739,5.35093 2.85834,9.10045 5.95402,13.6882 2.27115,3.36582 3.90556,5.30041 6.2698,7.42138 3.33299,2.99002 4.59395,3.96408 4.59395,3.54871 0,-0.39052 1.1592,-1.52906 2.35078,-2.30889 0.61843,-0.40473 0.61833,-0.40487 -1.32917,-1.84698 -4.484,-3.32038 -8.55451,-8.1589 -11.01568,-13.09409 -3.58033,-7.17934 -4.26679,-16.64711 -1.75529,-24.20937 2.52256,-7.59556 6.71457,-13.508298 12.85824,-18.136263 8.33721,-6.280329 19.7284,-8.81804 30.11195,-6.708292 6.166375,1.252896 10.883795,3.221976 15.348945,6.40675 7.24858,5.170061 11.93222,12.176765 13.91651,20.819055 1.99413,8.68513 0.20838,18.54724 -4.72684,26.10472 -2.76888,4.2401 -7.61253,8.88089 -12.07533,11.56963 -3.67128,2.21185 -9.002099,4.10737 -12.809945,4.5549 -0.83616,0.0983 -1.57075,0.26031 -1.6324,0.36007 -0.0617,0.0998 0.16201,0.72282 0.49703,1.38458 0.33502,0.66175 0.67982,1.47349 0.76621,1.80385 0.14583,0.55767 0.25756,0.58878 1.56093,0.43463 0.77212,-0.0913 2.475406,-0.47588 3.785095,-0.85458 z m -40.778575,-1.74977 c 0.70959,-0.87948 1.18441,-1.67491 1.05515,-1.76761 -0.12926,-0.0927 -0.70984,-0.4898 -1.29017,-0.88244 -1.79621,-1.21529 -4.03115,-3.4017 -6.42849,-6.28891 -1.26476,-1.52321 -2.41864,-2.77337 -2.56416,-2.77813 -0.14552,-0.005 -0.55117,0.53382 -0.90145,1.19684 -0.80214,1.51834 -0.66845,2.10584 0.93898,4.12621 1.26498,1.58994 7.5197,8.04424 7.76371,8.01143 0.0749,-0.0101 0.71684,-0.7379 1.42643,-1.61739 z m 91.057195,-8.33769 c -0.4591,-2.44722 -2.40631,-4.87436 -4.77029,-5.94604 -1.264,-0.57301 -1.60222,-0.59814 -7.59417,-0.56405 -6.17436,0.0351 -7.35479,0.13598 -7.35479,0.62841 0,0.13686 0.58835,1.2897 1.30744,2.56186 0.7191,1.27216 1.38685,2.64044 1.48389,3.04062 l 0.17646,0.72761 6.25517,0.0329 c 5.26579,0.0277 7.4625,0.12445 10.31951,0.45467 0.27501,0.0318 0.31681,-0.18952 0.17678,-0.93594 z M 43.509685,110.65209 c -0.55221,-3.36478 -0.65962,-6.37835 -0.50103,-14.0578 l 0.1742,-8.435412 -1.62615,0.11762 c -1.9938,0.14422 -3.2969,1.05649 -4.26204,2.983742 -0.80566,1.60881 -0.95444,4.56137 -0.61287,12.16292 l 0.23693,5.27264 0.95397,0.82464 c 0.91114,0.78762 4.27705,2.20298 5.3247,2.23903 0.43849,0.0151 0.47516,-0.11495 0.31229,-1.10738 z m 94.440865,0.30327 c 1.34732,-0.36803 2.65875,-1.35548 3.20621,-2.41415 0.67643,-1.30807 0.95166,-6.24682 0.6555,-11.76247 -0.29502,-5.49445 -0.54383,-6.333302 -2.20451,-7.432282 -0.93937,-0.62165 -4.12099,-1.52033 -4.39883,-1.2425 -0.33957,0.33958 -0.30287,5.689082 0.0709,10.329862 0.4175,5.18396 0.3691,7.28688 -0.26904,11.68911 l -0.16301,1.12447 1.02223,-0.001 c 0.56223,-8.1e-4 1.49848,-0.13157 2.08057,-0.29057 z m -74.483125,-4.86582 c 1.0721,-0.55441 1.59042,-1.40339 1.59042,-2.60505 0,-0.84437 -0.18561,-1.2162 -1.02721,-2.05779 -0.8403,-0.84031 -1.2134,-1.02689 -2.05052,-1.02547 -1.73083,0.003 -3.24155,1.36377 -3.26289,2.93914 -0.0171,1.2608 2.00319,3.14131 3.3772,3.14355 0.33465,5.4e-4 0.9525,-0.17693 1.373,-0.39438 z m 7.31033,-8.23621 c 1.10232,-0.52309 1.79942,-1.45712 2.20126,-2.94944 0.25974,-0.96461 0.23103,-1.2851 -0.20129,-2.24653 -0.76601,-1.70355 -1.65028,-2.380162 -3.28815,-2.515992 -3.1832,-0.26397 -4.96487,1.091452 -4.957,3.771102 0.005,1.68596 0.37901,2.41118 1.80439,3.49835 1.32249,1.00871 2.91353,1.16724 4.44079,0.44251 z M 50.579635,79.407854 c 2.90815,-4.250777 9.81576,-10.724973 14.21363,-13.321809 5.35418,-3.161522 10.70611,-5.214239 16.53645,-6.34251 3.34862,-0.648014 12.23357,-0.649304 15.68367,-0.0023 10.286965,1.929201 18.335685,6.01749 25.059035,12.728548 3.56882,3.562294 5.85471,6.757039 8.43599,11.790107 l 1.56049,3.0427 -0.14446,-2.51354 c -0.342,-5.95037 -2.30578,-11.271594 -6.46047,-17.505851 -6.51523,-9.776332 -17.41272,-16.913515 -28.656125,-18.767995 -2.99294,-0.493653 -12.39216,-0.497144 -15.08125,-0.0056 -7.24287,1.323932 -13.47256,4.064379 -19.31458,8.4965 -6.785,5.147522 -10.93968,10.77013 -14.38317,19.465018 -0.96604,2.439273 -1.75642,6.698468 -1.75642,9.465008 v 1.31955 l 1.33065,-2.72102 c 0.73185,-1.49657 2.07131,-3.803636 2.97656,-5.126826 z m 28.11776,6.960376 c 1.1586,-0.71606 1.87105,-1.72753 2.27155,-3.22494 0.29136,-1.08937 0.26341,-1.30427 -0.32152,-2.471883 -0.91321,-1.822919 -1.77779,-2.371286 -3.68307,-2.336027 -4.58053,0.08477 -7.28172,4.8858 -4.2782,7.60396 1.43726,1.30069 4.27323,1.50303 6.01124,0.42889 z m 64.982055,77.03264 c -0.76695,-0.48605 2.74825,-3.2744 4.55534,-3.61341 0.5283,-0.0991 0.95676,-0.0777 0.95213,0.0477 -0.0164,0.44489 -0.75424,1.20437 -1.01403,1.04382 -0.14515,-0.0897 -0.33054,-0.0553 -0.41198,0.0765 -0.0814,0.13178 -0.47014,0.32043 -0.86378,0.41922 -0.39364,0.0988 -1.11627,0.53133 -1.60584,0.96118 -0.48958,0.42985 -1.0223,0.69986 -1.18384,0.60002 -0.19019,-0.11754 -0.23416,-0.0263 -0.12476,0.25876 0.19342,0.50403 0.18051,0.51281 -0.30324,0.20625 z m 34.96109,-82.29534 c -0.26033,-0.279704 -1.12385,-1.827517 -1.91894,-3.439586 -0.79509,-1.612069 -1.56899,-2.930469 -1.71979,-2.929778 -0.1508,6.91e-4 -1.21872,0.715066 -2.37316,1.5875 -1.15443,0.872433 -2.226,1.577386 -2.38125,1.56656 -0.15525,-0.01083 -0.75852,-0.624589 -1.34061,-1.363919 -1.54682,-1.964689 -1.66966,-2.00232 -3.14399,-0.96312 -1.23559,0.870923 -1.32694,0.891514 -3.95519,0.891514 -2.35528,0 -2.82841,-0.07906 -3.79834,-0.634738 -2.1277,-1.218959 -3.36849,-3.69358 -3.32998,-6.641303 0.027,-2.067178 0.64268,-3.733758 1.71159,-4.633189 l 0.7873,-0.662469 -0.66818,-1.340856 c -0.36749,-0.73747 -0.60741,-1.499208 -0.53314,-1.69275 0.0743,-0.193542 0.7612,-0.767644 1.52651,-1.275782 1.42391,-0.94542 3.37094,-3.516254 2.91319,-3.846534 -0.13299,-0.09595 -1.64121,-1.109539 -3.3516,-2.252411 -1.71039,-1.142872 -3.17442,-2.182507 -3.2534,-2.310301 -0.3092,-0.500293 6.21832,-4.148588 10.06815,-5.62719 3.82436,-1.468819 8.59677,-1.863036 11.05519,-0.913195 0.6427,0.248313 1.06371,0.13113 3.30729,-0.920557 3.40538,-1.596274 5.31135,-2.212021 8.43925,-2.726399 2.99773,-0.492974 6.82208,-0.37113 9.01175,0.287114 1.71027,0.514133 1.78355,0.733871 1.58553,4.754563 -0.27768,5.638204 -2.58903,10.740971 -7.3804,16.293696 -1.24441,1.442152 -1.26165,1.486602 -0.97488,2.513541 0.21645,0.775095 0.20907,1.684936 -0.0285,3.518538 -0.53843,4.155193 -0.76715,4.650793 -3.37875,7.321104 -3.03207,3.100234 -6.01573,5.948497 -6.23127,5.948497 -0.0941,0 -0.38403,-0.22885 -0.64436,-0.50855 z m 3.59323,-7.799656 c 1.61273,-1.99251 2.19293,-2.937137 2.52,-4.102809 0.44651,-1.591341 0.53494,-2.405655 0.26125,-2.405655 -0.09,0 -1.19134,0.92591 -2.4474,2.057579 -1.25606,1.131669 -2.71188,2.421606 -3.23515,2.866528 l -0.95141,0.808949 0.791,1.76975 c 0.43505,0.973362 0.83051,1.730237 0.8788,1.681944 0.0483,-0.04829 1.0306,-1.252622 2.18291,-2.676286 z m -18.81708,-0.325228 c 0.32742,-0.08774 0.59531,-0.302742 0.59531,-0.477769 0,-0.460772 -4.73855,-5.440884 -5.17697,-5.440884 -0.49658,0 -0.74346,1.103443 -0.51837,2.316843 0.2099,1.13145 2.32062,3.381565 3.35713,3.57882 0.99404,0.189173 1.11675,0.190792 1.7429,0.02299 z m 8.01015,-0.237947 c 0.46005,-0.554324 0.17555,-1.086653 -2.11686,-3.960914 -5.63506,-7.065347 -11.65584,-11.429919 -9.24304,-6.700453 0.62435,1.223845 8.33021,9.467665 9.75451,10.435503 1.09422,0.743543 1.16723,0.753814 1.60539,0.225864 z m 6.4532,-4.622373 c 2.99983,-2.18729 7.90839,-6.473031 9.283,-8.105146 2.91125,-3.456589 4.90362,-7.170635 5.85182,-10.908556 0.69119,-2.724736 0.63746,-4.10567 -0.17667,-4.541383 -1.26303,-0.675952 -8.32159,0.241175 -11.36369,1.476496 -3.40473,1.382579 -6.54061,3.19051 -9.78958,5.643987 -4.24507,3.20569 -5.49793,4.191946 -6.51371,5.12764 l -0.82516,0.760106 1.90201,1.899991 c 1.04611,1.044995 3.04724,3.269209 4.44697,4.942699 1.39972,1.673489 2.96897,3.517657 3.48721,4.09815 0.51824,0.580492 0.94226,1.155961 0.94226,1.278819 0,0.319464 0.13846,0.235408 2.75554,-1.672803 z m -2.71057,-5.481166 c -1.00167,-0.190813 -2.55554,-1.954273 -2.94375,-3.340814 -0.7382,-2.636583 0.20362,-5.254163 2.41765,-6.71934 0.92814,-0.614209 1.38264,-0.729281 2.88275,-0.729863 1.58702,-6.16e-4 1.89169,0.08717 2.7985,0.806327 1.20128,0.952695 2.4728,3.287473 2.4728,4.54059 0,1.918509 -1.54889,4.341846 -3.27658,5.126421 -1.02886,0.467224 -2.86109,0.600568 -4.35137,0.316679 z m 3.5177,-3.806659 c 1.06897,-0.938571 1.15725,-1.47108 0.40286,-2.430137 -1.00014,-1.271474 -3.12912,-1.152086 -3.74986,0.210283 -0.54913,1.20522 0.65641,2.949452 2.09023,3.024242 0.17684,0.0092 0.74238,-0.35275 1.25677,-0.804388 z m 5.80358,-6.163841 c -0.75443,-0.754431 -0.89958,-1.090207 -0.89958,-2.080985 0,-1.706439 0.74875,-2.575681 2.21866,-2.575681 1.17449,0 1.88812,0.52905 2.92985,2.17206 0.96757,1.526052 -0.29541,3.38419 -2.30024,3.38419 -0.84032,0 -1.22813,-0.179025 -1.94869,-0.899584 z m 7.99199,-6.019815 c 0.27563,-0.38593 0.55405,-0.650513 0.61873,-0.587963 0.0647,0.06255 -0.16084,0.378311 -0.50114,0.701691 l -0.61872,0.587963 z m -26.27852,4.972647 c 2.94309,-2.300611 4.15778,-3.360247 4.15778,-3.627053 0,-0.251949 -4.14494,0.652567 -5.31779,1.16046 -0.49496,0.214333 -1.70903,0.762889 -2.69795,1.219014 l -1.79803,0.829317 1.38534,1.182507 c 0.76194,0.650379 1.47419,1.182507 1.58279,1.182507 0.10859,0 1.31813,-0.876039 2.68786,-1.946752 z"
       id="path1" /></g></svg>
