<?xml version="1.0" standalone="no"?>
<!DOCTYPE svg PUBLIC "-//W3C//DTD SVG 20010904//EN"
 "http://www.w3.org/TR/2001/REC-SVG-20010904/DTD/svg10.dtd">
<svg version="1.0" xmlns="http://www.w3.org/2000/svg"
 width="173.000000pt" height="164.000000pt" viewBox="0 0 173.000000 164.000000"
 preserveAspectRatio="xMidYMid meet">

<g transform="translate(0.000000,164.000000) scale(0.100000,-0.100000)"
fill="#bc540f" stroke="none">
<path d="M518 1493 c-46 -42 -124 -117 -174 -167 l-91 -91 -7 -145 c-3 -80 -6
-283 -6 -452 l0 -308 -92 0 -93 0 0 -115 c0 -70 4 -115 10 -115 6 0 11 11 13
24 l3 26 582 2 c581 3 582 3 639 26 160 65 299 275 337 513 14 83 14 254 1
339 -41 262 -183 467 -358 520 -63 18 -96 20 -375 20 l-306 0 -83 -77z m636
-313 c43 -26 99 -108 121 -177 13 -40 16 -79 13 -165 -4 -126 -23 -179 -90
-250 -58 -62 -89 -68 -347 -68 -199 0 -230 2 -235 16 -3 9 -6 135 -6 280 l0
265 59 60 59 59 195 0 c179 0 199 -2 231 -20z m-930 -886 c12 -4 16 -20 16
-55 l0 -49 -80 0 -80 0 0 49 c0 30 5 51 13 54 18 8 113 8 131 1z"/>
</g>
</svg>
