<?xml version="1.0" encoding="utf-8"?>
<!-- Generator: Adobe Illustrator 26.5.0, SVG Export Plug-In . SVG Version: 6.00 Build 0)  -->
<svg version="1.1" id="Layer_2_00000078735450033934002880000000117510930307027131_"
	 xmlns="http://www.w3.org/2000/svg" xmlns:xlink="http://www.w3.org/1999/xlink" x="0px" y="0px" viewBox="0 0 646.5 646.1"
	 style="enable-background:new 0 0 646.5 646.1;" xml:space="preserve">
<g id="Capa_1">
	<g>
		<path class="st0" d="M922.4,412.2c0,1.7,0.6,3.2,1.7,4.5c1.3,1.6,3,2.3,5.1,2.4c2.8,0,4.9-1.3,6.2-3.7c0.7-1.3,0.9-2.8,0.6-4.3
			c0-0.2-0.1-0.5-0.1-0.7c0-0.2,0.2-0.3,0.2-0.5c0.1,0.1,0.4,0.2,0.4,0.3c0.1,0.3,0.2,0.6,0.3,0.9c0.3,2.3-0.3,4.4-1.9,6.2
			c-0.7,0.8-1.6,1.4-2.5,1.9c-1,0.6-2.2,0.8-3.3,0.8c-1,0-1.9-0.1-2.8-0.6c-2.1-1-3.8-2.5-4.4-4.8c-0.1-0.7-0.3-1.5-0.3-2.3
			c0-1.9,0.6-3.7,1.9-5.2c1.2-1.2,2.4-2.1,4.1-2.5c2-0.4,3.8-0.1,5.6,0.9c0.2,0.1,0.4,0.3,0.6,0.4c0.2,0.3,0.6,0.5,1,0.5
			c0.5,0,0.8,0.6,0.7,1.2c-0.1,0.4-0.7,0.8-1.1,0.7c-0.4-0.1-0.8-0.7-0.8-1.2c0-0.1-0.1-0.4-0.1-0.4c-0.6-0.3-1.2-0.6-1.7-0.9
			c-1-0.6-2.1-0.6-3.2-0.5c-1.2,0.1-2.2,0.6-3.2,1.2c-1.5,1.1-2.6,2.6-2.9,4.5C922.5,411.4,922.5,411.8,922.4,412.2z"/>
		<path class="st0" d="M932.9,415.3h-1.5c-0.1,0-0.2-0.2-0.3-0.3c-0.5-1.7-1.1-3.3-1.7-4.9c0-0.1,0-0.1-0.1-0.2c-0.4,1-0.7,2-1.1,3
			h1.7c0.2,0.4,0.3,0.9,0.5,1.3h-2.1c-0.3,0-0.5,0.1-0.5,0.4c-0.1,0.3-0.2,0.5-0.3,0.8h-1.7c0.2-0.5,0.3-0.9,0.5-1.4
			c0.7-1.8,1.3-3.6,2-5.3c0.1-0.2,0.2-0.4,0.4-0.3h0.8c0.5-0.1,0.8,0.1,1,0.7c0.7,2.1,1.6,4.1,2.3,6.2
			C932.8,415.2,932.8,415.3,932.9,415.3C932.9,415.3,932.9,415.3,932.9,415.3z"/>
	</g>
</g>
<path d="M309.5,646.1c-3.7-0.3-7.3-0.5-11-0.8c-44.4-3.3-86.6-15-125.8-36.2C91,564.7,36.9,497.7,11.5,408
	C1.3,371.9-2,334.9,1.2,297.6C8,217.5,40,149,97.1,92.6c44.1-43.6,97-71.7,157.5-85.2c28.7-6.4,57.9-8.5,87.2-6.8
	c71.2,4.2,134.1,29.6,189,74.9c2.3,1.9,4.2,2.3,7.1,1.6c21.6-5.4,43.3,8,48.1,29.7c4.7,21.2-9.4,43.1-30.6,46.9
	c-30.7,5.5-51.7-21.4-46.4-46.8c0.2-0.8,0.4-1.6,0.6-2.3c1.2-3.9,1.2-3.9-2-6.5c-40.2-32.6-85.7-53.5-136.9-62
	c-21-3.5-42.1-4.7-63.3-3.3c-81,5.2-148.7,38-202.7,98.6c-34.8,39.1-57.5,84.5-66.9,136C22.6,350,38.7,426.3,88.3,494.6
	c35.1,48.4,81.3,82.7,137.7,102.9c26.3,9.4,53.6,14.8,81.6,16.1c50.7,2.4,99.2-6.5,144.5-29.5c69.2-35.1,117.9-89,144.9-162
	c14.6-39.4,19.5-80.3,16.4-122.1c-1.4-18.8-5-37.2-9.4-55.5c-0.7-2.9-1-6.1-0.6-9c1-6.8,7.2-11.9,14.3-12.5c6.9-0.5,14,3.4,15.9,9.9
	c2.9,10.1,5.3,20.4,7.4,30.7c5.1,24.9,6.4,50.1,5.2,75.4c-1.8,39.7-10.7,77.8-26.9,114.1c-27.1,60.7-68.8,108.7-125,144.2
	c-36.9,23.2-77,37.9-120,44.8c-11.4,1.8-23,2.4-34.6,3.5c-0.9,0.1-1.9,0.2-2.8,0.4C327.7,646.1,318.6,646.1,309.5,646.1z"/>
<path d="M323.4,222c-15.2,41.5-30.3,83-45.6,124.9c1.2,0.1,2.1,0.2,3,0.2c21.4,0.2,42.9,0.4,64.3,0.5c2.4,0,3.6,0.6,4.4,3
	c5.5,16.3,11.3,32.4,16.9,48.6c0.2,0.7,0.4,1.3,0.8,2.7c-2.9,0-5.4,0-7.9,0c-31.9,0.1-63.8,0.1-95.7,0.1c-2.2,0-3.2,0.6-3.9,2.7
	c-5.5,15-11.1,30-16.6,44.9c-0.5,1.4-1.1,2.2-2.8,2.2c-22.1-0.2-44.1-0.3-66.2-0.4c-0.7,0-1.4-0.1-2.5-0.2c0.3-0.9,0.5-1.6,0.8-2.3
	c37.1-96.1,74.1-192.3,111.1-288.4c0.7-1.8,1.5-2.5,3.6-2.5c24.5,0.1,48.9,0.1,73.4,0c1.5,0,2.4,0.2,3,1.9
	c16.4,42.7,32.8,85.3,49.2,127.9c17.2,44.6,34.4,89.3,51.6,133.9c3.6,9.5,7.3,18.9,10.9,28.4c0.1,0.3,0.1,0.6,0.3,1.3
	c-0.8,0.1-1.6,0.2-2.3,0.2c-22-0.1-44-0.1-66-0.1c-1.8,0-2.4-0.6-3-2.2C384.6,393.2,364.8,337.1,345,281
	c-6.7-18.9-13.3-37.8-20-56.7c-0.3-0.7-0.5-1.4-0.8-2.1C323.9,222.1,323.7,222,323.4,222z"/>
</svg>
