<?xml version="1.0" encoding="UTF-8"?>
<svg id="Layer_2" data-name="Layer 2" xmlns="http://www.w3.org/2000/svg" viewBox="0 0 525.2 599.1">
  <path class="cls-1" d="M0,0C175.1,0,350.1,0,525.2,0c-.9,9.4-1.7,18.8-2.6,28.2-2.2,24-4.3,47.9-6.4,71.9-2.4,26.7-4.7,53.3-7,80-2.6,29.6-5.3,59.2-7.9,88.8-2.6,29.7-5.2,59.4-7.8,89.1-2.6,29.5-5.3,59.1-7.9,88.6-2.6,29.7-5.2,59.4-7.8,89.1-.2,2.2-1,3.3-3.2,3.9-10.2,2.7-20.3,5.6-30.5,8.5-32.3,9.1-64.5,18.3-96.8,27.4-27.7,7.8-55.3,15.6-83,23.4-1.4,.4-3.1,.4-4.6,0-33.3-9.4-66.7-18.9-100-28.4-35.9-10.2-71.7-20.4-107.6-30.6-4.4-1.2-4.3-1.3-4.7-5.9-1.9-22-3.9-43.9-5.8-65.9-1.6-17.6-3.1-35.2-4.7-52.8-1.9-21.2-3.7-42.3-5.6-63.5-1.6-18.3-3.3-36.6-4.9-54.9-1.9-21.3-3.7-42.5-5.6-63.8-1.6-18.2-3.3-36.5-4.9-54.7-1.9-21.1-3.7-42.2-5.6-63.3-1.9-21.3-3.8-42.7-5.7-64C3.1,34.1,1.5,17,0,0ZM344.5,307.9c-.5,5.1-1,9.8-1.5,14.5-2.5,23.8-5,47.5-7.4,71.3-.2,1.7-.8,2.4-2.5,2.9-23,6.3-45.9,12.6-68.8,18.9-1,.3-2.2,.3-3.2,0-23.4-6.3-46.7-12.7-70-19.1-1.9-.5-2.5-1.4-2.6-3.3-1.3-15.8-2.8-31.7-4.2-47.5-.2-2-.9-2.5-2.8-2.5-20,0-40,0-60,0-2.3,0-2.8,.6-2.6,2.9,1.3,15.5,2.4,30.9,3.5,46.4,1.1,14.9,2.3,29.8,3.4,44.7,.1,1.8,.8,2.6,2.6,3.1,6.2,1.8,12.3,3.8,18.5,5.8,37.3,11.6,74.6,23.2,111.8,34.8,2.7,.9,5.1,.9,7.9,.1,26-7.5,52.1-14.9,78.1-22.3,16.7-4.8,33.5-9.5,50.2-14.3,1.6-.4,2.2-1.2,2.3-2.8,.1-2.6,.4-5.3,.7-7.9,2.1-23.2,4.3-46.5,6.4-69.7,2.4-25.9,4.7-51.9,7-77.8,2.6-28.8,5.3-57.6,8-86.4,2.2-24.2,4.4-48.4,6.6-72.6,.5-5.5,1-10.9,1.5-16.6H97.9c0,.8,0,1.5,.1,2.1,1.6,19.8,3.2,39.7,4.8,59.5,.3,3.7,.2,3.7,4,3.7,82.1,0,164.2,0,246.3,0,3.2,0,3.2,0,2.9,3.1-1.9,20.4-3.8,40.7-5.7,61.1-.3,3.6-.3,3.6-3.9,3.6-53,0-106,0-159,0h-3.4c0,.7,0,1.1,0,1.5,1.9,19.8,3.7,39.6,5.6,59.4,.3,3.4,.4,3.3,3.8,3.3,49.2,0,98.3,0,147.5,0h3.5Z"/>
</svg>