<?xml version="1.0" encoding="UTF-8"?>
<svg id="Layer_2" data-name="Layer 2" xmlns="http://www.w3.org/2000/svg" viewBox="0 0 294.3 171">
  <path class="cls-1" d="M81,0c6.9,1.8,14.1,2.8,20.5,5.7,25.7,11.4,39.1,32,42.4,59.5,.9,7.2,1,14.6,1.4,22.5H13.7c-.5,18.7,2.8,35.6,14.1,50.3,14.7,19.1,38.4,26,63.8,19.4,18.5-4.8,30.4-16.4,36.5-34.2,.4-1.3,.8-2.5,1.2-3.8,2.6-7,6.4-8.7,13.5-5.9-4.5,31.6-25.1,49.7-50.6,55.4-3.7,.8-7.5,1.4-11.2,2.1h-14c-.8-.3-1.5-.6-2.4-.8-33.5-4.7-53.5-23.2-60.9-56.3C2.4,108,1.2,102,0,96c0-5.7,0-11.3,0-17,1.3-5.8,2.8-11.5,3.9-17.4C8.3,38.1,20.6,20,41.8,8.9,50.1,4.5,59.9,2.9,69,0c4,0,8,0,12,0Zm51,76.6c1.1-18-7.6-45.6-30.4-58.2-19.1-10.5-45.6-8.3-63.4,5.9-16.7,13.3-23.4,31.4-24.3,52.3h118.1Z"/>
  <path class="cls-1" d="M223.1,91.1c-9.7,13.1-19,25.6-28.2,38.2-7.3,9.9-14.7,19.7-22,29.7-5.1,7.1-11.7,10-21.1,7.6,21.1-28.4,42-56.4,63.2-84.8-19.4-25.3-38.8-50.6-58.3-76,8.8-3.5,16.2-1.2,22.3,7,11.8,15.7,23.4,31.6,35.1,47.3,3,4,5.9,7.9,9.2,12.3,10.1-13.4,19.8-26.4,29.6-39.4,5.1-6.8,10.2-13.6,15.3-20.4,5.2-7,11.7-10.2,21-7.1-3.9,5.3-7.7,10.5-11.6,15.6-13.3,17.5-26.7,34.9-40.1,52.3-5.9,7.7-6,9.1,0,17,17.9,23.8,35.9,47.6,53.8,71.4,1.1,1.4,2,2.9,3.1,4.5-10,2.9-16,.7-22.2-7.9-14.9-20.5-29.7-41-44.5-61.5-1.3-1.7-2.6-3.4-4.4-5.8Z"/>
</svg>