<?xml version="1.0" encoding="UTF-8"?>
<svg id="Layer_2" data-name="Layer 2" xmlns="http://www.w3.org/2000/svg" viewBox="0 0 15.99 18.07">
  <g id="Capa_1" data-name="Capa 1">
    <path class="cls-1" d="M6.52,16.01c-1.2-.7-2.3-1.4-3.5-2-.1-.1-.3,0-.4,.1-.8,.6-1.8,.4-2.3-.4-.5-.7-.2-1.9,.6-2.3,.1-.2,.3-.4,.3-.6v-3.4c0-.3-.1-.4-.3-.6C.32,6.51-.08,5.71,.02,5.21c.1-.6,.9-1.5,1.5-1.5,.5,0,.9,.3,1.4,.5,.5-.4,1.1-.7,1.7-1.1,.7-.4,1.3-.7,1.9-1.1-.2-.7,.1-1.4,.7-1.8,.5-.3,1.2-.3,1.8,.1,.5,.4,.7,1.1,.5,1.7,.9,.5,1.8,1,2.7,1.6,.2,.1,.4,.3,.5,.4,.2,.2,.5,.3,.8,0,.8-.7,2.1-.2,2.4,.8,.2,.9,0,1.4-.8,1.9-.1,.1-.3,.3-.3,.4v3.5c0,.2,.2,.4,.3,.5,.8,.5,1.1,1.6,.6,2.3-.6,.8-1.6,1-2.4,.4,0,.2-.2,.2-.3,.2-1.2,.7-2.3,1.4-3.4,2,.1,.6-.1,1.4-.6,1.7-.6,.4-1.3,.5-1.8,.1-.7-.4-.9-1-.7-1.8Zm1.5-3.5h4.3c.6,0,1-.7,.8-1.2-.3-.6-.6-1.1-1-1.7-1.1-2-2.2-4-3.3-6-.2-.3-.4-.5-.8-.5s-.6,.2-.7,.5c-.7,1.3-1.5,2.6-2.2,3.8s-1.5,2.6-2.2,3.8c-.3,.5,.2,1.2,.8,1.2,1.4,.1,2.9,.1,4.3,.1h0Zm1.2-9.8l-.1,.1c1.6,2.8,3.2,5.5,4.8,8.3,0,0,.1,0,.1-.1V6.91c-.8-.3-1.2-.8-1.2-1.6,0-.4-.1-.6-.4-.7-.2-.1-.4-.2-.5-.3-.9-.5-1.8-1.1-2.7-1.6h0ZM2.02,11.11h.1c1.6-2.8,3.2-5.5,4.8-8.3h-.2c-1.1,.6-2.2,1.3-3.3,2-.1,.1-.2,.2-.2,.3,.1,1-.4,1.6-1.2,1.9v4.1Zm10.8,2.2H3.22c1.2,.7,2.2,1.3,3.3,1.9,.2,.1,.4,.1,.6,0,.6-.3,1.1-.3,1.7,0,.2,.1,.4,.1,.6,0,1.2-.6,2.3-1.3,3.4-1.9Z"/>
  </g>
</svg>