<?xml version="1.0" encoding="UTF-8"?>
<svg id="Layer_2" data-name="Layer 2" xmlns="http://www.w3.org/2000/svg" viewBox="0 0 18.55 16.29">
  <g id="Capa_1" data-name="Capa 1">
    <g>
      <path class="cls-1" d="M.02,4.83V.63C.02,.3,.13,.13,.43,.01c.07-.02,.17,0,.23,.02,.62,.34,1.24,.7,1.86,1.05,.2,.11,.4,.23,.61,.35,.85,.5,1.71,.99,2.56,1.49,.2,.12,.4,.24,.6,.37,.23,.15,.44,.14,.67,0,.51-.31,1.02-.6,1.53-.9,.44-.26,.89-.51,1.34-.77,.86-.5,1.72-1,2.57-1.5,.07-.04,.14-.1,.22-.11,.08,0,.17,0,.25,.03,.27,.09,.37,.29,.37,.56V9.01c0,.29-.11,.49-.36,.63-.37,.2-.73,.41-1.08,.62-.58,.34-1.15,.68-1.72,1.02-.37,.22-.37,.72,0,.93,.52,.3,1.04,.59,1.56,.89,.19,.11,.38,.11,.58,0,.72-.41,1.44-.82,2.16-1.24,.41-.24,.82-.48,1.23-.73,.19-.11,.28-.28,.28-.5v-2.8c0-.09,0-.17,.01-.26,.03-.16,.1-.3,.25-.39,.54-.31,1.08-.62,1.62-.93,.26-.15,.58-.05,.71,.22,.04,.08,.05,.17,.05,.26v5.44c0,.23-.1,.39-.3,.51-.29,.17-.58,.33-.87,.5-.85,.5-1.7,.99-2.55,1.49-.84,.49-1.67,.97-2.5,1.46-.07,.04-.14,.1-.22,.13-.18,.06-.33,.03-.49-.08-.2-.14-.43-.25-.64-.38-.6-.34-1.19-.68-1.79-1.02-.75-.43-1.5-.87-2.25-1.3-.2-.12-.3-.29-.31-.51v-2.69s.05-.1,.09-.13c.7-.41,1.4-.8,2.1-1.21,.57-.33,1.13-.66,1.69-1,.04-.02,.07-.08,.07-.12,0-.88,.01-1.75,.01-2.63,0-.44-.41-.68-.8-.46-.65,.37-1.31,.75-1.96,1.13-.3,.18-.6,.36-.9,.54-.2,.12-.4,.12-.6,0-.23-.14-.47-.27-.7-.41-.71-.42-1.43-.84-2.14-1.25-.41-.24-.82,0-.82,.47v4.79c0,.22-.06,.42-.27,.53-.16,.09-.33,.09-.48,0-.15-.08-.29-.18-.44-.27-.26-.15-.52-.3-.78-.45-.13-.07-.25-.15-.38-.22-.21-.1-.3-.28-.3-.52V4.83H.02Z"/>
      <path class="cls-1" d="M15.97,2.45v-.92c0-.22,.09-.39,.28-.5,.5-.3,1-.61,1.51-.9,.36-.21,.78,.03,.79,.44v1.89c0,.2-.08,.35-.25,.45-.51,.31-1.01,.63-1.52,.93-.39,.23-.8,0-.8-.46v-.93h-.01Z"/>
    </g>
  </g>
</svg>