<?xml version="1.0" encoding="UTF-8"?>
<svg id="Layer_2" data-name="Layer 2" xmlns="http://www.w3.org/2000/svg" viewBox="0 0 15.6 15.5">
  <g id="Capa_1" data-name="Capa 1">
    <g>
      <path class="cls-1" d="M0,5.3v-.4c.2-.5,.5-.8,1.1-.9,.7-.1,1.2-.5,1.6-.9,.3-.3,.6-.5,1-.7,1.3-.7,2.6-.7,4-.4,.5,0,1.1,.2,1.7,.4-.1-.5,0-.9,.4-1.2,.4-.2,.6-.5,.6-.9,1.2,.4,1.9,1.5,1.9,2.7-.1,1.3-.9,2.2-2.4,2.6,.7,.2,1.3,.1,1.9-.1,.9-.4,1.5-1.2,1.6-2.3,.7,.8,1.3,1.6,1.6,2.6,.2,.7,.4,1.5,.6,2.2v1.2c-.1,.6-.2,1.1-.4,1.6-.2,.6-.5,1.1-.8,1.6h-.1v-.9c0-.3-.1-.5-.1-.8-.4,1.6-1.2,3-2.6,4,.4-.7,.7-1.4,.8-2.2-.6,.8-1.2,1.5-2.1,2.1-.8,.5-1.8,.9-2.8,.9,.4-.3,.9-.6,1.2-.9,.4-.3,.7-.7,1-1l-.1-.1c-.6,.2-1.1,.4-1.7,.5,1.4-1.4,2-2.8,1.5-3.9-.7,3.1-4,3.7-5.6,2.5,.2-.1,.3-.1,.4-.1-.5-.5-.8-1-.7-1.7,.1-.6,.6-1,1.2-.8,.3,0,.4,.1,.3,.4-.2,.6,0,1,.7,1.1,.2,.1,.3,0,.4-.2s.2-.4,.4-.7v.6c.2-.2,.4-.3,.5-.5,.2-.4,.3-.4,.7-.1,.1,.1,.2,.1,.2,.2v-.2c-.4-2.2-2.1-3.7-4.2-3.8-.7-.1-1.4-.2-1.9,.6h-.1v-.6c-.1,.1-.2,.3-.3,.4-.1-.2-.1-.5-.2-.5-.5-.3-.7-1-1.2-1.4H0Z"/>
      <path class="cls-1" d="M9,2c0-.2,0-.5,.1-.7,.2-.5,.2-.9-.2-1.3,.3,0,.5,0,.8,.2,.4,.3,.4,.5,0,.8-.3,.2-.5,.5-.6,1h-.1Z"/>
    </g>
  </g>
</svg>