<?xml version="1.0" encoding="UTF-8"?>
<svg id="Layer_2" data-name="Layer 2" xmlns="http://www.w3.org/2000/svg" viewBox="0 0 18.05 16">
  <g id="Capa_1" data-name="Capa 1">
    <g>
      <path class="cls-1" d="M3.77,11.1s-.1-.1,0,0c-.6-.2-1.1-.4-1.6-.6-.4-.3-.8-.5-1.1-.7-.2-.2-.5-.4-.7-.7-.1-.2-.3-.5-.3-.7-.1-.3-.1-.6,0-.9s.3-.5,.4-.7c.3-.3,.6-.6,1-.8,.5-.3,1-.5,1.6-.7,.2-.1,.4-.2,.6-.3h0v-.1c0-.3-.1-.7-.1-1.1,0-.2-.1-.5-.1-.7v-.8c0-.4,.1-.8,.2-1.1,.1-.2,.2-.5,.4-.7S4.57,.1,4.88,0h.6C5.88,0,6.38,.2,6.78,.3c.4,.3,.8,.5,1.2,.9,.4,.2,.7,.5,1,.7h0c.4-.4,.9-.8,1.4-1.1,.4-.2,.8-.5,1.2-.6,.2-.1,.4-.2,.7-.2h.8c.3,0,.5,.2,.7,.4s.4,.4,.5,.7,.2,.6,.2,.9c.1,.3,.1,.7,.1,1,0,.7-.1,1.3-.3,1.9v.1h.1c.5,.2,1,.3,1.5,.6,.3,.2,.7,.4,1.1,.7,.3,.2,.5,.4,.7,.7,.1,.2,.2,.4,.3,.6,.1,.3,.1,.6,0,.8-.1,.3-.2,.5-.4,.7-.3,.4-.6,.6-1,.9-.5,.3-1,.6-1.6,.8-.2,.1-.5,.2-.7,.2h-.1c0,.1,0,.2,.1,.3,.1,.3,.1,.7,.2,1,0,.3,.1,.6,.1,.9,0,.4,0,.8-.1,1.2-.1,.3-.2,.6-.4,.9-.2,.3-.5,.5-.9,.6-.2,.1-.3,.1-.4,.1-.4,0-.7-.1-1-.2-.4-.1-.7-.3-1-.5-.4-.3-.9-.6-1.3-.9-.1-.1-.3-.2-.4-.4h0c-.4,.4-.8,.7-1.2,1-.4,.3-.8,.5-1.3,.7-.3,.2-.6,.2-.9,.3-.3,0-.6,0-.9-.1s-.5-.2-.7-.4c-.2-.2-.3-.5-.5-.8-.1-.3-.2-.6-.2-.9v-.9c0-.3,0-.7,.1-1,.1-.2,.2-.5,.3-.8h0Zm5.3-.2h1.5s.1,0,.1-.1c.2-.2,.3-.5,.5-.8,.4-.6,.8-1.3,1.1-2v-.1c-.1-.3-.3-.5-.4-.8-.4-.7-.8-1.3-1.2-1.9l-.1-.1h-3.2s-.1,0-.1,.1c-.3,.4-.5,.9-.8,1.3-.3,.5-.5,1-.8,1.5v.1c.1,.1,.2,.3,.3,.4,.4,.8,.9,1.6,1.4,2.3l.1,.1h.7c.2,0,.5,0,.9,0h0ZM3.97,5.7h0c-.3,.1-.7,.2-1,.3-.4,.2-.8,.4-1.2,.7-.2,.1-.5,.3-.7,.5-.1,.2-.2,.3-.3,.5v.4c0,.1,.1,.2,.1,.3,.1,.2,.3,.4,.4,.5,.3,.3,.7,.5,1,.7,.5,.3,1,.5,1.6,.6h0c.3-.7,.6-1.4,.9-2.2v-.1c-.3-.7-.6-1.4-.8-2.2h0Zm.5,5.5s0,.1,0,0c0,.2-.1,.4-.1,.6-.1,.3-.1,.6-.1,.9v.9c0,.2,.1,.5,.1,.7,.1,.2,.1,.4,.2,.5,.1,.2,.3,.4,.4,.4s.2,.1,.3,0c.2,0,.4,0,.6-.1,.3-.1,.6-.2,.9-.4,.7-.3,1.2-.7,1.7-1.2h0c-.2-.2-.4-.4-.6-.7-.3-.4-.6-.8-.9-1.2l-.1-.1h-.1c-.2,0-.3,0-.5-.1-.3,0-.5-.1-.8-.1s-.6-.1-.8-.1c0,.1-.1,.1-.2,0h0Zm5.1,2.3h0c.2,.2,.4,.4,.6,.5,.4,.3,.8,.6,1.2,.8s.7,.3,1.1,.4h.4c.2,0,.4-.1,.5-.3,.1-.1,.2-.3,.2-.4,.1-.4,.2-.7,.2-1.1s0-.7-.1-1.1c0-.4-.1-.7-.2-1.1h-.1c-.3,.1-.5,.1-.8,.2-.2,0-.4,.1-.6,.1s-.3,0-.5,.1h-.4q-.1,0-.1,.1c-.4,.6-.9,1.2-1.4,1.8h0ZM4.47,4.8h.1c.3-.1,.6-.1,.9-.2,.2,0,.3-.1,.5-.1s.3,0,.5-.1h.3q.1,0,.1-.1c.4-.6,.9-1.2,1.4-1.7l.1-.1h-.1c0-.1-.1-.2-.2-.3-.4-.4-.9-.7-1.4-1-.2-.1-.5-.2-.8-.3-.2-.1-.5-.1-.7-.1s-.4,.1-.6,.3c-.1,.2-.2,.3-.2,.5-.1,.3-.1,.5-.2,.8v.9c0,.2,0,.4,.1,.6,.1,.3,.1,.6,.2,.9h0Zm9,0v-.1c.1-.5,.2-.9,.2-1.4v-.8c0-.2-.1-.5-.1-.7-.1-.2-.1-.4-.2-.6-.2-.2-.4-.4-.7-.4-.2,0-.4,0-.6,.1-.4,.1-.7,.3-1,.5-.5,.3-1,.7-1.5,1.2h0c.4,.4,.8,.9,1.2,1.4,.1,.1,.2,.3,.3,.4h.3c.2,0,.3,0,.5,.1,.2,0,.5,.1,.7,.1,.2,.1,.5,.1,.9,.2h0Zm.6,5.5h0c.5-.1,.9-.3,1.3-.5,.4-.2,.8-.4,1.1-.7,.1-.1,.3-.3,.5-.5,.1-.1,.2-.2,.2-.4,.1-.2,.1-.3,0-.5,0-.1-.1-.2-.1-.2-.1-.2-.3-.3-.5-.5-.3-.2-.6-.4-.9-.6-.5-.3-1.1-.5-1.6-.7h0v.1c-.1,.2-.1,.4-.2,.7-.2,.5-.4,1-.6,1.5v.1h0c.3,.6,.6,1.3,.8,2-.1,0-.1,.1,0,.2h0Zm-1.4-1.4c-.3,.6-.7,1.3-1.1,1.9h0c.3,0,1.6-.2,1.7-.3-.2-.6-.4-1.1-.6-1.6h0Zm-2.6,2.7h-2.1c.3,.5,.6,.9,1,1.4,.4-.5,.7-.9,1.1-1.4h0Zm-5.4-1.1c.6,.1,1.1,.2,1.7,.3-.4-.6-.8-1.2-1.1-1.9-.2,.5-.4,1.1-.6,1.6h0Zm5.4-6.2c-.4-.4-.7-.8-1.1-1.2-.4,.4-.7,.8-1.1,1.2h2.2Zm1.5,1c.4,.6,.7,1.2,1.1,1.8,.2-.5,.4-1,.6-1.5-.6-.2-1.1-.3-1.7-.3Zm-6.9,.2c.2,.5,.4,1,.6,1.6,.3-.6,.7-1.2,1.1-1.8-.6,0-1.1,.1-1.7,.2h0Z"/>
      <path class="cls-1" d="M8.97,6.4c.9,0,1.6,.7,1.6,1.6s-.7,1.6-1.6,1.6-1.6-.8-1.6-1.6c0-.9,.7-1.6,1.6-1.6Z"/>
    </g>
  </g>
</svg>