<?xml version="1.0" encoding="UTF-8"?>
<svg id="Layer_2" data-name="Layer 2" xmlns="http://www.w3.org/2000/svg" viewBox="0 0 15.1 15.6">
  <g id="Capa_1" data-name="Capa 1">
    <path class="cls-1" d="M7.6,0h6.5c.8,0,1,.2,1,1V14.6c0,.8-.2,1-1,1H1c-.8,0-1-.2-1-1.1C.1,10.1,.1,5.6,.1,1,.1,.2,.3,0,1.1,0H7.6Zm1.2,12.3v1.2c.1,.3,.2,.5,.3,.5,1.2,.4,2.4,.5,3.6,0,1.4-.6,1.6-2.6,.4-3.6-.4-.3-.9-.6-1.4-.8-.3-.2-.6-.3-.9-.5-.4-.4-.4-.9,.2-1.1,.4-.1,.9-.2,1.3-.1,.4,0,.8,.2,1.2,.4v-1.1c0-.2-.2-.4-.3-.4-1-.3-2.1-.3-3.1,.1-1.1,.2-1.7,1.5-1.1,2.6,.3,.5,.8,.9,1.3,1.3,.4,.3,.9,.4,1.3,.7,.2,.2,.4,.5,.4,.8,0,.2-.4,.5-.6,.6-.3,.1-.7,.1-1,0-.5-.1-1-.3-1.6-.6h0Zm-2.7,1.9V7.9h2.1v-1.4H2.3v1.4h2.1v6.3h1.7Z"/>
  </g>
</svg>