<?xml version="1.0" encoding="utf-8"?>
<!-- Generator: Adobe Illustrator 26.5.0, SVG Export Plug-In . SVG Version: 6.00 Build 0)  -->
<svg version="1.1" id="Layer_1" xmlns="http://www.w3.org/2000/svg" xmlns:xlink="http://www.w3.org/1999/xlink" x="0px" y="0px"
	 viewBox="0 0 288 291" style="enable-background:new 0 0 288 291;" xml:space="preserve">
<style type="text/css">
	.st0{fill:#FFFFFF;}
	.st1{fill-rule:evenodd;clip-rule:evenodd;fill:#E6E6E6;}
	.st2{filter:url(#Adobe_OpacityMaskFilter);}
	.st3{fill-rule:evenodd;clip-rule:evenodd;fill:#FFFFFF;}
	.st4{mask:url(#react-mask-4_00000095338110683684922350000006109197038604852115_);}
	.st5{fill-rule:evenodd;clip-rule:evenodd;fill:#65C9FF;}
	.st6{filter:url(#Adobe_OpacityMaskFilter_00000149384078576319906790000017922362329792150704_);}
	.st7{mask:url(#react-mask-5_00000015350368007765052580000013704975507280354208_);}
	.st8{fill-rule:evenodd;clip-rule:evenodd;fill:#D0C6AC;}
	.st9{filter:url(#Adobe_OpacityMaskFilter_00000025444533624933820980000001154616138400405671_);}
	.st10{mask:url(#react-mask-6_00000073691806968458708250000000876901325093150869_);}
	.st11{fill-rule:evenodd;clip-rule:evenodd;fill:#EDB98A;}
	.st12{filter:url(#Adobe_OpacityMaskFilter_00000039132620332952910160000017724107573313409214_);}
	
		.st13{mask:url(#react-mask-6_00000137126623652381521610000013397217200934870191_);fill-rule:evenodd;clip-rule:evenodd;fill-opacity:0.1;}
	.st14{filter:url(#Adobe_OpacityMaskFilter_00000074411074355193461850000014659663666096251564_);}
	.st15{mask:url(#react-mask-1484_00000057865349684930409000000007603505886584256693_);}
	.st16{fill-rule:evenodd;clip-rule:evenodd;fill:#262E33;}
	.st17{fill-rule:evenodd;clip-rule:evenodd;fill:#F2F2F2;}
	.st18{fill-rule:evenodd;clip-rule:evenodd;fill-opacity:0.7;}
	.st19{filter:url(#Adobe_OpacityMaskFilter_00000121977453488261703760000010160783335312859563_);}
	
		.st20{mask:url(#react-mask-1488_00000104669713544755095650000013160638544814652588_);fill-rule:evenodd;clip-rule:evenodd;fill:#FFFFFF;}
	.st21{filter:url(#Adobe_OpacityMaskFilter_00000139982617340051945330000008504923326320846011_);}
	.st22{mask:url(#react-mask-1488_00000058561277903379488090000008938078677981006981_);}
	.st23{fill-rule:evenodd;clip-rule:evenodd;fill:#FF4F6D;}
	.st24{fill-rule:evenodd;clip-rule:evenodd;fill-opacity:0.16;}
	.st25{fill-rule:evenodd;clip-rule:evenodd;fill-opacity:0.6;}
	.st26{fill-opacity:0.6;}
	.st27{filter:url(#Adobe_OpacityMaskFilter_00000090981769691322405060000000888228160962005949_);}
	.st28{mask:url(#react-mask-1449_00000117670941675987718000000003460171592358753934_);}
	.st29{fill-rule:evenodd;clip-rule:evenodd;fill:#1F3140;}
	.st30{filter:url(#Adobe_OpacityMaskFilter_00000059285774776511620250000013699479112330704516_);}
	.st31{mask:url(#react-mask-1448_00000073706277322986089730000003685016641173219774_);}
	.st32{fill-rule:evenodd;clip-rule:evenodd;fill:#2C1B18;}
</style>
<g>
	<ellipse class="st0" cx="145.1" cy="145.5" rx="138.5" ry="141"/>
	<g id="Avataaar_00000093169989186483523380000017502112251916148654_">
		<g id="Avataaar_x2F_Circle" transform="translate(-825.000000, -1100.000000)">
			<g transform="translate(825.000000, 1100.000000)">
				<g id="Circle" transform="translate(12.000000, 40.000000)">
					<g id="Circle-Background">
						<circle id="react-path-1_00000114770420909294049360000004713765935603629496_" class="st1" cx="132.6" cy="118.5" r="120"/>
					</g>
					<defs>
						<filter id="Adobe_OpacityMaskFilter" filterUnits="userSpaceOnUse" x="12.6" y="-1.5" width="240" height="240">
							<feColorMatrix  type="matrix" values="1 0 0 0 0  0 1 0 0 0  0 0 1 0 0  0 0 0 1 0"/>
						</filter>
					</defs>
					
						<mask maskUnits="userSpaceOnUse" x="12.6" y="-1.5" width="240" height="240" id="react-mask-4_00000095338110683684922350000006109197038604852115_">
						<g class="st2">
							<circle id="react-path-1_00000004518769550150962800000003597621884627063960_" class="st3" cx="132.6" cy="118.5" r="120"/>
						</g>
					</mask>
					<g id="Color_x2F_Palette_x2F_Blue-01" class="st4">
						<rect id="_xD83D__xDD8D_Color" x="12.6" y="-1.5" class="st5" width="240" height="240"/>
					</g>
				</g>
				<g id="Mask">
				</g>
				<defs>
					
						<filter id="Adobe_OpacityMaskFilter_00000005267528619156913010000000509588337720961411_" filterUnits="userSpaceOnUse" x="11.6" y="-1.5" width="297" height="316">
						<feColorMatrix  type="matrix" values="1 0 0 0 0  0 1 0 0 0  0 0 1 0 0  0 0 0 1 0"/>
					</filter>
				</defs>
				
					<mask maskUnits="userSpaceOnUse" x="11.6" y="-1.5" width="297" height="316" id="react-mask-5_00000015350368007765052580000013704975507280354208_">
					<g style="filter:url(#Adobe_OpacityMaskFilter_00000005267528619156913010000000509588337720961411_);">
						<path id="react-path-2_00000004543786641725228470000011755385032484857772_" class="st3" d="M24.6,158.5
							c0,66.3,53.7,120,120,120s120-53.7,120-120h12v-160h-264v160H24.6z"/>
					</g>
				</mask>
				<g id="Avataaar" class="st7">
					<g id="Body" transform="translate(32.000000, 36.000000)">
						<g>
							<path id="react-path-3_00000000940266646376617010000004754630256216271515_" class="st8" d="M136.6,143.1v18.4h4l0,0
								c39.8,0,72,32.2,72,72v9h-200v-9c0-39.8,32.2-72,72-72l0,0h4v-18.4c-17.2-8.2-29.6-24.9-31.7-44.7
								c-5.8-0.8-10.3-5.8-10.3-11.9v-14c0-5.9,4.3-10.9,10-11.8v-6.2l0,0c0-30.9,25.1-56,56-56l0,0l0,0c30.9,0,56,25.1,56,56v6.2
								c5.7,1,10,5.9,10,11.8v14c0,6.1-4.5,11.1-10.3,11.9C166.2,118.2,153.8,134.9,136.6,143.1z"/>
						</g>
						<defs>
							
								<filter id="Adobe_OpacityMaskFilter_00000047034496403866964410000011939066493237022625_" filterUnits="userSpaceOnUse" x="12.6" y="-1.5" width="264" height="280">
								<feColorMatrix  type="matrix" values="1 0 0 0 0  0 1 0 0 0  0 0 1 0 0  0 0 0 1 0"/>
							</filter>
						</defs>
						
							<mask maskUnits="userSpaceOnUse" x="12.6" y="-1.5" width="264" height="280" id="react-mask-6_00000073691806968458708250000000876901325093150869_">
							<g style="filter:url(#Adobe_OpacityMaskFilter_00000047034496403866964410000011939066493237022625_);">
								<path id="react-path-3_00000181066098963743135480000003916356010931367054_" class="st3" d="M136.6,143.1v18.4h4l0,0
									c39.8,0,72,32.2,72,72v9h-200v-9c0-39.8,32.2-72,72-72l0,0h4v-18.4c-17.2-8.2-29.6-24.9-31.7-44.7
									c-5.8-0.8-10.3-5.8-10.3-11.9v-14c0-5.9,4.3-10.9,10-11.8v-6.2l0,0c0-30.9,25.1-56,56-56l0,0l0,0c30.9,0,56,25.1,56,56v6.2
									c5.7,1,10,5.9,10,11.8v14c0,6.1-4.5,11.1-10.3,11.9C166.2,118.2,153.8,134.9,136.6,143.1z"/>
							</g>
						</mask>
						<g id="Skin_x2F__xD83D__xDC76__xD83C__xDFFD_-03-Brown" class="st10">
							<g id="Color" transform="translate(0.000000, 0.000000)">
								<rect x="12.6" y="-1.5" class="st11" width="264" height="280"/>
							</g>
						</g>
						<defs>
							
								<filter id="Adobe_OpacityMaskFilter_00000168817066963644974420000010185255636879532970_" filterUnits="userSpaceOnUse" x="56.6" y="77.5" width="112" height="79">
								<feColorMatrix  type="matrix" values="1 0 0 0 0  0 1 0 0 0  0 0 1 0 0  0 0 0 1 0"/>
							</filter>
						</defs>
						
							<mask maskUnits="userSpaceOnUse" x="56.6" y="77.5" width="112" height="79" id="react-mask-6_00000137126623652381521610000013397217200934870191_">
							<g style="filter:url(#Adobe_OpacityMaskFilter_00000168817066963644974420000010185255636879532970_);">
								<path id="react-path-3_00000103233765774960182140000010621118846741830546_" class="st3" d="M136.6,143.1v18.4h4l0,0
									c39.8,0,72,32.2,72,72v9h-200v-9c0-39.8,32.2-72,72-72l0,0h4v-18.4c-17.2-8.2-29.6-24.9-31.7-44.7
									c-5.8-0.8-10.3-5.8-10.3-11.9v-14c0-5.9,4.3-10.9,10-11.8v-6.2l0,0c0-30.9,25.1-56,56-56l0,0l0,0c30.9,0,56,25.1,56,56v6.2
									c5.7,1,10,5.9,10,11.8v14c0,6.1-4.5,11.1-10.3,11.9C166.2,118.2,153.8,134.9,136.6,143.1z"/>
							</g>
						</mask>
						<path id="Neck-Shadow" class="st13" d="M168.6,77.5v23c0,30.9-25.1,56-56,56s-56-25.1-56-56v-23v15c0,30.9,25.1,56,56,56
							s56-25.1,56-56V77.5z"/>
					</g>
					<g id="Clothing_x2F_Collar-_x2B_-Sweater" transform="translate(0.000000, 170.000000)">
						<g id="Clothes">
							<path id="react-path-1483_00000045604819939732267940000008698530583713159317_" class="st1" d="M117.8,27.6h-1.2l0,0
								c-39.8,0-72,32.2-72,72v8.9h200v-8.9c0-39.8-32.2-72-72-72l0,0h-1.2c0.1,1,0.2,2,0.2,3c0,13.8-12.1,25-27,25s-27-11.2-27-25
								C117.6,29.5,117.6,28.5,117.8,27.6z"/>
						</g>
						<defs>
							
								<filter id="Adobe_OpacityMaskFilter_00000142887702985723602630000015437985286152932787_" filterUnits="userSpaceOnUse" x="12.6" y="-1.5" width="264" height="110">
								<feColorMatrix  type="matrix" values="1 0 0 0 0  0 1 0 0 0  0 0 1 0 0  0 0 0 1 0"/>
							</filter>
						</defs>
						
							<mask maskUnits="userSpaceOnUse" x="12.6" y="-1.5" width="264" height="110" id="react-mask-1484_00000057865349684930409000000007603505886584256693_">
							<g style="filter:url(#Adobe_OpacityMaskFilter_00000142887702985723602630000015437985286152932787_);">
								<path id="react-path-1483_00000090292844388325922740000010287101222929420183_" class="st3" d="M117.8,27.6h-1.2l0,0
									c-39.8,0-72,32.2-72,72v8.9h200v-8.9c0-39.8-32.2-72-72-72l0,0h-1.2c0.1,1,0.2,2,0.2,3c0,13.8-12.1,25-27,25s-27-11.2-27-25
									C117.6,29.5,117.6,28.5,117.8,27.6z"/>
							</g>
						</mask>
						<g id="Color_x2F_Palette_x2F_Gray-01" class="st15">
							
								<rect id="_xD83D__xDD8D_Color_00000116920356596671029410000009808512140477810845_" x="12.6" y="-1.5" class="st16" width="264" height="110"/>
						</g>
						<path id="Collar" class="st17" d="M168.6,20.8c6.2,4.6,10,10.8,10,17.7c0,7.2-4.1,13.7-10.8,18.3l-5.6-4.5l-4.6,0.3l1-3.2
							l-0.1-0.1c6.1-3.1,10.1-8.3,10.1-14.1V20.8z M120.6,20.1c-6.8,4.6-11,11.2-11,18.5c0,7.4,4.4,14.1,11.3,18.7l6.1-4.8l4.6,0.3
							l-1-3.2l0.1-0.1c-6.1-3.1-10.1-8.3-10.1-14.1V20.1z"/>
					</g>
					<g id="Face" transform="translate(76.000000, 82.000000)">
						<g id="Mouth_x2F_Smile" transform="translate(2.000000, 52.000000)">
							<g id="Mouth">
								<path id="react-path-1487_00000108300961167920746810000014445687709794445215_" class="st18" d="M47.7,13.6
									c1.1,9.5,9.1,16.9,18.9,16.9c9.8,0,17.9-7.4,18.9-17c0.1-0.8-0.8-2-1.8-2c-14.9,0-26.3,0-34,0
									C48.6,11.5,47.6,12.7,47.7,13.6z"/>
							</g>
							<defs>
								
									<filter id="Adobe_OpacityMaskFilter_00000158718544583069124040000016194090446756215698_" filterUnits="userSpaceOnUse" x="51.6" y="0.5" width="31" height="16">
									<feColorMatrix  type="matrix" values="1 0 0 0 0  0 1 0 0 0  0 0 1 0 0  0 0 0 1 0"/>
								</filter>
							</defs>
							
								<mask maskUnits="userSpaceOnUse" x="51.6" y="0.5" width="31" height="16" id="react-mask-1488_00000104669713544755095650000013160638544814652588_">
								<g style="filter:url(#Adobe_OpacityMaskFilter_00000158718544583069124040000016194090446756215698_);">
									<path id="react-path-1487_00000150792725253343285950000001031323069219585724_" class="st3" d="M47.7,13.6
										c1.1,9.5,9.1,16.9,18.9,16.9c9.8,0,17.9-7.4,18.9-17c0.1-0.8-0.8-2-1.8-2c-14.9,0-26.3,0-34,0
										C48.6,11.5,47.6,12.7,47.7,13.6z"/>
								</g>
							</mask>
							<path id="Teeth" class="st20" d="M56.6,0.5h21c2.8,0,5,2.2,5,5v6c0,2.8-2.2,5-5,5h-21c-2.8,0-5-2.2-5-5v-6
								C51.6,2.7,53.8,0.5,56.6,0.5z"/>
							<defs>
								
									<filter id="Adobe_OpacityMaskFilter_00000174566681422441812280000005480469179162761376_" filterUnits="userSpaceOnUse" x="50.6" y="22.5" width="32" height="22">
									<feColorMatrix  type="matrix" values="1 0 0 0 0  0 1 0 0 0  0 0 1 0 0  0 0 0 1 0"/>
								</filter>
							</defs>
							
								<mask maskUnits="userSpaceOnUse" x="50.6" y="22.5" width="32" height="22" id="react-mask-1488_00000058561277903379488090000008938078677981006981_">
								<g style="filter:url(#Adobe_OpacityMaskFilter_00000174566681422441812280000005480469179162761376_);">
									<path id="react-path-1487_00000026852735976997146940000004270994625308901765_" class="st3" d="M47.7,13.6
										c1.1,9.5,9.1,16.9,18.9,16.9c9.8,0,17.9-7.4,18.9-17c0.1-0.8-0.8-2-1.8-2c-14.9,0-26.3,0-34,0
										C48.6,11.5,47.6,12.7,47.7,13.6z"/>
								</g>
							</mask>
							<g id="Tongue" class="st22">
								<g transform="translate(38.000000, 24.000000)">
									<circle class="st23" cx="23.6" cy="9.5" r="11"/>
									<circle class="st23" cx="33.6" cy="9.5" r="11"/>
								</g>
							</g>
						</g>
						<g id="Nose_x2F_Default" transform="translate(28.000000, 40.000000)">
							<path id="Nose" class="st24" d="M28.6,6.5c0,4.4,5.4,8,12,8l0,0c6.6,0,12-3.6,12-8"/>
						</g>
						<g id="Eyes_x2F_Happy-_xD83D__xDE01_" transform="translate(0.000000, 8.000000)">
							<path id="Squint" class="st25" d="M28.7,20.9c1.8-3.8,6-6.4,10.8-6.4c4.8,0,9,2.6,10.8,6.4c0.6,1.1-0.2,2-1,1.4
								c-2.5-2.1-5.9-3.4-9.8-3.4c-3.7,0-7.1,1.2-9.6,3.2C29.1,22.8,28.2,22.1,28.7,20.9z"/>
							<path id="Squint_00000158025680648661533380000015307850541823274382_" class="st25" d="M86.7,20.9c1.8-3.8,6-6.4,10.8-6.4
								c4.8,0,9,2.6,10.8,6.4c0.6,1.1-0.2,2-1,1.4c-2.5-2.1-5.9-3.4-9.8-3.4c-3.7,0-7.1,1.2-9.6,3.2C87.1,22.8,86.2,22.1,86.7,20.9z
								"/>
						</g>
						<g id="Eyebrow_x2F_Outline_x2F_Up-Down">
							<path id="Eyebrow" class="st26" d="M28.2,12.7c4.5-6.3,14-9.5,23.8-6.4C53,6.6,54.1,6.1,54.4,5s-0.2-2.2-1.3-2.5
								c-11.4-3.7-22.7,0.1-28.2,7.9c-0.6,0.9-0.4,2.1,0.5,2.8S27.5,13.6,28.2,12.7z"/>
							<path id="Eyebrow_00000155848098091113054280000005617662460246499974_" class="st26" d="M108.9,19.7
								c-3.9-5.5-14.6-8.6-23.9-6.3c-1.1,0.3-2.2-0.4-2.4-1.5c-0.3-1.1,0.4-2.2,1.5-2.4c10.7-2.6,23.2,0.9,28.1,7.9
								c0.6,0.9,0.4,2.1-0.5,2.8C110.8,20.8,109.6,20.6,108.9,19.7z"/>
						</g>
					</g>
					<g id="Top">
						<g id="Mask_00000080195772566354586690000005541200190888478100_">
						</g>
						<defs>
							
								<filter id="Adobe_OpacityMaskFilter_00000083057372826299244180000011450994643197946527_" filterUnits="userSpaceOnUse" x="11.6" y="-1.5" width="264" height="280">
								<feColorMatrix  type="matrix" values="1 0 0 0 0  0 1 0 0 0  0 0 1 0 0  0 0 0 1 0"/>
							</filter>
						</defs>
						
							<mask maskUnits="userSpaceOnUse" x="11.6" y="-1.5" width="264" height="280" id="react-mask-1449_00000117670941675987718000000003460171592358753934_">
							<g style="filter:url(#Adobe_OpacityMaskFilter_00000083057372826299244180000011450994643197946527_);">
								
									<rect id="react-path-1451_00000040549180884813478010000013874042619320082060_" x="12.6" y="-1.5" class="st3" width="264" height="280"/>
							</g>
						</mask>
						<g id="Top_x2F_Short-Hair_x2F_Short-Flat" class="st28">
							<g transform="translate(-1.000000, 0.000000)">
								<g id="Short-Hair">
									<path id="react-path-1450_00000161613420318141938090000004143019904797521280_" class="st29" d="M192.7,38.4
										c-2.8-2.8-6-5.2-9.1-7.6c-0.7-0.5-1.4-1-2.1-1.6c-0.2-0.1-1.7-1.2-1.9-1.7c-0.5-1-0.2-0.2-0.1-1.4c0.1-1.5,3.1-5.7,0.9-6.7
										c-1-0.4-2.8,0.7-3.8,1.1c-1.9,0.7-3.8,1.4-5.7,1.9c0.9-1.9,2.7-5.6-0.6-4.6c-2.6,0.8-5,2.8-7.6,3.7
										c0.9-1.4,4.3-5.8,1.2-6.1c-1-0.1-3.8,1.7-4.9,2.1c-3.1,1.2-6.3,1.9-9.6,2.5c-11.2,2-24.3,1.4-34.7,6.5
										c-8,3.9-15.9,10-20.5,17.8c-4.4,7.5-6.1,15.7-7,24.3c-0.7,6.3-0.7,12.8-0.4,19.1c0.1,2.1,0.3,11.6,3.3,8.7
										c1.5-1.4,1.5-7.3,1.9-9.2c0.8-3.9,1.5-7.8,2.7-11.6c2.2-6.7,4.8-13.8,10.3-18.4c3.5-3,6-6.9,9.4-9.9c1.5-1.3,0.4-1.2,2.8-1
										c1.6,0.1,3.3,0.2,4.9,0.2c3.8,0.1,7.6,0.1,11.4,0.1c7.6,0,15.3,0.1,22.9-0.3c3.4-0.2,6.8-0.3,10.2-0.6
										c1.9-0.2,5.2-1.4,6.8-0.5c1.4,0.8,2.9,3.6,3.9,4.7c2.4,2.7,5.3,4.7,8.1,6.9c5.9,4.6,8.9,10.3,10.7,17.5
										c1.8,7.1,1.3,13.7,3.5,20.8c0.4,1.2,1.4,3.4,2.7,1.5c0.2-0.4,0.2-2.3,0.2-3.4c0-4.5,1.1-7.9,1.1-12.5
										C203.5,67,203.1,49,192.7,38.4z"/>
								</g>
								<defs>
									
										<filter id="Adobe_OpacityMaskFilter_00000160164770106925143850000016010801796945640382_" filterUnits="userSpaceOnUse" x="12.6" y="-1.5" width="264" height="280">
										<feColorMatrix  type="matrix" values="1 0 0 0 0  0 1 0 0 0  0 0 1 0 0  0 0 0 1 0"/>
									</filter>
								</defs>
								
									<mask maskUnits="userSpaceOnUse" x="12.6" y="-1.5" width="264" height="280" id="react-mask-1448_00000073706277322986089730000003685016641173219774_">
									<g style="filter:url(#Adobe_OpacityMaskFilter_00000160164770106925143850000016010801796945640382_);">
										<path id="react-path-1450_00000146479342163664587100000003032191557912829368_" class="st3" d="M192.7,38.4
											c-2.8-2.8-6-5.2-9.1-7.6c-0.7-0.5-1.4-1-2.1-1.6c-0.2-0.1-1.7-1.2-1.9-1.7c-0.5-1-0.2-0.2-0.1-1.4
											c0.1-1.5,3.1-5.7,0.9-6.7c-1-0.4-2.8,0.7-3.8,1.1c-1.9,0.7-3.8,1.4-5.7,1.9c0.9-1.9,2.7-5.6-0.6-4.6
											c-2.6,0.8-5,2.8-7.6,3.7c0.9-1.4,4.3-5.8,1.2-6.1c-1-0.1-3.8,1.7-4.9,2.1c-3.1,1.2-6.3,1.9-9.6,2.5
											c-11.2,2-24.3,1.4-34.7,6.5c-8,3.9-15.9,10-20.5,17.8c-4.4,7.5-6.1,15.7-7,24.3c-0.7,6.3-0.7,12.8-0.4,19.1
											c0.1,2.1,0.3,11.6,3.3,8.7c1.5-1.4,1.5-7.3,1.9-9.2c0.8-3.9,1.5-7.8,2.7-11.6c2.2-6.7,4.8-13.8,10.3-18.4
											c3.5-3,6-6.9,9.4-9.9c1.5-1.3,0.4-1.2,2.8-1c1.6,0.1,3.3,0.2,4.9,0.2c3.8,0.1,7.6,0.1,11.4,0.1c7.6,0,15.3,0.1,22.9-0.3
											c3.4-0.2,6.8-0.3,10.2-0.6c1.9-0.2,5.2-1.4,6.8-0.5c1.4,0.8,2.9,3.6,3.9,4.7c2.4,2.7,5.3,4.7,8.1,6.9
											c5.9,4.6,8.9,10.3,10.7,17.5c1.8,7.1,1.3,13.7,3.5,20.8c0.4,1.2,1.4,3.4,2.7,1.5c0.2-0.4,0.2-2.3,0.2-3.4
											c0-4.5,1.1-7.9,1.1-12.5C203.5,67,203.1,49,192.7,38.4z"/>
									</g>
								</mask>
								<g id="Skin_x2F__xD83D__xDC76__xD83C__xDFFD_-03-Brown_00000076566646769498318310000008662292212146969218_" class="st31">
									<g id="Color_00000170989605206510307390000010270073451853522351_" transform="translate(0.000000, 0.000000) ">
										<rect x="12.6" y="-1.5" class="st32" width="264" height="280"/>
									</g>
								</g>
							</g>
						</g>
					</g>
				</g>
			</g>
		</g>
	</g>
</g>
</svg>
