<?xml version="1.0" encoding="UTF-8" standalone="no"?>
<!-- Created with Inkscape (http://www.inkscape.org/) -->

<svg
   width="118.25105mm"
   height="150.83459mm"
   viewBox="0 0 118.25105 150.83459"
   version="1.1"
   id="svg1"
   xml:space="preserve"
   inkscape:version="1.3 (0e150ed6c4, 2023-07-21)"
   sodipodi:docname="logo.svg"
   xmlns:inkscape="http://www.inkscape.org/namespaces/inkscape"
   xmlns:sodipodi="http://sodipodi.sourceforge.net/DTD/sodipodi-0.dtd"
   xmlns="http://www.w3.org/2000/svg"
   xmlns:svg="http://www.w3.org/2000/svg"><sodipodi:namedview
     id="namedview1"
     pagecolor="#ffffff"
     bordercolor="#000000"
     borderopacity="0.25"
     inkscape:showpageshadow="2"
     inkscape:pageopacity="0.0"
     inkscape:pagecheckerboard="0"
     inkscape:deskcolor="#d1d1d1"
     inkscape:document-units="mm"
     inkscape:zoom="0.44631734"
     inkscape:cx="140.03489"
     inkscape:cy="225.1761"
     inkscape:window-width="1366"
     inkscape:window-height="697"
     inkscape:window-x="1912"
     inkscape:window-y="171"
     inkscape:window-maximized="1"
     inkscape:current-layer="layer1" /><defs
     id="defs1" /><g
     inkscape:label="Capa 1"
     inkscape:groupmode="layer"
     id="layer1"
     transform="translate(-51.076568,-66.317716)"><path
       style="fill:#000000"
       d="m 105.97761,216.89504 c -4.1553,-0.46991 -14.168002,-2.99613 -19.938482,-5.03052 -6.15698,-2.17064 -13.66919,-6.47108 -19.48443,-11.15404 -1.16417,-0.93749 -3.49053,-3.1167 -5.16968,-4.84268 -2.41498,-2.48232 -3.69362,-4.10579 -6.11834,-7.76835 -3.14004,-4.74306 -4.19011,-6.56005 -4.19011,-7.25038 0,-0.21576 0.24008,-0.79919 0.53351,-1.29652 0.4867,-0.8249 0.55568,-1.62129 0.78622,-9.0771 0.1563,-5.05497 0.3973,-8.87943 0.63172,-10.02496 0.84648,-4.1364 2.88733,-8.99604 5.34101,-12.71794 1.45858,-2.21246 7.73382,-8.56065 9.99468,-10.11087 2.49068,-1.70779 6.03259,-3.58714 7.84828,-4.16431 0.80036,-0.25443 1.50076,-0.50202 1.55644,-0.5502 0.0557,-0.0482 -0.61299,-1.13346 -1.48594,-2.41173 -2.05721,-3.01241 -3.15279,-4.96304 -4.34806,-7.74156 l -0.97026,-2.25547 -3.39536,-0.1671 c -1.86745,-0.0919 -3.72352,-0.25383 -4.12461,-0.35982 -0.95648,-0.25278 -3.02383,-2.57028 -3.38782,-3.79776 -0.1892,-0.63803 -0.25775,-4.02724 -0.20151,-9.96282 0.0952,-10.042624 0.0503,-9.785844 2.02167,-11.566874 1.24733,-1.126891 2.62516,-1.477916 6.7209,-1.712257 1.56996,-0.08983 2.95723,-0.293926 3.08283,-0.453555 0.1256,-0.159629 0.44176,-0.94386 0.70258,-1.742735 1.06276,-3.255141 3.85803,-7.178064 8.31995,-11.676316 3.9213,-3.953235 6.64702,-5.938075 11.24547,-8.188832 6.0971,-2.984284 12.034292,-4.519767 17.601222,-4.55205 6.53391,-0.03789 14.07142,1.799764 20.38005,4.968681 7.83642,3.936353 14.80862,11.026813 18.52265,18.836833 1.16386,2.447405 0.62525,2.176713 5.38598,2.706886 1.43924,0.16028 3.10612,0.507866 3.70417,0.772415 1.15697,0.51179 2.68127,2.0558 3.08945,3.12942 0.13578,0.35711 0.24686,4.813474 0.24686,9.903024 0,10.36228 -5.6e-4,10.36577 -1.96155,12.08754 -1.22846,1.0786 -2.32658,1.36876 -5.9098,1.56153 -2.5802,0.13881 -2.97656,0.22092 -2.97656,0.61658 0,1.16831 -3.07159,7.19455 -5.16919,10.14158 -0.50262,0.70617 -0.84747,1.39137 -0.76632,1.52268 0.0812,0.1313 1.12242,0.72368 2.31392,1.31638 6.57345,3.26992 12.36193,8.50786 16.19065,14.6508 1.70942,2.74265 3.75223,7.62893 4.69532,11.23089 0.78287,2.99007 0.80741,3.27037 0.96374,11.00571 0.14512,7.18061 0.20796,8.00764 0.65903,8.67299 0.68677,1.01301 0.48125,3.67871 -0.40019,5.19069 -2.58976,4.44238 -7.58782,10.74382 -10.94634,13.80091 -5.31179,4.83506 -10.94848,8.75973 -16.32191,11.36447 -5.48222,2.65748 -17.32289,6.20327 -23.42908,7.01604 -3.12935,0.41654 -8.54657,0.45345 -11.84276,0.0807 z m 13.75834,-6.96251 c 3.99327,-0.6284 9.63436,-2.09633 13.62604,-3.54577 3.47042,-1.26017 6.88752,-2.62615 7.13178,-2.85092 0.0662,-0.0609 0.10144,-8.35126 0.0784,-18.42303 -0.0271,-11.83991 0.0535,-18.61318 0.22806,-19.16355 0.66683,-2.10215 3.31601,-2.90405 4.9769,-1.5065 l 0.81405,0.68498 0.0313,16.44679 c 0.0172,9.04574 0.10651,16.77829 0.19844,17.18346 l 0.16713,0.73666 3.30729,-2.67404 c 1.81901,-1.47072 3.9439,-3.2905 4.72197,-4.04395 2.1784,-2.10947 5.99029,-7.29885 6.67137,-9.0822 0.26045,-0.68196 0.80432,-9.00251 0.61299,-9.37794 -0.044,-0.0863 -1.88501,-0.23099 -4.0912,-0.32155 -4.55471,-0.18697 -5.01209,-0.35387 -5.81482,-2.12187 -0.60978,-1.34304 -0.64265,-2.33426 -0.11146,-3.36148 0.67556,-1.30638 1.72866,-1.6646 4.34091,-1.47657 2.10231,0.15132 5.11657,-0.0833 5.45812,-0.42487 0.27361,-0.27361 -0.71956,-4.78008 -1.64423,-7.46063 -1.19214,-3.45592 -2.63385,-6.43999 -4.36979,-9.04465 -1.78084,-2.67202 -6.63893,-7.56126 -9.25461,-9.31394 -1.11405,-0.74649 -2.08725,-1.51004 -2.16267,-1.69678 -0.21731,-0.53805 -0.69728,0.31145 -0.70511,1.24798 -0.0188,2.24836 -2.2121,4.81839 -5.39853,6.32581 -1.34058,0.6342 -6.00832,1.69191 -11.80086,2.67408 -1.38244,0.2344 -5.07338,1.09123 -8.20208,1.90407 l -5.68854,1.47788 -4.10104,0.0147 c -4.43373,0.0159 -6.17321,-0.22898 -10.054172,-1.41511 -3.56958,-1.09097 -8.4642,-2.29112 -11.24479,-2.75721 -4.76119,-0.79809 -6.49028,-1.72722 -8.71029,-4.68048 -0.87142,-1.15925 -1.28632,-2.02158 -1.52227,-3.16396 -0.17944,-0.86875 -0.46674,-1.57037 -0.64305,-1.57037 -0.17528,0 -1.55044,0.81591 -3.05592,1.81314 -2.94391,1.95007 -7.01593,5.89212 -9.33305,9.03519 -1.52935,2.07449 -3.35835,5.64381 -4.23421,8.2631 -0.69687,2.08401 -1.47088,6.10422 -1.47224,7.64677 -10e-4,1.22441 0.19005,1.27766 4.62936,1.28983 2.79991,0.008 3.64545,0.10288 4.54652,0.51198 1.85072,0.84026 2.5019,2.9747 1.38575,4.5422 -0.99254,1.39388 -1.65595,1.5582 -6.29106,1.5582 h -4.22153 l 0.11859,3.24115 c 0.19115,5.22432 0.15707,5.10667 2.52483,8.71594 1.70468,2.59851 2.89128,4.00707 5.87306,6.9716 3.2687,3.2498 6.81871,6.20673 7.45164,6.20673 0.11445,0 0.12745,-7.32222 0.0289,-16.2716 -0.20195,-18.33519 -0.26391,-17.64444 1.66065,-18.51229 1.02738,-0.46329 1.19787,-0.4713 2.20612,-0.10368 0.60099,0.21912 1.33635,0.72475 1.63414,1.12361 0.53428,0.7156 0.54026,0.9429 0.45204,17.17843 -0.0492,9.04928 -0.006,17.40756 0.0966,18.57396 l 0.18603,2.12073 2.28636,0.87832 c 6.11684,2.34983 15.01865,4.83344 21.600932,6.02666 2.99068,0.54214 4.02662,0.60811 7.93751,0.50545 2.47385,-0.0649 5.68854,-0.30543 7.14375,-0.53443 z m 2.89311,-12.39607 c -2.61198,-1.23981 -3.99866,-3.01803 -4.62274,-5.92801 -0.237,-1.10511 -0.21215,-1.67804 0.13086,-3.01694 0.69831,-2.72579 2.20674,-4.26291 5.15308,-5.25114 1.47559,-0.49493 1.86308,-0.53084 2.91041,-0.26974 3.50864,0.87471 6.10321,3.87998 6.10278,7.0688 -3.8e-4,2.73237 -2.00049,5.9413 -4.50048,7.22045 -0.51084,0.26138 -1.5824,0.55117 -2.38125,0.64398 -1.2104,0.14063 -1.67578,0.0627 -2.79266,-0.4674 z m 4.02054,-5.28604 c 0.88485,-0.90908 0.97635,-1.82977 0.28425,-2.86024 -0.72986,-1.08669 -2.11454,-1.34562 -3.06786,-0.57367 -0.70961,0.57461 -1.0277,2.37436 -0.57059,3.22847 0.63556,1.18757 2.29908,1.28946 3.3542,0.20544 z m -33.117492,4.48355 c -2.60364,-1.21242 -4.35554,-4.01688 -4.35554,-6.9724 0,-3.38218 3.10509,-6.42462 6.55691,-6.42462 2.23331,0 3.91958,0.66171 5.361942,2.10407 2.09334,2.09333 2.6653,5.01398 1.48027,7.55877 -0.79408,1.70525 -1.82949,2.72746 -3.680932,3.63402 -1.88084,0.92096 -3.5337,0.95183 -5.36265,0.10016 z m 4.08102,-4.33504 c 0.30672,-0.25466 0.63196,-0.84749 0.72274,-1.31741 0.14183,-0.73412 0.0339,-0.98549 -0.7665,-1.78593 -1.05497,-1.05497 -1.80244,-1.17192 -2.57197,-0.40239 -0.58939,0.58939 -0.73495,2.56069 -0.25527,3.45698 0.35755,0.66808 2.08963,0.69749 2.871,0.0487 z m 26.600712,-17.52747 c -1.87923,-0.74573 -3.30567,-2.06098 -4.35548,-4.01596 -0.79575,-1.48189 -0.89819,-1.90123 -0.89358,-3.65813 0.004,-1.52392 0.1405,-2.24359 0.58825,-3.1015 0.89867,-1.72188 2.06532,-2.89511 3.64968,-3.67027 1.24435,-0.6088 1.6795,-0.68883 3.1177,-0.57338 5.67401,0.45545 9.34825,6.10593 6.96344,10.70882 -2.08293,4.02023 -5.59512,5.68936 -9.07001,4.31042 z m 3.83756,-5.41535 c 0.94323,-0.48776 1.11046,-0.92568 0.79281,-2.07609 -0.42856,-1.55213 -1.19592,-2.29932 -2.36139,-2.29932 -1.69762,0 -2.7986,1.86503 -2.00591,3.39794 0.71277,1.37835 2.07756,1.75156 3.57449,0.97747 z m -35.892382,4.80453 c -1.49827,-0.78454 -2.88316,-2.12723 -3.55754,-3.44913 -0.79077,-1.55003 -0.94422,-4.08189 -0.34283,-5.65661 0.94636,-2.47801 4.19797,-5.10128 6.32316,-5.10128 1.43129,0 3.67069,0.96336 4.77588,2.05453 2.456122,2.42495 3.183242,5.90673 1.753922,8.39853 -2.190562,3.8189 -5.876742,5.36457 -8.952592,3.75396 z m 4.01889,-4.67817 c 1.3364,-0.5081 1.33577,-2.474 -0.001,-3.64291 -1.26041,-1.10198 -2.96047,-0.17568 -3.21931,1.75408 -0.24874,1.8545 1.1512,2.67557 3.22048,1.88883 z m -0.003,-23.50576 c -0.13825,-0.12022 -0.78714,-0.38082 -1.44198,-0.57911 -2.99614,-0.90724 -5.05941,-2.19217 -9.65729,-6.01418 -2.94409,-2.4473 -3.0863,-2.42937 -2.5161,0.31725 0.23336,1.12409 0.50963,1.62562 1.25687,2.28171 2.03143,1.78362 3.74562,2.66296 5.98421,3.06975 1.1848,0.2153 2.98762,0.54984 4.00627,0.74342 2.27976,0.43326 2.69439,0.46498 2.36802,0.18116 z m 39.198292,-2.5811 c 2.4084,-1.26908 3.54514,-2.87359 3.54514,-5.00399 v -0.73082 l -0.8599,0.69668 c -0.47294,0.38317 -2.2128,1.72254 -3.86636,2.97637 -3.19552,2.42305 -3.33114,2.73276 -1.20013,2.74072 0.66202,0.002 1.59044,-0.26225 2.38125,-0.67896 z m -18.0184,-0.79913 c 3.49776,-0.57361 4.94012,-1.04259 8.46666,-2.75294 5.14702,-2.49626 8.3234,-4.87533 11.51555,-8.62501 3.29529,-3.87083 4.81674,-6.47314 6.79008,-11.61387 1.72473,-4.49306 2.04467,-6.32347 2.03482,-11.64167 -0.0189,-10.220064 -2.0639,-15.91826 -8.39316,-23.386813 -2.88026,-3.398726 -6.57528,-6.179331 -11.34518,-8.537579 -5.63741,-2.787144 -9.81481,-3.727331 -16.74169,-3.767969 -3.79398,-0.02226 -4.9227,0.06877 -7.21222,0.581658 -4.955722,1.110157 -8.378492,2.699369 -13.512652,6.274011 -5.8553,4.076729 -10.51159,10.140525 -12.30721,16.027448 -2.4564,8.053284 -2.49041,14.756984 -0.11597,22.863414 0.71253,2.43262 3.14656,7.20098 4.77192,9.34837 2.21949,2.93236 6.47761,7.60062 7.93339,8.69755 3.53417,2.66298 7.54438,4.52003 12.761102,5.90942 5.01634,1.33603 9.82175,1.53131 15.35456,0.62398 z m -11.00413,-4.87668 c -2.26325,-0.26461 -6.366932,-1.58319 -9.368782,-3.01035 -7.5928,-3.60982 -14.27712,-11.7957 -16.43902,-20.13187 -1.00132,-3.86104 -1.15287,-8.75969 -0.39375,-12.72747 1.24544,-6.509734 3.63241,-11.152033 7.89966,-15.363636 5.08658,-5.020252 9.56659,-7.509327 15.944562,-8.858742 7.24866,-1.53363 14.01498,-0.623138 20.92464,2.815664 7.98776,3.975358 13.73146,10.923874 15.63076,18.90953 1.11795,4.700424 1.10148,11.116234 -0.0401,15.633334 -0.70439,2.78714 -2.879,7.54585 -4.40776,9.64549 -3.71886,5.10761 -6.17351,7.26934 -10.80857,9.51878 -6.62726,3.21627 -12.49825,4.32258 -18.94163,3.56927 z M 93.781518,120.08831 c 1.35229,-1.18733 1.64709,-2.31213 0.99333,-3.79007 -0.58937,-1.33236 -1.18978,-1.75295 -2.5024,-1.75295 -1.70968,0 -3.26716,1.91948 -2.82067,3.47628 0.28822,1.00495 0.87275,1.79531 1.76084,2.38088 1.02762,0.67756 1.50605,0.61905 2.5689,-0.31414 z m -2.72164,-9.74523 c 0.88693,-0.88693 1.02721,-1.18878 1.02721,-2.21033 0,-1.79377 -0.84522,-2.5833 -2.76549,-2.5833 -1.10877,0 -1.59565,0.1278 -1.99028,0.52244 -1.68571,1.6857 -0.46269,5.29839 1.79369,5.29839 0.70158,0 1.14089,-0.23322 1.93487,-1.0272 z m 3.05963,-11.431474 c 1.2093,-0.58541 2.66441,-2.10418 3.59215,-3.74929 0.46436,-0.82342 0.8138,-1.07127 2.03217,-1.441322 1.968502,-0.597893 2.739062,-1.163071 3.309042,-2.427054 0.58218,-1.291059 0.42127,-2.082128 -0.67827,-3.334432 -0.63795,-0.726595 -1.01743,-0.930894 -1.7291,-0.930894 -1.949352,0 -3.266752,1.254547 -3.266752,3.110889 0,1.046147 -0.0426,1.11828 -0.51177,0.86717 -0.67555,-0.361541 -2.0256,-0.348405 -2.74677,0.02673 -1.00721,0.523924 -3.40491,2.677449 -3.91821,3.519193 -0.82249,1.34877 -0.61661,3.16271 0.50488,4.44842 0.54863,0.62896 2.00764,0.59073 3.41263,-0.0894 z m -24.71813,13.583164 c -0.25788,-1.95433 -0.25639,-10.0568 0.002,-12.03855 l 0.19853,-1.521354 h -1.98669 -1.98669 v 7.396244 7.39625 l 1.78594,0.0926 c 0.98227,0.0509 1.87628,0.11588 1.98669,0.14438 0.11041,0.0285 0.11041,-0.63279 0,-1.46953 z m 85.921122,-6.41615 v -7.408344 h -1.88076 c -1.87157,0 -1.87996,0.003 -1.71556,0.65823 0.0909,0.36203 0.17017,3.695784 0.17625,7.408344 l 0.0111,6.7501 h 1.7045 1.70451 z"
       id="path1"
       sodipodi:nodetypes="ssssssssssssssscscscssssssssssssssssscsssssssssscssscscsscssssssssssssssssscsssssscssccssscsssscssscccssccccssssssscsssssssssssscscssccssssssssssssssssssssccsccsssssscssscsscssssscssssssssssssssssssssssssssssssssscssssssssscsssssccccccccsccccscccccc" /></g></svg>
