<?xml version="1.0" standalone="no"?>
<!DOCTYPE svg PUBLIC "-//W3C//DTD SVG 20010904//EN"
 "http://www.w3.org/TR/2001/REC-SVG-20010904/DTD/svg10.dtd">
<svg version="1.0" xmlns="http://www.w3.org/2000/svg"
 width="280.000000pt" height="280.000000pt" viewBox="0 0 280.000000 280.000000"
 preserveAspectRatio="xMidYMid meet">

<g transform="translate(0.000000,280.000000) scale(0.100000,-0.100000)"
fill="#fff" stroke="none">
<path d="M1090 2790 c-339 -22 -583 -91 -747 -213 -253 -188 -360 -605 -339
-1321 24 -791 202 -1084 727 -1200 206 -45 281 -51 674 -50 301 0 392 3 490
17 322 48 480 113 625 257 143 143 209 304 257 625 22 153 25 802 5 955 -35
249 -92 433 -174 555 -139 208 -351 312 -738 361 -140 17 -595 26 -780 14z
m465 -450 c34 -12 84 -40 117 -66 81 -64 101 -101 310 -584 27 -63 67 -153 88
-200 199 -443 202 -452 202 -556 -2 -304 -261 -478 -577 -388 -181 51 -211 57
-300 56 -75 0 -111 -7 -215 -38 -112 -34 -137 -38 -235 -39 -107 0 -112 1
-187 38 -139 67 -217 186 -226 343 -6 103 6 144 109 378 137 310 175 397 234
531 31 72 70 162 87 200 53 121 95 190 148 239 116 108 280 140 445 86z"/>
<path d="M1365 1845 c-20 -44 -40 -89 -45 -100 -5 -11 -27 -60 -49 -110 -21
-49 -76 -173 -121 -275 -45 -102 -98 -221 -117 -265 -19 -44 -41 -94 -49 -112
l-14 -32 45 20 c192 85 520 91 731 15 38 -14 70 -23 72 -22 2 2 -12 39 -32 82
-19 44 -59 135 -89 204 -30 69 -86 197 -125 285 -38 88 -81 187 -95 220 -14
33 -37 85 -51 115 l-25 54 -36 -79z"/>
</g>
</svg>
