<?xml version="1.0" standalone="no"?>
<!DOCTYPE svg PUBLIC "-//W3C//DTD SVG 20010904//EN"
 "http://www.w3.org/TR/2001/REC-SVG-20010904/DTD/svg10.dtd">
<svg version="1.0" xmlns="http://www.w3.org/2000/svg"
 width="93.000000pt" height="130.000000pt" viewBox="0 0 93.000000 130.000000"
 preserveAspectRatio="xMidYMid meet">

<g transform="translate(0.000000,130.000000) scale(0.100000,-0.100000)"
fill="#fff" stroke="none">
<path d="M293 1127 c-109 -42 -175 -137 -176 -250 0 -104 52 -191 141 -236 90
-46 122 -19 122 101 0 66 3 81 24 104 21 26 30 28 114 32 72 3 95 8 108 23 38
42 -19 147 -110 204 -41 25 -61 30 -120 32 -39 1 -85 -3 -103 -10z"/>
<path d="M684 803 c-20 -15 -34 -52 -34 -93 0 -60 -33 -90 -100 -90 -49 0 -90
-23 -90 -50 0 -22 30 -68 64 -98 129 -113 325 -21 326 151 0 58 -19 103 -63
145 -33 32 -83 49 -103 35z"/>
<path d="M246 500 c-83 -77 -89 -196 -12 -279 40 -43 83 -61 147 -61 62 0 109
21 149 66 65 74 45 124 -55 132 -68 6 -95 33 -95 96 0 93 -60 114 -134 46z"/>
</g>
</svg>
